<svg id="visual" viewBox="0 0 3500 320" width="3500" height="320" xmlns="http://www.w3.org/2000/svg" xmlns:xlink="http://www.w3.org/1999/xlink" version="1.1"><path d="M0 231L194 214L389 212L583 288L778 285L972 283L1167 255L1361 268L1556 253L1750 214L1944 255L2139 225L2333 204L2528 281L2722 253L2917 215L3111 214L3306 247L3500 255L3500 0L3306 0L3111 0L2917 0L2722 0L2528 0L2333 0L2139 0L1944 0L1750 0L1556 0L1361 0L1167 0L972 0L778 0L583 0L389 0L194 0L0 0Z" fill="#f4f7fe"></path><path d="M0 251L194 253L389 232L583 236L778 156L972 176L1167 251L1361 253L1556 160L1750 174L1944 186L2139 157L2333 199L2528 234L2722 208L2917 167L3111 183L3306 227L3500 187L3500 0L3306 0L3111 0L2917 0L2722 0L2528 0L2333 0L2139 0L1944 0L1750 0L1556 0L1361 0L1167 0L972 0L778 0L583 0L389 0L194 0L0 0Z" fill="#b6dbef"></path><path d="M0 116L194 161L389 110L583 200L778 149L972 175L1167 112L1361 124L1556 181L1750 170L1944 136L2139 181L2333 149L2528 162L2722 173L2917 153L3111 107L3306 148L3500 127L3500 0L3306 0L3111 0L2917 0L2722 0L2528 0L2333 0L2139 0L1944 0L1750 0L1556 0L1361 0L1167 0L972 0L778 0L583 0L389 0L194 0L0 0Z" fill="#68c3cc"></path><path d="M0 111L194 103L389 129L583 91L778 144L972 115L1167 72L1361 134L1556 65L1750 95L1944 140L2139 96L2333 76L2528 101L2722 104L2917 142L3111 87L3306 129L3500 96L3500 0L3306 0L3111 0L2917 0L2722 0L2528 0L2333 0L2139 0L1944 0L1750 0L1556 0L1361 0L1167 0L972 0L778 0L583 0L389 0L194 0L0 0Z" fill="#2aa88e"></path><path d="M0 72L194 13L389 55L583 59L778 15L972 86L1167 48L1361 10L1556 49L1750 80L1944 83L2139 87L2333 90L2528 12L2722 63L2917 53L3111 42L3306 74L3500 55L3500 0L3306 0L3111 0L2917 0L2722 0L2528 0L2333 0L2139 0L1944 0L1750 0L1556 0L1361 0L1167 0L972 0L778 0L583 0L389 0L194 0L0 0Z" fill="#37883e"></path></svg>