<svg id="visual" viewBox="0 0 3500 300" width="3500" height="300" xmlns="http://www.w3.org/2000/svg" xmlns:xlink="http://www.w3.org/1999/xlink" version="1.1"><path d="M0 283L233 258L467 197L700 257L933 255L1167 211L1400 264L1633 262L1867 258L2100 261L2333 278L2567 218L2800 282L3033 225L3267 198L3500 229L3500 0L3267 0L3033 0L2800 0L2567 0L2333 0L2100 0L1867 0L1633 0L1400 0L1167 0L933 0L700 0L467 0L233 0L0 0Z" fill="#f4f7fe"></path><path d="M0 166L233 221L467 203L700 200L933 211L1167 160L1400 172L1633 153L1867 197L2100 153L2333 164L2567 151L2800 181L3033 211L3267 177L3500 153L3500 0L3267 0L3033 0L2800 0L2567 0L2333 0L2100 0L1867 0L1633 0L1400 0L1167 0L933 0L700 0L467 0L233 0L0 0Z" fill="#bdc7df"></path><path d="M0 134L233 113L467 168L700 159L933 114L1167 145L1400 126L1633 184L1867 158L2100 170L2333 148L2567 146L2800 162L3033 125L3267 146L3500 126L3500 0L3267 0L3033 0L2800 0L2567 0L2333 0L2100 0L1867 0L1633 0L1400 0L1167 0L933 0L700 0L467 0L233 0L0 0Z" fill="#8898c0"></path><path d="M0 138L233 115L467 129L700 80L933 116L1167 89L1400 65L1633 117L1867 100L2100 106L2333 66L2567 73L2800 116L3033 91L3267 77L3500 114L3500 0L3267 0L3033 0L2800 0L2567 0L2333 0L2100 0L1867 0L1633 0L1400 0L1167 0L933 0L700 0L467 0L233 0L0 0Z" fill="#546ba1"></path><path d="M0 44L233 58L467 83L700 89L933 20L1167 63L1400 77L1633 53L1867 64L2100 26L2333 68L2567 57L2800 38L3033 61L3267 78L3500 54L3500 0L3267 0L3033 0L2800 0L2567 0L2333 0L2100 0L1867 0L1633 0L1400 0L1167 0L933 0L700 0L467 0L233 0L0 0Z" fill="#144283"></path></svg>