<svg id="visual" viewBox="0 0 3500 320" width="3500" height="320" xmlns="http://www.w3.org/2000/svg" xmlns:xlink="http://www.w3.org/1999/xlink" version="1.1"><path d="M0 66L194 65L389 27L583 48L778 93L972 101L1167 69L1361 66L1556 85L1750 17L1944 30L2139 101L2333 66L2528 103L2722 12L2917 84L3111 38L3306 44L3500 18L3500 321L3306 321L3111 321L2917 321L2722 321L2528 321L2333 321L2139 321L1944 321L1750 321L1556 321L1361 321L1167 321L972 321L778 321L583 321L389 321L194 321L0 321Z" fill="#ffffff"></path><path d="M0 91L194 139L389 71L583 128L778 140L972 73L1167 133L1361 70L1556 98L1750 147L1944 91L2139 94L2333 122L2528 80L2722 125L2917 108L3111 88L3306 113L3500 111L3500 321L3306 321L3111 321L2917 321L2722 321L2528 321L2333 321L2139 321L1944 321L1750 321L1556 321L1361 321L1167 321L972 321L778 321L583 321L389 321L194 321L0 321Z" fill="#cee1cc"></path><path d="M0 122L194 123L389 155L583 191L778 180L972 143L1167 133L1361 157L1556 161L1750 144L1944 182L2139 125L2333 150L2528 167L2722 207L2917 148L3111 137L3306 176L3500 210L3500 321L3306 321L3111 321L2917 321L2722 321L2528 321L2333 321L2139 321L1944 321L1750 321L1556 321L1361 321L1167 321L972 321L778 321L583 321L389 321L194 321L0 321Z" fill="#9dc39b"></path><path d="M0 249L194 193L389 233L583 186L778 188L972 199L1167 240L1361 237L1556 182L1750 185L1944 240L2139 171L2333 233L2528 172L2722 239L2917 239L3111 237L3306 227L3500 189L3500 321L3306 321L3111 321L2917 321L2722 321L2528 321L2333 321L2139 321L1944 321L1750 321L1556 321L1361 321L1167 321L972 321L778 321L583 321L389 321L194 321L0 321Z" fill="#6ca56c"></path><path d="M0 284L194 278L389 281L583 279L778 234L972 254L1167 276L1361 232L1556 308L1750 236L1944 229L2139 238L2333 265L2528 298L2722 235L2917 307L3111 307L3306 234L3500 290L3500 321L3306 321L3111 321L2917 321L2722 321L2528 321L2333 321L2139 321L1944 321L1750 321L1556 321L1361 321L1167 321L972 321L778 321L583 321L389 321L194 321L0 321Z" fill="#37883e"></path></svg>