<svg id="visual" viewBox="0 0 3500 300" width="3500" height="300" xmlns="http://www.w3.org/2000/svg" xmlns:xlink="http://www.w3.org/1999/xlink" version="1.1"><path d="M0 77L269 89L538 24L808 38L1077 85L1346 73L1615 95L1885 53L2154 76L2423 39L2692 53L2962 62L3231 46L3500 35L3500 301L3231 301L2962 301L2692 301L2423 301L2154 301L1885 301L1615 301L1346 301L1077 301L808 301L538 301L269 301L0 301Z" fill="#144283"></path><path d="M0 100L269 132L538 109L808 110L1077 75L1346 101L1615 100L1885 98L2154 87L2423 127L2692 90L2962 93L3231 84L3500 81L3500 301L3231 301L2962 301L2692 301L2423 301L2154 301L1885 301L1615 301L1346 301L1077 301L808 301L538 301L269 301L0 301Z" fill="#193771"></path><path d="M0 146L269 122L538 163L808 173L1077 171L1346 132L1615 181L1885 170L2154 135L2423 177L2692 151L2962 151L3231 122L3500 147L3500 301L3231 301L2962 301L2692 301L2423 301L2154 301L1885 301L1615 301L1346 301L1077 301L808 301L538 301L269 301L0 301Z" fill="#1a2c5f"></path><path d="M0 214L269 233L538 231L808 190L1077 203L1346 190L1615 190L1885 229L2154 210L2423 180L2692 197L2962 204L3231 208L3500 202L3500 301L3231 301L2962 301L2692 301L2423 301L2154 301L1885 301L1615 301L1346 301L1077 301L808 301L538 301L269 301L0 301Z" fill="#18224e"></path><path d="M0 233L269 267L538 223L808 260L1077 272L1346 232L1615 242L1885 252L2154 241L2423 265L2692 242L2962 249L3231 264L3500 235L3500 301L3231 301L2962 301L2692 301L2423 301L2154 301L1885 301L1615 301L1346 301L1077 301L808 301L538 301L269 301L0 301Z" fill="#14183e"></path></svg>