<?xml version="1.0" encoding="UTF-8"?>
<svg width="210px" height="64px" viewBox="0 0 210 64" version="1.1" xmlns="http://www.w3.org/2000/svg" xmlns:xlink="http://www.w3.org/1999/xlink">
    <title>DE029AAC-1A16-44DA-9935-300D7E1B89FD</title>
    <defs>
        <polygon id="path-1" points="0 0.388162062 3.2307192 0.388162062 3.2307192 3.16408413 0 3.16408413"></polygon>
        <polygon id="path-3" points="0.26597371 0.367705563 3.20905268 0.367705563 3.20905268 3.19632791 0.26597371 3.19632791"></polygon>
        <polygon id="path-5" points="0.498352075 0.367705563 3.44206492 0.367705563 3.44206492 3.19632791 0.498352075 3.19632791"></polygon>
        <polygon id="path-7" points="0.0641480921 0.510517494 11.8692987 0.510517494 11.8692987 11.7245143 0.0641480921 11.7245143"></polygon>
    </defs>
    <g id="Version-3-" stroke="none" stroke-width="1" fill="none" fill-rule="evenodd">
        <g id="ATC_Website_Homepage-v4" transform="translate(-616.000000, -18.000000)">
            <g id="Logo" transform="translate(616.000000, 18.000000)">
                <g id="Group-221" transform="translate(0.000000, 0.044634)">
                    <path d="M6.64027834,10.5141289 C6.64027834,10.5141289 16.8139629,5.48502655 25.9886614,5.68639521 C35.1639937,5.88776387 45.3370444,10.4137642 45.3370444,10.4137642 L44.5389965,16.6498 L44.0401373,25.0983339 L43.940619,29.2222362 L43.3416077,32.8430364 L41.7467796,37.3690368 L39.8514951,40.6881037 L37.6576557,43.9068059 L34.6651345,47.1255081 L31.8729177,49.3386455 L28.1825008,52.0536064 L25.8885092,53.4625478 L19.2068389,48.8355435 L14.4191853,44.1081745 L11.4279319,39.9842722 L9.33297691,35.5586366 L8.13622199,30.7309029 L7.73751497,24.1931338 L7.2386558,17.555 L6.64027834,10.5141289 Z" id="Fill-1" fill="#FEFEFE"></path>
                    <path d="M44.8144783,11.3203706 C44.3745695,14.1682988 44.1343311,18.0543943 43.7685855,23.9381947 C43.6728705,25.4775462 43.5695489,27.1313263 43.4541838,28.9251055 C42.8234787,38.6662345 36.0213723,45.7282014 30.4274304,49.937126 C29.1748946,50.8787642 27.8443921,51.783325 26.4714201,52.6277948 L25.9567141,52.943592 L25.4426419,52.6277948 C24.0696699,51.783325 22.7391675,50.8781249 21.4872655,49.937126 C15.8933237,45.7282014 9.09185108,38.667513 8.45987827,28.9251055 C8.34958412,27.2054811 8.24943196,25.6143491 8.15942179,24.1408419 L8.14547656,23.9286057 C7.78099876,18.0575906 7.54012648,14.1785271 7.10021763,11.3318774 L6.98865573,10.6037539 L7.64534963,10.2822033 C13.236756,7.54358958 19.5735986,6.09565304 25.9700255,6.09565304 C32.3569442,6.09565304 38.6842787,7.53975399 44.2699802,10.2706966 L44.927308,10.5916079 L44.8144783,11.3203706 Z M44.7010148,9.37380694 C38.9828336,6.57829855 32.5040031,5.09967726 25.9700255,5.09967726 C19.4240042,5.09967726 12.938835,6.58213414 7.21431502,9.38595299 L5.90029333,10.0296934 L6.12468488,11.4853012 C6.55762112,14.2859237 6.7959579,18.1445307 7.15980182,23.9899752 L7.17247931,24.2034899 C7.2643911,25.6776364 7.36327551,27.2700469 7.47483741,28.9903106 C8.1296297,39.1111633 15.1358437,46.401348 20.8977623,50.7349294 C22.1718499,51.694467 23.5283412,52.6175665 24.9279359,53.4786573 L25.9567141,54.1108909 L26.9848584,53.4786573 C28.3844532,52.6188451 29.7428461,51.694467 31.0175675,50.7349294 C36.7788522,46.401348 43.7850662,39.1105241 44.4398585,28.9903106 C44.5558576,27.1952529 44.6585452,25.5408335 44.7542602,23.9957286 C45.1181042,18.1426129 45.3577087,14.2756954 45.7906449,11.4731551 L46.0163042,10.0175474 L44.7010148,9.37380694 Z" id="Fill-3" fill="#004181"></path>
                    <path d="M8.21754808,12.1753244 C8.57822263,14.9644402 8.80831905,18.6606738 9.13096113,23.8662134 L9.1392015,23.9870346 C9.23238104,25.4861124 9.33316707,27.1060114 9.44536285,28.8601561 C9.68623513,32.5653395 10.8665093,35.8722603 12.5386701,38.7713297 L25.0652965,27.4294798 L8.21754808,12.1753244 Z" id="Fill-5" fill="#FEFEFE"></path>
                    <path d="M13.1882646,39.8401179 C15.6971395,43.7607337 19.0661821,46.8733178 22.0777195,49.1382358 C23.3049004,50.0613353 24.6087801,50.9479966 25.9576649,51.7771241 C27.3052819,50.9486359 28.6078939,50.0619745 29.8363425,49.1382358 C32.8542187,46.8675644 36.2327694,43.7460306 38.7429121,39.813908 L25.9804844,28.257904 L13.1882646,39.8401179 Z" id="Fill-7" fill="#004181"></path>
                    <path d="M39.3912389,38.7441609 C41.0557931,35.8514842 42.2290947,32.5541523 42.4680653,28.8604758 C42.5846982,27.0673358 42.686752,25.414195 42.7818332,23.8818754 C43.1032075,18.6987101 43.3333039,15.0082299 43.6908091,12.2223105 L26.8950384,27.4297994 L39.3912389,38.7441609 Z" id="Fill-9" fill="#FEFEFE"></path>
                    <path d="M25.9697085,7.0920763 C19.9314207,7.0920763 13.9660285,8.41215973 8.64845591,10.9084918 L23.6636734,24.5050315 L23.8455953,24.669962 L25.9804844,26.6011834 L28.9527216,23.9098752 L29.3248059,23.5729823 L43.3049064,10.9155237 C37.9828967,8.41407752 32.0117996,7.0920763 25.9697085,7.0920763" id="Fill-11" fill="#004181"></path>
                    <path d="M42.781643,23.882195 C42.6871957,25.4145146 42.5845081,27.0676554 42.4678752,28.8607954 C42.2289045,32.5538327 41.055603,35.8518038 39.3910487,38.7444806 L26.8954821,27.4294798 L43.6912528,12.2219908 C43.3331138,15.0085495 43.1036512,18.6990297 42.781643,23.882195 L42.781643,23.882195 Z M29.8360256,49.1382997 C28.6082108,50.0620385 27.304965,50.9486998 25.9567141,51.7765487 C24.6084632,50.9480606 23.3052174,50.0607599 22.0780365,49.1382997 C19.0664991,46.8733817 15.6974565,43.7601583 13.1885815,39.8401818 L25.9801675,28.257968 L38.743229,39.8139719 C36.2324524,43.7460945 32.8545356,46.8676283 29.8360256,49.1382997 L29.8360256,49.1382997 Z M9.13875778,23.9876739 L9.13115129,23.8662134 C8.80850921,18.6606738 8.57841279,14.9644402 8.21710437,12.1753244 L25.0648528,27.4294798 L12.5394941,38.7713297 C10.8666995,35.8722603 9.68642529,32.5653395 9.44555301,28.8601561 C9.33272336,27.1060114 9.23193733,25.4861124 9.13875778,23.9876739 L9.13875778,23.9876739 Z M25.9693916,7.09188452 C32.0121165,7.09188452 37.9832136,8.41388575 43.3045894,10.915332 L29.3244889,23.5734298 L28.9530385,23.9096835 L25.9801675,26.6016308 L23.8465461,24.6697702 L23.6639903,24.5048397 L8.64813898,10.9089393 C13.9663454,8.41196795 19.9311038,7.09188452 25.9693916,7.09188452 L25.9693916,7.09188452 Z M44.2699802,10.270313 C38.6849126,7.53937043 32.3569442,6.09590874 25.9693916,6.09590874 C19.5729647,6.09590874 13.236756,7.54384529 7.64534963,10.282459 L6.98865573,10.6040096 L7.1008515,11.3314939 C7.54012648,14.1787828 7.78099876,18.0572071 8.14547656,23.9282222 L8.15878792,24.1410976 C8.24943196,25.6146048 8.34958412,27.2057368 8.45987827,28.9253612 C9.09185108,38.6671294 15.8933237,45.7284571 21.4878994,49.9367424 C22.7391675,50.8783806 24.0696699,51.7835807 25.4432758,52.6274112 L25.9567141,52.9438477 L26.4714201,52.6274112 C27.8437583,51.7835807 29.1748946,50.8783806 30.4267966,49.9367424 C36.0220061,45.7278178 42.8234787,38.6664902 43.4541838,28.9253612 C43.5701828,27.131582 43.6728705,25.4778019 43.7679516,23.9378112 C44.1336972,18.05465 44.3745695,14.1685545 44.8144783,11.3199871 L44.927308,10.5918636 L44.2699802,10.270313 Z" id="Fill-13" fill="#00944D"></path>
                    <path d="M9.18072027,6.39693891 C8.58297669,6.62132113 8.07777877,6.55931236 7.91297142,6.52926688 L7.83246936,5.89575469 L8.02706881,5.82287841 C8.28252021,6.16168917 8.69517246,6.14378973 9.04950827,6.01146176 C9.36327611,5.89319763 9.62886949,5.62790241 9.50589785,5.29612357 C9.40447794,5.01996084 9.15473142,4.95923061 8.55445234,5.06982356 C8.00298159,5.17402385 7.42362036,5.11137582 7.21317405,4.54306872 C7.00589711,3.980515 7.37417815,3.44161412 8.03657693,3.19230054 C8.57537019,2.99029262 9.00957418,3.01586324 9.17057828,3.03568047 L9.24537546,3.63722939 L9.05584701,3.70818787 C8.80039562,3.43202513 8.45493405,3.46462768 8.18173417,3.56754944 C7.84261136,3.69476329 7.62646018,3.95366585 7.73168333,4.24005683 C7.82232737,4.48617408 8.0644674,4.52708708 8.52339249,4.44653961 C9.2618562,4.31229384 9.8171302,4.3557639 10.0465927,4.97840858 C10.2785908,5.60680665 9.84311905,6.14826459 9.18072027,6.39693891" id="Fill-15" fill="#004181"></path>
                    <path d="M12.1526405,5.34100002 L11.2240145,5.63058733 L11.064912,5.3486712 C11.2531727,5.29049804 11.2785277,5.20931131 11.2252822,5.0347918 L10.5920417,2.96676764 C10.5368946,2.78777328 10.4722394,2.74046763 10.2846126,2.79800153 L10.2579899,2.47645094 L11.1872498,2.18686363 L11.3501555,2.46686196 C11.1625287,2.52567439 11.1359059,2.60110773 11.1904191,2.78010209 L11.8236597,4.84812625 C11.8769051,5.02328502 11.943462,5.07506553 12.1310888,5.01689237 L12.1526405,5.34100002 Z" id="Fill-17" fill="#004181"></path>
                    <path d="M15.853136,2.97373564 C15.6521979,3.02295909 15.6205041,3.09647463 15.6610721,3.26843707 L15.747279,3.62834359 C15.7884809,3.80030604 15.8322182,3.84441536 15.9456817,3.81692694 L15.9507527,4.13592047 C15.535565,4.27528036 15.4892921,4.51244789 14.7343477,4.69591712 C13.808891,4.9209386 12.9018167,4.62304084 12.6248136,3.4666094 C12.3706299,2.40351074 12.9366798,1.6370313 13.9439063,1.39219259 C14.5796823,1.23749031 15.0918529,1.38899626 15.2503215,1.43310558 L15.2484198,2.08963134 L15.0569898,2.13629772 C14.8642919,1.78598018 14.4529074,1.737396 14.086528,1.82625392 C13.3677144,2.00077342 13.0894435,2.57035905 13.2669284,3.31574272 C13.4437793,4.05601227 13.9261578,4.42934337 14.6551134,4.2522668 C14.8776033,4.19792923 15.0899512,4.08030436 15.2256004,3.95948317 L15.0937545,3.40651844 C15.0519188,3.23455599 14.9955039,3.18213622 14.7837899,3.23391673 L14.6963152,3.25501249 L14.6918781,2.92003733 L15.797989,2.65090652 L15.9418785,2.95263987 L15.853136,2.97373564 Z" id="Fill-19" fill="#004181"></path>
                    <path d="M19.5071686,0.98069733 L19.9236241,3.70460798 L19.4875185,3.77237013 L17.4863769,1.83795248 C17.3862247,1.7446197 17.2569144,1.56946093 17.2569144,1.56946093 C17.2569144,1.56946093 17.3095259,1.77274739 17.3266405,1.8839796 L17.5700483,3.4738331 C17.5973049,3.654106 17.6499165,3.71611476 17.8445159,3.68606928 L17.824232,4.00953766 L16.9678676,4.1425049 L16.8461637,3.84141081 C17.0401293,3.81136533 17.0825989,3.73401419 17.0547084,3.55438057 L16.7276292,1.41348013 C16.6991049,1.22745385 16.6369852,1.17247701 16.4423857,1.20252249 L16.4683746,0.878414837 L17.192893,0.765904095 L19.0545822,2.55968332 C19.1623409,2.6677192 19.2853125,2.83840311 19.2853125,2.83840311 C19.2853125,2.83840311 19.2327009,2.63447739 19.2136847,2.50726354 L18.9918287,1.06060553 C18.9639382,0.875218509 18.9068895,0.818963138 18.71229,0.849647886 L18.7382789,0.525540235 L19.5895722,0.39321226 L19.7106423,0.694306349 C19.5160428,0.724351832 19.4786442,0.795310311 19.5071686,0.98069733" id="Fill-21" fill="#004181"></path>
                    <path d="M23.7121647,0.622005412 L23.8249944,2.22080863 C23.8763382,2.94253948 23.3673371,3.43605251 22.4982952,3.49806127 C21.6026307,3.56262709 21.0296082,3.14774373 20.9782643,2.42537362 L20.8654347,0.827209664 C20.8514895,0.639904848 20.7995118,0.579174618 20.6036446,0.593238461 L20.6556223,0.272327138 L21.6406631,0.201368659 L21.7382798,0.511412466 C21.5360738,0.526115574 21.4986752,0.593238461 21.5113527,0.780543276 L21.6248163,2.38446062 C21.6539745,2.78528014 21.9449228,3.06016434 22.4805467,3.02116914 C23.0053948,2.98345247 23.2709881,2.66893381 23.2424638,2.26811429 L23.1283664,0.66419694 C23.1156889,0.476892125 23.0637112,0.416161894 22.8665763,0.430225737 L22.913483,0.10995368 L23.8408413,0.042830794 L23.932753,0.353513867 C23.736252,0.36757771 23.6988534,0.434700596 23.7121647,0.622005412" id="Fill-23" fill="#004181"></path>
                    <path d="M28.6989816,3.36918533 L27.7526071,3.35256442 L27.6841487,3.03484943 C27.8857208,3.03804575 27.935163,2.96964434 27.9383323,2.78745365 L27.9655889,1.22764562 C27.9681244,1.07741821 27.9928455,0.863264243 27.9928455,0.863264243 C27.9928455,0.863264243 27.899666,1.06015804 27.7957106,1.21933517 L26.894975,2.57010335 L26.6553705,2.56626775 L25.8338692,1.22189223 C25.7406897,1.0646329 25.6538489,0.854314525 25.6538489,0.854314525 C25.6538489,0.854314525 25.6722313,1.07933601 25.6690619,1.22956342 L25.6424392,2.74654065 C25.6392698,2.92873134 25.6855426,2.99905055 25.8826776,3.00288615 L25.8021755,3.31740481 L24.9147513,3.30206244 L24.845659,2.98434745 C25.0427939,2.98754377 25.0973071,2.91914236 25.1004765,2.73695167 L25.1378751,0.571119872 C25.1416784,0.383815056 25.0897007,0.318609966 24.8925657,0.314774373 L24.9724339,0.000255706233 L25.7115315,0.0130410179 L26.8227133,1.84517618 L28.0074246,0.0539540152 L28.7566642,0.0673785924 L28.8257565,0.385093587 C28.6286216,0.381257993 28.5747423,0.444545286 28.5715729,0.632489367 L28.5335404,2.7976819 C28.530371,2.97987259 28.5823488,3.05083107 28.7788498,3.05402739 L28.6989816,3.36918533 Z" id="Fill-25" fill="#004181"></path>
                    <path d="M33.595408,1.33651255 C33.6118888,1.07952779 33.5573756,1.00729078 33.1783187,0.956788798 L32.3612545,0.848113648 L32.2357474,1.80509423 L33.0375986,1.91121231 C33.2328319,1.9374222 33.3069952,1.90354113 33.3304485,1.72326823 L33.5789273,1.83194338 L33.4851139,2.54919936 L33.2176189,2.58435897 C33.2410722,2.40344681 33.1783187,2.35230556 32.9837192,2.32609568 L32.1825019,2.21997759 L32.0620658,3.14499489 C32.0379786,3.32590705 32.0766449,3.40070112 32.2769492,3.42755027 L32.1615841,3.73120143 L31.1923901,3.60270904 L31.1587947,3.27924066 C31.3546619,3.30545055 31.4161478,3.24280252 31.440235,3.06252963 L31.7197736,0.914597269 C31.7444947,0.728570985 31.7001235,0.657612505 31.5048902,0.632041882 L31.6196215,0.32839073 L33.94911,0.637156006 L33.8616353,1.30710634 L33.595408,1.33651255 Z" id="Fill-27" fill="#004181"></path>
                    <path d="M35.3094679,4.246002 L34.3535853,4.06636837 L34.3434433,3.74226072 C34.5361411,3.77869886 34.5963592,3.71924716 34.6293206,3.5402528 L35.0229566,1.41149841 C35.0571859,1.22738992 35.0216889,1.15515291 34.8283572,1.11871477 L34.9538643,0.820817008 L35.909747,1.00045064 L35.9255938,1.32519755 C35.7322621,1.28875941 35.6739457,1.34309699 35.6397165,1.52720548 L35.2454466,3.65595987 C35.2124851,3.83495423 35.2467143,3.91230537 35.440046,3.9487435 L35.3094679,4.246002 Z" id="Fill-29" fill="#004181"></path>
                    <path d="M37.7694712,1.84127666 L37.1767986,4.21167344 C37.2902621,4.24044039 37.6407946,4.32929831 37.8011649,4.3702113 C38.5117381,4.5504842 38.9396033,4.20080592 39.1278641,3.4471118 C39.3154909,2.69341768 39.1044107,2.18072668 38.3925697,1.99981452 C38.2030413,1.95123034 37.7694712,1.84127666 37.7694712,1.84127666 M37.7067176,4.78829099 C37.6655157,4.77806274 37.098832,4.63358872 37.098832,4.63358872 L36.2944454,4.42902374 L36.2995164,4.10427682 C36.4953836,4.15413954 36.5581371,4.09852343 36.6025083,3.92144686 L37.1273564,1.82145942 C37.1736292,1.639908 37.1425693,1.56575319 36.9460683,1.51589048 L37.0956626,1.2275817 L37.785318,1.40337973 C37.785318,1.40337973 38.466733,1.57598144 38.507301,1.58684896 C39.6153135,1.86812581 40.0070479,2.55917191 39.7458916,3.60437113 C39.4847354,4.6489311 38.8147301,5.07020712 37.7067176,4.78829099" id="Fill-31" fill="#004181"></path>
                    <path d="M42.2498858,6.16565262 L39.9330747,5.39341979 L39.9609652,5.06995141 C40.1479582,5.13196017 40.219586,5.08273672 40.2766347,4.90949575 L40.9504432,2.85361763 C41.0087596,2.67526254 40.9783337,2.59727214 40.7913407,2.53526337 L40.9605852,2.25846138 L43.1461842,2.98658488 L42.9357379,3.62776825 L42.6682429,3.60667249 C42.733532,3.35735891 42.692964,3.27617218 42.3297539,3.15471172 L41.592558,2.90923374 L41.2927354,3.82530132 L42.0292975,4.0707793 C42.2213614,4.13470586 42.2999619,4.11616716 42.3570105,3.94292619 L42.5756972,4.0950714 L42.3506718,4.7822819 L42.0863462,4.76757879 C42.1433949,4.59433782 42.0907833,4.53168979 41.8993532,4.46776323 L41.1621573,4.22228525 L40.8268377,5.24574944 L41.8112447,5.57369269 C42.1040947,5.67086106 42.1814273,5.60629523 42.3031312,5.3876664 L42.5357631,5.53277969 L42.2498858,6.16565262 Z" id="Fill-33" fill="#004181"></path>
                    <path d="M43.9930404,6.85548411 L43.0885016,6.49493832 L43.1392116,6.17530553 C43.3224013,6.2481818 43.3921275,6.20151542 43.4586843,6.03147077 L44.2472241,4.01778419 C44.3156825,3.84326468 44.2947647,3.76591355 44.1122088,3.69303727 L44.2915953,3.42454573 L45.1955002,3.78509151 L45.1498613,4.1066421 C44.9673054,4.03376583 44.8994809,4.07595735 44.8310224,4.24983759 L44.0424827,6.26416344 C43.975292,6.43356882 43.9949421,6.51603408 44.1774979,6.58891036 L43.9930404,6.85548411 Z" id="Fill-35" fill="#004181"></path>
                    <path d="M2.84134212,29.8144518 L2.76464332,29.8611182 L2.71013012,29.7888812 C1.30863376,27.9267005 2.19415633,26.5465261 3.18553594,25.7173987 L3.28949134,25.6310978 L3.34273679,25.7551154 C4.1952979,27.7163822 4.02098243,29.1195701 2.84134212,29.8144518" id="Fill-37" fill="#00944D"></path>
                    <path d="M19.048497,55.2333774 L19.1302668,55.2704548 L19.1765397,55.1937429 C20.3885076,53.2005128 19.3711391,51.9162283 18.3030607,51.1893833 L18.1914988,51.11395 L18.1509308,51.2424424 C17.4948708,53.2797818 17.8054693,54.6586776 19.048497,55.2333774" id="Fill-39" fill="#00944D"></path>
                    <path d="M18.7940598,55.5298688 L18.8422343,55.6053021 L18.7744097,55.6641145 C16.9944903,57.1625531 15.5872891,56.3340649 14.7188811,55.3745272 L14.628871,55.2748018 L14.7493071,55.2153501 C16.6521981,54.2641229 18.0498913,54.3734373 18.7940598,55.5298688" id="Fill-41" fill="#00944D"></path>
                    <path d="M21.3568142,56.7304095 L21.4404856,56.7617335 L21.4823213,56.6818253 C22.5554707,54.6093263 21.4506276,53.3985573 20.3369102,52.7484242 L20.2202773,52.6813013 L20.1879497,52.8117115 C19.6732437,54.8899639 20.0770217,56.2432892 21.3568142,56.7304095" id="Fill-43" fill="#00944D"></path>
                    <path d="M21.1234216,57.0440971 L21.176667,57.1156949 L21.1126457,57.1789822 C19.4392172,58.7982419 17.9794044,58.0694791 17.0469751,57.1719503 L16.9506262,57.0792568 L17.0672591,57.0121339 C18.8997901,55.9304965 20.3019203,55.9420033 21.1234216,57.0440971" id="Fill-45" fill="#00944D"></path>
                    <path d="M23.7443656,58.1341089 L23.8299386,58.1603188 L23.8660695,58.0778535 C24.8137117,55.9433457 23.6391424,54.8016174 22.4867587,54.220525 L22.3675903,54.1610733 L22.3435031,54.2934013 C21.9530364,56.3985028 22.4379504,57.7256182 23.7443656,58.1341089" id="Fill-47" fill="#00944D"></path>
                    <path d="M23.5308133,58.4612211 L23.587862,58.5296225 L23.5276439,58.5967454 C21.9550014,60.314452 20.4539868,59.676465 19.4689459,58.8371093 L19.3681599,58.7508084 L19.4784541,58.6760143 C21.2444282,57.4850625 22.6446568,57.4109077 23.5308133,58.4612211" id="Fill-49" fill="#00944D"></path>
                    <path d="M16.8621374,53.5434149 L16.9413717,53.5849672 L16.9920816,53.5101731 C18.3054694,51.5847051 17.3565594,50.2473615 16.3277812,49.4655397 L16.2200226,49.3849923 L16.1737497,49.5115669 C15.4111988,51.5105503 15.6501695,52.9041493 16.8621374,53.5434149" id="Fill-51" fill="#00944D"></path>
                    <path d="M16.5922336,53.8268652 L16.635971,53.9042164 L16.564977,53.9591932 C14.7096266,55.3617419 13.3474304,54.4597382 12.5310002,53.4554519 L12.446061,53.3506124 L12.5683988,53.2969141 C14.5188304,52.4486087 15.9095509,52.6327171 16.5922336,53.8268652" id="Fill-53" fill="#00944D"></path>
                    <path d="M14.6250043,51.8319731 L14.6978999,51.8824751 L14.7574841,51.8134344 C16.2642036,50.0369153 15.4604508,48.6081567 14.5191473,47.7208561 L14.4208968,47.6294411 L14.3600448,47.7509016 C13.3946541,49.6578308 13.4865659,51.06869 14.6250043,51.8319731" id="Fill-55" fill="#00944D"></path>
                    <path d="M14.3272101,52.0860172 L14.363341,52.1672039 L14.2866422,52.2151489 C12.2956426,53.4131326 11.0342325,52.3717689 10.3261947,51.2856567 L10.2539331,51.173146 L10.3813418,51.1335115 C12.4091061,50.4961637 13.7732039,50.8260248 14.3272101,52.0860172" id="Fill-57" fill="#00944D"></path>
                    <path d="M12.6441468,49.8804231 L12.7145068,49.9341214 L12.7778943,49.8701949 C14.3923724,48.1914834 13.6773621,46.7141407 12.7931072,45.7699454 L12.7005616,45.672777 L12.6333709,45.7891234 C11.5507134,47.632126 11.5557844,49.0455423 12.6441468,49.8804231" id="Fill-59" fill="#00944D"></path>
                    <path d="M12.3315199,50.1136272 L12.3619459,50.1980102 L12.2833454,50.2389232 C10.2219858,51.3109716 9.02776637,50.1922569 8.38818707,49.0639531 L8.32226413,48.9469675 L8.45284227,48.9150042 C10.5154697,48.4067881 11.8554802,48.8216714 12.3315199,50.1136272" id="Fill-61" fill="#00944D"></path>
                    <path d="M10.7536163,47.8115679 L10.820807,47.8697411 L10.8886315,47.8090108 C12.5918521,46.2242715 11.9605132,44.7085728 11.1301377,43.7157933 L11.0432969,43.6141501 L10.9697675,43.7266608 C9.78695777,45.5050977 9.71279447,46.9165961 10.7536163,47.8115679" id="Fill-63" fill="#00944D"></path>
                    <path d="M10.4286289,48.0269365 L10.4546177,48.1125981 L10.3741157,48.1496755 C8.25634119,49.1034597 7.12550922,47.9189006 6.54931736,46.7567158 L6.49036704,46.6365338 L6.62284679,46.6116025 C8.71019528,46.2197327 10.0254847,46.7100494 10.4286289,48.0269365" id="Fill-65" fill="#00944D"></path>
                    <path d="M9.00488351,45.6465671 L9.06763707,45.7092152 L9.13926488,45.6535991 C10.9553151,44.2011877 10.4374397,42.6420189 9.68249527,41.590427 L9.60326097,41.4817519 L9.52085729,41.5885092 C8.21127272,43.2736133 8.03315401,44.676162 9.00488351,45.6465671" id="Fill-67" fill="#00944D"></path>
                    <path d="M8.66506342,45.8369404 L8.68471353,45.9238806 L8.60040823,45.9552046 C6.41924633,46.7472546 5.37842452,45.4815088 4.89097508,44.2790502 L4.84026513,44.1543934 L4.97401263,44.1403296 C7.0841806,43.9057191 8.36016983,44.4932042 8.66506342,45.8369404" id="Fill-69" fill="#00944D"></path>
                    <path d="M7.61029638,43.1422442 L7.67431769,43.2055315 L7.74531163,43.1492761 C9.56199574,41.6968647 9.04348646,40.1383353 8.28790814,39.0861041 L8.20930771,38.9780682 L8.12753791,39.0841863 C6.81668559,40.7692904 6.63983463,42.1718391 7.61029638,43.1422442" id="Fill-71" fill="#00944D"></path>
                    <path d="M7.27104678,43.3323618 L7.29069689,43.4193019 L7.20702547,43.4506259 C5.02522969,44.2433153 3.98504175,42.9775694 3.49632457,41.7751109 L3.44624849,41.6504541 L3.57999599,41.6363902 C5.69016396,41.4011405 6.96615318,41.9886256 7.27104678,43.3323618" id="Fill-73" fill="#00944D"></path>
                    <path d="M6.25526301,40.5686249 L6.31611496,40.63383 L6.38964439,40.5814102 C8.26781432,39.2101856 7.81776348,37.6305603 7.10909187,36.5463659 L7.03429469,36.4344944 L6.94872164,36.5374162 C5.56497376,38.1630685 5.32727085,39.5560282 6.25526301,40.5686249" id="Fill-75" fill="#00944D"></path>
                    <path d="M5.90732934,40.7434641 L5.92381008,40.8316827 L5.8388709,40.8591711 C3.62474753,41.5540528 2.64034054,40.2435584 2.20423493,39.020004 L2.15922985,38.8934295 L2.2942451,38.885119 C4.41328731,38.7444806 5.66138606,39.3875818 5.90732934,40.7434641" id="Fill-77" fill="#00944D"></path>
                    <path d="M5.13108672,37.8511709 L5.18496604,37.9214901 L5.26356647,37.8754629 C7.2532983,36.6762007 6.94269983,35.0626944 6.33227876,33.9196875 L6.26762356,33.8014234 L6.17317628,33.896674 C4.6531454,35.393834 4.29437247,36.7599445 5.13108672,37.8511709" id="Fill-79" fill="#00944D"></path>
                    <path d="M4.76895426,37.9944303 L4.7778285,38.0839275 L4.68971995,38.1037447 C2.42488662,38.5991755 1.55901415,37.2068551 1.2306672,35.9494197 L1.19643798,35.8196488 L1.33208711,35.8228451 C3.45493257,35.87079 4.64281324,36.6219271 4.76895426,37.9944303" id="Fill-81" fill="#00944D"></path>
                    <path d="M4.27129944,35.001261 L4.32074165,35.0754158 L4.40251145,35.0345028 C6.46767433,33.9739612 6.26546839,32.3425554 5.73174612,31.1605533 L5.6753313,31.0378143 L5.57454527,31.1266723 C3.95879935,32.5170749 3.51001626,33.855697 4.27129944,35.001261" id="Fill-83" fill="#00944D"></path>
                    <path d="M3.90111678,35.119589 L3.9030184,35.2090862 L3.81427598,35.2225108 C1.52028443,35.5638786 0.749493123,34.1153028 0.507353092,32.8393287 L0.48136424,32.7070007 L0.616379493,32.719786 C2.73035071,32.9115657 3.86498593,33.7419717 3.90111678,35.119589" id="Fill-85" fill="#00944D"></path>
                    <path d="M3.60585807,32.1258444 L3.64896153,32.204474 L3.7339007,32.1693144 C5.8732269,31.2692285 5.79462647,29.6275945 5.35154824,28.408515 L5.30400766,28.2819404 L5.19751676,28.3624879 C3.48161868,29.6250374 2.93268343,30.9253036 3.60585807,32.1258444" id="Fill-87" fill="#00944D"></path>
                    <g id="Group-91" transform="translate(0.000000, 29.160227)">
                        <mask id="mask-2" fill="white">
                            <use xlink:href="#path-1"></use>
                        </mask>
                        <g id="Clip-90"></g>
                        <path d="M3.2276252,3.05581734 L3.22318808,3.14531452 L3.13444566,3.15170718 C0.820803996,3.31599843 0.161574592,1.81308505 0.0151495988,0.521768569 L-6.33874428e-05,0.388162062 L0.133684117,0.411175623 C2.22737135,0.764050224 3.29608364,1.67947854 3.2276252,3.05581734" id="Fill-89" fill="#00944D" mask="url(#mask-2)"></path>
                    </g>
                    <path d="M24.1126466,57.9321649 C24.5931234,58.081753 24.782018,58.1028488 25.2079816,58.1546293 L25.3943407,58.8412006 C24.5703039,58.7043977 24.5785443,58.7370003 23.772256,58.5138966 C23.772256,58.5138966 23.9199488,58.3719796 24.0080573,58.2243093 C24.0891933,58.0862279 24.1094772,57.9417539 24.1126466,57.9321649" id="Fill-92" fill="#00944D"></path>
                    <g id="Group-96" transform="translate(22.185605, 58.566444)">
                        <mask id="mask-4" fill="white">
                            <use xlink:href="#path-3"></use>
                        </mask>
                        <g id="Clip-95"></g>
                        <path d="M3.20905268,0.51281885 C2.55616202,1.22368218 1.6617652,2.36093565 1.20220624,3.19645577 L0.26597371,2.99444784 C0.944219347,2.07965879 1.67571044,1.20642201 2.44586787,0.367705563 C2.44586787,0.367705563 3.1887687,0.493001617 3.20905268,0.51281885" id="Fill-94" fill="#00944D" mask="url(#mask-4)"></path>
                    </g>
                    <path d="M49.041153,29.8144518 L49.1178518,29.8611182 L49.172365,29.7888812 C50.5744952,27.9267005 49.6877049,26.5465261 48.6963253,25.7173987 L48.5936377,25.6310978 L48.5397583,25.7551154 C47.6865633,27.7163822 47.8608788,29.1195701 49.041153,29.8144518" id="Fill-97" fill="#00944D"></path>
                    <path d="M32.8333642,55.2333774 L32.7515944,55.2704548 L32.7053216,55.1937429 C31.4933537,53.2005128 32.5107221,51.9162283 33.5794344,51.1893833 L33.6903624,51.11395 L33.7309304,51.2424424 C34.3869904,53.2797818 34.0776597,54.6586776 32.8333642,55.2333774" id="Fill-99" fill="#00944D"></path>
                    <path d="M33.0878014,55.5298688 L33.0408947,55.6053021 L33.1080854,55.6641145 C34.8873709,57.1625531 36.295206,56.3340649 37.1642479,55.3745272 L37.2529903,55.2748018 L37.1325541,55.2153501 C35.2296631,54.2641229 33.83197,54.3734373 33.0878014,55.5298688" id="Fill-101" fill="#00944D"></path>
                    <path d="M30.5250471,56.7304095 L30.4413757,56.7617335 L30.4001738,56.6818253 C29.3270244,54.6093263 30.4312337,53.3985573 31.5455849,52.7484242 L31.6628517,52.6813013 L31.6945454,52.8117115 C32.2092515,54.8899639 31.8048396,56.2432892 30.5250471,56.7304095" id="Fill-103" fill="#00944D"></path>
                    <path d="M30.7590735,57.0440971 L30.7058281,57.1156949 L30.7692155,57.1789822 C32.442644,58.7982419 33.9024568,58.0694791 34.8348861,57.1719503 L34.931235,57.0792568 L34.8146021,57.0121339 C32.9820712,55.9304965 31.5805748,55.9420033 30.7590735,57.0440971" id="Fill-105" fill="#00944D"></path>
                    <path d="M28.1374957,58.1341089 L28.0519226,58.1603188 L28.0157918,58.0778535 C27.0687834,55.9433457 28.2433527,54.8016174 29.3951025,54.220525 L29.5149048,54.1610733 L29.538992,54.2934013 C29.9288248,56.3985028 29.4445447,57.7256182 28.1374957,58.1341089" id="Fill-107" fill="#00944D"></path>
                    <path d="M28.3516818,58.4612211 L28.2939993,58.5296225 L28.3542173,58.5967454 C29.9274937,60.314452 31.4285083,59.676465 32.4129153,58.8371093 L32.5137013,58.7508084 L32.4040411,58.6760143 C30.637433,57.4850625 29.2378383,57.4109077 28.3516818,58.4612211" id="Fill-109" fill="#00944D"></path>
                    <path d="M35.0203578,53.5434149 L34.9411235,53.5849672 L34.8904135,53.5101731 C33.5770257,51.5847051 34.5253018,50.2473615 35.5534462,49.4655397 L35.6612048,49.3849923 L35.7081115,49.5115669 C36.4712963,51.5105503 36.2323257,52.9041493 35.0203578,53.5434149" id="Fill-111" fill="#00944D"></path>
                    <path d="M35.2902615,53.8268652 L35.2458903,53.9042164 L35.3175181,53.9591932 C37.1716008,55.3617419 38.5350647,54.4597382 39.3521288,53.4554519 L39.4364341,53.3506124 L39.3128286,53.2969141 C37.3630309,52.4486087 35.9729443,52.6327171 35.2902615,53.8268652" id="Fill-113" fill="#00944D"></path>
                    <path d="M37.2569203,51.8319731 L37.1846586,51.8824751 L37.1244405,51.8134344 C35.6170871,50.0369153 36.4227415,48.6081567 37.3627773,47.7208561 L37.4616617,47.6294411 L37.5218798,47.7509016 C38.4879044,49.6578308 38.3959926,51.06869 37.2569203,51.8319731" id="Fill-115" fill="#00944D"></path>
                    <path d="M37.555285,52.0860172 L37.5185203,52.1672039 L37.5952191,52.2151489 C39.5868525,53.4131326 40.8488965,52.3717689 41.5556665,51.2856567 L41.6285621,51.173146 L41.5011533,51.1335115 C39.4727551,50.4961637 38.1092912,50.8260248 37.555285,52.0860172" id="Fill-117" fill="#00944D"></path>
                    <path d="M39.2383484,49.8804231 L39.1673544,49.9341214 L39.103967,49.8701949 C37.4901227,48.1914834 38.2044992,46.7141407 39.0900217,45.7699454 L39.1819335,45.672777 L39.2497581,45.7891234 C40.3317818,47.632126 40.3260769,49.0455423 39.2383484,49.8804231" id="Fill-119" fill="#00944D"></path>
                    <path d="M39.5503414,50.1136272 L39.5199154,50.1980102 L39.5985158,50.2389232 C41.6598755,51.3109716 42.8540949,50.1922569 43.4936742,49.0639531 L43.560231,48.9469675 L43.429019,48.9150042 C41.3670255,48.4067881 40.0263811,48.8216714 39.5503414,50.1136272" id="Fill-121" fill="#00944D"></path>
                    <path d="M41.1288788,47.8115679 L41.0610543,47.8697411 L40.9938636,47.8090108 C39.2893753,46.2242715 39.9219819,44.7085728 40.7523574,43.7157933 L40.8391982,43.6141501 L40.9127277,43.7266608 C42.0955373,45.5050977 42.1690668,46.9165961 41.1288788,47.8115679" id="Fill-123" fill="#00944D"></path>
                    <path d="M41.4532324,48.0269365 L41.4272435,48.1125981 L41.5090133,48.1496755 C43.6261539,49.1034597 44.7569859,47.9189006 45.3325439,46.7567158 L45.3921281,46.6365338 L45.2596483,46.6116025 C43.1722998,46.2197327 41.8570104,46.7100494 41.4532324,48.0269365" id="Fill-125" fill="#00944D"></path>
                    <path d="M42.8781821,45.6465671 L42.8135269,45.7092152 L42.7431668,45.6535991 C40.9264827,44.2011877 41.4443581,42.6420189 42.1999365,41.590427 L42.2791708,41.4817519 L42.3609406,41.5885092 C43.671159,43.2736133 43.84801,44.676162 42.8781821,45.6465671" id="Fill-127" fill="#00944D"></path>
                    <path d="M43.2174317,45.8369404 L43.1977816,45.9238806 L43.281453,45.9552046 C45.4632488,46.7472546 46.5034367,45.4815088 46.99152,44.2790502 L47.04223,44.1543934 L46.9084825,44.1403296 C44.7976806,43.9057191 43.5216914,44.4932042 43.2174317,45.8369404" id="Fill-129" fill="#00944D"></path>
                    <path d="M44.2716283,43.1422442 L44.2088747,43.2055315 L44.136613,43.1492761 C42.3205628,41.6968647 42.8390721,40.1383353 43.5940165,39.0861041 L43.6732508,38.9780682 L43.7550206,39.0841863 C45.065239,40.7692904 45.2427239,42.1718391 44.2716283,43.1422442" id="Fill-131" fill="#00944D"></path>
                    <path d="M44.6114483,43.3323618 L44.5917982,43.4193019 L44.6761035,43.4506259 C46.8572654,44.2433153 47.8974534,42.9775694 48.3861706,41.7751109 L48.4356128,41.6504541 L48.3018653,41.6363902 C46.1916973,41.4011405 44.9163419,41.9886256 44.6114483,43.3323618" id="Fill-133" fill="#00944D"></path>
                    <path d="M45.6272321,40.5686249 L45.567014,40.63383 L45.4928507,40.5814102 C43.6153147,39.2101856 44.0647316,37.6305603 44.7740371,36.5463659 L44.8482004,36.4344944 L44.9344074,36.5374162 C46.3168875,38.1630685 46.5552243,39.5560282 45.6272321,40.5686249" id="Fill-135" fill="#00944D"></path>
                    <path d="M45.9745319,40.7434641 L45.9593189,40.8316827 L46.0436242,40.8591711 C48.2583815,41.5540528 49.2415207,40.2435584 49.6782602,39.020004 L49.7226314,38.8934295 L49.5876161,38.885119 C47.4692078,38.7444806 46.2211091,39.3875818 45.9745319,40.7434641" id="Fill-137" fill="#00944D"></path>
                    <path d="M46.7514084,37.8511709 L46.6975291,37.9214901 L46.6182948,37.8754629 C44.6285629,36.6762007 44.9391614,35.0626944 45.5502164,33.9196875 L45.6155054,33.8014234 L45.7093188,33.896674 C47.2293497,35.393834 47.5874888,36.7599445 46.7514084,37.8511709" id="Fill-139" fill="#00944D"></path>
                    <path d="M47.112907,37.9944303 L47.1046666,38.0839275 L47.1915074,38.1037447 C49.4576085,38.5991755 50.323481,37.2068551 50.6518279,35.9494197 L50.6854233,35.8196488 L50.550408,35.8228451 C48.4275626,35.87079 47.2403158,36.6219271 47.112907,37.9944303" id="Fill-141" fill="#00944D"></path>
                    <path d="M47.6111957,35.001261 L47.5617535,35.0754158 L47.4806175,35.0345028 C45.4154547,33.9739612 45.6170267,32.3425554 46.1501151,31.1605533 L46.2065299,31.0378143 L46.307316,31.1266723 C47.9236958,32.5170749 48.3731127,33.855697 47.6111957,35.001261" id="Fill-143" fill="#00944D"></path>
                    <path d="M47.9813783,35.119589 L47.9794767,35.2090862 L48.0669514,35.2225108 C50.3615768,35.5638786 51.1323681,34.1153028 51.375142,32.8393287 L51.4011309,32.7070007 L51.2661156,32.719786 C49.1515105,32.9115657 48.0162414,33.7419717 47.9813783,35.119589" id="Fill-145" fill="#00944D"></path>
                    <path d="M48.2766371,32.1258444 L48.2335336,32.204474 L48.1485944,32.1693144 C46.0092682,31.2692285 46.0872348,29.6275945 46.5309469,28.408515 L46.5778536,28.2819404 L46.6843445,28.3624879 C48.4008764,29.6250374 48.9498117,30.9253036 48.2766371,32.1258444" id="Fill-147" fill="#00944D"></path>
                    <path d="M48.6548699,32.2160447 L48.6599409,32.3055419 L48.7486833,32.3119346 C51.0610573,32.4762258 51.7209205,30.9733124 51.8667116,29.681996 L51.8819246,29.5483895 L51.748811,29.571403 C49.6551238,29.9242776 48.5857776,30.8397059 48.6548699,32.2160447" id="Fill-149" fill="#00944D"></path>
                    <path d="M27.7698485,57.9321649 C27.2887378,58.081753 27.101111,58.1028488 26.6745135,58.1546293 L26.4881544,58.8412006 C27.3115573,58.7043977 27.3039508,58.7370003 28.1096052,58.5138966 C28.1096052,58.5138966 27.9619125,58.3719796 27.8744378,58.2243093 C27.792668,58.0862279 27.772384,57.9417539 27.7698485,57.9321649" id="Fill-151" fill="#00944D"></path>
                    <g id="Group-155" transform="translate(25.988852, 58.566444)">
                        <mask id="mask-6" fill="white">
                            <use xlink:href="#path-5"></use>
                        </mask>
                        <g id="Clip-154"></g>
                        <path d="M0.498352075,0.51281885 C1.15124274,1.22368218 2.04627343,2.36093565 2.50583239,3.19645577 L3.44206492,2.99444784 C2.7631854,2.07965879 2.03169432,1.20642201 1.26153689,0.367705563 C1.26153689,0.367705563 0.518636057,0.493001617 0.498352075,0.51281885" id="Fill-153" fill="#00944D" mask="url(#mask-6)"></path>
                    </g>
                    <path d="M65.4247152,29.0050776 C65.244061,28.4770443 65.1172861,27.4209775 65.1172861,27.4209775 C65.1172861,27.4209775 64.9366319,28.4770443 64.738863,29.0050776 L63.204253,32.9378395 L66.904812,32.9378395 L65.4247152,29.0050776 Z M70.9660454,37.6888613 L67.6267949,37.6888613 L67.373879,36.6142559 C68.0236003,36.6142559 68.1674898,36.4512432 67.9513386,35.8317948 L67.3922614,34.4113467 L62.6806728,34.4113467 L62.1209617,35.8317948 C61.8864281,36.487042 62.0848308,36.6142559 62.735186,36.6142559 L62.4816362,37.6888613 L59.5214426,37.6888613 L59.2691606,36.6142559 C59.8650026,36.6142559 60.0456568,36.487042 60.2985727,35.8317948 L63.3487764,28.1133022 C63.4926659,27.7310213 63.3842734,27.5488307 62.735186,27.5488307 L62.9697195,26.4748645 L67.50002,26.4748645 L67.7535698,27.5488307 C67.0854662,27.5488307 66.9764398,27.7310213 67.1209631,28.076864 L70.1718008,35.8317948 C70.4063343,36.4691426 70.6224855,36.6142559 71.200579,36.6142559 L70.9660454,37.6888613 Z" id="Fill-156" fill="#004181"></path>
                    <path d="M85.2066683,37.6885417 L81.9941927,37.6885417 L81.7406429,36.6145755 C82.4271289,36.6145755 82.5887669,36.3780472 82.5887669,35.7592382 L82.5887669,30.4616443 C82.5887669,29.9521496 82.6616625,29.2240261 82.6616625,29.2240261 C82.6616625,29.2240261 82.3542334,29.8971728 82.0119412,30.4431056 L79.0327314,35.0854522 L78.2207382,35.0854522 L75.3511887,30.5709587 C75.0253772,30.0429253 74.7192159,29.3327013 74.7192159,29.3327013 C74.7192159,29.3327013 74.7908437,30.0979022 74.7908437,30.6073968 L74.7908437,35.7592382 C74.7908437,36.3780472 74.9537494,36.6145755 75.6218531,36.6145755 L75.3689372,37.6885417 L72.3548643,37.6885417 L72.1013145,36.6145755 C72.7694182,36.6145755 72.9500724,36.3780472 72.9500724,35.7592382 L72.9500724,28.4044876 C72.9500724,27.7677791 72.7694182,27.548511 72.1013145,27.548511 L72.3548643,26.4745448 L74.8643731,26.4745448 L78.7449524,32.6281153 L82.6616625,26.4745448 L85.2066683,26.4745448 L85.4595842,27.548511 C84.7921144,27.548511 84.6120941,27.7677791 84.6120941,28.4044876 L84.6120941,35.7592382 C84.6120941,36.3780472 84.7921144,36.6145755 85.4595842,36.6145755 L85.2066683,37.6885417 Z" id="Fill-158" fill="#004181"></path>
                    <path d="M89.6158988,32.5188009 L89.6158988,36.3416091 L91.8179786,36.3416091 C93.3164577,36.3416091 94.0745715,35.6863619 94.0745715,34.4295657 C94.0745715,33.2462852 93.279693,32.5188009 91.6912037,32.5188009 L89.6158988,32.5188009 Z M89.6158988,31.1168915 L91.5650627,31.1168915 C92.9190185,31.1168915 93.6416353,30.5159819 93.6416353,29.4241162 C93.6416353,28.3865882 93.0090286,27.8585548 91.583445,27.8585548 L89.6158988,27.8585548 L89.6158988,31.1168915 Z M91.9796166,37.6885417 L86.8902388,37.6885417 L86.6379568,36.6145755 C87.3047927,36.6145755 87.4860807,36.3780472 87.4860807,35.7592382 L87.4860807,28.4044876 C87.4860807,27.7677791 87.3047927,27.548511 86.6379568,27.548511 L86.8902388,26.4745448 L91.6912037,26.4745448 C94.253958,26.4745448 95.7169402,27.5306116 95.7169402,29.3691394 C95.7169402,30.3702293 95.0672189,31.2447446 94.1284509,31.681363 C95.500789,32.1544195 96.2221381,33.2104863 96.2221381,34.5030813 C96.2221381,36.5237998 94.5975179,37.6885417 91.9796166,37.6885417 L91.9796166,37.6885417 Z" id="Fill-160" fill="#004181"></path>
                    <path d="M102.207371,27.8220528 L99.8962644,27.8220528 L99.8962644,31.6090621 L102.17124,31.6090621 C103.669719,31.6090621 104.482346,30.9531756 104.482346,29.7334569 C104.482346,28.4773 103.705216,27.8220528 102.207371,27.8220528 L102.207371,27.8220528 Z M107.784832,37.689117 L105.311454,37.689117 C103.615206,36.4508596 104.427833,33.0103322 102.098978,33.0103322 L99.8962644,33.0103322 L99.8962644,35.7598135 C99.8962644,36.3779833 100.077553,36.6145116 100.745022,36.6145116 L100.49274,37.689117 L97.1718722,37.689117 L96.9183224,36.6145116 C97.6041745,36.6145116 97.7670802,36.3779833 97.7670802,35.7598135 L97.7670802,28.405063 C97.7670802,27.7856146 97.586426,27.5490864 96.9183224,27.5490864 L97.1718722,26.4751202 L102.424156,26.4751202 C105.041423,26.4751202 106.612164,27.6398621 106.612164,29.6605806 C106.612164,31.0439513 105.85405,32.0456805 104.463964,32.5372757 C105.782422,32.9559947 106.034704,34.3579041 106.376997,35.3404553 C106.683792,36.23287 106.937342,36.6145116 107.820963,36.6145116 L108.038381,36.6145116 L107.784832,37.689117 Z" id="Fill-162" fill="#004181"></path>
                    <path d="M113.439435,27.8769657 C111.128963,27.8769657 110.064688,29.2238983 110.064688,32.0820547 C110.064688,34.9581105 111.128963,36.2871437 113.439435,36.2871437 C115.768924,36.2871437 116.814817,34.9581105 116.814817,32.0820547 C116.814817,29.2238983 115.768924,27.8769657 113.439435,27.8769657 M113.439435,37.8533444 C110.027923,37.8533444 107.825843,36.0141773 107.825843,32.0820547 C107.825843,28.1499321 110.027923,26.3114043 113.439435,26.3114043 C116.86933,26.3114043 119.053027,28.1499321 119.053027,32.0820547 C119.053027,36.0141773 116.86933,37.8533444 113.439435,37.8533444" id="Fill-164" fill="#004181"></path>
                    <path d="M124.12434,37.8530247 C121.957757,37.8530247 120.423147,37.0513857 119.936965,36.7605198 L120.423147,34.6490256 L121.127381,34.6490256 C121.543203,36.0323963 122.878142,36.4690147 124.16047,36.4690147 C125.297641,36.4690147 126.453194,35.9409814 126.453194,34.7398013 C126.453194,33.7387114 125.729944,33.2464769 123.690769,32.8827348 C121.813233,32.5554308 120.04409,31.6630161 120.04409,29.6058594 C120.04409,27.5672415 121.849364,26.2925459 124.249847,26.2925459 C126.199644,26.2925459 127.5536,26.8934556 128.041684,27.1485225 L127.571983,29.1507023 L126.885497,29.1507023 C126.399315,27.9674218 125.262144,27.6580172 124.268863,27.6580172 C123.041048,27.6580172 122.048401,28.2224887 122.048401,29.2600168 C122.048401,30.1524315 122.76975,30.5705112 124.322108,30.8620163 C126.831617,31.3171734 128.546881,32.1181732 128.546881,34.37542 C128.546881,36.6512054 126.524822,37.8530247 124.12434,37.8530247" id="Fill-166" fill="#004181"></path>
                    <path d="M138.058991,37.6885417 L129.772985,37.6885417 L129.520069,36.6145755 C130.188173,36.6145755 130.368193,36.3780472 130.368193,35.7592382 L130.368193,28.4044876 C130.368193,27.7677791 130.188173,27.548511 129.520069,27.548511 L129.772985,26.4745448 L137.58929,26.4745448 L137.58929,28.7682297 L136.704402,28.9868586 C136.651156,28.1129825 136.434371,27.894993 135.134295,27.894993 L132.498645,27.894993 L132.498645,31.1712291 L135.134295,31.1712291 C135.820147,31.1712291 136.05468,31.0261158 136.05468,30.4066674 L136.921187,30.6617344 L136.921187,33.1190713 L136.05468,33.3562388 C136.05468,32.7367905 135.820147,32.5916772 135.134295,32.5916772 L132.498645,32.5916772 L132.498645,36.2508334 L136.01855,36.2508334 C137.066344,36.2508334 137.246364,35.958689 137.409904,35.1218904 L138.311907,35.3405192 L138.058991,37.6885417 Z" id="Fill-168" fill="#004181"></path>
                    <path d="M152.298917,29.0599906 C152.191158,28.2954289 151.992756,27.9310475 150.909464,27.9310475 L149.121304,27.9310475 L149.121304,35.7588546 C149.121304,36.3776637 149.284844,36.614192 149.952314,36.614192 L149.71778,37.6881581 L146.395644,37.6881581 L146.161111,36.614192 C146.829848,36.614192 146.992754,36.3776637 146.992754,35.7588546 L146.992754,27.9310475 L145.204594,27.9310475 C144.121937,27.9310475 143.9229,28.2954289 143.796759,29.0599906 L142.911871,28.8234623 L143.164786,26.4748005 L152.948004,26.4748005 L153.201554,28.8234623 L152.298917,29.0599906 Z" id="Fill-170" fill="#004181"></path>
                    <path d="M159.344558,27.8220528 L157.033452,27.8220528 L157.033452,31.6090621 L159.307793,31.6090621 C160.806272,31.6090621 161.618899,30.9531756 161.618899,29.7334569 C161.618899,28.4773 160.841769,27.8220528 159.344558,27.8220528 L159.344558,27.8220528 Z M164.922019,37.689117 L162.449275,37.689117 C160.752393,36.4508596 161.56502,33.0103322 159.236165,33.0103322 L157.033452,33.0103322 L157.033452,35.7598135 C157.033452,36.3779833 157.213472,36.6145116 157.880942,36.6145116 L157.629294,37.689117 L154.307792,37.689117 L154.054876,36.6145116 C154.740728,36.6145116 154.903634,36.3779833 154.903634,35.7598135 L154.903634,28.405063 C154.903634,27.7856146 154.723613,27.5490864 154.054876,27.5490864 L154.307792,26.4751202 L159.560709,26.4751202 C162.178611,26.4751202 163.748717,27.6398621 163.748717,29.6605806 C163.748717,31.0439513 162.990604,32.0456805 161.600517,32.5372757 C162.918342,32.9559947 163.171258,34.3579041 163.514184,35.3404553 C163.820979,36.23287 164.073895,36.6145116 164.957516,36.6145116 L165.173667,36.6145116 L164.922019,37.689117 Z" id="Fill-172" fill="#004181"></path>
                    <path d="M174.390455,37.6885417 L166.105082,37.6885417 L165.852166,36.6145755 C166.52027,36.6145755 166.70029,36.3780472 166.70029,35.7592382 L166.70029,28.4044876 C166.70029,27.7677791 166.52027,27.548511 165.852166,27.548511 L166.105082,26.4745448 L173.920754,26.4745448 L173.920754,28.7682297 L173.036499,28.9868586 C172.98262,28.1129825 172.765835,27.894993 171.465758,27.894993 L168.830742,27.894993 L168.830742,31.1712291 L171.465758,31.1712291 C172.15161,31.1712291 172.386778,31.0261158 172.386778,30.4066674 L173.25265,30.6617344 L173.25265,33.1190713 L172.386778,33.3562388 C172.386778,32.7367905 172.15161,32.5916772 171.465758,32.5916772 L168.830742,32.5916772 L168.830742,36.2508334 L172.350013,36.2508334 C173.398441,36.2508334 173.577828,35.958689 173.741368,35.1218904 L174.643371,35.3405192 L174.390455,37.6885417 Z" id="Fill-174" fill="#004181"></path>
                    <path d="M181.458979,29.0050776 C181.277691,28.4770443 181.15155,27.4209775 181.15155,27.4209775 C181.15155,27.4209775 180.970896,28.4770443 180.772493,29.0050776 L179.238517,32.9378395 L182.938442,32.9378395 L181.458979,29.0050776 Z M187.000309,37.6888613 L183.661059,37.6888613 L183.408143,36.6142559 C184.05723,36.6142559 184.201753,36.4512432 183.984968,35.8317948 L183.425891,34.4113467 L178.714303,34.4113467 L178.154591,35.8317948 C177.920058,36.487042 178.118461,36.6142559 178.76945,36.6142559 L178.5159,37.6888613 L175.555706,37.6888613 L175.303424,36.6142559 C175.898632,36.6142559 176.07992,36.487042 176.332202,35.8317948 L179.382406,28.1133022 C179.52693,27.7310213 179.419171,27.5488307 178.76945,27.5488307 L179.003983,26.4748645 L183.534284,26.4748645 L183.7872,27.5488307 C183.119096,27.5488307 183.011337,27.7310213 183.155227,28.076864 L186.205431,35.8317948 C186.439964,36.4691426 186.656749,36.6142559 187.234209,36.6142559 L187.000309,37.6888613 Z" id="Fill-176" fill="#004181"></path>
                    <path d="M192.130255,37.8707963 C189.043286,37.8707963 186.715066,36.0508072 186.715066,32.0816072 C186.715066,28.4409897 188.772622,26.2930573 192.130255,26.2930573 C194.260073,26.2930573 195.776301,27.1304953 196.26375,27.4213611 L195.74017,29.6063709 L195.0727,29.6063709 C194.711391,28.2952371 193.609718,27.8771575 192.364788,27.8771575 C190.054316,27.8771575 188.952642,29.4785177 188.952642,32.0816072 C188.952642,34.6853359 190.035934,36.2873355 192.383171,36.2873355 C193.772623,36.2873355 194.656878,35.7407634 195.0727,34.5216839 L195.757918,34.5216839 L196.26375,36.7418533 C195.414992,37.3069641 194.133932,37.8707963 192.130255,37.8707963" id="Fill-178" fill="#004181"></path>
                    <g id="Group-182" transform="translate(197.134947, 25.963899)">
                        <mask id="mask-8" fill="white">
                            <use xlink:href="#path-7"></use>
                        </mask>
                        <g id="Clip-181"></g>
                        <path d="M10.6422445,2.36758401 L7.0316958,7.41011093 L7.0316958,9.79521082 C7.0316958,10.4140199 7.21171614,10.6505482 7.87981978,10.6505482 L7.62753776,11.7245143 L4.30603576,11.7245143 L4.05248599,10.6505482 C4.72122351,10.6505482 4.90124385,10.4140199 4.90124385,9.79521082 L4.90124385,7.41011093 L1.30844359,2.36758401 C0.857758875,1.74877493 0.65935618,1.58448367 0.0641480921,1.58448367 L0.317063989,0.510517494 L3.80083784,0.510517494 L4.05248599,1.58448367 C3.36663386,1.58448367 3.25887521,1.78521307 3.67406296,2.36758401 L6.18293794,5.93596449 L8.71082916,2.36758401 C9.14376539,1.7679529 8.96311118,1.58448367 8.29500753,1.58448367 L8.54792343,0.510517494 L11.6336241,0.510517494 L11.8694254,1.58448367 C11.2906981,1.58448367 11.0567984,1.78521307 10.6422445,2.36758401" id="Fill-180" fill="#004181" mask="url(#mask-8)"></path>
                    </g>
                    <path d="M104.125094,55.3944084 C101.038126,55.3944084 98.7099051,53.57378 98.7099051,49.6058585 C98.7099051,45.9646018 100.767461,43.8166694 104.125094,43.8166694 C106.254279,43.8166694 107.77114,44.6541073 108.258589,44.9456124 L107.735009,47.1299829 L107.067539,47.1299829 C106.706231,45.8194885 105.605825,45.4007695 104.359628,45.4007695 C102.049156,45.4007695 100.948116,47.0021298 100.948116,49.6058585 C100.948116,52.208948 102.031407,53.8109475 104.377376,53.8109475 C105.767463,53.8109475 106.652986,53.2650147 107.067539,52.0446567 L107.753392,52.0446567 L108.258589,54.2661046 C107.410465,54.8305761 106.128771,55.3944084 104.125094,55.3944084" id="Fill-183" fill="#004181"></path>
                    <path d="M114.683034,45.4005778 C112.372561,45.4005778 111.307652,46.7475103 111.307652,49.6056668 C111.307652,52.4817226 112.372561,53.8107558 114.683034,53.8107558 C117.012522,53.8107558 118.058415,52.4817226 118.058415,49.6056668 C118.058415,46.7475103 117.012522,45.4005778 114.683034,45.4005778 M114.683034,55.3763172 C111.271521,55.3763172 109.069442,53.5377894 109.069442,49.6056668 C109.069442,45.6735442 111.271521,43.8350163 114.683034,43.8350163 C118.112294,43.8350163 120.296625,45.6735442 120.296625,49.6056668 C120.296625,53.5377894 118.112294,55.3763172 114.683034,55.3763172" id="Fill-185" fill="#004181"></path>
                    <path d="M129.176762,55.2124734 L121.017531,55.2124734 L120.764615,54.1385072 C121.432719,54.1385072 121.613373,53.9013397 121.613373,53.2831699 L121.613373,45.9277801 C121.613373,45.2904323 121.432719,45.0724427 120.764615,45.0724427 L121.017531,43.9984765 L124.339033,43.9984765 L124.591949,45.0724427 C123.906097,45.0724427 123.743191,45.2904323 123.743191,45.9277801 L123.743191,53.7376877 L127.119206,53.7376877 C128.165733,53.7376877 128.347021,53.4826207 128.527041,52.6087447 L129.447427,52.828652 L129.176762,55.2124734 Z" id="Fill-187" fill="#004181"></path>
                    <path d="M138.616737,55.2124734 L130.456872,55.2124734 L130.20459,54.1385072 C130.871426,54.1385072 131.051446,53.9013397 131.051446,53.2831699 L131.051446,45.9277801 C131.051446,45.2904323 130.871426,45.0724427 130.20459,45.0724427 L130.456872,43.9984765 L133.778374,43.9984765 L134.03129,45.0724427 C133.344804,45.0724427 133.182532,45.2904323 133.182532,45.9277801 L133.182532,53.7376877 L136.559181,53.7376877 C137.60444,53.7376877 137.785094,53.4826207 137.967016,52.6087447 L138.886768,52.828652 L138.616737,55.2124734 Z" id="Fill-189" fill="#004181"></path>
                    <path d="M148.182473,55.2124734 L139.896466,55.2124734 L139.643551,54.1385072 C140.312288,54.1385072 140.491041,53.9013397 140.491041,53.2831699 L140.491041,45.9277801 C140.491041,45.2904323 140.312288,45.0724427 139.643551,45.0724427 L139.896466,43.9984765 L147.712772,43.9984765 L147.712772,46.2921615 L146.827249,46.510151 C146.774004,45.6369142 146.557219,45.4182854 145.257776,45.4182854 L142.62276,45.4182854 L142.62276,48.6951608 L145.257776,48.6951608 C145.943629,48.6951608 146.178796,48.5500475 146.178796,47.9299599 L147.044668,48.1856661 L147.044668,50.643003 L146.178796,50.8795313 C146.178796,50.2607222 145.943629,50.1156089 145.257776,50.1156089 L142.62276,50.1156089 L142.62276,53.7741258 L146.141397,53.7741258 C147.189192,53.7741258 147.369846,53.4826207 147.532752,52.6458221 L148.434755,52.8638116 L148.182473,55.2124734 Z" id="Fill-191" fill="#004181"></path>
                    <path d="M159.805131,50.5886654 C159.101531,50.5886654 158.939259,50.8072943 158.939259,51.4082039 L158.939259,52.6643608 C158.939259,53.2646312 159.047017,53.4468219 159.444457,53.4468219 L159.209923,54.5028886 C157.729826,54.6301025 157.3869,55.3761254 154.750616,55.3761254 C151.520392,55.3761254 148.757968,53.6654507 148.757968,49.6240137 C148.757968,45.9105199 151.231346,43.8348246 154.750616,43.8348246 C156.970445,43.8348246 158.541186,44.7451387 159.028001,45.0187444 L158.505689,47.1845762 L157.837585,47.1845762 C157.47691,45.8740818 156.159085,45.3818473 154.878025,45.3818473 C152.367882,45.3818473 150.996812,47.0388237 150.996812,49.6425524 C150.996812,52.2271031 152.296889,53.8476414 154.84126,53.8476414 C155.617757,53.8476414 156.411367,53.6283733 156.953964,53.3375074 L156.953964,51.4082039 C156.953964,50.8072943 156.808807,50.5886654 156.067807,50.5886654 L155.76228,50.5886654 L156.015196,49.4782611 L159.878027,49.4782611 L160.111926,50.5886654 L159.805131,50.5886654 Z" id="Fill-193" fill="#004181"></path>
                    <path d="M169.298985,55.2124734 L161.013613,55.2124734 L160.760063,54.1385072 C161.4288,54.1385072 161.608187,53.9013397 161.608187,53.2831699 L161.608187,45.9277801 C161.608187,45.2904323 161.4288,45.0724427 160.760063,45.0724427 L161.013613,43.9984765 L168.829918,43.9984765 L168.829918,46.2921615 L167.944396,46.510151 C167.89115,45.6369142 167.674365,45.4182854 166.373655,45.4182854 L163.739273,45.4182854 L163.739273,48.6951608 L166.373655,48.6951608 C167.060775,48.6951608 167.294674,48.5500475 167.294674,47.9299599 L168.160547,48.1856661 L168.160547,50.643003 L167.294674,50.8795313 C167.294674,50.2607222 167.060775,50.1156089 166.373655,50.1156089 L163.739273,50.1156089 L163.739273,53.7741258 L167.258544,53.7741258 C168.306338,53.7741258 168.486992,53.4826207 168.649898,52.6458221 L169.551901,52.8638116 L169.298985,55.2124734 Z" id="Fill-195" fill="#004181"></path>
                    <path d="M11.2253456,24.2177456 L11.2304166,24.2177456 L11.238657,24.2177456 C11.3318365,24.2177456 11.4250161,24.2196633 11.5175617,24.2222204 C11.5334086,24.2228597 11.5505232,24.2228597 11.5657362,24.2234989 L11.5657362,29.2436516 L11.7318113,29.2436516 C12.9165226,29.2436516 14.0555949,29.3638335 15.0260567,29.928305 L15.0450729,29.9398118 L15.10022,29.9538756 L15.1021216,29.9545149 L15.1933995,29.9545149 L15.2003722,29.9545149 L15.3138357,29.9545149 L15.3208083,29.9545149 L15.3233438,29.9538756 L15.3784909,29.9398118 L15.3975071,29.928305 C16.3679689,29.3638335 17.5070412,29.2436516 18.6917525,29.2436516 L18.8502211,29.2436516 L18.8578276,29.2436516 L18.8578276,24.2234989 C18.8736745,24.2228597 18.8901552,24.2228597 18.9060021,24.2222204 C18.9991816,24.2196633 19.0910934,24.2177456 19.1849068,24.2177456 L19.1880762,24.2177456 L19.1887101,24.2177456 L19.1899778,24.2177456 L19.1906117,24.2222204 L19.1906117,29.7167081 C18.87621,29.7167081 18.5668792,29.7128725 18.2638873,29.7128725 L18.2619856,29.7128725 C17.1812297,29.7128725 16.1809759,29.7576211 15.3246115,30.1776186 L15.3195406,30.1782578 L15.3195406,30.1795364 L15.2003722,30.1795364 L15.1933995,30.1795364 L15.0945151,30.1795364 L15.0945151,30.1776186 L15.0932474,30.1776186 C13.994743,29.6399962 12.6648745,29.7167081 11.2304166,29.7167081 L11.2253456,29.7167081 L11.2253456,24.2222204 L11.2253456,24.2177456 Z M11.728008,23.5944616 L11.7318113,23.5944616 L11.7400517,23.5944616 C11.8300618,23.5944616 11.9213397,23.5970187 12.010716,23.600215 L12.010716,24.2222204 L12.010716,28.7258464 L12.1761573,28.7258464 C13.2024,28.7258464 14.1906102,29.0358902 15.0317616,29.6220968 L15.0520455,29.6367999 L15.10022,29.651503 L15.1090942,29.6546993 L15.1933995,29.6546993 L15.2003722,29.6546993 L15.3068631,29.6546993 L15.3138357,29.6546993 L15.3157373,29.6540601 L15.3721521,29.6367999 L15.3924361,29.6220968 C16.2342214,29.0358902 17.2217977,28.7258464 18.2480404,28.7258464 L18.4058751,28.7258464 L18.4128478,28.7258464 L18.4147494,28.7258464 L18.4147494,24.2222204 L18.4147494,23.600215 C18.4305962,23.5995757 18.4477109,23.5989365 18.4641916,23.5982972 C18.4749675,23.5982972 18.4851094,23.5976579 18.4958853,23.5976579 C18.522508,23.5970187 18.5484969,23.5963794 18.5744857,23.5957401 C18.6061795,23.5951009 18.6366054,23.5951009 18.6682992,23.5951009 C18.6733701,23.5951009 18.679075,23.5944616 18.684146,23.5944616 L18.6866815,23.5944616 L18.6879493,24.2222204 L18.6879493,29.0799996 L18.6847799,29.0799996 C17.8892675,29.0799996 17.1298859,29.1400905 16.4364273,29.3273954 C16.0402558,29.4335134 15.6643682,29.5811838 15.3157373,29.7831917 C15.3157373,29.7831917 15.3151034,29.783831 15.3144696,29.783831 L15.3138357,29.7844702 L15.3138357,29.7883058 L15.3113002,29.7883058 L15.3093986,29.7883058 L15.3074969,29.7883058 L15.3043276,29.7883058 L15.3030598,29.7883058 L15.2003722,29.7883058 L15.1933995,29.7883058 L15.1141652,29.7883058 L15.1141652,29.7889451 L15.1128975,29.7883058 L15.1084604,29.7883058 L15.1084604,29.7876666 L15.1065587,29.7870273 C15.1046571,29.7857488 15.1021216,29.7844702 15.10022,29.7831917 C14.1430696,29.2283092 12.9824455,29.0799996 11.7318113,29.0799996 L11.7286419,29.0799996 L11.728008,24.2222204 L11.728008,23.5944616 Z M12.1729879,23.0133692 L12.1761573,23.0133692 L12.1831299,23.0133692 C13.2740278,23.0146477 14.2863252,23.3553763 15.1211379,23.9364687 L15.1211379,23.9460577 L15.1300121,23.9486147 L15.1300121,24.2222204 L15.1300121,29.4897688 L15.1236734,29.487851 C15.1211379,29.485294 15.1179685,29.4827369 15.1141652,29.4808191 C15.1090942,29.4776228 15.1046571,29.4750657 15.10022,29.4712301 C14.267309,28.8978089 13.2607164,28.5628337 12.1761573,28.5628337 L12.1736218,28.5628337 L12.1729879,24.2222204 L12.1729879,23.0133692 Z M18.2423355,23.0133692 L18.2436033,23.0133692 L18.2461388,23.0133692 L18.2461388,24.2222204 L18.2461388,28.5628337 L18.2442372,28.5628337 L18.2423355,28.5628337 C17.1577764,28.5628337 16.1511838,28.8978089 15.3182728,29.4712301 C15.3138357,29.4750657 15.3093986,29.4776228 15.3055953,29.4808191 C15.3017921,29.4827369 15.2986227,29.485294 15.2941856,29.487851 L15.2941856,29.4859332 L15.2941856,24.2222204 L15.2941856,23.9486147 L15.2948195,23.9486147 L15.3024259,23.9460577 L15.3024259,23.9383865 L15.3036937,23.9364687 C15.5255497,23.7817664 15.7600833,23.6443243 16.0060266,23.5254209 L16.1499161,23.4704441 L16.1499161,23.5516308 L16.1499161,24.2222204 L16.1499161,24.5680631 L16.4085368,24.3072427 L16.6627205,24.5648668 L16.6627205,24.2222204 L16.6627205,23.5516308 L16.6633543,23.5516308 L16.6633543,23.272911 L16.8072438,23.2179342 C16.9004234,23.1904458 16.9961384,23.1661537 17.0918535,23.1437794 C17.0950228,23.1431401 17.0975583,23.1425008 17.1000938,23.1418616 C17.1248149,23.1367475 17.1501699,23.1309941 17.1755249,23.1258799 C17.1863007,23.1233229 17.1977105,23.1207658 17.2091202,23.1182088 C17.2319397,23.1137339 17.2541253,23.1098983 17.275677,23.1054234 C17.29089,23.1022271 17.3067369,23.09967 17.321316,23.097113 C17.3416,23.0932774 17.361884,23.0894418 17.3809002,23.0862455 C17.4005503,23.0830491 17.4202004,23.0798528 17.4404844,23.0766565 C17.4556974,23.0740994 17.4721781,23.0715424 17.4886588,23.0689853 C17.5247897,23.0638712 17.5615544,23.0587571 17.5983191,23.0542822 L17.598953,23.0542822 C17.6274773,23.0504466 17.6553678,23.0472503 17.6832583,23.0440539 C17.6870615,23.0434147 17.6902309,23.0434147 17.6940342,23.0427754 C17.720023,23.0402183 17.7460119,23.0376613 17.7726346,23.0351042 C17.7783395,23.034465 17.7846782,23.0338257 17.7897492,23.0331864 L17.8645464,23.027433 C17.871519,23.0267938 17.8791255,23.0261545 17.8873659,23.0255152 C17.9108192,23.0242367 17.9336387,23.0229582 17.9564582,23.0216796 C17.967234,23.0210404 17.9767422,23.0204011 17.9862503,23.0197619 C18.0071681,23.0191226 18.0287199,23.0178441 18.0509055,23.0172048 C18.0629491,23.0165655 18.0768943,23.0159263 18.0895718,23.0159263 C18.1079542,23.015287 18.1276043,23.0146477 18.1453528,23.0140085 C18.1713416,23.0140085 18.1973305,23.0133692 18.2233193,23.0133692 L18.2417017,23.0133692 L18.2423355,23.0133692 Z M19.3421077,24.2222204 L19.3421077,24.0732715 L19.3345012,24.0732715 L19.2001198,24.0732715 C19.1982182,24.0732715 19.1956827,24.0726323 19.1937811,24.0726323 C19.1925133,24.0726323 19.1906117,24.0732715 19.1887101,24.0732715 C19.1887101,24.0732715 19.1880762,24.0726323 19.1874423,24.0726323 C19.1849068,24.0726323 19.1773003,24.0732715 19.1773003,24.0732715 C19.0701755,24.0732715 18.9611491,24.0751893 18.845784,24.0790249 L18.8394452,24.0790249 L18.8394452,23.4499876 L18.8318388,23.4499876 L18.6917525,23.4499876 L18.6847799,23.4499876 L18.6765395,23.4499876 L18.6340699,23.4499876 C18.5605405,23.4506269 18.4863772,23.4525446 18.4084106,23.455741 L18.3957331,23.455741 L18.3957331,22.8682559 L18.3950993,22.8682559 L18.2417017,22.8682559 L18.2404339,22.8682559 C18.234729,22.8682559 18.2283903,22.8688952 18.2220516,22.8688952 C18.1960627,22.8688952 18.1707077,22.8688952 18.1453528,22.8695344 L18.0819653,22.8714522 C18.0724572,22.8714522 18.0610475,22.8720915 18.0509055,22.8720915 C18.0261844,22.87337 18.0001955,22.8740093 17.9754744,22.8759271 C17.9697695,22.8759271 17.9627969,22.8759271 17.9564582,22.8765664 C17.9292016,22.8784842 17.9013111,22.8797627 17.8734206,22.8816805 C17.8708851,22.8816805 17.8677158,22.8823198 17.8645464,22.8823198 C17.8347543,22.8848768 17.8036944,22.8867946 17.7739023,22.8899909 L17.7732685,22.8899909 C17.4062552,22.9225935 17.0462145,22.9929127 16.6975836,23.0990308 L16.6627205,23.109259 L16.6627205,23.1098983 C16.4890389,23.1642359 16.3172589,23.2281624 16.1499161,23.3003994 L16.1499161,23.2959246 L16.0231412,23.3566548 C15.7448703,23.4857865 15.4761075,23.6392102 15.22129,23.8175653 L15.2124158,23.8226794 L15.2117819,23.8233187 L15.211148,23.8226794 L15.2029077,23.8175653 C14.3123141,23.1981169 13.2689568,22.8701737 12.1831299,22.8682559 L12.0297323,22.8682559 L12.0297323,23.4563802 L12.015787,23.455741 C11.9156349,23.4519054 11.8249908,23.4499876 11.7394178,23.4499876 L11.7318113,23.4499876 L11.5841186,23.4499876 L11.5841186,24.0796642 L11.5701733,24.0790249 C11.4567098,24.0751893 11.344514,24.0732715 11.2392909,24.0732715 C11.2392909,24.0732715 11.2329521,24.0726323 11.2304166,24.0726323 C11.2272472,24.0726323 11.2253456,24.0732715 11.223444,24.0732715 L11.0814561,24.0732715 L11.0814561,24.2222204 L10.8272725,24.2222204 L10.8272725,30.3214533 L14.9506256,30.3214533 L14.9506256,30.3246497 L15.2003722,30.3246497 L15.4640639,30.3246497 L15.4723043,30.3246497 L15.4723043,30.3214533 L19.5836138,30.3214533 L19.5836138,24.2222204 L19.3421077,24.2222204 Z" id="Fill-197" fill="#004181"></path>
                    <polygon id="Fill-199" fill="#004181" points="38.6670373 26.8999761 41.2538789 24.413233 38.1079601 25.1483884 37.0696738 22.0741602 36.0307536 25.1483884 32.8848348 24.413233 35.4723102 26.8999761 34.3446476 30.0969433 37.0747448 27.9336685 39.7940661 30.0969433"></polygon>
                    <path d="M29.367529,36.7492688 L28.8946587,36.7889032 L28.6632945,36.8074419 L28.5669456,36.8157524 C28.5422245,36.8688114 28.5130663,36.9199527 28.4820064,36.9678976 C28.2702924,37.2868911 27.9121533,37.4869813 27.5140802,37.4869813 C26.8725993,37.4869813 26.3502867,36.9602264 26.3502867,36.3132896 C26.3502867,35.9111916 26.5486894,35.5506458 26.8656266,35.3371311 C26.914435,35.3045286 26.9664127,35.2744831 27.020292,35.2495517 L27.0291662,35.1562189 L27.0475486,34.9216085 L27.0868488,34.4453556 L27.1064989,34.2145807 L27.1255152,33.9838059 L27.2687708,32.2584281 L24.814409,32.2584281 L24.9411839,33.9786917 L24.9576646,34.2094666 L24.9747792,34.4408807 L25.0096423,34.9184121 L25.0267569,35.1536619 L25.0343634,35.2482732 C25.0876089,35.2732045 25.1389527,35.30325 25.1871272,35.3358526 C25.505966,35.5506458 25.7113413,35.916945 25.7113413,36.3132896 C25.7113413,36.9602264 25.1890288,37.4869813 24.5475479,37.4869813 C24.1444037,37.4869813 23.7818275,37.2811377 23.5713812,36.9538338 C23.5434908,36.9103637 23.5181358,36.8649758 23.4953163,36.8170309 L23.385656,36.8080812 L23.153658,36.7889032 L22.6807877,36.7492688 L22.451959,36.7307301 L22.2231303,36.7109128 L20.4539868,36.5638817 L20.4539868,39.0442322 L22.2218626,38.9119042 L22.4506913,38.8946441 L22.6795199,38.8773839 L23.153658,38.841585 L23.3862899,38.8236856 L23.4965841,38.8153751 C23.5194035,38.7680695 23.5447585,38.7226816 23.572649,38.6792116 C23.7830953,38.3531861 24.1463053,38.1479819 24.5475479,38.1479819 C25.1890288,38.1479819 25.7113413,38.6747367 25.7113413,39.3216735 C25.7113413,39.7231323 25.5135725,40.0843173 25.1966353,40.2971928 C25.1484608,40.3297953 25.0990186,40.3585622 25.0451393,40.3841329 L25.0381667,40.480662 L25.0229537,40.7152724 L24.9931616,41.1940824 L24.9773147,41.4254965 L24.9621017,41.6569106 L24.5355042,48.2451817 L27.4842881,48.2451817 L27.0729036,41.6607462 L27.0583245,41.4293321 L27.0437454,41.197918 L27.0133194,40.719108 L27.000008,40.4844976 L26.9917676,40.370069 C26.9473964,40.3470555 26.904293,40.3208456 26.8630911,40.2933572 C26.5480556,40.0785639 26.3502867,39.7173789 26.3502867,39.3216735 C26.3502867,38.6747367 26.8725993,38.1479819 27.5140802,38.1479819 C27.9108856,38.1479819 28.2690246,38.3474327 28.4807387,38.6651477 C28.5117985,38.7137319 28.5409568,38.7635946 28.565044,38.8172929 L28.6620268,38.8243248 L28.8946587,38.841585 L29.3681629,38.8773839 L29.8277218,38.9119042 L31.6000347,39.0448715 L31.6000347,36.5638817 L29.8258202,36.7109128 L29.5963577,36.7300908 L29.367529,36.7492688 Z M31.8244263,39.2884317 L29.7573618,39.1337294 L29.5247299,39.1164692 L29.2901963,39.0985698 L28.807184,39.0621316 L28.5682134,39.0442322 L28.408477,39.0327254 C28.3989689,38.9988444 28.3850236,38.9675203 28.3723462,38.9355571 C28.2246534,38.6018604 27.8944048,38.3749211 27.5140802,38.3749211 C26.9962048,38.3749211 26.575946,38.7993935 26.575946,39.3216735 C26.575946,39.700758 26.8003376,40.0350939 27.1305861,40.184682 C27.1553073,40.1961888 27.1806622,40.2070563 27.207285,40.216006 L27.2180608,40.3918041 L27.2332738,40.6334464 L27.2643337,41.1218454 L27.2789128,41.3577344 L27.2941258,41.5929841 L27.7238926,48.472121 L24.2952658,48.472121 L24.7415134,41.58787 L24.7573603,41.3532595 L24.7719394,41.1167312 L24.8036331,40.6283323 L24.81948,40.3866899 L24.8302559,40.225595 C24.8638512,40.2153668 24.894911,40.2025814 24.9266048,40.1878783 C25.2600227,40.0414865 25.4863159,39.7084292 25.4863159,39.3216735 C25.4863159,38.7993935 25.0654233,38.3749211 24.5475479,38.3749211 C24.1615183,38.3749211 23.8268326,38.6088923 23.683577,38.9502602 C23.6728011,38.9764701 23.6620253,39.0033192 23.6537849,39.0308076 L23.4801033,39.0435929 L23.2417665,39.0621316 L22.7581203,39.0985698 L22.5235868,39.11583 L22.2909549,39.1330901 L20.2295953,39.2884317 L20.2295953,36.3184038 L22.2934904,36.4897269 L22.5254884,36.5089049 L22.7593881,36.5287221 L23.2411327,36.5683566 L23.4788356,36.5888131 L23.653151,36.6028769 C23.6613914,36.6297261 23.6721673,36.655936 23.6823093,36.6821459 C23.824931,37.0247922 24.1602506,37.260042 24.5475479,37.260042 C25.0654233,37.260042 25.4863159,36.8355696 25.4863159,36.3132896 C25.4863159,35.9297303 25.2524162,35.5921981 24.9177305,35.445167 C24.8866707,35.4311031 24.8537092,35.4183178 24.8201139,35.4080896 L24.809338,35.2476339 L24.7909556,35.0066308 L24.7560925,34.5195104 L24.7377102,34.2829822 L24.7205956,34.0483717 L24.5729028,32.0314888 L27.5128124,32.0314888 L27.3454696,34.0547643 L27.3258195,34.2887355 L27.3061694,34.5246245 L27.2662353,35.0104664 L27.2459513,35.250191 L27.2326399,35.4093681 C27.1990446,35.4195964 27.166717,35.4330209 27.1350233,35.4470848 C26.8022392,35.5941159 26.575946,35.9271732 26.575946,36.3132896 C26.575946,36.8355696 26.9962048,37.260042 27.5140802,37.260042 C27.8956726,37.260042 28.226555,37.0318242 28.37298,36.696849 C28.3862914,36.665525 28.3996028,36.634201 28.4091109,36.6015984 L28.5694811,36.5881738 L28.807184,36.5683566 L29.2895624,36.5280829 L29.5234621,36.5089049 L29.7554602,36.4897269 L31.8244263,36.3177645 L31.8244263,39.2884317 Z M27.4050538,40.0325368 C27.0621277,39.9794778 26.7997037,39.6822193 26.7997037,39.3216735 C26.7997037,38.9240503 27.1198103,38.6012212 27.5140802,38.6012212 C27.8722192,38.6012212 28.1676047,38.8671556 28.2195824,39.2129983 C28.0116716,39.5434986 27.7334007,39.8241362 27.4050538,40.0325368 L27.4050538,40.0325368 Z M28.4522143,39.262861 L28.7000592,39.2813997 C28.4141819,39.8094331 27.979344,40.2441337 27.4525944,40.5273284 L27.4361136,40.2767363 C27.8544707,40.0318975 28.2050033,39.6822193 28.4522143,39.262861 L28.4522143,39.262861 Z M27.4982333,41.270155 L27.4830203,41.0285126 C28.2347954,40.6807521 28.8439487,40.0721713 29.1963829,39.3184771 L29.4353536,39.3363766 C29.054395,40.2006636 28.3603025,40.8949061 27.4982333,41.270155 L27.4982333,41.270155 Z M23.8395101,39.2296192 C23.8851491,38.8754661 24.1837039,38.6012212 24.5475479,38.6012212 C24.9424516,38.6012212 25.2619243,38.9240503 25.2619243,39.3216735 C25.2619243,39.6854156 24.9944293,39.9858704 24.6464323,40.0344546 C24.3225224,39.8292503 24.0467871,39.5537269 23.8395101,39.2296192 L23.8395101,39.2296192 Z M24.6020611,40.2709829 L24.5855803,40.521575 C24.0632678,40.2383803 23.6322332,39.8055975 23.3482574,39.2807605 L23.5967362,39.2622218 C23.8414117,39.6783837 24.1881411,40.0261441 24.6020611,40.2709829 L24.6020611,40.2709829 Z M22.6129631,39.3363766 L22.8519338,39.3184771 C23.2024663,40.0683357 23.8078164,40.6743594 24.5526189,41.0233985 L24.5374059,41.2644016 C23.6816754,40.8878742 22.99202,40.1968281 22.6129631,39.3363766 L22.6129631,39.3363766 Z M24.6388258,35.5998693 C24.9899922,35.6452571 25.2619243,35.9469905 25.2619243,36.3132896 C25.2619243,36.7109128 24.9424516,37.033742 24.5475479,37.033742 C24.1824362,37.033742 23.8826136,36.7575792 23.8388762,36.400869 C24.0448854,36.0786792 24.3174514,35.8050735 24.6388258,35.5998693 L24.6388258,35.5998693 Z M23.5948346,36.3708235 L23.3469897,36.350367 C23.6290638,35.8287263 24.0556613,35.3978613 24.5741706,35.1140274 L24.5919191,35.3646195 C24.1811684,35.6094582 23.8376085,35.9565794 23.5948346,36.3708235 L23.5948346,36.3708235 Z M24.5196574,34.3731186 L24.536772,34.6134825 C23.7989422,34.9638 23.2011986,35.5653489 22.8532015,36.3088148 L22.6154986,36.2896368 C22.9913861,35.4368565 23.673435,34.7509246 24.5196574,34.3731186 L24.5196574,34.3731186 Z M28.2202163,36.4174899 C28.1701402,36.7658897 27.8741209,37.033742 27.5140802,37.033742 C27.1198103,37.033742 26.7997037,36.7109128 26.7997037,36.3132896 C26.7997037,35.9508261 27.0652971,35.6516498 27.4107586,35.6011478 C27.737204,35.8095484 28.0142071,36.0889074 28.2202163,36.4174899 L28.2202163,36.4174899 Z M27.4614686,35.3671766 L27.4823865,35.1185023 C27.9958247,35.4023362 28.4205206,35.8306441 28.7006931,36.3497278 L28.454116,36.3708235 C28.2119759,35.957858 27.8703176,35.6126546 27.4614686,35.3671766 L27.4614686,35.3671766 Z M27.5432384,34.3795113 C28.383122,34.7585957 29.059466,35.4413314 29.4334519,36.2896368 L29.195749,36.3088148 C28.8496536,35.5691845 28.2557133,34.9701927 27.5235883,34.6192358 L27.5432384,34.3795113 Z M31.9004912,36.0844326 L29.6717887,36.2691803 C29.2730817,35.3115605 28.5124324,34.5438025 27.5635224,34.1391474 L27.7448105,31.9554162 C27.752417,31.8729509 27.6909311,31.8051888 27.6091613,31.8051888 L24.4790894,31.8051888 C24.3966857,31.8051888 24.3358338,31.8729509 24.3421725,31.9554162 L24.5019089,34.1321155 C23.5447585,34.5354921 22.7784043,35.3058071 22.3771618,36.2691803 L20.1541642,36.0844326 C20.0723944,36.0774006 20.0052037,36.1394094 20.0052037,36.2225139 L20.0052037,39.383043 C20.0052037,39.4667868 20.0723944,39.5281563 20.1541642,39.5217636 L22.3746263,39.354276 C22.7784043,40.3272382 23.5536328,41.1039459 24.5221929,41.5054047 L24.0651694,48.5481936 C24.0594645,48.6312982 24.122852,48.698421 24.2046218,48.698421 L27.8145367,48.698421 C27.8975742,48.698421 27.95906,48.6312982 27.9546229,48.5475544 L27.5134463,41.5105188 C28.4877113,41.1109778 29.2680107,40.3317131 29.6743242,39.354276 L31.9004912,39.5217636 C31.9816271,39.5281563 32.0488178,39.4667868 32.0488178,39.383043 L32.0488178,36.2225139 C32.0488178,36.1394094 31.9816271,36.0774006 31.9004912,36.0844326 L31.9004912,36.0844326 Z" id="Fill-201" fill="#FEFEFE"></path>
                    <polygon id="Fill-203" fill="#FEFEFE" points="17.1691227 11.7686237 16.1333719 13.7612145 16.6620232 14.0405736 17.697774 12.0479827"></polygon>
                    <path d="M21.6774278,19.2939942 L20.8907897,18.8330837 C20.8907897,18.8330837 20.4920827,18.6892489 20.3475593,18.5486105 L19.2351097,17.4682517 L19.6186037,18.0672435 C19.6731169,18.1842291 19.9843492,18.4827662 19.9843492,18.4827662 C19.9843492,18.4827662 21.3072452,19.7983747 21.4859978,20.0464098 C21.6641165,20.2950841 21.8599837,20.2087832 21.8599837,20.2087832 C22.1769209,20.0432134 21.9379502,19.7018456 21.9379502,19.7018456 L21.6774278,19.2939942 Z" id="Fill-205" fill="#FEFEFE"></path>
                    <path d="M22.9662213,19.2471999 C22.8622659,19.0893013 22.1859219,18.5644643 21.706079,18.20264 C21.5913477,18.1546951 21.4766164,18.1067501 21.3631529,18.0575267 C21.1882036,17.9820934 21.024664,17.9047422 20.8402065,17.856158 C20.6906121,17.8178021 20.5048869,17.7730535 20.3914234,17.6618213 C20.3369102,17.6087623 20.1080815,17.4419139 19.8475591,17.2546091 C19.71191,17.15808 19.5680205,17.0557975 19.434273,16.9618255 C19.1496634,16.7617354 18.9119605,16.5974441 18.9119605,16.5974441 C18.8897749,16.5833803 18.8701248,16.5712342 18.8530102,16.5597274 L18.4517676,16.3206421 C18.4517676,16.3206421 18.4181723,16.3014641 18.3782382,16.2778113 C18.4359208,16.3775367 18.4885324,16.4657554 18.5271987,16.5309605 C18.5715699,16.6025582 18.6292525,16.667124 18.6951754,16.724658 C18.7471531,16.8135159 18.8568134,16.9567114 19.0704291,17.0705006 C19.0704291,17.0705006 20.2354903,18.1559736 20.3546587,18.3113151 C20.4497398,18.4346934 20.6246892,18.5043733 20.7628738,18.5631858 C20.9346538,18.636062 21.0829804,18.7338697 21.2420829,18.8316773 C21.4043547,18.9326813 21.5704298,19.0298496 21.7339694,19.1295751 C21.9906886,19.2861951 22.2385335,19.4600754 22.4724331,19.6505765 C22.604279,19.7579731 22.806485,19.9267393 22.9687568,19.762448 C23.2432244,19.4830889 22.9662213,19.2471999 22.9662213,19.2471999" id="Fill-207" fill="#FEFEFE"></path>
                    <polygon id="Fill-209" fill="#FEFEFE" points="34.8396402 11.7686237 34.3116228 12.0479827 35.3473736 14.0405736 35.875391 13.7612145"></polygon>
                    <path d="M31.1181,18.8330198 L30.3314618,19.2939303 L30.0703056,19.7017817 C30.0703056,19.7017817 29.8326027,20.0437888 30.148906,20.2087193 C30.148906,20.2087193 30.3447732,20.2950202 30.5241597,20.0463458 C30.7022784,19.7983108 32.0251743,18.4827022 32.0251743,18.4827022 C32.0251743,18.4827022 32.3364067,18.1841652 32.3909199,18.0678189 L32.7731461,17.4681878 L31.6613304,18.5485466 C31.5161732,18.689185 31.1181,18.8330198 31.1181,18.8330198" id="Fill-211" fill="#FEFEFE"></path>
                    <path d="M33.1565134,16.5599831 C33.1387649,16.5714899 33.1191148,16.583636 33.0962953,16.5976998 C33.0962953,16.5976998 32.860494,16.7619911 32.5752505,16.9620812 C32.441503,17.0560532 32.2976135,17.1583357 32.1619644,17.2548648 C31.9008082,17.4421696 31.6732472,17.609018 31.618734,17.662077 C31.5040028,17.7726699 31.3182776,17.8180578 31.1693171,17.8564137 C30.9848596,17.9049979 30.8206861,17.9823491 30.6470045,18.0577824 C30.5322733,18.1070058 30.4181759,18.1549508 30.3034446,18.2028957 C29.8236017,18.56472 29.1466238,19.089557 29.0420345,19.2474556 C29.0420345,19.2474556 28.766933,19.4833446 29.0401329,19.7627037 C29.2017708,19.926995 29.4058784,19.7582288 29.5377243,19.6508322 C29.7709901,19.4603311 30.0182011,19.2864508 30.2755541,19.1298308 C30.4397276,19.0301053 30.6045349,18.932937 30.7668068,18.831933 C30.9259093,18.7341254 31.0742359,18.6363178 31.2460159,18.5634415 C31.3848344,18.504629 31.5591498,18.4355884 31.654231,18.3115708 C31.7727655,18.1562293 32.9397283,17.0707563 32.9397283,17.0707563 C33.153344,16.9569671 33.2630043,16.8131323 33.3143481,16.7249137 C33.3796372,16.6673798 33.4373198,16.6028139 33.481691,16.5312162 C33.5216251,16.4666504 33.5736028,16.3784317 33.6312853,16.278067 C33.5913513,16.3017198 33.557122,16.3215371 33.557122,16.3215371 L33.1565134,16.5599831 Z" id="Fill-213" fill="#FEFEFE"></path>
                    <path d="M31.9079709,15.62608 C31.847119,15.7910106 31.0928084,16.5817821 31.0928084,16.5817821 L30.7948874,16.8732872 C30.7948874,16.8732872 29.9099987,17.3425081 29.3204955,17.6973005 C29.3242988,17.6921864 29.3287359,17.686433 29.333173,17.6813189 C30.2072858,16.506988 30.685861,15.2265391 30.150871,14.0848107 C29.9917685,13.746 29.7756174,13.4807048 29.5246031,13.2844502 C29.5239692,13.2844502 29.5233353,13.283811 29.5227015,13.283811 C29.9600748,13.3132172 30.3182139,13.3349522 30.3182139,13.3349522 C30.3182139,13.3349522 31.1061198,13.5964118 31.1619007,13.7217079 C31.1967638,13.799059 32.2382195,14.72088 31.9079709,15.62608 L31.9079709,15.62608 Z M21.2145093,16.8732872 L20.9159545,16.5817821 C20.9159545,16.5817821 20.1622778,15.7910106 20.1020597,15.62608 C19.7711773,14.72088 20.812633,13.799059 20.847496,13.7217079 C20.9026431,13.5964118 21.6911829,13.3349522 21.6911829,13.3349522 C21.6911829,13.3349522 22.0518575,13.3125779 22.4917663,13.2831717 C22.4968373,13.2825324 22.5025422,13.2818932 22.5095148,13.2806146 C22.255965,13.4768692 22.03918,13.7434429 21.8788097,14.0848107 C21.337481,15.2380458 21.831903,16.5344764 22.7250321,17.7190356 C22.1361628,17.3616861 21.2145093,16.8732872 21.2145093,16.8732872 L21.2145093,16.8732872 Z M33.9515821,12.3293874 C33.3018608,12.340255 32.5703697,12.6867369 32.0810187,12.966096 C32.0486911,12.9628996 32.0201667,12.9603426 31.9973472,12.9584248 C31.7044972,12.9341327 31.1232344,12.6228103 30.8842637,12.5799795 C30.6452931,12.537788 30.2713072,12.4374233 30.0545221,12.5039069 C29.8383709,12.5703906 29.4612156,12.5608016 29.2209772,12.5735869 C28.980105,12.5863722 29.0022906,12.7781519 29.0022906,12.7781519 C29.0022906,12.7781519 29.0238423,12.9066443 29.1056121,13.0338581 C29.0986395,13.0306618 29.0916669,13.0268262 29.0840604,13.0236299 C27.9912608,12.5544089 26.5523659,13.0881957 26.0154743,14.3807907 C25.4703422,13.0683785 23.9953165,12.5384273 22.8955443,13.0460042 C22.9842867,12.9149547 23.0064723,12.7781519 23.0064723,12.7781519 C23.0064723,12.7781519 23.0292918,12.5863722 22.7884195,12.5735869 C22.5475473,12.5608016 22.170392,12.5703906 21.9542408,12.5039069 C21.7374557,12.4374233 21.3641037,12.537788 21.1244992,12.5799795 C20.8855285,12.6228103 20.3055334,12.9341327 20.0114157,12.9584248 C19.9892301,12.9603426 19.9600718,12.9628996 19.929012,12.966096 C19.4390271,12.6867369 18.7069021,12.340255 18.0578147,12.3293874 L17.8765266,12.2635431 L16.9244472,14.0592401 C17.3662577,14.1500158 17.733271,15.0104673 17.733271,15.0104673 C17.733271,15.0104673 17.9963289,15.491195 18.2352995,15.9131103 C18.2524141,15.9380417 18.3373533,16.0531095 18.4013746,16.0722874 C18.4679314,16.0927439 18.838748,16.3471716 18.9015016,16.3906417 C18.9173484,16.3989521 18.9325614,16.4085411 18.9484083,16.4194086 C18.9484083,16.4194086 19.3052796,16.6719185 19.6805332,16.9372138 C19.8206195,17.0362999 19.959438,17.1360254 20.0798741,17.2229655 C20.2434137,17.3431474 20.3701886,17.438398 20.4088549,17.4767539 C20.5223185,17.5879861 20.7086775,17.6320954 20.857638,17.6704514 C21.0420955,17.7190356 21.2056351,17.7963867 21.3812183,17.87182 C21.4072072,17.8826876 21.433196,17.8935551 21.4591849,17.9050619 C21.6132164,17.9702669 21.7672478,18.0348328 21.9206455,18.1000379 C22.2033534,18.2202198 22.4797227,18.3602189 22.7427806,18.5181175 C22.8911072,18.6069755 23.1218375,18.7482532 23.2612899,18.5571127 C23.291082,18.5155605 23.3126337,18.4772045 23.3265789,18.4401271 C24.1601238,19.3510806 25.1679841,20.1552767 26.0142065,20.7178304 C26.8521885,20.1603908 27.8499068,19.366423 28.6783807,18.4656978 C28.6815501,18.4618622 28.6853533,18.4580266 28.6891566,18.454191 C28.702468,18.4874328 28.7214842,18.5213139 28.7481069,18.5571127 C28.8869254,18.7482532 29.1176557,18.6069755 29.2659823,18.5181175 C29.5296741,18.3602189 29.8054095,18.2202198 30.0881175,18.1000379 C30.2421489,18.0348328 30.3961804,17.9702669 30.5502119,17.9050619 C30.5762008,17.8935551 30.6015557,17.8826876 30.6281785,17.87182 C30.8031278,17.7963867 30.9673013,17.7190356 31.1517587,17.6704514 C31.3000854,17.6320954 31.4864444,17.5879861 31.6005418,17.4767539 C31.6392082,17.438398 31.7659831,17.3431474 31.9295227,17.2229655 C32.0493249,17.1360254 32.1887773,17.0362999 32.3288636,16.9372138 C32.7034833,16.6719185 33.0603546,16.4194086 33.0603546,16.4194086 C33.0768354,16.4085411 33.0914145,16.3989521 33.1078952,16.3906417 C33.1700149,16.3471716 33.5414653,16.0927439 33.6080221,16.0722874 C33.6720435,16.0531095 33.7563488,15.9380417 33.7740972,15.9131103 C34.0130679,15.491195 34.2761258,15.0104673 34.2761258,15.0104673 C34.2761258,15.0104673 34.6431391,14.1500158 35.0849496,14.0592401 L34.1328702,12.2635431 L33.9515821,12.3293874 Z" id="Fill-215" fill="#FEFEFE"></path>
                    <polygon id="Fill-217" fill="#FEFEFE" points="26.0105934 11.810112 24.3954814 11.810112 24.3954814 12.0095629 24.3954814 12.4385101 26.0105934 12.4385101 26.0112273 12.4385101 27.6269732 12.4385101 27.6269732 12.0095629 27.6269732 11.810112 26.0112273 11.810112"></polygon>
                    <path d="M24.3937065,11.5713463 L26.0119879,11.5713463 L27.6309032,11.5713463 C27.6309032,11.5713463 27.6860503,11.2203895 27.9884084,10.7492508 C28.3395748,10.2007609 29.2244635,9.30451056 29.2244635,9.30451056 C29.2244635,9.30451056 28.702151,9.32688485 28.5722068,9.7328185 C28.5538244,9.66058148 28.5081854,9.58450888 28.4219785,9.50396142 C28.4219785,9.50396142 28.5360759,9.69765889 28.2723842,9.86770353 C28.0587685,10.0051456 28.177303,10.1547338 28.2292807,10.2071536 C28.2140677,10.2205781 28.1982208,10.2327242 28.1830079,10.2435917 C28.1754014,10.2499844 28.167161,10.2570163 28.1589206,10.2621304 C28.1443415,10.2717194 28.1284947,10.2813084 28.1101123,10.2915366 C27.9947472,10.3586595 27.8052187,10.4334536 27.6594276,10.3516276 C27.5015929,10.2627697 27.4242602,10.0748256 27.4667298,9.91628772 C27.4749701,9.91692698 27.4832105,9.91692698 27.4914509,9.91692698 C27.6416791,9.91692698 27.7621152,9.79546652 27.7621152,9.64459984 C27.7621152,9.49373317 27.6416791,9.37227271 27.4914509,9.37227271 C27.3424904,9.37227271 27.2214204,9.49373317 27.2214204,9.64459984 C27.2214204,9.74240748 27.2727642,9.82806907 27.349463,9.87601399 C27.2797368,10.0038671 27.0686566,10.3145502 26.6876981,10.2666053 C26.4797873,10.2410346 26.344772,10.1298024 26.2198988,9.93354789 C26.3644221,9.87984958 26.4683775,9.77053516 26.4905631,9.64076425 C26.4924648,9.6324538 26.4937325,9.62286482 26.4943664,9.6139151 C26.4950003,9.60560464 26.4975358,9.59793346 26.4975358,9.58898374 C26.4975358,9.58195182 26.4956341,9.5749199 26.4943664,9.56724871 C26.4937325,9.55126707 26.491197,9.53464616 26.4886615,9.51738599 C26.4873938,9.51418967 26.4867599,9.5116326 26.486126,9.50907554 C26.4835905,9.49437243 26.4804211,9.48030859 26.475984,9.46496622 C26.3612528,9.08716026 26.6357204,8.9842385 26.6357204,8.9842385 C26.4696453,8.99766308 26.3536463,9.04432946 26.274412,9.11017382 C26.4975358,8.62113565 26.0563592,8.1966633 26.0119879,8.15638957 L26.0119879,8.1557503 L26.0119879,8.15638957 C25.9682506,8.1966633 25.527074,8.62113565 25.7501978,9.11017382 C25.6709635,9.04432946 25.5549645,8.99766308 25.3888894,8.9842385 C25.3888894,8.9842385 25.6627231,9.08716026 25.5486257,9.46496622 C25.5435547,9.48030859 25.5410192,9.49437243 25.5384837,9.50907554 C25.5378499,9.5116326 25.5365821,9.51418967 25.5365821,9.51738599 C25.5334128,9.53464616 25.5308773,9.55126707 25.5302434,9.56724871 C25.5289756,9.5749199 25.527074,9.58195182 25.527074,9.58898374 C25.527074,9.59793346 25.5289756,9.60560464 25.5302434,9.6139151 C25.5308773,9.62286482 25.532145,9.6324538 25.5334128,9.64076425 C25.5562322,9.77053516 25.6601876,9.87984958 25.804711,9.93354789 C25.6798377,10.1298024 25.5441886,10.2410346 25.3369117,10.2666053 C24.9553193,10.3145502 24.744873,10.0038671 24.6745129,9.87601399 C24.7518456,9.82806907 24.8031894,9.74240748 24.8031894,9.64459984 C24.8031894,9.49373317 24.6821194,9.37227271 24.532525,9.37227271 C24.3829307,9.37227271 24.2624945,9.49373317 24.2624945,9.64459984 C24.2624945,9.79546652 24.3829307,9.91692698 24.532525,9.91692698 C24.5413993,9.91692698 24.5496396,9.91692698 24.55788,9.91628772 C24.6003496,10.0748256 24.5236508,10.2627697 24.3651822,10.3516276 C24.2187572,10.4334536 24.0298626,10.3586595 23.9144975,10.2915366 C23.896749,10.2813084 23.8802682,10.2717194 23.8656891,10.2621304 C23.8580826,10.2570163 23.8498423,10.2499844 23.8416019,10.2435917 C23.8263889,10.2327242 23.8111759,10.2205781 23.7953291,10.2071536 C23.8473068,10.1547338 23.9664752,10.0051456 23.7528595,9.86770353 C23.4891677,9.69765889 23.6019974,9.50396142 23.6019974,9.50396142 C23.5164243,9.58450888 23.4701515,9.66058148 23.452403,9.7328185 C23.3230926,9.32688485 22.8001462,9.30451056 22.8001462,9.30451056 C22.8001462,9.30451056 23.6850349,10.2007609 24.0362014,10.7492508 C24.3385595,11.2203895 24.3937065,11.5713463 24.3937065,11.5713463" id="Fill-219" fill="#FEFEFE"></path>
                </g>
            </g>
        </g>
    </g>
</svg>