<?xml version="1.0" encoding="UTF-8"?>
<svg width="169px" height="174px" viewBox="0 0 169 174" version="1.1" xmlns="http://www.w3.org/2000/svg" xmlns:xlink="http://www.w3.org/1999/xlink">
    <title>33A4EAA7-201D-4726-B2C8-05C0C0E38F8A</title>
    <defs>
        <polygon id="path-1" points="0.277416471 0.49327324 13.0134259 0.49327324 13.0134259 12.3804263 0.277416471 12.3804263"></polygon>
        <polygon id="path-3" points="0.12024 0.187060676 11.06709 0.187060676 11.06709 12.4603281 0.12024 12.4603281"></polygon>
    </defs>
    <g id="Version-3-" stroke="none" stroke-width="1" fill="none" fill-rule="evenodd">
        <g id="ATC_Website_Homepage-v4" transform="translate(-623.000000, -4833.000000)">
            <g id="Group-10" transform="translate(0.000000, 3477.000000)">
                <g id="Footer" transform="translate(0.000000, 1233.000000)">
                    <g id="Footer" transform="translate(0.000000, 79.000000)">
                        <g id="Group-184" transform="translate(623.000000, 44.000000)">
                            <g id="Group-183" transform="translate(0.956697, 0.000000)">
                                <path d="M47.7156223,13.7757993 C46.3636887,14.2504279 45.2212577,14.1190791 44.8501387,14.056225 L44.6679996,12.7169503 L45.1066726,12.5630385 C45.684729,13.2794135 46.6202226,13.2415399 47.4197532,12.9611141 C48.129497,12.7121154 48.7297863,12.1504581 48.4518745,11.4493937 C48.2218492,10.8659793 47.6583297,10.7370479 46.3012654,10.9715418 C45.0528005,11.191531 43.7427674,11.0585705 43.2690348,9.85870287 C42.7987227,8.66931092 43.6324578,7.53068569 45.1314709,7.00448451 C46.3474415,6.57739932 47.3316765,6.63138933 47.6942444,6.67329203 L47.8635568,7.94487774 L47.4351452,8.09476047 C46.8570888,7.51134599 46.0763707,7.57984078 45.4564138,7.79741248 C44.6910877,8.06575091 44.201108,8.61290344 44.4396845,9.21807509 C44.6449116,9.73863553 45.193039,9.82485839 46.2294359,9.65483013 C47.9011818,9.37037528 49.1556325,9.46223889 49.6755412,10.7789506 C50.1997255,12.1061379 49.2146353,13.2504039 47.7156223,13.7757993" id="Fill-1" fill="#FEFEFE"></path>
                                <path d="M54.8278009,11.0020001 L52.7811343,11.6296396 L52.4311343,11.0185605 C52.8453009,10.8918733 52.9011343,10.716333 52.7836343,10.3387557 L51.3886343,5.84674459 C51.2678009,5.45757496 51.1261343,5.35490042 50.7119676,5.48241558 L50.6528009,4.78191025 L52.7003009,4.15344271 L53.0611343,4.76120974 C52.6469676,4.88872489 52.5878009,5.05267295 52.7086343,5.44184257 L54.1036343,9.93302564 C54.2219676,10.311431 54.3669676,10.4248698 54.7811343,10.2981827 L54.8278009,11.0020001 Z" id="Fill-3" fill="#FEFEFE"></path>
                                <path d="M62.1254773,6.0756825 C61.6790828,6.18172592 61.6094386,6.34244798 61.70006,6.71608534 L61.8913719,7.49732709 C61.9819934,7.87096445 62.0776493,7.96789476 62.3302146,7.90741687 L62.3428009,8.60001296 C61.4206439,8.90323086 61.3165971,9.4185356 59.6417787,9.81702689 C57.5902101,10.3058208 55.5755613,9.65961869 54.9621884,7.14605826 C54.3983217,4.83630004 55.6535964,3.17191543 57.8889252,2.6400414 C59.3002701,2.30368493 60.4355553,2.63258523 60.7862939,2.72868708 L60.7829375,4.15530245 L60.3600375,4.25637509 C59.9312638,3.49584494 59.0191758,3.38897305 58.204422,3.58283368 C56.6109951,3.96227029 55.9909095,5.19999582 56.3861197,6.8188149 C56.7796517,8.42686394 57.8494881,9.2379304 59.4672485,8.85269454 C59.9606319,8.73505262 60.4313599,8.47988565 60.7317532,8.21643403 L60.4380726,7.01598938 C60.3474512,6.64235202 60.2224271,6.52885242 59.7533773,6.64069509 L59.5570309,6.68708909 L59.5503182,5.95804058 L62.0029705,5.37397331 L62.3201456,6.0292885 L62.1254773,6.0756825 Z" id="Fill-5" fill="#FEFEFE"></path>
                                <path d="M69.7925028,2.13336497 L70.6928009,8.16774741 L69.750059,8.31727642 L65.4305868,4.03162303 C65.215103,3.82549265 64.9359534,3.43773099 64.9359534,3.43773099 C64.9359534,3.43773099 65.0485927,3.8880076 65.0861391,4.13468823 L65.610973,7.65664544 C65.6705575,8.05538946 65.784013,8.19393611 66.2043698,8.12719718 L66.1602936,8.84273993 L64.3107237,9.13757396 L64.0478987,8.47102941 C64.4690717,8.40344568 64.5580404,8.23279676 64.5000883,7.83405274 L63.7924197,3.09136437 C63.7312027,2.6807932 63.5965253,2.55745289 63.1778009,2.62503662 L63.2333043,1.90695947 L64.7988273,1.65689966 L68.8171118,5.63082309 C69.0497364,5.86990054 69.3141939,6.24836943 69.3141939,6.24836943 C69.3141939,6.24836943 69.1999221,5.79724803 69.1591108,5.51593074 L68.6816181,2.31077227 C68.6195849,1.9002011 68.4971509,1.77517119 68.0767941,1.84275492 L68.1331137,1.12467778 L69.9712564,0.830688542 L70.232449,1.49807789 C69.8120922,1.56566162 69.732102,1.7227938 69.7925028,2.13336497" id="Fill-7" fill="#FEFEFE"></path>
                                <path d="M79.3793614,1.25012924 L79.6362626,4.70239656 C79.7506306,6.2613522 78.6018299,7.32700914 76.639651,7.46206922 C74.6177277,7.60124698 73.3246868,6.7035916 73.2094653,5.1454595 L72.9542711,1.69319218 C72.9252524,1.28883549 72.8057634,1.15706956 72.3628009,1.18836396 L72.4805829,0.494945768 L74.7056374,0.341767876 L74.9241314,1.0113035 C74.46922,1.04342144 74.3830173,1.18836396 74.4145965,1.59189712 L74.6706442,5.05651749 C74.7346561,5.92205494 75.3918452,6.51500161 76.5995369,6.43182437 C77.7858912,6.3502942 78.3833358,5.67087613 78.3210309,4.80451516 L78.0632762,1.34071832 C78.033404,0.936361627 77.9147686,0.805419236 77.473513,0.835890107 L77.5793461,0.144118984 L79.6729628,0 L79.8778009,0.67035916 C79.4356919,0.700830031 79.3494892,0.845772552 79.3793614,1.25012924" id="Fill-9" fill="#FEFEFE"></path>
                                <path d="M89.632029,7.47619688 L87.6470693,7.43896398 L87.5018864,6.73407751 C87.9263282,6.74253953 88.0286703,6.58937692 88.0350171,6.18489225 L88.0929316,2.72392504 C88.098485,2.39136756 88.1508461,1.91580189 88.1508461,1.91580189 C88.1508461,1.91580189 87.9540955,2.35244226 87.7359244,2.70530859 L85.8461667,5.70340317 L85.34477,5.69409494 L83.620029,2.71123201 C83.4248651,2.36259668 83.2439814,1.89549304 83.2439814,1.89549304 C83.2439814,1.89549304 83.2804755,2.39559857 83.2749221,2.72815605 L83.2185943,6.09434861 C83.2122475,6.49883328 83.3098294,6.6553807 83.722371,6.66299652 L83.5549743,7.36195958 L81.6929838,7.32641908 L81.5478009,6.62237881 C81.9611358,6.62999463 82.0753781,6.47767822 82.0809316,6.07319355 L82.1610598,1.26761097 C82.1682,0.851279464 82.0587178,0.706578879 81.6461762,0.698963059 L81.8135729,0 L83.3637772,0.0296170788 L85.694637,4.09477269 L88.1809933,0.12016072 L89.7534114,0.149777798 L89.8978009,0.85381807 C89.484466,0.84620225 89.3710171,0.986671824 89.3646703,1.40384953 L89.284542,6.20858591 C89.2781952,6.61307058 89.3876774,6.769618 89.7994256,6.77723382 L89.632029,7.47619688 Z" id="Fill-11" fill="#FEFEFE"></path>
                                <path d="M100.011283,3.04573388 C100.047725,2.48108162 99.9320609,2.32190666 99.1366719,2.21132194 L97.4246842,1.97339725 L97.1632516,4.07534458 L98.841966,4.30908046 C99.2515438,4.36604834 99.4060267,4.2923252 99.4559366,3.89522554 L99.9772174,4.13398799 L99.7807468,5.71065793 L99.2206472,5.78689436 C99.2689727,5.38979471 99.1374641,5.2766967 98.7294708,5.21972882 L97.0507563,4.98683071 L96.7972459,7.01840595 C96.7489205,7.41550561 96.8289347,7.58138268 97.2488114,7.63918832 L97.0087687,8.30688542 L94.9767241,8.0245593 L94.9078009,7.31413628 C95.3157943,7.37110417 95.4449262,7.2345488 95.494836,6.83744915 L96.0810789,2.11916801 C96.1325732,1.71033968 96.0390912,1.55451576 95.6310979,1.49754788 L95.8703484,0.830688542 L100.752801,1.50927656 L100.569798,2.98122613 L100.011283,3.04573388 Z" id="Fill-13" fill="#FEFEFE"></path>
                                <path d="M103.627228,9.13757396 L101.61094,8.74470323 L101.587801,8.03886768 C101.995527,8.11794123 102.121595,7.98809413 102.19181,7.5968881 L103.021623,2.95069227 C103.094232,2.54783329 103.020027,2.39051853 102.6131,2.31144497 L102.877204,1.66137708 L104.893491,2.05341546 L104.927801,2.76174808 C104.519277,2.68267452 104.394805,2.80170104 104.322994,3.20372765 L103.492383,7.84992349 C103.422168,8.24112952 103.495574,8.41009723 103.9033,8.48917078 L103.627228,9.13757396 Z" id="Fill-15" fill="#FEFEFE"></path>
                                <path d="M108.902327,3.75022674 L107.641363,8.61005975 C107.882122,8.66948812 108.627749,8.85246494 108.969965,8.93535188 C110.483766,9.30599723 111.393657,8.58816509 111.795458,7.04302752 C112.196454,5.49710799 111.74473,4.44616421 110.230124,4.07551886 C109.825102,3.97621093 108.902327,3.75022674 108.902327,3.75022674 M108.770272,9.79315345 C108.681699,9.77204075 107.474684,9.47646281 107.474684,9.47646281 L105.762801,9.05733642 L105.771658,8.39111313 C106.189564,8.49276692 106.324035,8.3786019 106.417439,8.01577607 L107.53588,3.71034718 C107.632506,3.33735597 107.567284,3.18487529 107.149378,3.0832215 L107.467437,2.49206563 L108.937757,2.85176365 C108.937757,2.85176365 110.386335,3.20676995 110.473298,3.22788266 C112.833378,3.80574535 113.668384,5.22264276 113.111982,7.36519183 C112.555579,9.5077409 111.129547,10.3710161 108.770272,9.79315345" id="Fill-17" fill="#FEFEFE"></path>
                                <path d="M118.929383,13.2910167 L114.112801,11.6500703 L114.170197,10.9609377 C114.558606,11.0930891 114.70878,10.9885031 114.825932,10.6204252 L116.226247,6.24889226 C116.348903,5.8702747 116.285216,5.70488288 115.897594,5.57192082 L116.249049,4.98413125 L120.792801,6.53265274 L120.355645,7.8955138 L119.799764,7.85011212 C119.935,7.32069614 119.850871,7.14719687 119.094496,6.89019095 L117.562876,6.36807166 L116.938592,8.31547931 L118.470998,8.8375986 C118.868841,8.97380363 119.033954,8.93326642 119.151106,8.56599928 L119.607132,8.88867548 L119.138526,10.3496366 L118.589722,10.3188283 C118.70766,9.95075043 118.599157,9.81778838 118.200527,9.68158335 L116.668121,9.15946406 L115.971501,11.3346908 L118.01733,12.0319309 C118.625889,12.2394814 118.786285,12.1024656 119.040244,11.6362877 L119.52379,11.9451812 L118.929383,13.2910167 Z" id="Fill-19" fill="#FEFEFE"></path>
                                <path d="M122.585939,14.9523938 L120.792801,14.1671313 L120.893918,13.4707822 C121.257189,13.6294966 121.394259,13.5264569 121.526834,13.1575082 L123.089276,8.76834828 C123.224847,8.38859703 123.182902,8.21991103 122.82038,8.06119661 L123.175412,7.47619688 L124.967801,8.26062834 L124.87717,8.96196325 C124.513899,8.80324883 124.379826,8.89465504 124.245003,9.27523725 L122.682561,13.6635662 C122.550735,14.0325149 122.588186,14.2128344 122.949959,14.3715489 L122.585939,14.9523938 Z" id="Fill-21" fill="#FEFEFE"></path>
                                <path d="M34.1759988,63.0326406 L34.0066565,63.1323292 L33.886532,62.9766172 C30.7941596,58.9544699 32.7486858,55.972874 34.935119,54.1809505 L35.1653577,53.9947552 L35.2821454,54.2625139 C37.1640964,58.4996921 36.7803652,61.5307204 34.1759988,63.0326406" id="Fill-23" fill="#FEFEFE"></path>
                                <path d="M69.21119,116.214242 L69.390446,116.296396 L69.4903998,116.127057 C72.1395886,111.745213 69.915823,108.921787 67.5821909,107.324807 L67.3393279,107.158822 L67.250939,107.441332 C65.8168911,111.92042 66.49509,114.950909 69.21119,116.214242" id="Fill-25" fill="#FEFEFE"></path>
                                <path d="M68.918098,116.711307 L69.0228009,116.874523 L68.8752275,117.002113 C64.9954493,120.258976 61.9269123,118.458629 60.0331914,116.373275 L59.8378009,116.157035 L60.099146,116.027788 C64.2485136,113.96149 67.2956153,114.198443 68.918098,116.711307" id="Fill-27" fill="#FEFEFE"></path>
                                <path d="M73.6634127,119.554726 L73.8432569,119.61915 L73.9315588,119.456148 C76.229838,115.236729 73.8651298,112.773072 71.4769286,111.448876 L71.227415,111.312265 L71.1593658,111.579277 C70.0543772,115.808011 70.9211938,118.563519 73.6634127,119.554726" id="Fill-29" fill="#FEFEFE"></path>
                                <path d="M73.9169097,120.585362 L74.0328009,120.739655 L73.8947177,120.876712 C70.2568824,124.361421 67.083434,122.793056 65.0557477,120.861119 L64.8478009,120.660867 L65.0984877,120.516423 C69.0839969,118.188907 72.1308689,118.213528 73.9169097,120.585362" id="Fill-31" fill="#FEFEFE"></path>
                                <path d="M78.899996,122.057352 L79.0799361,122.111216 L79.1549111,121.940911 C81.1318841,117.505873 78.6813846,115.135872 76.2766594,113.9279 L76.0256903,113.80433 L75.97597,114.078401 C75.1622937,118.452447 76.1748512,121.208999 78.899996,122.057352" id="Fill-33" fill="#FEFEFE"></path>
                                <path d="M78.9193245,122.843503 L79.0428009,122.988357 L78.9143854,123.131592 C75.4891493,126.777216 72.2211398,125.423358 70.077589,123.642222 L69.8578009,123.458525 L70.0989916,123.299914 C73.9424012,120.77185 76.9897995,120.614858 78.9193245,122.843503" id="Fill-35" fill="#FEFEFE"></path>
                                <path d="M64.8199068,112.883204 L64.9946731,112.973642 L65.1053583,112.811849 C67.9973234,108.620994 65.909283,105.712038 63.6464764,104.010306 L63.4092936,103.836068 L63.3052661,104.109871 C61.6258458,108.46003 62.1526412,111.491783 64.8199068,112.883204" id="Fill-37" fill="#FEFEFE"></path>
                                <path d="M63.9150176,113.606729 L64.0128009,113.775207 L63.8561819,113.894719 C59.7907173,116.947254 56.8041835,114.983606 55.0150808,112.797533 L54.8278009,112.570958 L55.097948,112.453936 C59.3730666,110.60731 62.4184361,111.007343 63.9150176,113.606729" id="Fill-39" fill="#FEFEFE"></path>
                                <path d="M59.3728667,109.542741 L59.5325456,109.650888 L59.663948,109.503415 C62.9789485,105.687148 61.2100057,102.616439 59.1400017,100.709944 L58.9229382,100.513314 L58.7907041,100.774668 C56.6649788,104.871133 56.867904,107.902516 59.3728667,109.542741" id="Fill-41" fill="#FEFEFE"></path>
                                <path d="M58.9225051,109.886783 L59.0028009,110.061394 L58.8320666,110.163865 C54.3811409,112.739573 51.5614887,110.500789 49.9792378,108.166092 L49.8178009,107.925081 L50.1026399,107.839005 C54.6338615,106.468355 57.6825681,107.178273 58.9225051,109.886783" id="Fill-43" fill="#FEFEFE"></path>
                                <path d="M55.7792667,105.382152 L55.9333734,105.497445 L56.070998,105.359257 C59.5890795,101.760647 58.030707,98.592955 56.1031379,96.569197 L55.9020576,96.3598709 L55.7553678,96.6092633 C53.3959705,100.561111 53.4066838,103.591433 55.7792667,105.382152" id="Fill-45" fill="#FEFEFE"></path>
                                <path d="M54.7645019,105.979684 L54.8278009,106.157548 L54.6644738,106.244469 C50.4054659,108.506805 47.9360227,106.146281 46.6137766,103.764831 L46.4778009,103.517753 L46.7481893,103.450953 C51.0111046,102.377329 53.7814135,103.252969 54.7645019,105.979684" id="Fill-47" fill="#FEFEFE"></path>
                                <path d="M51.385712,101.21874 L51.5313102,101.344002 L51.6760949,101.212191 C55.3420764,97.8104685 53.9828896,94.5569322 52.1966691,92.4258413 L52.0104012,92.2064282 L51.8509753,92.4479464 C49.3066686,96.2663896 49.1488695,99.2964193 51.385712,101.21874" id="Fill-49" fill="#FEFEFE"></path>
                                <path d="M50.5986422,101.204906 L50.6528009,101.381526 L50.4831567,101.457669 C46.0222305,103.420897 43.6408398,100.982757 42.4278438,98.5901458 L42.3028009,98.3420929 L42.5831519,98.2910693 C46.9787691,97.4848975 49.7496247,98.4935935 50.5986422,101.204906" id="Fill-51" fill="#FEFEFE"></path>
                                <path d="M47.774421,96.2246826 L47.9078627,96.3598709 L48.0571903,96.238696 C51.8713984,93.09969 50.7840076,89.7298747 49.1985933,87.4572278 L49.0309969,87.2222969 L48.859429,87.4522819 C46.1064,91.0949467 45.7338753,94.1259669 47.774421,96.2246826" id="Fill-53" fill="#FEFEFE"></path>
                                <path d="M47.2692771,96.4731636 L47.3128009,96.6448998 L47.1304937,96.704895 C42.3921479,98.2640203 40.1330163,95.7742195 39.072021,93.4096587 L38.9628009,93.1651783 L39.2535071,93.1359306 C43.8366453,92.6754675 46.6057445,93.8303751 47.2692771,96.4731636" id="Fill-55" fill="#FEFEFE"></path>
                                <path d="M44.4328124,91.2389151 L44.5670496,91.3757396 L44.7163786,91.2545757 C48.5330038,88.1142044 47.4432203,84.7455173 45.8569975,82.4722511 L45.6917825,82.2381657 L45.5194187,82.4681299 C42.766365,86.1104661 42.3946313,89.1412129 44.4328124,91.2389151" id="Fill-57" fill="#FEFEFE"></path>
                                <path d="M43.9300983,91.4886464 L43.9728009,91.659637 L43.7904937,91.7211336 C39.0537903,93.2795477 36.7946587,90.789685 35.7336634,88.4258153 L35.6228009,88.1805789 L35.9135071,88.1520804 C40.4966453,87.6908559 43.2673869,88.8457922 43.9300983,91.4886464" id="Fill-59" fill="#FEFEFE"></path>
                                <path d="M41.7790282,85.418223 L41.9039762,85.5609198 L42.0562566,85.4456009 C45.9343311,82.4630715 45.005811,79.0259035 43.5415763,76.6664283 L43.388515,76.4233459 L43.2112449,76.6473467 C40.3554015,80.1840707 39.8626377,83.2138891 41.7790282,85.418223" id="Fill-61" fill="#FEFEFE"></path>
                                <path d="M41.4308948,85.6879897 L41.4678009,85.8897199 L41.2773991,85.9505868 C36.3672133,87.5357344 34.1830445,84.5471704 33.2167763,81.7585976 L33.1178009,81.4699147 L33.4147271,81.4507851 C38.1152193,81.1299296 40.8856914,82.5968215 41.4308948,85.6879897" id="Fill-63" fill="#FEFEFE"></path>
                                <path d="M39.8374514,79.6038589 L39.9447317,79.7461001 L40.1007757,79.6530666 C44.0476381,77.2357353 43.4324647,73.981872 42.2193728,71.6767959 L42.0918369,71.4392146 L41.9035338,71.6306636 C38.888434,74.6492523 38.1772335,77.4041181 39.8374514,79.6038589" id="Fill-65" fill="#FEFEFE"></path>
                                <path d="M38.9453426,80.1349736 L38.9628009,80.3205206 L38.7786953,80.3619302 C34.0244857,81.3979669 32.206443,78.4897378 31.5200148,75.8642089 L31.4478009,75.5926573 L31.7318949,75.5998244 C36.1861394,75.6993667 38.6795005,77.2689504 38.9453426,80.1349736" id="Fill-67" fill="#FEFEFE"></path>
                                <path d="M37.2862239,73.7775217 L37.4000669,73.9312803 L37.5877774,73.8465561 C42.3352898,71.6633413 41.8703586,68.3081095 40.6432879,65.8762137 L40.5146714,65.6243948 L40.2826403,65.8071793 C36.5684049,68.6666181 35.536866,71.4209362 37.2862239,73.7775217" id="Fill-69" fill="#FEFEFE"></path>
                                <path d="M37.2878181,74.4139028 L37.2928009,74.6169512 L37.0976385,74.6471924 C32.0599559,75.4205043 30.3666102,72.1380328 29.833443,69.2469694 L29.7778009,68.947149 L30.0742818,68.9756622 C34.7174871,69.4094081 37.2105836,71.2921418 37.2878181,74.4139028" id="Fill-71" fill="#FEFEFE"></path>
                                <path d="M36.2368318,67.9508881 L36.3333016,68.1164605 L36.517925,68.0429625 C41.2233264,66.1368614 41.0511776,62.6598423 40.0764992,60.0769138 L39.9717129,59.809575 L39.7371913,59.9808011 C35.9640549,62.6541886 34.7565181,65.4083431 36.2368318,67.9508881" id="Fill-73" fill="#FEFEFE"></path>
                                <path d="M35.6163418,67.8892539 L35.6061782,68.0769454 L35.4232344,68.090523 C30.6401132,68.4347571 29.2766343,65.2863335 28.9748552,62.5811811 L28.9428009,62.3016407 L29.2179985,62.3503606 C33.5476692,63.0891459 35.7586314,65.0059944 35.6163418,67.8892539" id="Fill-75" fill="#FEFEFE"></path>
                                <path d="M79.7442788,122.111216 C80.7338219,122.383698 81.1199851,122.422027 81.9981949,122.5175 L82.3828009,123.772593 C80.6863301,123.523107 80.7026797,123.582343 79.0428009,123.173967 C79.0428009,123.173967 79.3479944,122.914726 79.5286191,122.644334 C79.6960084,122.392061 79.7372718,122.128638 79.7442788,122.111216" id="Fill-77" fill="#FEFEFE"></path>
                                <path d="M83.2178009,124.901899 C81.7357403,126.362854 79.7053086,128.700852 78.6626313,130.418101 L76.5378009,130.001917 C78.077359,128.122427 79.7370609,126.326801 81.4860126,124.603281 C81.4860126,124.603281 83.1723179,124.861143 83.2178009,124.901899" id="Fill-79" fill="#FEFEFE"></path>
                                <path d="M133.094769,63.0326406 L133.264124,63.1323292 L133.384257,62.9766172 C136.476855,58.9544699 134.521352,55.972874 132.333925,54.1809505 L132.105338,53.9947552 L131.988542,54.2625139 C130.106454,58.4996921 130.490213,61.5307204 133.094769,63.0326406" id="Fill-81" fill="#FEFEFE"></path>
                                <path d="M98.8945738,116.214242 L98.7161829,116.296396 L98.6137733,116.127057 C95.9668147,111.745213 98.1900947,108.921787 100.524043,107.324807 L100.766027,107.158822 L100.855223,107.441332 C102.288132,111.92042 101.610907,114.950909 98.8945738,116.214242" id="Fill-83" fill="#FEFEFE"></path>
                                <path d="M99.187485,116.711307 L99.0828009,116.874523 L99.2319964,117.002113 C103.111078,120.258976 106.17824,118.458629 108.071621,116.373275 L108.267801,116.157035 L108.004854,116.027788 C103.857056,113.96149 100.810501,114.198443 99.187485,116.711307" id="Fill-85" fill="#FEFEFE"></path>
                                <path d="M93.6070208,119.554726 L93.4263478,119.61915 L93.3396572,119.456148 C91.0403301,115.236729 93.4052828,112.773072 95.7937311,111.448876 L96.0432704,111.312265 L96.1113266,111.579277 C97.2164296,115.808011 96.3487131,118.563519 93.6070208,119.554726" id="Fill-87" fill="#FEFEFE"></path>
                                <path d="M94.1887026,120.585362 L94.0728009,120.739655 L94.2100745,120.876712 C97.8482354,124.361421 101.021968,122.793056 103.049014,120.861119 L103.257801,120.660867 L103.007092,120.516423 C99.0220478,118.188907 95.9749031,118.213528 94.1887026,120.585362" id="Fill-89" fill="#FEFEFE"></path>
                                <path d="M88.3696234,122.057352 L88.1920626,122.111216 L88.1155142,121.940911 C86.1386709,117.505873 88.5897988,115.135872 90.9943662,113.9279 L91.2453188,113.80433 L91.2942466,114.078401 C92.1086587,118.452447 91.0961677,121.208999 88.3696234,122.057352" id="Fill-91" fill="#FEFEFE"></path>
                                <path d="M89.1870894,122.843503 L89.0628009,122.988357 L89.192028,123.131592 C92.6169572,126.777216 95.8838508,125.423358 98.0280326,123.642222 L98.2478009,123.458525 L98.0066319,123.299914 C94.1627436,120.77185 91.1156184,120.614858 89.1870894,122.843503" id="Fill-93" fill="#FEFEFE"></path>
                                <path d="M103.286257,112.883204 L103.111491,112.973642 L102.999973,112.811849 C100.108011,108.620994 102.196882,105.712038 104.460518,104.010306 L104.697701,103.836068 L104.800064,104.109871 C106.479483,108.46003 105.95352,111.491783 103.286257,112.883204" id="Fill-95" fill="#FEFEFE"></path>
                                <path d="M103.355593,113.606729 L103.257801,113.775207 L103.415263,113.894719 C107.480266,116.947254 110.467069,114.983606 112.258819,112.797533 L112.442801,112.570958 L112.172629,112.453936 C107.898783,110.60731 104.853138,111.007343 103.355593,113.606729" id="Fill-97" fill="#FEFEFE"></path>
                                <path d="M107.89791,109.542741 L107.736582,109.650888 L107.606854,109.503415 C104.291307,105.687148 106.060929,102.616439 108.130755,100.709944 L108.348632,100.513314 L108.480023,100.774668 C110.605566,104.871133 110.402658,107.902516 107.89791,109.542741" id="Fill-99" fill="#FEFEFE"></path>
                                <path d="M108.348942,109.886783 L108.267801,110.061394 L108.438535,110.163865 C112.889461,112.739573 115.709958,110.500789 117.289674,108.166092 L117.452801,107.925081 L117.167962,107.839005 C112.63505,106.468355 109.586343,107.178273 108.348942,109.886783" id="Fill-101" fill="#FEFEFE"></path>
                                <path d="M112.327042,105.382152 L112.172101,105.497445 L112.034467,105.359257 C108.516975,101.760647 110.074627,98.592955 112.001501,96.569197 L112.204243,96.3598709 L112.349294,96.6092633 C114.709673,100.561111 114.698959,103.591433 112.327042,105.382152" id="Fill-103" fill="#FEFEFE"></path>
                                <path d="M113.339549,105.979684 L113.277801,106.157548 L113.439595,106.244469 C117.700964,108.506805 120.167743,106.146281 121.4918,103.764831 L121.627801,103.517753 L121.357362,103.450953 C117.09443,102.377329 114.323603,103.252969 113.339549,105.979684" id="Fill-105" fill="#FEFEFE"></path>
                                <path d="M116.719074,101.21874 L116.572681,101.344002 L116.429541,101.212191 C112.763208,97.8104685 114.123037,94.5569322 115.909032,92.4258413 L116.094463,92.2064282 L116.254682,92.4479464 C118.798668,96.2663896 118.957261,99.2964193 116.719074,101.21874" id="Fill-107" fill="#FEFEFE"></path>
                                <path d="M116.670372,101.204906 L116.617801,101.381526 L116.787461,101.457669 C121.248017,103.420897 123.629634,100.982757 124.843543,98.5901458 L124.967801,98.3420929 L124.68822,98.2910693 C120.292183,97.4848975 117.521063,98.4935935 116.670372,101.204906" id="Fill-109" fill="#FEFEFE"></path>
                                <path d="M120.332454,96.2246826 L120.198214,96.3598709 L120.048882,96.238696 C116.232969,93.09969 117.321982,89.7298747 118.909033,87.4572278 L119.075046,87.2222969 L119.246619,87.4522819 C121.999732,91.0949467 122.370679,94.1259669 120.332454,96.2246826" id="Fill-111" fill="#FEFEFE"></path>
                                <path d="M120.835504,96.4731636 L120.792801,96.6448998 L120.974287,96.704895 C125.712633,98.2640203 127.971764,95.7742195 129.03276,93.4096587 L129.142801,93.1651783 L128.852916,93.1359306 C124.268957,92.6754675 121.499036,93.8303751 120.835504,96.4731636" id="Fill-113" fill="#FEFEFE"></path>
                                <path d="M122.836534,91.2389151 L122.703889,91.3757396 L122.554563,91.2545757 C118.738026,88.1142044 119.82699,84.7455173 121.413176,82.4722511 L121.579182,82.2381657 L121.751542,82.4681299 C124.504532,86.1104661 124.876257,89.1412129 122.836534,91.2389151" id="Fill-115" fill="#FEFEFE"></path>
                                <path d="M123.341329,91.4886464 L123.297801,91.659637 L123.480126,91.7211336 C128.217295,93.2795477 130.476649,90.789685 131.53857,88.4258153 L131.647801,88.1805789 L131.356245,88.1520804 C126.774298,87.6908559 124.003284,88.8457922 123.341329,91.4886464" id="Fill-117" fill="#FEFEFE"></path>
                                <path d="M125.49124,85.418223 L125.366291,85.5609198 L125.21479,85.4456009 C121.336683,82.4630715 122.26443,79.0259035 123.728677,76.6664283 L123.882521,76.4233459 L124.060573,76.6473467 C126.91566,80.1840707 127.407647,83.2138891 125.49124,85.418223" id="Fill-119" fill="#FEFEFE"></path>
                                <path d="M126.673033,85.6879897 L126.637801,85.8897199 L126.827383,85.9505868 C131.738901,87.5357344 133.92245,84.5471704 134.887977,81.7585976 L134.987801,81.4699147 L134.690006,81.4507851 C129.989042,81.1299296 127.21913,82.5968215 126.673033,85.6879897" id="Fill-121" fill="#FEFEFE"></path>
                                <path d="M128.268713,79.6038589 L128.161439,79.7461001 L128.004654,79.6530666 C124.058015,77.2357353 124.673154,73.981872 125.886177,71.6767959 L126.015206,71.4392146 L126.202748,71.6306636 C129.216927,74.6492523 129.928087,77.4041181 128.268713,79.6038589" id="Fill-123" fill="#FEFEFE"></path>
                                <path d="M129.159469,80.1349736 L129.142801,80.3205206 L129.325358,80.3619302 C134.080572,81.3979669 135.898999,78.4897378 136.587159,75.8642089 L136.657801,75.5926573 L136.375234,75.5998244 C131.919255,75.6993667 129.426161,77.2689504 129.159469,80.1349736" id="Fill-125" fill="#FEFEFE"></path>
                                <path d="M129.983016,73.7775217 L129.869174,73.9312803 L129.683201,73.8465561 C124.935693,71.6633413 125.399755,68.3081095 126.627694,65.8762137 L126.755441,65.6243948 L126.987472,65.8071793 C130.701704,68.6666181 131.73498,71.4209362 129.983016,73.7775217" id="Fill-127" fill="#FEFEFE"></path>
                                <path d="M130.816954,74.4139028 L130.812801,74.6169512 L131.006345,74.6471924 C136.045141,75.4205043 137.738861,72.1380328 138.272977,69.2469694 L138.327801,68.947149 L138.032085,68.9756622 C133.387023,69.4094081 130.893375,71.2921418 130.816954,74.4139028" id="Fill-129" fill="#FEFEFE"></path>
                                <path d="M131.869276,67.9508881 L131.773652,68.1164605 L131.586562,68.0429625 C126.881864,66.1368614 127.053987,62.6598423 128.030183,60.0769138 L128.133291,59.809575 L128.366946,59.9808011 C132.142012,62.6541886 133.348537,65.4083431 131.869276,67.9508881" id="Fill-131" fill="#FEFEFE"></path>
                                <path d="M132.489333,67.8892539 L132.498717,68.0769454 L132.682483,68.090523 C137.465109,68.4347571 138.829675,65.2863335 139.131521,62.5811811 L139.162801,62.3016407 L138.887542,62.3503606 C134.556904,63.0891459 132.346229,65.0059944 132.489333,67.8892539" id="Fill-133" fill="#FEFEFE"></path>
                                <path d="M87.5264865,122.111216 C86.537174,122.383698 86.1503225,122.422027 85.2723174,122.5175 L84.8878009,123.772593 C86.5846548,123.523107 86.5675306,123.582343 88.2278009,123.173967 C88.2278009,123.173967 87.9219002,122.914726 87.7413176,122.644334 C87.5747457,122.392061 87.5319352,122.128638 87.5264865,122.111216" id="Fill-135" fill="#FEFEFE"></path>
                                <path d="M84.8878009,124.901899 C86.370052,126.362854 88.4016028,128.700852 89.4444141,130.418101 L91.5678009,130.001917 C90.0271868,128.122427 88.3681298,126.326801 86.6198117,124.603281 C86.6198117,124.603281 84.9350064,124.861143 84.8878009,124.901899" id="Fill-137" fill="#FEFEFE"></path>
                                <path d="M7.44486442,144.028463 C7.24258847,143.441528 7.10148469,142.268474 7.10148469,142.268474 C7.10148469,142.268474 6.89920874,143.441528 6.67654207,144.028463 L4.95882779,148.398231 L9.10222217,148.398231 L7.44486442,144.028463 Z M13.6493528,153.67738 L9.9096947,153.67738 L9.62748713,152.483919 C10.355028,152.483919 10.5165225,152.301879 10.2742808,151.614536 L9.64787785,150.036587 L4.37157504,150.036587 L3.74598774,151.614536 C3.48335526,152.342695 3.7052063,152.483919 4.43356283,152.483919 L4.15053963,153.67738 L0.835008496,153.67738 L0.552800926,152.483919 C1.2199853,152.483919 1.42144561,152.342695 1.70446881,151.614536 L5.11950666,143.037449 C5.2818168,142.612962 5.16110373,142.409698 4.43356283,142.409698 L4.69619531,141.217052 L9.76940654,141.217052 L10.0524297,142.409698 C9.30449812,142.409698 9.18296942,142.612962 9.34446393,142.996633 L12.7603174,151.614536 C13.0229499,152.322287 13.2660073,152.483919 13.9128009,152.483919 L13.6493528,153.67738 Z" id="Fill-139" fill="#FEFEFE"></path>
                                <path d="M29.4917728,153.67738 L25.8774917,153.67738 L25.5922832,152.483997 C26.3651328,152.483997 26.5470762,152.221159 26.5470762,151.533861 L26.5470762,145.646938 C26.5470762,145.081264 26.6282132,144.271526 26.6282132,144.271526 C26.6282132,144.271526 26.2831764,145.020044 25.8971613,145.626531 L22.5467802,150.784527 L21.6321458,150.784527 L18.4030602,145.768561 C18.0375343,145.181665 17.693317,144.39315 17.693317,144.39315 C17.693317,144.39315 17.7736344,145.242885 17.7736344,145.809375 L17.7736344,151.533861 C17.7736344,152.221159 17.9563974,152.483997 18.7079383,152.483997 L18.4235493,153.67738 L15.0321899,153.67738 L14.7478009,152.483997 C15.4985223,152.483997 15.7017744,152.221159 15.7017744,151.533861 L15.7017744,143.361388 C15.7017744,142.653684 15.4985223,142.410436 14.7478009,142.410436 L15.0321899,141.217052 L17.8547713,141.217052 L22.2214129,148.054111 L26.6282132,141.217052 L29.4917728,141.217052 L29.7778009,142.410436 C29.0246208,142.410436 28.8221883,142.653684 28.8221883,143.361388 L28.8221883,151.533861 C28.8221883,152.221159 29.0246208,152.483997 29.7778009,152.483997 L29.4917728,153.67738 Z" id="Fill-141" fill="#FEFEFE"></path>
                                <path d="M34.8202922,147.932487 L34.8202922,152.180345 L37.3141868,152.180345 C39.0111571,152.180345 39.8699544,151.452234 39.8699544,150.056416 C39.8699544,148.741409 38.9707334,147.932487 37.1722914,147.932487 L34.8202922,147.932487 Z M34.8202922,146.375048 L37.027921,146.375048 C38.5615466,146.375048 39.3799202,145.707341 39.3799202,144.494367 C39.3799202,143.340981 38.6638433,142.754901 37.0485453,142.754901 L34.8202922,142.754901 L34.8202922,146.375048 Z M37.4981558,153.67738 L31.7340667,153.67738 L31.4478009,152.483997 C32.2034766,152.483997 32.40807,152.220342 32.40807,151.533045 L32.40807,143.361388 C32.40807,142.653684 32.2034766,142.410436 31.4478009,142.410436 L31.7340667,141.217052 L37.1722914,141.217052 C40.0745478,141.217052 41.7302694,142.390029 41.7302694,144.433147 C41.7302694,145.54572 40.9943931,146.517079 39.9310024,147.002758 C41.4852523,147.528435 42.3028009,148.701412 42.3028009,150.137227 C42.3028009,152.38278 40.4631102,153.67738 37.4981558,153.67738 L37.4981558,153.67738 Z" id="Fill-143" fill="#FEFEFE"></path>
                                <path d="M48.2604835,142.714087 L45.6578435,142.714087 L45.6578435,146.921948 L48.2202788,146.921948 C49.9072359,146.921948 50.8229188,146.193837 50.8229188,144.838016 C50.8229188,143.442198 49.9490816,142.714087 48.2604835,142.714087 L48.2604835,142.714087 Z M54.5430859,153.67738 L51.7591144,153.67738 C49.8473391,152.301969 50.761381,148.479387 48.1390489,148.479387 L45.6578435,148.479387 L45.6578435,151.533861 C45.6578435,152.221159 45.8613286,152.483997 46.6137312,152.483997 L46.3290161,153.67738 L42.5883365,153.67738 L42.3028009,152.483997 C43.0765366,152.483997 43.2586886,152.221159 43.2586886,151.533861 L43.2586886,143.361388 C43.2586886,142.67409 43.0552035,142.410436 42.3028009,142.410436 L42.5883365,141.217052 L48.5049939,141.217052 C51.4538867,141.217052 53.2220738,142.511653 53.2220738,144.757206 C53.2220738,146.294238 52.3679287,147.406811 50.8032267,147.952894 C52.2866987,148.418167 52.5714138,149.976422 52.9578713,151.068588 C53.3033037,152.058721 53.5880187,152.483997 54.5841111,152.483997 L54.8278009,152.483997 L54.5430859,153.67738 Z" id="Fill-145" fill="#FEFEFE"></path>
                                <path d="M61.0911135,142.907139 C58.513632,142.907139 57.3248377,144.361677 57.3248377,147.44682 C57.3248377,150.55179 58.513632,151.9865 61.0911135,151.9865 C63.6889093,151.9865 64.8565767,150.55179 64.8565767,147.44682 C64.8565767,144.361677 63.6889093,142.907139 61.0911135,142.907139 M61.0911135,153.67738 C57.2850216,153.67738 54.8278009,151.692262 54.8278009,147.44682 C54.8278009,143.201378 57.2850216,141.217052 61.0911135,141.217052 C64.9167071,141.217052 67.3528009,143.201378 67.3528009,147.44682 C67.3528009,151.692262 64.9167071,153.67738 61.0911135,153.67738" id="Fill-147" fill="#FEFEFE"></path>
                                <path d="M72.6551922,153.67738 C70.3441778,153.67738 68.7076626,152.813487 68.1878009,152.49992 L68.7076626,150.224184 L69.459092,150.224184 C69.9020234,151.715211 71.3271749,152.186354 72.6940458,152.186354 C73.9070564,152.186354 75.1394938,151.617024 75.1394938,150.32158 C75.1394938,149.242308 74.3694147,148.71257 72.193611,148.320611 C70.1903174,147.967452 68.3035848,147.006164 68.3035848,144.788232 C68.3035848,142.590095 70.2291711,141.217052 72.7904029,141.217052 C74.8698496,141.217052 76.3144278,141.864774 76.8342895,142.139541 L76.3338546,144.298085 L75.6018521,144.298085 C75.0819904,143.022438 73.8689799,142.689075 72.8090526,142.689075 C71.5004621,142.689075 70.4413119,143.297205 70.4413119,144.415277 C70.4413119,145.377357 71.210614,145.828704 72.8673331,146.143063 C75.5443487,146.632417 77.3728009,147.49631 77.3728009,149.929621 C77.3728009,152.381937 75.216424,153.67738 72.6551922,153.67738" id="Fill-149" fill="#FEFEFE"></path>
                                <path d="M87.9397124,153.67738 L78.4958894,153.67738 L78.2078009,152.483997 C78.9691184,152.483997 79.1750144,152.221159 79.1750144,151.533861 L79.1750144,143.361388 C79.1750144,142.653684 78.9691184,142.410436 78.2078009,142.410436 L78.4958894,141.217052 L87.4042165,141.217052 L87.4042165,143.766257 L86.3971522,144.008688 C86.3348852,143.037329 86.0874778,142.795714 84.6063542,142.795714 L81.6025959,142.795714 L81.6025959,146.435452 L84.6063542,146.435452 C85.3884273,146.435452 85.6557602,146.273831 85.6557602,145.585718 L86.6428991,145.869779 L86.6428991,148.600195 L85.6557602,148.863033 C85.6557602,148.175735 85.3884273,148.014114 84.6063542,148.014114 L81.6025959,148.014114 L81.6025959,152.079128 L85.6142489,152.079128 C86.8081141,152.079128 87.01318,151.755886 87.1991507,150.825341 L88.2278009,151.068588 L87.9397124,153.67738 Z" id="Fill-151" fill="#FEFEFE"></path>
                                <path d="M103.902391,144.089687 C103.780733,143.239896 103.553967,142.835817 102.324138,142.835817 L100.294009,142.835817 L100.294009,151.533721 C100.294009,152.221063 100.477739,152.483919 101.236658,152.483919 L100.970167,153.67738 L97.1962625,153.67738 L96.9297719,152.483919 C97.6886908,152.483919 97.873248,152.221063 97.873248,151.533721 L97.873248,142.835817 L95.8422915,142.835817 C94.6124622,142.835817 94.3865245,143.239896 94.2425202,144.089687 L93.2378009,143.826015 L93.5249818,141.217052 L104.642275,141.217052 L104.927801,143.826015 L103.902391,144.089687 Z" id="Fill-153" fill="#FEFEFE"></path>
                                <path d="M111.719663,142.714087 L109.117023,142.714087 L109.117023,146.921948 L111.679458,146.921948 C113.367236,146.921948 114.281278,146.193837 114.281278,144.838016 C114.281278,143.442198 113.408261,142.714087 111.719663,142.714087 L111.719663,142.714087 Z M118.002265,153.67738 L115.217473,153.67738 C113.306519,152.301969 114.220561,148.479387 111.598228,148.479387 L109.117023,148.479387 L109.117023,151.533861 C109.117023,152.221159 109.319688,152.483997 110.072911,152.483997 L109.788196,153.67738 L106.047516,153.67738 L105.762801,152.483997 C106.535716,152.483997 106.717868,152.221159 106.717868,151.533861 L106.717868,143.361388 C106.717868,142.67409 106.514383,142.410436 105.762801,142.410436 L106.047516,141.217052 L111.964173,141.217052 C114.913066,141.217052 116.682074,142.511653 116.682074,144.757206 C116.682074,146.294238 115.827929,147.406811 114.261586,147.952894 C115.745878,148.418167 116.029773,149.976422 116.417051,151.068588 C116.762483,152.058721 117.047198,152.483997 118.043291,152.483997 L118.287801,152.483997 L118.002265,153.67738 Z" id="Fill-155" fill="#FEFEFE"></path>
                                <path d="M128.854689,153.67738 L119.410913,153.67738 L119.122801,152.483997 C119.883351,152.483997 120.089264,152.221159 120.089264,151.533861 L120.089264,143.361388 C120.089264,142.653684 119.883351,142.410436 119.122801,142.410436 L119.410913,141.217052 L128.319979,141.217052 L128.319979,143.766257 L127.312,144.008688 C127.249728,143.037329 127.003961,142.795714 125.521054,142.795714 L122.517047,142.795714 L122.517047,146.435452 L125.521054,146.435452 C126.303192,146.435452 126.570547,146.273831 126.570547,145.585718 L127.558598,145.869779 L127.558598,148.600195 L126.570547,148.863033 C126.570547,148.175735 126.303192,148.014114 125.521054,148.014114 L122.517047,148.014114 L122.517047,152.079128 L126.529032,152.079128 C127.722996,152.079128 127.92891,151.755886 128.114065,150.825341 L129.142801,151.068588 L128.854689,153.67738 Z" id="Fill-157" fill="#FEFEFE"></path>
                                <path d="M136.035259,144.028463 C135.83218,143.441528 135.691085,142.268474 135.691085,142.268474 C135.691085,142.268474 135.488821,143.441528 135.266984,144.028463 L133.548559,148.398231 L137.6917,148.398231 L136.035259,144.028463 Z M142.239369,153.67738 L138.499939,153.67738 L138.217749,152.483919 C138.94443,152.483919 139.10673,152.301879 138.865318,151.614536 L138.238138,150.036587 L132.962973,150.036587 L132.335793,151.614536 C132.074808,152.342695 132.295829,152.483919 133.023326,152.483919 L132.741136,153.67738 L129.425807,153.67738 L129.142801,152.483919 C129.809945,152.483919 130.012208,152.342695 130.294399,151.614536 L133.710859,143.037449 C133.872344,142.612962 133.751638,142.409698 133.023326,142.409698 L133.286758,141.217052 L138.358844,141.217052 L138.64185,142.409698 C137.893964,142.409698 137.773258,142.612962 137.933927,142.996633 L141.352019,151.614536 C141.612189,152.322287 141.855231,152.483919 142.502801,152.483919 L142.239369,153.67738 Z" id="Fill-159" fill="#FEFEFE"></path>
                                <path d="M147.823936,153.67738 C144.315725,153.67738 141.667801,151.71899 141.667801,147.447216 C141.667801,143.528854 144.007712,141.217052 147.823936,141.217052 C150.245818,141.217052 151.968045,142.11837 152.522801,142.43146 L151.928301,144.782793 L151.167375,144.782793 C150.758346,143.371519 149.505591,142.92165 148.088894,142.92165 C145.463325,142.92165 144.212226,144.646014 144.212226,147.447216 C144.212226,150.249209 145.444281,151.972782 148.111249,151.972782 C149.691062,151.972782 150.697074,151.385344 151.167375,150.072898 L151.947345,150.072898 L152.522801,152.462973 C151.558188,153.070177 150.101747,153.67738 147.823936,153.67738" id="Fill-161" fill="#FEFEFE"></path>
                                <g id="Group-165" transform="translate(153.357801, 141.217052)">
                                    <mask id="mask-2" fill="white">
                                        <use xlink:href="#path-1"></use>
                                    </mask>
                                    <g id="Clip-164"></g>
                                    <path d="M11.6892141,2.46122631 L7.79438118,7.80670708 L7.79438118,10.3353749 C7.79438118,10.9910997 7.98928,11.2418638 8.70993412,11.2418638 L8.43723294,12.3804263 L4.85360941,12.3804263 L4.58090824,11.2418638 C5.30156235,11.2418638 5.49646118,10.9910997 5.49646118,10.3353749 L5.49646118,7.80670708 L1.62048941,2.46122631 C1.13402824,1.80550155 0.919482353,1.63105695 0.277416471,1.63105695 L0.549331765,0.49327324 L4.30820706,0.49327324 L4.58090824,1.63105695 C3.84139294,1.63105695 3.72429647,1.84444007 4.17303529,2.46122631 L6.87882824,6.24449344 L9.60662588,2.46122631 C10.0726541,1.82497081 9.87854118,1.63105695 9.15788706,1.63105695 L9.42980235,0.49327324 L12.7603718,0.49327324 L13.0142118,1.63105695 C12.3894353,1.63105695 12.1371671,1.84444007 11.6892141,2.46122631" id="Fill-163" fill="#FEFEFE" mask="url(#mask-2)"></path>
                                </g>
                                <g id="Group-168" transform="translate(43.972801, 160.322889)">
                                    <mask id="mask-4" fill="white">
                                        <use xlink:href="#path-3"></use>
                                    </mask>
                                    <g id="Clip-167"></g>
                                    <path d="M6.328465,12.4604839 C2.789735,12.4604839 0.12024,10.5306906 0.12024,6.32377228 C0.12024,2.46418564 2.47995,0.187060676 6.328465,0.187060676 C8.770005,0.187060676 10.508475,1.07408029 11.06709,1.38325218 L10.466725,3.69931567 L9.70103,3.69931567 C9.287705,2.30921031 8.025185,1.86531112 6.597335,1.86531112 C3.948715,1.86531112 2.686195,3.5638096 2.686195,6.32377228 C2.686195,9.08295619 3.92784,10.7814547 6.619045,10.7814547 C8.210555,10.7814547 9.22508,10.2028282 9.70103,8.90929037 L10.4876,8.90929037 L11.06709,11.2642924 C10.094315,11.8623881 8.62555,12.4604839 6.328465,12.4604839" id="Fill-166" fill="#FEFEFE" mask="url(#mask-4)"></path>
                                </g>
                                <path d="M61.9253009,162.012976 C59.3478194,162.012976 58.1598377,163.467514 58.1598377,166.553449 C58.1598377,169.658419 59.3478194,171.09313 61.9253009,171.09313 C64.5230968,171.09313 65.6907641,169.658419 65.6907641,166.553449 C65.6907641,163.467514 64.5230968,162.012976 61.9253009,162.012976 M61.9253009,172.783217 C58.1200216,172.783217 55.6628009,170.798098 55.6628009,166.553449 C55.6628009,162.307214 58.1200216,160.322889 61.9253009,160.322889 C65.7508945,160.322889 68.1878009,162.307214 68.1878009,166.553449 C68.1878009,170.798098 65.7508945,172.783217 61.9253009,172.783217" id="Fill-169" fill="#FEFEFE"></path>
                                <path d="M78.7317513,172.783217 L69.3153557,172.783217 L69.0228009,171.59065 C69.7936995,171.59065 70.0021868,171.326995 70.0021868,170.639698 L70.0021868,162.467224 C70.0021868,161.75952 69.7936995,161.516272 69.0228009,161.516272 L69.3153557,160.322889 L73.147991,160.322889 L73.439705,161.516272 C72.6486303,161.516272 72.4603192,161.75952 72.4603192,162.467224 L72.4603192,171.144967 L76.3568457,171.144967 C77.5640544,171.144967 77.7733824,170.861722 77.981029,169.89118 L79.0428009,170.133611 L78.7317513,172.783217 Z" id="Fill-171" fill="#FEFEFE"></path>
                                <path d="M88.7509107,172.783217 L79.3353557,172.783217 L79.0428009,171.59065 C79.8128588,171.59065 80.0213461,171.326995 80.0213461,170.639698 L80.0213461,162.467224 C80.0213461,161.75952 79.8128588,161.516272 79.0428009,161.516272 L79.3353557,160.322889 L83.1671503,160.322889 L83.4588644,161.516272 C82.6686303,161.516272 82.4794785,161.75952 82.4794785,162.467224 L82.4794785,171.144967 L86.3768457,171.144967 C87.5840544,171.144967 87.7925417,170.861722 88.001029,169.89118 L89.0628009,170.133611 L88.7509107,172.783217 Z" id="Fill-173" fill="#FEFEFE"></path>
                                <path d="M99.6297124,172.783217 L90.1858894,172.783217 L89.8978009,171.59065 C90.6582881,171.59065 90.8641842,171.326995 90.8641842,170.639698 L90.8641842,162.467224 C90.8641842,161.75952 90.6582881,161.516272 89.8978009,161.516272 L90.1858894,160.322889 L99.0942165,160.322889 L99.0942165,162.871277 L98.0863219,163.114525 C98.024055,162.143166 97.778308,161.900734 96.295524,161.900734 L93.2917656,161.900734 L93.2917656,165.542105 L96.295524,165.542105 C97.0784273,165.542105 97.3457602,165.379668 97.3457602,164.69237 L98.3328991,164.975615 L98.3328991,167.706031 L97.3457602,167.968869 C97.3457602,167.281572 97.0784273,167.119951 96.295524,167.119951 L93.2917656,167.119951 L93.2917656,171.184964 L97.3034186,171.184964 C98.4981141,171.184964 98.7040102,170.861722 98.8883204,169.931177 L99.9178009,170.173609 L99.6297124,172.783217 Z" id="Fill-175" fill="#FEFEFE"></path>
                                <path d="M112.104505,167.613818 C111.327468,167.613818 111.149079,167.850161 111.149079,168.498913 L111.149079,169.855107 C111.149079,170.503066 111.268005,170.699754 111.706745,170.699754 L111.448001,171.839433 C109.814375,171.977431 109.436704,172.783217 106.529445,172.783217 C102.964879,172.783217 99.9178009,170.935304 99.9178009,166.572484 C99.9178009,162.563384 102.645868,160.322889 106.529445,160.322889 C108.977071,160.322889 110.711142,161.305534 111.247916,161.600566 L110.670964,163.938612 L109.934105,163.938612 C109.536345,162.523729 108.081912,161.993148 106.667657,161.993148 C103.901019,161.993148 102.38632,163.781579 102.38632,166.592311 C102.38632,169.383215 103.820664,171.131991 106.629086,171.131991 C107.484871,171.131991 108.360745,170.895649 108.95859,170.582376 L108.95859,168.498913 C108.95859,167.850161 108.798682,167.613818 107.981468,167.613818 L107.643171,167.613818 L107.923612,166.415451 L112.184056,166.415451 L112.442801,167.613818 L112.104505,167.613818 Z" id="Fill-177" fill="#FEFEFE"></path>
                                <path d="M123.009689,172.783217 L113.565083,172.783217 L113.277801,171.59065 C114.037521,171.59065 114.244264,171.326995 114.244264,170.639698 L114.244264,162.467224 C114.244264,161.75952 114.037521,161.516272 113.277801,161.516272 L113.565083,160.322889 L122.474979,160.322889 L122.474979,162.871277 L121.467,163.114525 C121.404728,162.143166 121.158131,161.900734 119.675224,161.900734 L116.671217,161.900734 L116.671217,165.542105 L119.675224,165.542105 C120.459853,165.542105 120.725547,165.379668 120.725547,164.69237 L121.713598,164.975615 L121.713598,167.706031 L120.725547,167.968869 C120.725547,167.281572 120.459853,167.119951 119.675224,167.119951 L116.671217,167.119951 L116.671217,171.184964 L120.684032,171.184964 C121.877996,171.184964 122.08474,170.861722 122.268235,169.931177 L123.297801,170.173609 L123.009689,172.783217 Z" id="Fill-179" fill="#FEFEFE"></path>
                                <path d="M104.032426,56.6157194 L101.616646,63.3343152 L107.468832,58.7884634 L113.29913,63.3343152 L110.88254,56.6157194 L116.428294,51.3894324 L109.684378,52.9346373 L107.456672,46.4733085 L105.230588,52.9346373 L98.4866714,51.3894324 L104.032426,56.6157194 Z M69.1268414,62.5344633 C68.4523687,62.5344633 67.7900559,62.5272502 67.1407138,62.5272502 L67.1334178,62.5272502 C64.8181605,62.5264487 62.6739534,62.6226233 60.836988,63.5034222 L60.8280707,63.5058266 L60.8280707,63.5090324 L60.3449148,63.5090324 L60.3449148,63.5050251 L60.3408614,63.5034222 C57.9883135,62.3749738 55.1355858,62.5344633 52.0591146,62.5344633 C52.055872,62.5344633 52.0526293,62.5352648 52.0493867,62.5352648 L52.0493867,50.9782861 L52.0591146,50.9782861 L52.0777599,50.9782861 C52.277994,50.9782861 52.4774174,50.9822934 52.6752195,50.9879035 C52.7100781,50.988705 52.7449367,50.9895065 52.7789846,50.9911094 L52.7789846,61.5414608 L53.1340555,61.5414608 C55.6754882,61.5414608 58.1172092,61.793919 60.1981845,62.9808736 L60.2395284,63.0041158 L60.3570747,63.0345711 L60.3619387,63.0353726 L60.8305027,63.0353726 L60.8361773,63.0345711 L60.952913,63.0041158 L60.9942569,62.9808736 C63.0752322,61.793919 65.5161425,61.5414608 68.0567645,61.5414608 L68.4126462,61.5414608 L68.4126462,50.9911094 C68.4475047,50.9895065 68.4815526,50.988705 68.5156005,50.9879035 C68.7150239,50.9822934 68.9136367,50.9782861 69.1138708,50.9782861 L69.1203561,50.9782861 L69.1227881,50.9782861 L69.1252201,50.9782861 L69.1268414,50.9879035 L69.1268414,62.5344633 Z M53.1267596,49.6687089 L53.1340555,49.6687089 C53.1405409,49.6687089 53.1462155,49.6695103 53.1518902,49.6695103 C53.3472603,49.6695103 53.5401984,49.6735176 53.7323258,49.6807307 L53.7323258,60.4538866 L54.0882075,60.4538866 C56.2875398,60.4538866 58.4058057,61.1046679 60.2103445,62.3373054 L60.254931,62.3669592 L60.3570747,62.3990174 L60.37572,62.4046276 L60.8151001,62.4046276 L60.8151001,62.4054291 L60.8191534,62.4038262 L60.940753,62.3669592 L60.9829076,62.3373054 C62.7890677,61.1046679 64.9049016,60.4538866 67.1050446,60.4538866 L67.4617369,60.4538866 L67.4617369,49.6807307 C67.4982168,49.6791278 67.5330754,49.6783264 67.5695553,49.6767234 C67.5914432,49.6767234 67.6141418,49.675922 67.6368404,49.6751205 C67.6927762,49.6735176 67.7495227,49.6727162 67.8054586,49.6711133 C67.8727437,49.6703118 67.9392182,49.6695103 68.007314,49.6695103 L68.0405512,49.6695103 L68.0462259,49.6695103 L68.0494685,50.9879035 L68.0494685,61.1976366 L68.0413619,61.1976366 C66.3349135,61.1976366 64.7087208,61.3242665 63.2195305,61.7161779 C62.3707649,61.9405853 61.5665859,62.2507483 60.8191534,62.6755193 C60.8183427,62.6755193 60.8175321,62.6763208 60.8159107,62.6763208 L60.8151001,62.6779237 L60.8151001,62.6851368 L60.3862586,62.6851368 L60.3862586,62.6867397 L60.3822053,62.6851368 L60.3749093,62.6851368 L60.3749093,62.6843353 L60.3716667,62.6827324 C60.3668027,62.6803281 60.3619387,62.6779237 60.3570747,62.6755193 C58.3044726,61.5094026 55.8157331,61.1976366 53.1340555,61.1976366 L53.1291916,61.1976366 L53.1267596,50.9879035 L53.1267596,49.6687089 Z M54.0801008,48.4472917 L54.0882075,48.4472917 L54.1019888,48.4472917 C56.4423767,48.4496961 58.6125251,49.1661967 60.4032826,50.3868124 L60.4032826,50.4076502 L60.4211172,50.4132604 L60.4211172,62.0583991 L60.4081466,62.0543919 C60.4008506,62.0487817 60.3935546,62.0447744 60.3862586,62.0399657 C60.37572,62.033554 60.3668027,62.0271424 60.3570747,62.0199293 C58.5711812,60.8153427 56.4131928,60.1100624 54.0882075,60.1100624 L54.0825328,60.1100624 L54.0801008,50.9879035 L54.0801008,48.4472917 Z M60.7745668,50.4132604 L60.7753775,50.412459 L60.7891588,50.4076502 L60.7891588,50.3908197 L60.7924015,50.3868124 C61.2690721,50.0622232 61.7724946,49.7736995 62.2994264,49.5236456 L62.6050469,49.4082361 L62.6050469,49.5781445 L62.6058576,49.5781445 L62.6058576,51.7140216 L63.1611626,51.166628 L63.7075504,51.70761 L63.7075504,49.5781445 L63.7083611,49.5781445 L63.7083611,48.9930825 L64.0147922,48.877673 C64.2174583,48.8199682 64.4201243,48.7678737 64.6276544,48.7213893 C64.6317077,48.7197864 64.6373824,48.7189849 64.643057,48.7181835 C64.6973715,48.7053602 64.751686,48.6941398 64.8051899,48.6829195 C64.8295098,48.6781107 64.8546404,48.6725005 64.8789603,48.6676918 C64.9259789,48.6580744 64.9729974,48.6492583 65.0208266,48.6404423 C65.0540638,48.6348322 65.0873011,48.6284205 65.1197276,48.6228103 C65.1626929,48.6147958 65.2040367,48.6075827 65.2461913,48.6003696 C65.2891565,48.593958 65.331311,48.5867449 65.3734656,48.5803332 C65.4075135,48.5747231 65.4423721,48.5691129 65.4772306,48.5643041 C65.5558651,48.5530838 65.6336888,48.5426649 65.7115126,48.5330474 L65.7123233,48.5330474 C65.7739338,48.5250329 65.8347336,48.5178198 65.8963441,48.5114081 C65.9028294,48.5106067 65.910936,48.5106067 65.9166107,48.5098052 C65.9741679,48.5033936 66.0301037,48.4977834 66.0860395,48.4929747 C66.0990102,48.4921732 66.1119808,48.4905703 66.1233301,48.4897688 C66.1760233,48.4849601 66.2295271,48.4809528 66.2822203,48.4769456 C66.2992442,48.4753427 66.3154575,48.4745412 66.3324815,48.4737397 C66.3827427,48.4697325 66.4313825,48.4673281 66.4816437,48.4641223 C66.502721,48.4633208 66.5229876,48.4617179 66.5448755,48.4609165 C66.5894621,48.4585121 66.6364806,48.4569092 66.6818778,48.4553063 C66.7102511,48.4537034 66.7386243,48.4529019 66.7653762,48.4521005 C66.8059095,48.451299 66.845632,48.4496961 66.8861652,48.4488946 C66.9412904,48.4480932 66.9964156,48.4472917 67.0531621,48.4472917 L67.0928846,48.4472917 L67.0961273,48.4472917 L67.1009913,48.4472917 L67.1009913,60.1100624 L67.0977486,60.1100624 L67.094506,60.1100624 C64.7678993,60.1100624 62.6099109,60.8153427 60.824828,62.0199293 C60.8151001,62.0271424 60.8053721,62.033554 60.7956441,62.0399657 C60.7891588,62.0447744 60.7802415,62.0487817 60.7745668,62.0543919 L60.7745668,50.4132604 Z M69.4494858,50.9879035 L69.4494858,50.6745347 L69.1479187,50.6745347 C69.1422441,50.6745347 69.1381907,50.6737333 69.1333267,50.6737333 C69.1317054,50.6737333 69.1268414,50.6745347 69.1227881,50.6745347 C69.1227881,50.6745347 69.1203561,50.6737333 69.1179241,50.6737333 C69.1122495,50.6737333 69.0984682,50.6745347 69.0984682,50.6745347 C68.8682395,50.6745347 68.6355788,50.678542 68.3858942,50.687358 L68.3729236,50.687358 L68.3729236,49.3649575 L68.0413619,49.3649575 L68.0259593,49.3649575 L68.0251486,49.3649575 L67.9327329,49.3649575 C67.775464,49.3665604 67.6173844,49.3697662 67.4495769,49.3761779 L67.4212037,49.3777808 L67.4212037,48.1427389 L67.0904526,48.1427389 C67.0766713,48.1427389 67.06289,48.1435404 67.0507301,48.1435404 C66.9947942,48.1435404 66.9404797,48.1435404 66.8853546,48.1451433 C66.8399574,48.1459447 66.7945602,48.1475476 66.7507843,48.1491505 C66.727275,48.1491505 66.7045764,48.149952 66.6818778,48.1507534 C66.6275633,48.1523564 66.5756808,48.1547607 66.5221769,48.1579665 C66.5083956,48.1579665 66.4938037,48.158768 66.4816437,48.1595694 C66.4216546,48.1627753 66.3624761,48.1667825 66.3032976,48.1707898 C66.2968123,48.1707898 66.2887056,48.1715913 66.283031,48.1723927 C66.2181778,48.1772015 66.1533247,48.1812087 66.0892822,48.1868189 L66.0868502,48.1868189 C65.3013165,48.255744 64.5287534,48.4040132 63.7796995,48.6276191 L63.7075504,48.6484569 L63.7075504,48.6492583 C63.3338341,48.7646678 62.9666032,48.8977093 62.6058576,49.0507872 L62.6058576,49.0403683 L62.3359063,49.1686011 C61.7400681,49.4394928 61.1636857,49.7632806 60.6140553,50.1367585 L60.597842,50.1487803 L60.5962207,50.1495818 L60.5945994,50.1487803 L60.5775754,50.1367585 C58.6676503,48.8351959 56.429406,48.1459447 54.1019888,48.1427389 L53.7720484,48.1427389 L53.7720484,49.3785822 L53.7444858,49.3769793 C53.5288491,49.3689648 53.3351003,49.3649575 53.1502688,49.3649575 L53.1340555,49.3649575 L52.8195178,49.3649575 L52.8195178,50.6881594 L52.7887125,50.687358 C52.5447026,50.678542 52.3055566,50.6745347 52.0785706,50.6745347 C52.0785706,50.6745347 52.0647893,50.6737333 52.0591146,50.6737333 C52.0542507,50.6737333 52.0493867,50.6745347 52.0445227,50.6745347 L51.7413342,50.6745347 L51.7413342,50.9879035 L51.1965678,50.9879035 L51.1965678,63.8071736 L60.0368623,63.8071736 L60.0368623,63.8127838 L61.1539578,63.8127838 L61.1539578,63.8071736 L69.9675003,63.8071736 L69.9675003,50.9879035 L69.4494858,50.9879035 Z M119.468286,50.2585796 C119.26562,53.4788252 119.045929,56.9523304 118.796245,60.720771 C118.334166,67.7238833 116.174556,74.5931527 112.374973,81.1442445 L85.9951448,57.7289401 L121.341731,26.3575937 C120.613754,32.1689427 120.128977,39.8148217 119.468286,50.2585796 L119.468286,50.2585796 Z M112.492519,81.8727669 L112.636817,81.6251174 C116.562865,74.9377783 118.793002,67.9146296 119.264809,60.7520278 C119.514493,56.9827857 119.735805,53.508479 119.938471,50.287432 C120.622672,39.4774093 121.117177,31.6672319 121.886497,25.7973768 L121.968374,25.1754478 L85.2914882,57.7289401 L112.492519,81.8727669 Z M77.9922665,38.8346425 C77.9638933,38.9131851 77.9193067,38.994132 77.8544536,39.082292 C77.5545078,39.482218 77.0608132,39.1864812 76.7422221,38.9989407 C76.1763784,38.6671384 75.5870255,38.3722031 74.9806485,38.1197448 C74.6507082,37.9834975 74.3199571,37.8480516 73.9883954,37.7102014 C73.9332702,37.6869592 73.8781451,37.6645184 73.8213986,37.6404748 C73.4468716,37.4817867 73.095854,37.3198929 72.7010605,37.2173066 C72.3824694,37.1371612 71.9828119,37.0441924 71.7396126,36.8101676 C71.6553035,36.7308236 71.3829203,36.5296584 71.0319026,36.2780016 C70.7757327,36.0944684 70.4749762,35.8844873 70.1758411,35.6769105 C69.3732834,35.1190979 68.6072056,34.5885348 68.6072056,34.5885348 C68.5731577,34.5660941 68.5407311,34.5460577 68.5074939,34.5276242 C68.3721129,34.4354569 67.5752299,33.901688 67.4341743,33.8592109 C67.2963614,33.8183367 67.1155832,33.5762973 67.0782927,33.5242028 C66.5651421,32.6369923 66.0017304,31.6271592 66.0017304,31.6271592 C66.0017304,31.6271592 65.215386,29.8198786 64.2677194,29.6283308 L66.3097829,25.8534786 L66.6980911,25.9929317 C68.0891911,26.0153725 69.6594479,26.7430935 70.7084475,27.3305598 C70.777354,27.3241482 70.8389645,27.3177366 70.8867937,27.3145308 C71.5174905,27.2632376 72.7618603,26.6092505 73.2733895,26.5194876 C73.7857293,26.4297246 74.5874763,26.218942 75.0511763,26.3591966 C75.513255,26.4986497 76.3231087,26.4786134 76.8411232,26.5058628 C77.3567057,26.5323108 77.3080658,26.9354426 77.3080658,26.9354426 C77.3080658,26.9354426 77.2586153,27.2223634 77.0689199,27.4988654 C79.4255211,26.432129 82.5895439,27.5461512 83.7585219,30.3039573 C84.9096653,27.5878268 87.9950537,26.4649886 90.3362523,27.452381 C90.3532762,27.4587926 90.3686788,27.4660057 90.3840815,27.4732188 C90.208978,27.2055329 90.1619594,26.9354426 90.1619594,26.9354426 C90.1619594,26.9354426 90.1125089,26.5323108 90.6297128,26.5058628 C91.1461059,26.4786134 91.9551489,26.4986497 92.4196596,26.3591966 C92.8825489,26.218942 93.6826746,26.4297246 94.1958251,26.5194876 C94.708165,26.6092505 95.9541561,27.2632376 96.5824209,27.3145308 C96.6318714,27.3177366 96.6918606,27.3241482 96.7607671,27.3305598 C97.8105774,26.7430935 99.3808342,26.0153725 100.771934,25.9929317 L101.161053,25.8534786 L103.202306,29.6283308 C102.25545,29.8198786 101.469106,31.6271592 101.469106,31.6271592 C101.469106,31.6271592 100.904883,32.6369923 100.392543,33.5242028 C100.354442,33.5762973 100.172853,33.8183367 100.03423,33.8592109 C99.8939847,33.901688 99.098723,34.4354569 98.9625314,34.5276242 C98.9292942,34.5460577 98.8968676,34.5660941 98.8636303,34.5885348 C98.8636303,34.5885348 98.0951206,35.1190979 97.2933735,35.6769105 C96.9934277,35.8844873 96.6942926,36.0944684 96.4381227,36.2780016 C96.0862944,36.5296584 95.8139111,36.7308236 95.7312234,36.8101676 C95.4872134,37.0441924 95.0883666,37.1371612 94.7689648,37.2173066 C94.3741713,37.3198929 94.022343,37.4817867 93.6478161,37.6404748 C93.5918802,37.6645184 93.536755,37.6869592 93.4800085,37.7102014 C93.1516895,37.8480516 92.8201278,37.9834975 92.4901874,38.1197448 C91.8829998,38.3722031 91.2936468,38.6671384 90.7278031,38.9989407 C90.4075907,39.1864812 89.9147068,39.482218 89.617193,39.082292 C89.5588252,39.0061538 89.5199133,38.9348243 89.489108,38.8650978 C89.4818121,38.8739138 89.4745161,38.8811269 89.4688414,38.88834 C87.6910546,40.7829792 85.5525221,42.4508067 83.7552792,43.6225336 C81.9426338,42.4403878 79.7814027,40.750921 77.9922665,38.8346425 L77.9922665,38.8346425 Z M77.2269994,41.6140878 C76.8800351,41.9603163 76.4447083,41.6052718 76.1609758,41.380063 C75.6599853,40.9793356 75.1306214,40.6130708 74.578559,40.2844743 C74.2267307,40.0752946 73.8740917,39.8701221 73.5246954,39.6585381 C73.1825951,39.4525642 72.8672466,39.2473917 72.4975837,39.0943139 C72.1992592,38.9708898 71.825543,38.825025 71.6228769,38.5653537 C71.3675176,38.2391616 68.8674288,35.9566182 68.8674288,35.9566182 C68.4102142,35.7177847 68.1751215,35.4164376 68.0640605,35.2305001 C67.9246262,35.108679 67.7997839,34.9740346 67.7041255,34.8233611 C67.6198164,34.6871137 67.5071341,34.5019777 67.3847238,34.2911951 C67.4706542,34.3416867 67.5419927,34.3817594 67.5419927,34.3817594 L68.4021075,34.8834702 C68.4402087,34.9091167 68.4815526,34.9339618 68.5293818,34.9636157 C68.5293818,34.9636157 69.038479,35.3074398 69.6480986,35.7282036 C69.9342631,35.9261629 70.2431262,36.1417543 70.5349654,36.3445223 C71.0951344,36.7372352 71.5831543,37.0890739 71.7007007,37.1996746 C71.9447106,37.4336994 72.3435575,37.5274697 72.6629592,37.6084166 C73.0569421,37.7102014 73.4095811,37.8728967 73.784108,38.0307833 C74.028118,38.1349724 74.2729386,38.2359557 74.5185699,38.336939 C75.5464923,39.0975197 76.9983921,40.201123 77.2205141,40.5321238 C77.2205141,40.5321238 77.8131097,41.0282244 77.2269994,41.6140878 L77.2269994,41.6140878 Z M74.8493209,42.5525915 C74.8493209,42.5525915 74.4293968,42.7345217 74.0475739,42.2119731 C73.6641297,41.6902261 70.8276152,38.9252069 70.8276152,38.9252069 C70.8276152,38.9252069 70.1612491,38.2968663 70.0437028,38.0524226 L69.2224998,36.7925356 L71.6074743,39.0630571 C71.917148,39.3587939 72.7715883,39.6609424 72.7715883,39.6609424 L74.4585807,40.6299013 L75.0171284,41.487458 C75.0171284,41.487458 75.5286576,42.2055615 74.8493209,42.5525915 L74.8493209,42.5525915 Z M62.5726203,29.0015932 L64.7930299,24.8139917 L65.9263387,25.4014581 L63.7059291,29.5882581 L62.5726203,29.0015932 Z M80.2864466,26.2213464 L87.2127626,26.2213464 L87.2127626,24.9013503 L80.2864466,24.9013503 L80.2864466,26.2213464 Z M78.2638391,20.5350243 C78.3019403,20.3843508 78.4008414,20.2240599 78.5832408,20.0541514 C78.5832408,20.0541514 78.3416629,20.4620919 78.9075066,20.8187393 C79.3639106,21.1080645 79.1109833,21.4222348 78.9974903,21.5320341 C79.0323489,21.5608865 79.0639648,21.5857316 79.097202,21.6089738 C79.1150366,21.6225985 79.1336819,21.6370247 79.1498952,21.6482451 C79.1807004,21.66748 79.215559,21.6883178 79.2536602,21.7107586 C79.5009128,21.8502117 79.906245,22.0080983 80.2199721,21.8357855 C80.5596405,21.6482451 80.725016,21.2539293 80.6334109,20.9205241 C80.613955,20.922127 80.5985523,20.9229285 80.5782857,20.9229285 C80.258884,20.9229285 79.9994714,20.6664629 79.9994714,20.3498883 C79.9994714,20.0333136 80.258884,19.7768481 80.5782857,19.7768481 C80.8993088,19.7768481 81.1587214,20.0333136 81.1587214,20.3498883 C81.1587214,20.5558622 81.0484711,20.735388 80.8822849,20.8363714 C81.0346898,21.1056602 81.4862298,21.7588459 82.3025688,21.6578626 C82.7476235,21.6033636 83.038652,21.3693388 83.3069819,20.9581925 C82.9964974,20.8451874 82.7727541,20.6151698 82.7257355,20.3418737 C82.7216822,20.3242417 82.7200609,20.3050068 82.7176289,20.2857719 C82.7151969,20.2681399 82.7103329,20.2521108 82.7103329,20.2336773 C82.7103329,20.2176482 82.7151969,20.203222 82.7176289,20.1879944 C82.7200609,20.1535318 82.7233036,20.1190693 82.7305995,20.0822024 C82.7305995,20.0765922 82.7338422,20.070982 82.7354635,20.0653718 C82.7403275,20.0349165 82.7468128,20.0044612 82.7581621,19.972403 C83.0021721,19.1789628 82.4144404,18.96257 82.4144404,18.96257 C82.7695114,18.9906209 83.019196,19.0883984 83.1894355,19.2262486 C82.7103329,18.197982 83.6571889,17.3075657 83.7504153,17.2218101 C83.845263,17.3075657 84.7913083,18.197982 84.313827,19.2262486 C84.4832558,19.0883984 84.7313191,18.9906209 85.0880114,18.96257 C85.0880114,18.96257 84.4994691,19.1789628 84.7459111,19.972403 C84.755639,20.0044612 84.7621243,20.0349165 84.7669883,20.0653718 C84.767799,20.070982 84.770231,20.0765922 84.7718523,20.0822024 C84.7791483,20.1190693 84.7832016,20.1535318 84.7856336,20.1879944 C84.7880656,20.203222 84.7913083,20.2176482 84.7913083,20.2336773 C84.7913083,20.2521108 84.7864443,20.2681399 84.7848229,20.2857719 C84.7832016,20.3050068 84.7807696,20.3242417 84.777527,20.3418737 C84.7288871,20.6151698 84.5067651,20.8451874 84.19547,20.9581925 C84.4637999,21.3693388 84.7548284,21.6033636 85.1990724,21.6578626 C86.0162221,21.7588459 86.4685728,21.1056602 86.6193563,20.8363714 C86.4531701,20.735388 86.3445411,20.5558622 86.3445411,20.3498883 C86.3445411,20.0333136 86.603143,19.7768481 86.9233554,19.7768481 C87.2435679,19.7768481 87.5029804,20.0333136 87.5029804,20.3498883 C87.5029804,20.6664629 87.2435679,20.9229285 86.9233554,20.9229285 C86.9055208,20.9229285 86.8884969,20.922127 86.8690409,20.9205241 C86.7774359,21.2539293 86.9444327,21.6482451 87.2832904,21.8357855 C87.5945855,22.0080983 88.0007283,21.8502117 88.2487916,21.7107586 C88.2877035,21.6883178 88.3233727,21.66748 88.3533673,21.6482451 C88.3712019,21.6370247 88.3890366,21.6225985 88.4052498,21.6089738 C88.4376764,21.5857316 88.4717243,21.5608865 88.5049616,21.5320341 C88.3922792,21.4222348 88.1385413,21.1080645 88.5965666,20.8187393 C89.160789,20.4620919 88.9175897,20.0541514 88.9175897,20.0541514 C89.1032318,20.2240599 89.2005115,20.3843508 89.2394234,20.5350243 C89.518292,19.6822764 90.6386301,19.6349906 90.6386301,19.6349906 C90.6386301,19.6349906 88.7400542,21.5192109 87.9877577,22.6725044 C87.3408476,23.6623011 87.2216799,24.3996395 87.2216799,24.3996395 L80.2815826,24.3996395 C80.2815826,24.3996395 80.1624149,23.6623011 79.5146941,22.6725044 C78.7623976,21.5192109 76.8662538,19.6349906 76.8662538,19.6349906 C76.8662538,19.6349906 77.9865919,19.6822764 78.2638391,20.5350243 L78.2638391,20.5350243 Z M102.676995,24.8139917 L104.896594,29.0015932 L103.764907,29.5882581 L101.543687,25.4014581 L102.676995,24.8139917 Z M99.7642784,34.8233611 C99.6702414,34.9740346 99.545399,35.108679 99.4067754,35.2305001 C99.2940931,35.4164376 99.0598111,35.7177847 98.6017858,35.9566182 C98.6017858,35.9566182 96.1033183,38.2391616 95.8471484,38.5653537 C95.6436716,38.825025 95.2691447,38.9708898 94.9732522,39.0943139 C94.6027786,39.2473917 94.2866195,39.4525642 93.9461405,39.6585381 C93.5967442,39.8701221 93.2424839,40.0752946 92.8914662,40.2844743 C92.3385932,40.6130708 91.81004,40.9793356 91.3090495,41.380063 C91.0253169,41.6052718 90.5883689,41.9603163 90.2438365,41.6140878 C89.6569156,41.0282244 90.2462685,40.5321238 90.2462685,40.5321238 C90.4708225,40.201123 91.9227224,39.0975197 92.9522661,38.336939 C93.1970867,38.2359557 93.4419073,38.1349724 93.6875386,38.0307833 C94.0612549,37.8728967 94.4122725,37.7102014 94.8078767,37.6084166 C95.1256571,37.5274697 95.5253146,37.4336994 95.7701353,37.1996746 C95.8876816,37.0890739 96.3757015,36.7372352 96.9342492,36.3445223 C97.2260884,36.1417543 97.5333302,35.9261629 97.8219267,35.7282036 C98.4331676,35.3074398 98.9398328,34.9636157 98.9398328,34.9636157 C98.987662,34.9339618 99.0298165,34.9091167 99.0679178,34.8834702 L99.9264113,34.3817594 C99.9264113,34.3817594 99.9993711,34.3416867 100.086112,34.2911951 C99.9620805,34.5019777 99.8510195,34.6871137 99.7642784,34.8233611 L99.7642784,34.8233611 Z M97.4271332,38.0524226 C97.3095868,38.2968663 96.6424101,38.9252069 96.6424101,38.9252069 C96.6424101,38.9252069 93.8067063,41.6902261 93.423262,42.2119731 C93.0390071,42.7345217 92.6207043,42.5525915 92.6207043,42.5525915 C91.9413676,42.2055615 92.4520862,41.487458 92.4520862,41.487458 L93.0114446,40.6299013 L94.6976264,39.6609424 C94.6976264,39.6609424 95.5520666,39.3587939 95.8633617,39.0630571 L98.2475255,36.7925356 L97.4271332,38.0524226 Z M121.245262,22.9586237 L120.924239,22.8103546 C109.484954,17.5391862 96.5986342,14.7525277 83.6588102,14.7525277 C70.7335781,14.7525277 57.8569859,17.5343774 46.4249976,22.7959284 L46.1015425,22.944999 L83.6815088,56.3007476 L121.245262,22.9586237 Z M87.4648792,67.2414075 L87.0773817,71.8297364 C89.1113385,72.68008 90.7407738,74.29421 91.597646,76.3074646 L96.3748909,75.918759 C96.550805,75.9043328 96.6942926,76.0341685 96.6942926,76.2088856 L96.6942926,82.8521447 C96.6942926,83.0268619 96.550805,83.1566976 96.3748909,83.1422714 L91.6016993,82.7912341 C90.7326671,84.8453629 89.0578346,86.4827351 86.970374,87.3218583 L87.9131766,102.112707 C87.9261472,102.287424 87.7923876,102.430083 87.6156628,102.430083 L79.8770611,102.430083 C79.6979043,102.430083 79.5649553,102.287424 79.577926,102.113509 L80.5555871,87.3114394 C78.4802865,86.4683089 76.8184246,84.8357454 75.9518244,82.7912341 L71.1916035,83.1422714 C71.0156893,83.1566976 70.8730124,83.0268619 70.8730124,82.8521447 L70.8730124,76.2088856 C70.8730124,76.0341685 71.0156893,75.9043328 71.1916035,75.918759 L75.9558777,76.3074646 C76.8192352,74.2821882 78.4616412,72.662448 80.5118113,71.8161117 L80.1697109,67.2414075 C80.1559296,67.0666904 80.2888786,66.9248329 80.4647927,66.9248329 L87.1738507,66.9248329 C87.3505755,66.9248329 87.4827138,67.0666904 87.4648792,67.2414075 L87.4648792,67.2414075 Z M55.9511141,83.770612 L56.0597431,83.9373146 C60.6610738,90.9837054 67.0928846,97.5796787 75.1768293,103.539297 C77.8155417,105.485229 80.618819,107.355023 83.5104586,109.097386 L83.6328689,109.17112 L83.7544686,109.097386 C86.6477296,107.355825 89.4510068,105.486031 92.0897192,103.539297 C100.197984,97.5612452 106.641955,90.94764 111.243285,83.8828156 L111.351104,83.716113 L83.6815088,59.1579341 L55.9511141,83.770612 Z M48.4678717,60.720771 C48.2295364,57.083769 48.0163316,53.721666 47.8185295,50.608014 L47.7942096,50.2249185 C47.1318969,39.7466981 46.6454983,32.0759739 45.914279,26.2598162 L81.3678728,57.7289401 L54.9240024,81.2003463 C51.1049627,74.6332254 48.933193,67.7439197 48.4678717,60.720771 L48.4678717,60.720771 Z M45.2843928,25.0760674 L45.3662699,25.6987978 C46.1420757,31.5718588 46.6382023,39.4084841 47.324835,50.2537709 L47.3491549,50.6376678 C47.5461463,53.7513198 47.7601617,57.1134228 47.998497,60.7504248 C48.474357,67.9354674 50.7166545,74.977851 54.6629685,81.6820207 L54.8072667,81.9296702 L82.0731508,57.7289401 L45.2843928,25.0760674 Z M74.8890435,29.6820283 C75.2319545,28.9639248 75.6988971,28.4045093 76.2404209,27.9917601 C76.228261,27.9941644 76.2144797,27.9957674 76.2031304,27.9973703 C75.2619491,28.0590823 74.486954,28.1055667 74.486954,28.1055667 C74.486954,28.1055667 72.7967188,28.6553647 72.6767405,28.9190433 C72.6045914,29.0809372 70.3704005,31.0196564 71.0805425,32.9207073 C71.2094381,33.2677372 72.8275241,34.9291531 72.8275241,34.9291531 L73.4655169,35.542266 C73.4655169,35.542266 75.4402952,36.5689297 76.7033102,37.3198929 C74.7877104,34.8305742 73.7297935,32.1056277 74.8890435,29.6820283 L74.8890435,29.6820283 Z M94.6425012,34.9291531 C94.6425012,34.9291531 96.2613979,33.2677372 96.3902935,32.9207073 C97.0996248,31.0196564 94.8646232,29.0809372 94.7924741,28.9190433 C94.6733064,28.6553647 92.983882,28.1055667 92.983882,28.1055667 C92.983882,28.1055667 92.2153722,28.0598837 91.2798655,27.9973703 C91.2806762,27.9981717 91.2814869,27.9997746 91.2814869,27.9997746 C91.8189573,28.4125239 92.2826573,28.969535 92.6223257,29.6820283 C93.7718477,32.0807826 92.7463573,34.7728694 90.8696694,37.2397474 C90.8607521,37.2517692 90.8518348,37.2629896 90.8429175,37.2750114 C92.1075538,36.5288569 94.005319,35.542266 94.005319,35.542266 L94.6425012,34.9291531 Z M86.9055208,86.3104223 L86.9379474,86.8177432 C88.7846407,86.0291117 90.2730205,84.5704639 91.0901701,82.7535658 L90.5794516,82.7166988 C89.8231017,84.3003736 88.5146895,85.5778926 86.9055208,86.3104223 L86.9055208,86.3104223 Z M89.5150493,82.6381563 L88.9816322,82.598885 C88.4514577,83.4796838 87.7007825,84.2146179 86.8041878,84.7299534 L86.8382357,85.2565092 C87.9683018,84.6610283 88.9013764,83.7481712 89.5150493,82.6381563 L89.5150493,82.6381563 Z M78.0392851,82.6373548 C78.6489046,83.7401567 79.573062,84.6490064 80.6934001,85.2444874 L80.727448,84.7163287 C79.8413919,84.2025961 79.097202,83.4724708 78.5727022,82.5980835 L78.0392851,82.6373548 Z M80.6228723,86.2984005 C79.0226209,85.5642679 77.7271793,84.2915576 76.9756935,82.7158974 L76.4625429,82.7535658 C77.2772606,84.5616479 78.7534803,86.0146855 80.5904457,86.8065229 L80.6228723,86.2984005 Z M86.9711846,81.2083609 C86.1256617,81.2083609 85.4390291,81.8863916 85.4390291,82.7231105 C85.4390291,83.4804853 86.0032514,84.1040172 86.7369026,84.2162208 C87.4421806,83.7786265 88.0388296,83.1887557 88.4822629,82.4938944 C88.3720126,81.7661734 87.7372624,81.2083609 86.9711846,81.2083609 L86.9711846,81.2083609 Z M80.823917,84.2202281 C81.5689176,84.1176419 82.1428679,83.4876984 82.1428679,82.7231105 C82.1428679,81.8863916 81.4562352,81.2083609 80.6099016,81.2083609 C79.8308532,81.2083609 79.1888071,81.7846069 79.0931487,82.5291584 C79.5373927,83.210395 80.1275564,83.7898469 80.823917,84.2202281 L80.823917,84.2202281 Z M80.6099016,77.91358 C81.4562352,77.91358 82.1428679,77.2363507 82.1428679,76.3996319 C82.1428679,75.6294338 81.5591896,74.9962845 80.8068931,74.9001099 C80.1194497,75.3312926 79.5317181,75.9067371 79.089906,76.5839665 C79.1839431,77.3333267 79.8284212,77.91358 80.6099016,77.91358 L80.6099016,77.91358 Z M90.5762089,76.3900144 L91.0861168,76.3491402 C90.2835591,74.5675061 88.8340913,73.132902 87.0327951,72.3354544 L86.9914512,72.8387681 C88.5608974,73.576908 89.8336404,74.836795 90.5762089,76.3900144 L90.5762089,76.3900144 Z M78.0384744,76.477373 L78.5678382,76.5206516 C79.0882847,75.6502716 79.8267999,74.9209477 80.7071814,74.4056123 L80.6674588,73.8790564 C79.5576594,74.4753388 78.6424193,75.3809828 78.0384744,76.477373 L78.0384744,76.477373 Z M76.4690283,76.3491402 L76.9781255,76.3908159 C77.7247473,74.8279789 79.0055969,73.5632832 80.5880137,72.8275477 L80.5507232,72.3226311 C78.7364564,73.1160714 77.2748286,74.5570872 76.4690283,76.3491402 L76.4690283,76.3491402 Z M89.5166706,76.4765715 C88.9151577,75.3857915 88.0047817,74.4849563 86.9022782,73.8886739 L86.8576916,74.4120239 C87.7348304,74.9265579 88.467671,75.652676 88.9856855,76.5198501 L89.5166706,76.4765715 Z M86.4450635,67.8777627 L86.137011,71.5035443 L86.0972885,71.9884245 L86.0559446,72.4741061 L85.9716355,73.4751232 L85.9302916,73.9672165 L85.912457,74.1635729 C85.7973427,74.2172704 85.685471,74.2789824 85.5808953,74.348709 C84.9015586,74.7959208 84.4767705,75.5548985 84.4767705,76.3996319 C84.4767705,77.7597007 85.5962979,78.8665098 86.9711846,78.8665098 C87.8248142,78.8665098 88.5917026,78.4465475 89.044864,77.7749284 C89.1137705,77.6739451 89.175381,77.5673516 89.2272635,77.4559493 L89.4331722,77.4391188 L89.9309201,77.3982446 L90.9442505,77.3156947 L91.4363238,77.275622 L91.925965,77.2363507 L95.7312234,76.9269891 L95.7312234,82.1404528 L91.928397,81.8607451 L90.9458718,81.7886142 L89.9309201,81.7140789 L89.4315509,81.6772119 L89.2240208,81.6619843 C89.172949,81.5497806 89.1113385,81.44479 89.042432,81.3430053 C88.5892706,80.6737905 87.8215715,80.2562325 86.9711846,80.2562325 C85.5962979,80.2562325 84.4767705,81.3622402 84.4767705,82.7231105 C84.4767705,83.5542191 84.8999373,84.3131969 85.57441,84.7644159 C85.6627724,84.8229221 85.7551881,84.8774211 85.8516572,84.9255084 L85.8678705,85.1667463 L85.8986757,85.659641 L85.9627182,86.6654668 L85.9935235,87.1511484 L86.0251394,87.6392344 L86.9087635,101.477955 L80.5855817,101.477955 L81.4992004,87.6312199 L81.531627,87.1439353 L81.5648642,86.6574523 L81.630528,85.6516264 L81.6621439,85.1579303 L81.6767359,84.9551622 C81.7910396,84.9022662 81.8996686,84.8405541 82.002623,84.7724305 C82.6827703,84.3252187 83.1051265,83.5670424 83.1051265,82.7231105 C83.1051265,81.3622402 81.9864097,80.2562325 80.6099016,80.2562325 C79.7497868,80.2562325 78.9731704,80.6866138 78.5208197,81.3718576 C78.4616412,81.4632235 78.4057053,81.5585966 78.3578761,81.6587785 L78.1219728,81.6764105 L77.6234143,81.7132774 L76.6076519,81.7878127 L76.1155786,81.8246796 L75.624316,81.8607451 L71.8344603,82.1396514 L71.8344603,76.9269891 L75.62918,77.2363507 L76.1180106,77.275622 L76.6100839,77.3156947 L77.6226036,77.3982446 L78.1211622,77.4391188 L78.3562548,77.4583537 C78.404084,77.5585356 78.4592092,77.6547101 78.5183877,77.746076 C78.9699277,78.4345257 79.7481655,78.8665098 80.6099016,78.8665098 C81.9864097,78.8665098 83.1051265,77.7597007 83.1051265,76.3996319 C83.1051265,75.5661188 82.6673677,74.7959208 81.9823564,74.3455031 C81.8785913,74.2757766 81.7691516,74.214866 81.654848,74.16197 L81.6394453,73.9624077 L81.6029655,73.4687116 L81.5275737,72.4644887 L81.4902831,71.978807 L81.4521819,71.4931254 L81.1830413,67.8777627 L86.4450635,67.8777627 Z M81.0192871,72.1326864 L81.055767,72.6295883 L81.1327801,73.6538476 L81.1708814,74.1595656 L81.196012,74.4961766 C81.2689717,74.5186174 81.3378782,74.5458668 81.4051634,74.5755207 C82.1226013,74.8832793 82.6244025,75.5933683 82.6244025,76.3996319 C82.6244025,77.497625 81.7213224,78.3904457 80.6099016,78.3904457 C79.7814027,78.3904457 79.0623434,77.8951466 78.7551017,77.1746387 C78.7324031,77.1201398 78.7121365,77.0656408 78.6934912,77.0087375 L78.3181536,76.9774808 L77.8098671,76.9366066 L76.7778914,76.8524539 L76.2760901,76.8115797 L75.7775316,76.7707055 L71.3529257,76.4100508 L71.3529257,82.6525825 L75.7734783,82.3271918 L76.2728475,82.2903249 L76.7754594,82.2526565 L77.8114884,82.1765183 L78.3230176,82.1388499 L78.6943018,82.1116005 C78.7129471,82.0530942 78.7356457,81.9969924 78.7583443,81.941692 C79.0672074,81.22439 79.7838347,80.7322967 80.6099016,80.7322967 C81.7213224,80.7322967 82.6244025,81.6251174 82.6244025,82.7231105 C82.6244025,83.5349842 82.1371932,84.2354558 81.4238086,84.5432144 C81.3557128,84.5728682 81.2868064,84.6001177 81.2162786,84.6225584 L81.1943906,84.9615738 L81.1603427,85.4688947 L81.0930576,86.4955584 L81.0598204,86.9924604 L81.0273938,87.4861565 L80.0699992,101.954019 L87.4211033,101.954019 L86.4985673,87.4949726 L86.4669514,87.0012764 L86.4345249,86.5059773 L86.3696717,85.4793137 L86.3372451,84.9719927 L86.3145465,84.6025221 C86.2569894,84.5832871 86.2018642,84.560045 86.1475497,84.5360013 C85.4414611,84.221831 84.9591158,83.5197566 84.9591158,82.7231105 C84.9591158,81.6251174 85.8621958,80.7322967 86.9711846,80.7322967 C87.7875236,80.7322967 88.4944229,81.2107652 88.8097713,81.9112367 C88.8397659,81.976956 88.8665178,82.0442782 88.8884058,82.1140048 L89.2305061,82.1396514 L89.7436566,82.1773197 L90.778875,82.253458 L91.2814869,82.2903249 L91.7800454,82.3271918 L96.212758,82.6533839 L96.212758,76.4092493 L91.7768028,76.7707055 L91.2790549,76.8115797 L90.776443,76.8516524 L89.7444673,76.9358052 L89.2345594,76.9774808 L88.8892164,77.0055317 C88.8689498,77.0744568 88.8413872,77.1401761 88.8122033,77.2058954 C88.4984762,77.9095728 87.7891449,78.3904457 86.9711846,78.3904457 C85.8621958,78.3904457 84.9591158,77.497625 84.9591158,76.3996319 C84.9591158,75.5885596 85.4430824,74.8888895 86.1572777,74.5795279 C86.2269948,74.5498741 86.2959013,74.5218232 86.3680504,74.4993825 L86.395613,74.1651758 L86.4385782,73.6618622 L86.5245086,72.6408087 L86.5666631,72.1447082 L86.6088177,71.6518135 L86.967942,67.400897 L80.6650268,67.400897 L80.9819966,71.6397916 L81.0192871,72.1326864 Z M86.7506839,74.9033157 C86.0097367,75.0091077 85.4390291,75.6382498 85.4390291,76.3996319 C85.4390291,77.2363507 86.1256617,77.91358 86.9711846,77.91358 C87.7421264,77.91358 88.3768766,77.3509588 88.4838843,76.6192305 C88.0428829,75.927575 87.4502873,75.34091 86.7506839,74.9033157 L86.7506839,74.9033157 Z M123.83047,23.8362168 C122.886857,29.8182756 122.370464,37.9626596 121.587362,50.2898364 L121.582498,50.3755921 C121.379021,53.6118667 121.159331,57.0869748 120.908836,60.8570183 C119.565565,81.2396176 105.030354,96.0288636 93.0738657,104.845668 C90.4019161,106.816446 87.5556736,108.715092 84.6129621,110.48791 L83.6328689,111.079384 L82.6527758,110.48791 C79.7149282,108.718298 76.8678751,106.819651 74.1910615,104.845668 C62.2370053,96.029665 47.7042259,81.242022 46.3560911,60.8570183 C46.1185664,57.2432585 45.9037404,53.8995889 45.7099916,50.8027675 L45.6808077,50.3331149 C44.8993273,37.9987251 44.3821234,29.8503338 43.4385102,23.859459 L43.2253055,22.5001916 L44.4769712,21.8991005 C56.431838,16.159081 69.9812816,13.124773 83.6588102,13.124773 C97.3176935,13.124773 110.849302,16.150265 122.792009,21.8750568 L124.043675,22.474545 L123.83047,23.8362168 Z M123.819932,19.7816568 C111.557012,13.9045885 97.6703325,10.798951 83.6588102,10.798951 C69.6270213,10.798951 55.7241281,13.9134045 43.4498595,19.8057004 L40.6328009,21.1593576 L41.1151462,24.2177093 C42.0409249,30.104395 42.5532647,38.2143165 43.3315025,50.4998176 L43.3606864,50.9486323 C43.5560565,54.0470566 43.7692612,57.3923291 44.0075965,61.0092948 C45.4132885,82.279906 60.4332772,97.6021194 72.7853695,106.709852 C75.5189297,108.726312 78.4267826,110.665833 81.427862,112.475518 L83.6328689,113.80433 L85.8378759,112.475518 C88.8381446,110.668238 91.7484295,108.726312 94.4828003,106.709852 C106.834893,97.6021194 121.85326,82.2791045 123.258952,61.0092948 C123.505394,57.2360454 123.729137,53.7593344 123.932614,50.5110379 C124.712473,38.2095077 125.227245,30.0827557 126.155456,24.1936656 L126.637801,21.1329096 L123.819932,19.7816568 Z" id="Fill-181" fill="#FEFEFE"></path>
                            </g>
                        </g>
                    </g>
                </g>
            </g>
        </g>
    </g>
</svg>