<?xml version="1.0" encoding="UTF-8"?>
<svg width="378px" height="447px" viewBox="0 0 378 447" version="1.1" xmlns="http://www.w3.org/2000/svg" xmlns:xlink="http://www.w3.org/1999/xlink">
    <title>154F3AA0-350F-4ECE-AEA7-75CE10D5D982</title>
    <g id="Version-3-" stroke="none" stroke-width="1" fill="none" fill-rule="evenodd" opacity="0.0369731105">
        <g id="ATC_Website_Homepage-v4" transform="translate(-1062.000000, -4789.000000)" fill="#FEFEFE">
            <g id="Logo-Big" transform="translate(1062.000000, 4789.000000)">
                <path d="M63.7619597,47.7970415 C59.1070985,49.4476594 55.1735788,48.9908671 53.8957738,48.7722793 L53.2686483,44.1146783 L54.7790492,43.5794185 C56.769363,46.0707586 59.9903739,45.9390455 62.7432488,44.9638077 C65.1869773,44.0978639 67.2538417,42.144586 66.2969601,39.7064916 C65.5049565,37.6775487 63.5646949,37.2291636 58.8921682,38.0446641 C54.5935613,38.8097213 50.0829684,38.3473241 48.4518532,34.1745396 C46.832515,30.0381864 49.70316,26.0783848 54.8644324,24.2484129 C59.0511577,22.763137 62.4399909,22.9508983 63.6883534,23.0966235 L64.2713152,27.5188222 L62.7962453,28.04007 C60.8059315,26.0111271 58.1178301,26.2493317 55.9832479,27.0059817 C53.348143,27.9391833 51.6610871,29.8420179 52.4825332,31.9466258 C53.1891535,33.7569809 55.0764185,34.0568385 58.644851,33.4655305 C64.4008622,32.4762807 68.7200788,32.7957552 70.5101836,37.3748887 C72.3150096,41.9904536 68.9232322,45.969872 63.7619597,47.7970415" id="Fill-1"></path>
                <path d="M88,37.8172555 L81.1369261,40 L79.9632735,37.8748477 C81.3520958,37.4342674 81.5393214,36.82379 81.1453094,35.5106878 L76.4674651,19.8888027 C76.0622754,18.535386 75.5872255,18.1783143 74.1984032,18.6217743 L74,16.1856241 L80.8658683,14 L82.0758483,16.1136338 C80.6870259,16.5570938 80.4886228,17.1272566 80.8938124,18.4806734 L85.5716567,34.0996788 C85.9684631,35.4156606 86.4546906,35.8101672 87.843513,35.3695869 L88,37.8172555 Z" id="Fill-3"></path>
                <path d="M113.248115,21.4627588 C111.703703,21.8315465 111.462752,22.3904902 111.776279,23.6898904 L112.43817,26.4068179 C112.751697,27.7062181 113.082642,28.043313 113.956455,27.8329888 L114,30.241633 C110.80957,31.2961352 110.449594,33.0882125 104.655146,34.4740473 C97.5572372,36.1739277 90.5870618,33.9266281 88.4649467,25.1852089 C86.5141105,17.1525534 90.8570436,11.3643164 98.5907159,9.51461596 C103.473613,8.34486771 107.401412,9.48868558 108.614879,9.82289937 L108.603267,14.7842454 L107.14014,15.1357461 C105.656691,12.4908474 102.501098,12.1191786 99.6822553,12.7933685 C94.169401,14.1129367 92.0240617,18.4173798 93.3913889,24.0471534 C94.75291,29.639472 98.4542735,32.4601211 104.051316,31.1203848 C105.758297,30.711261 107.386897,29.8238658 108.426182,28.907659 L107.410122,24.7328679 C107.096594,23.4334677 106.664043,23.0387497 105.041249,23.4277054 L104.36194,23.58905 L104.338716,21.0536351 L112.824273,19.022422 L113.921618,21.3014142 L113.248115,21.4627588 Z" id="Fill-5"></path>
                <path d="M140.885196,7.54774738 L144,28.6142581 L140.738351,29.1362758 L125.79407,14.1747178 C125.04855,13.4551002 124.082763,12.1013933 124.082763,12.1013933 C124.082763,12.1013933 124.472467,13.6733449 124.602368,14.5345266 L126.41816,26.8299603 C126.624308,28.2220075 127.016835,28.7056849 128.471163,28.472694 L128.318671,30.9707109 L121.919626,32 L121.010318,29.6730398 C122.46747,29.4370996 122.77528,28.8413506 122.57478,27.4493034 L120.126426,10.8921997 C119.91463,9.45886301 119.44868,9.02827214 118,9.26421235 L118.192028,6.75734771 L123.608341,5.88436896 L137.51059,19.7576528 C138.315412,20.5922913 139.230368,21.9135564 139.230368,21.9135564 C139.230368,21.9135564 138.835017,20.3386555 138.69382,19.3565545 L137.041816,8.16709041 C136.827197,6.73375369 136.403606,6.29726431 134.949278,6.53320452 L135.144129,4.02633988 L141.503639,3 L142.407299,5.32990949 C140.952971,5.56584969 140.676225,6.11441066 140.885196,7.54774738" id="Fill-7"></path>
                <path d="M172.275525,4.34757951 L173.164338,16.3535435 C173.560023,21.7751298 169.585463,25.4811692 162.79682,25.9508682 C155.801476,26.4348872 151.327882,23.3131075 150.929245,17.8943852 L150.046337,5.88842125 C149.94594,4.48218836 149.532538,4.02394546 148,4.13277815 L148.407496,1.72127489 L156.105622,1.18856752 L156.861556,3.51701425 C155.287677,3.62871096 154.989438,4.13277815 155.098694,5.53614703 L155.984554,17.5850713 C156.206019,20.5951543 158.479727,22.6572473 162.658035,22.3679815 C166.762521,22.0844437 168.829529,19.7216288 168.613969,16.7086817 L167.722203,4.6626215 C167.618853,3.2563886 167.208404,2.80100972 165.681772,2.90697839 L166.047927,0.501203171 L173.291312,0 L174,2.33131075 C172.470415,2.43727942 172.172175,2.94134661 172.275525,4.34757951" id="Fill-9"></path>
                <path d="M208.07696,26 L201.183088,25.870515 L200.67886,23.4191285 C202.152969,23.4485569 202.508409,22.9159027 202.530451,21.5092247 L202.731591,9.47300509 C202.750879,8.31646859 202.932732,6.66259196 202.932732,6.66259196 C202.932732,6.66259196 202.249406,8.18109791 201.491686,9.40826259 L194.928456,19.8347482 L193.187078,19.8023769 L187.19696,9.42886248 C186.519145,8.216412 185.890926,6.59196378 185.890926,6.59196378 C185.890926,6.59196378 186.017672,8.3311828 185.998385,9.4877193 L185.802755,21.1943407 C185.780713,22.6010187 186.11962,23.1454443 187.552399,23.1719298 L186.971021,25.6027165 L180.504228,25.4791171 L180,23.0306735 C181.435534,23.057159 181.832304,22.5274477 181.851591,21.1207697 L182.129881,4.40837578 C182.154679,2.96049802 181.774442,2.45727221 180.341663,2.43078664 L180.92304,0 L186.306983,0.102999434 L194.402185,14.2404075 L203.037435,0.417883418 L208.498527,0.520882852 L209,2.96932654 C207.564466,2.94284097 207.170451,3.43135257 207.148409,4.88217317 L206.870119,21.5916242 C206.848076,22.9983022 207.228314,23.5427278 208.658337,23.5692134 L208.07696,26 Z" id="Fill-11"></path>
                <path d="M243.462727,10.7032721 C243.587422,8.73957866 243.191651,8.18601524 240.470046,7.80143433 L234.61209,6.97400269 L233.717539,14.2839534 L239.461643,15.0968176 C240.863107,15.294935 241.391705,15.0385477 241.562483,13.6575527 L243.346164,14.4878978 L242.673895,19.9710892 L240.757387,20.2362169 C240.922743,18.8552219 240.472757,18.4619005 239.076715,18.2637831 L233.33261,17.4538324 L232.465167,24.5190498 C232.29981,25.9000448 232.573597,26.4769162 234.010301,26.6779471 L233.18894,29 L226.235836,28.0181533 L226,25.5475123 C227.396042,25.7456298 227.837896,25.2707306 228.008674,23.8897355 L230.014638,7.48095025 C230.190838,6.05916629 229.870968,5.51725684 228.474925,5.3191394 L229.293575,3 L246,5.35992828 L245.373814,10.4789332 L243.462727,10.7032721 Z" id="Fill-13"></path>
                <path d="M256.327281,32 L249.083134,30.6337119 L249,28.1790247 C250.464883,28.4540191 250.917821,28.0024493 251.170091,26.6419506 L254.151457,10.4838566 C254.412327,9.08283233 254.145724,8.53573814 252.683708,8.26074371 L253.632585,6 L260.876732,7.36339345 L261,9.82676464 C259.53225,9.55177021 259.085045,9.9657092 258.827043,11.3638388 L255.842809,27.5219328 C255.59054,28.8824315 255.854276,29.4700512 257.319159,29.7450456 L256.327281,32 Z" id="Fill-15"></path>
                <path d="M273.861967,13.375512 L269.499351,30.2765728 C270.332315,30.4832471 272.911998,31.1195863 274.095977,31.4078425 C279.333345,32.6968374 282.481338,30.2004297 283.871469,24.8268985 C285.258814,19.4506479 283.695962,15.7957765 278.455808,14.5067817 C277.054533,14.1614181 273.861967,13.375512 273.861967,13.375512 M273.40509,34.3910225 C273.098649,34.3175988 268.922683,33.2896662 268.922683,33.2896662 L263,31.8320687 L263.030644,29.5151413 C264.476492,29.8686631 264.941726,29.4716309 265.264883,28.2098301 L269.134407,13.2368227 C269.468707,11.9396696 269.243054,11.409387 267.797206,11.0558652 L268.897611,9 L273.984544,10.2509232 C273.984544,10.2509232 278.996259,11.4855301 279.297129,11.5589539 C287.462409,13.5685893 290.351319,18.4961391 288.426308,25.9472906 C286.501296,33.3984421 281.567584,36.4006579 273.40509,34.3910225" id="Fill-17"></path>
                <path d="M308.58404,46 L292,40.2713254 L292.197622,37.8655085 C293.534958,38.3268593 294.052024,37.9617412 294.455391,36.6767519 L299.276836,21.4153816 C299.699153,20.0935975 299.479873,19.5162014 298.145245,19.0520203 L299.355344,17 L315,22.4060121 L313.494821,27.1638688 L311.580862,27.0053679 C312.046492,25.1571345 311.756827,24.5514347 309.152542,23.6542065 L303.879002,21.8314464 L301.72952,28.630002 L307.005767,30.4527621 C308.375589,30.9282647 308.944091,30.786746 309.347458,29.5045872 L310.917608,30.6310755 L309.304143,35.7314074 L307.414548,35.6238532 C307.820621,34.3388639 307.447034,33.8746828 306.074506,33.3991802 L300.798258,31.5764201 L298.399718,39.1703104 L305.443738,41.604431 C307.539077,42.3290064 308.091337,41.8506734 308.965749,40.2232091 L310.63065,41.3015811 L308.58404,46 Z" id="Fill-19"></path>
                <path d="M321.012917,52 L315,49.2690897 L315.339074,46.8473936 C316.55723,47.3993553 317.016864,47.0410137 317.461428,45.7579193 L322.700753,30.4937201 C323.155364,29.1730577 323.014711,28.5864177 321.799067,28.0344559 L322.989595,26 L329,28.7280205 L328.696089,31.1670557 C327.477933,30.6150939 327.028346,30.9329777 326.576247,32.25653 L321.336921,47.5178393 C320.894869,48.8009336 321.020452,49.4280316 322.233584,49.9799933 L321.012917,52 Z" id="Fill-21"></path>
                <path d="M18.3484478,216.650888 L17.7805937,217 L17.3777809,216.454693 C7.00814896,202.369038 13.5622487,191.927419 20.8940008,185.65206 L21.6660587,185 L22.0576822,185.937697 C28.3684159,200.776395 27.0816528,211.391128 18.3484478,216.650888" id="Fill-23"></path>
                <path d="M138.031724,398.712294 L138.632822,399 L138.967996,398.406972 C147.851504,383.061651 140.394565,373.173945 132.569212,367.581284 L131.754821,367 L131.458427,367.989358 C126.649644,383.675229 128.923844,394.288073 138.031724,398.712294" id="Fill-25"></path>
                <path d="M137.635221,400.998538 L138,401.54869 L137.485863,401.978758 C123.968944,412.95666 113.278341,406.888234 106.680729,399.859138 L106,399.130256 L106.910511,398.694603 C121.366664,391.729738 131.982587,392.528435 137.635221,400.998538" id="Fill-27"></path>
                <path d="M152.961333,410.775089 L153.564403,411 L153.860505,410.430947 C161.56731,395.700617 153.63775,387.099794 145.62941,382.47692 L144.792718,382 L144.564529,382.932162 C140.859178,397.69501 143.765868,407.314708 152.961333,410.775089" id="Fill-29"></path>
                <path d="M154.596242,414.05681 L155,414.576882 L154.518926,415.038862 C141.844922,426.784763 130.788814,421.498278 123.724474,414.986301 L123,414.311313 L123.873378,413.824437 C137.758658,405.979082 148.373781,406.062072 154.596242,414.05681" id="Fill-31"></path>
                <path d="M170.721133,418.811958 L171.324525,419 L171.575938,418.405454 C178.205309,402.92238 169.988065,394.648517 161.924316,390.431391 L161.082743,390 L160.916016,390.956804 C158.187521,406.226948 161.582923,415.850291 170.721133,418.811958" id="Fill-33"></path>
                <path d="M171.569815,422.268319 L172,422.756578 L171.552608,423.239381 C159.619287,435.527676 148.233734,430.964231 140.765729,424.96056 L140,424.341372 L140.840294,423.806743 C154.230507,415.285403 164.847464,414.756229 171.569815,422.268319" id="Fill-35"></path>
                <path d="M123.306463,387.683283 L123.892505,388 L124.263666,387.433397 C133.961273,372.756924 126.959461,362.56969 119.371606,356.610188 L118.576263,356 L118.227428,356.958867 C112.595839,372.193226 114.362339,382.810497 123.306463,387.683283" id="Fill-37"></path>
                <path d="M119.659329,389.733945 L120,390.301835 L119.454349,390.704674 C105.290509,400.993847 94.8856009,394.374983 88.652472,387.00639 L88,386.242675 L88.9411765,385.848229 C103.835438,379.623811 114.445327,380.972202 119.659329,389.733945" id="Fill-39"></path>
                <path d="M103.840939,376.621268 L104.376389,377 L104.81702,376.483547 C115.933189,363.118892 110.001405,352.365193 103.060074,345.688604 L102.332197,345 L101.888777,345.915269 C94.7605964,360.261185 95.4410643,370.877163 103.840939,376.621268" id="Fill-41"></path>
                <path d="M102.720254,377.195134 L103,377.783693 L102.405172,378.129091 C86.898408,386.811025 77.0749057,379.264761 71.5624367,371.395204 L71,370.582827 L71.9923622,370.292692 C87.7788718,365.672643 98.4003865,368.065563 102.720254,377.195134" id="Fill-43"></path>
                <path d="M91.990544,361.596242 L92.5073088,362 L92.9688046,361.516063 C104.765964,348.913647 99.540284,337.820313 93.0765791,330.733065 L92.4022978,330 L91.910404,330.873378 C83.9986524,344.712841 84.0345772,355.325101 91.990544,361.596242" id="Fill-45"></path>
                <path d="M87.7801591,364.025483 L88,364.62501 L87.4327562,364.917991 C72.640992,372.543645 64.0644829,364.587031 59.4722508,356.559884 L59,355.727057 L59.9390735,355.501895 C74.744408,351.883033 84.36584,354.834549 87.7801591,364.025483" id="Fill-47"></path>
                <path d="M76.257666,347.56133 L76.7458992,348 L77.2314048,347.538393 C89.5245166,335.625482 84.9667643,324.23152 78.9770431,316.76839 L78.3524319,316 L77.8178302,316.845802 C69.2860233,330.218081 68.7568767,340.829316 76.257666,347.56133" id="Fill-49"></path>
                <path d="M73.8119039,346.731148 L74,347.326481 L73.4108165,347.583135 C57.9177795,354.200585 49.6470813,345.982352 45.4342808,337.917582 L45,337.081471 L45.9736742,336.909486 C61.2398894,334.192125 70.8632201,337.592134 73.8119039,346.731148" id="Fill-51"></path>
                <path d="M64.3479476,330.526567 L64.7954167,331 L65.296156,330.575643 C78.086315,319.58277 74.4399744,307.781597 69.1236151,299.822733 L68.5616152,299 L67.9862977,299.805413 C58.7545836,312.562111 57.505399,323.176816 64.3479476,330.526567" id="Fill-53"></path>
                <path d="M63.8488395,330.581875 L64,331.160746 L63.3668371,331.362972 C46.9103068,336.618312 39.0642211,328.225946 35.3793273,320.255726 L35,319.431657 L36.0096381,319.333072 C51.9271243,317.78099 61.5443548,321.673834 63.8488395,330.581875" id="Fill-55"></path>
                <path d="M53.3425536,313.520837 L53.7926902,314 L54.293434,313.575681 C67.0916982,302.578026 63.4373343,290.780805 58.1182638,282.819773 L57.5642495,282 L56.9862634,282.80534 C47.7544665,295.560888 46.5079342,306.174635 53.3425536,313.520837" id="Fill-57"></path>
                <path d="M51.8516916,313.580575 L52,314.156932 L51.3668371,314.364219 C34.916011,319.617161 27.0699253,311.224587 23.3850315,303.256697 L23,302.430079 L24.0096381,302.334019 C39.9271243,300.779371 49.550059,304.672312 51.8516916,313.580575" id="Fill-59"></path>
                <path d="M44.8436362,293.500272 L45.2626236,294 L45.7732645,293.59615 C58.7775861,283.151262 55.6639859,271.114218 50.7539773,262.85128 L50.2407177,262 L49.6462793,262.784456 C40.0697985,275.170147 38.4174169,285.780643 44.8436362,293.500272" id="Fill-61"></path>
                <path d="M42.8718232,294.60008 L43,295.288146 L42.3387243,295.495753 C25.2853842,300.902414 17.6996484,290.708945 14.3437469,281.19761 L14,280.212963 L15.0312406,280.147716 C31.3563034,279.053334 40.9783024,284.056646 42.8718232,294.60008" id="Fill-63"></path>
                <path d="M37.9329598,273.503425 L38.2927019,274 L38.8159632,273.675213 C52.0509511,265.236116 49.9880942,253.87662 45.9202411,245.829415 L45.4925756,245 L44.8611401,245.668364 C34.7506257,256.206498 32.3657619,265.823954 37.9329598,273.503425" id="Fill-65"></path>
                <path d="M34.9395987,275.493046 L35,276.125915 L34.3630412,276.267156 C17.9146779,279.800896 11.6247096,269.881435 9.24984161,260.926215 L9,260 L9.98289335,260.024446 C25.393453,260.363967 34.0198522,265.717543 34.9395987,275.493046" id="Fill-67"></path>
                <path d="M28.8110162,253.463217 L29.1973097,254 L29.8342516,253.704221 C45.9435751,246.082444 44.3659643,234.369062 40.2022512,225.87912 L39.765828,225 L38.9784969,225.638115 C26.375303,235.620644 22.8750711,245.236188 28.8110162,253.463217" id="Fill-69"></path>
                <path d="M28.9827605,255.802831 L29,256.501214 L28.3247873,256.605228 C10.8956791,259.265025 5.03713117,247.975005 3.19250746,238.031228 L3,237 L4.0257487,237.098071 C20.0900652,238.589934 28.7155487,245.065574 28.9827605,255.802831" id="Fill-71"></path>
                <path d="M25.0835378,233.421974 L25.4108806,234 L26.0373472,233.743413 C42.0037792,227.089062 41.4196414,214.95051 38.1123494,205.933301 L37.7567873,205 L36.9610054,205.597764 C24.1579475,214.930773 20.0605174,224.545746 25.0835378,233.421974" id="Fill-73"></path>
                <path d="M22.9777604,233.218526 L22.9427661,233.864088 L22.3128697,233.910789 C5.8440391,235.094777 1.14942639,224.265814 0.110366468,214.961476 L0,214 L0.94753651,214.167571 C15.8550853,216.708614 23.4676798,223.301591 22.9777604,233.218526" id="Fill-75"></path>
                <path d="M173.52028,419 C177.075524,419.98406 178.462937,420.122483 181.618182,420.467282 L183,425 C176.904895,424.098993 176.963636,424.312919 171,422.838087 C171,422.838087 172.096503,421.901846 172.745455,420.925336 C173.346853,420.014262 173.495105,419.062919 173.52028,419" id="Fill-77"></path>
                <path d="M186,428.027093 C180.897097,433.052029 173.906089,441.093544 170.316033,447 L163,445.56854 C168.300874,439.104057 174.015416,432.928023 180.037256,427 C180.037256,427 185.843397,427.886912 186,428.027093" id="Fill-79"></path>
                <path d="M356.65211,216.650888 L357.220005,217 L357.622847,216.454693 C367.993235,202.369038 361.43586,191.927419 354.100776,185.65206 L353.334257,185 L352.942605,185.937697 C346.631412,200.776395 347.918268,211.391128 356.65211,216.650888" id="Fill-81"></path>
                <path d="M239.968819,398.712294 L239.370622,399 L239.027213,398.406972 C230.151184,383.061651 237.606494,373.173945 245.432908,367.581284 L246.244352,367 L246.54345,367.989358 C251.348414,383.675229 249.07748,394.288073 239.968819,398.712294" id="Fill-83"></path>
                <path d="M240.364713,400.998538 L240,401.54869 L240.519788,401.978758 C254.034282,412.95666 264.720093,406.888234 271.316522,399.859138 L272,399.130256 L271.083909,398.694603 C256.633223,391.729738 246.019205,392.528435 240.364713,400.998538" id="Fill-85"></path>
                <path d="M221.038103,410.775089 L220.432253,411 L220.141554,410.430947 C212.431236,395.700617 220.361616,387.099794 228.370784,382.47692 L229.207562,382 L229.435775,382.932162 C233.141509,397.69501 230.231801,407.314708 221.038103,410.775089" id="Fill-87"></path>
                <path d="M223.403795,414.05681 L223,414.576882 L223.478253,415.038862 C236.153392,426.784763 247.210489,421.498278 254.272597,414.986301 L255,414.311313 L254.126544,413.824437 C240.242885,405.979082 229.626812,406.062072 223.403795,414.05681" id="Fill-89"></path>
                <path d="M203.275572,418.811958 L202.680159,419 L202.42347,418.405454 C195.794534,402.92238 204.013885,394.648517 212.077105,390.431391 L212.918623,390 L213.082692,390.956804 C215.813655,406.226948 212.418475,415.850291 203.275572,418.811958" id="Fill-91"></path>
                <path d="M206.433014,422.268319 L206,422.756578 L206.45022,423.239381 C218.382472,435.527676 229.764137,430.964231 237.23434,424.96056 L238,424.341372 L237.159781,423.806743 C223.7679,415.285403 213.151895,414.756229 206.433014,422.268319" id="Fill-93"></path>
                <path d="M254.695421,387.683283 L254.109379,388 L253.735429,387.433397 C244.037829,372.756924 251.042426,362.56969 258.633065,356.610188 L259.428408,356 L259.771661,356.958867 C265.403245,372.193226 263.639538,382.810497 254.695421,387.683283" id="Fill-95"></path>
                <path d="M254.340702,389.733945 L254,390.301835 L254.548588,390.704674 C268.710818,400.993847 279.116665,394.374983 285.359018,387.00639 L286,386.242675 L285.058739,385.848229 C270.168907,379.623811 259.558062,380.972202 254.340702,389.733945" id="Fill-97"></path>
                <path d="M270.159648,376.621268 L269.618667,377 L269.183651,376.483547 C258.065648,363.118892 263.999712,352.365193 270.940446,345.688604 L271.67105,345 L272.111643,345.915269 C279.239211,360.261185 278.558802,370.877163 270.159648,376.621268" id="Fill-99"></path>
                <path d="M272.282691,377.195134 L272,377.783693 L272.594828,378.129091 C288.101592,386.811025 297.928039,379.264761 303.431674,371.395204 L304,370.582827 L303.007638,370.292692 C287.215239,365.672643 276.593724,368.065563 272.282691,377.195134" id="Fill-101"></path>
                <path d="M286.011827,361.596242 L285.492264,362 L285.030737,361.516063 C273.235554,348.913647 278.458819,337.820313 284.920192,330.733065 L285.600046,330 L286.086445,330.873378 C294.001489,344.712841 293.965561,355.325101 286.011827,361.596242" id="Fill-103"></path>
                <path d="M289.214453,364.025483 L289,364.62501 L289.561921,364.917991 C304.361883,372.543645 312.92914,364.587031 317.527661,356.559884 L318,355.727057 L317.060751,355.501895 C302.255359,351.883033 292.632126,354.834549 289.214453,364.025483" id="Fill-105"></path>
                <path d="M300.739597,347.56133 L300.248698,348 L299.768708,347.538393 C287.47442,335.625482 292.034324,324.23152 298.02329,316.76839 L298.645095,316 L299.182357,316.845802 C307.713088,330.218081 308.244895,340.829316 300.739597,347.56133" id="Fill-107"></path>
                <path d="M300.182581,346.731148 L300,347.326481 L300.58924,347.583135 C316.080988,354.200585 324.352475,345.982352 328.568444,337.917582 L329,337.081471 L328.028999,336.909486 C312.761328,334.192125 303.137079,337.592134 300.182581,346.731148" id="Fill-109"></path>
                <path d="M312.656323,330.526567 L312.206176,331 L311.705422,330.575643 C298.909545,319.58277 302.561324,307.781597 307.883173,299.822733 L308.439863,299 L309.015198,299.805413 C318.247194,312.562111 319.491089,323.176816 312.656323,330.526567" id="Fill-111"></path>
                <path d="M314.148308,330.581875 L314,331.160746 L314.630311,331.362972 C331.086841,336.618312 338.932927,328.225946 342.617821,320.255726 L343,319.431657 L341.993214,319.333072 C326.072876,317.78099 316.452793,321.673834 314.148308,330.581875" id="Fill-113"></path>
                <path d="M321.653238,313.520837 L321.208438,314 L320.707706,313.575681 C307.909738,302.578026 311.561354,290.780805 316.880301,282.819773 L317.436966,282 L318.014939,282.80534 C327.246523,295.560888 328.493026,306.174635 321.653238,313.520837" id="Fill-115"></path>
                <path d="M323.151175,313.580575 L323,314.156932 L323.633225,314.364219 C340.085669,319.617161 347.932527,311.224587 351.620635,303.256697 L352,302.430079 L350.98741,302.334019 C335.074063,300.779371 325.450182,304.672312 323.151175,313.580575" id="Fill-117"></path>
                <path d="M331.155245,293.500272 L330.736254,294 L330.228228,293.59615 C317.223796,283.151262 320.334804,271.114218 325.244854,262.85128 L325.760737,262 L326.357799,262.784456 C335.931742,275.170147 337.581519,285.780643 331.155245,293.500272" id="Fill-119"></path>
                <path d="M335.122363,294.60008 L335,295.288146 L335.658429,295.495753 C352.716395,300.902414 360.29998,290.708945 363.653305,281.19761 L364,280.212963 L362.965742,280.147716 C346.63904,279.053334 337.018987,284.056646 335.122363,294.60008" id="Fill-121"></path>
                <path d="M340.068928,273.503425 L339.709206,274 L339.183459,273.675213 C325.949222,265.236116 328.011962,253.87662 332.079584,245.829415 L332.512256,245 L333.14114,245.668364 C343.248565,256.206498 345.633294,265.823954 340.068928,273.503425" id="Fill-123"></path>
                <path d="M343.057668,275.493046 L343,276.125915 L343.631601,276.267156 C360.083439,279.800896 366.374736,269.881435 368.755598,260.926215 L369,260 L368.022391,260.024446 C352.60583,260.363967 343.980355,265.717543 343.057668,275.493046" id="Fill-125"></path>
                <path d="M346.184364,253.463217 L345.798071,254 L345.167027,253.704221 C329.057719,246.082444 330.63238,234.369062 334.799038,225.87912 L335.232512,225 L336.019842,225.638115 C348.623024,235.620644 352.12915,245.236188 346.184364,253.463217" id="Fill-127"></path>
                <path d="M349.014369,255.802831 L349,256.501214 L349.669614,256.605228 C367.102575,259.265025 372.962418,247.975005 374.810324,238.031228 L375,237 L373.976898,237.098071 C357.906157,238.589934 349.278766,245.065574 349.014369,255.802831" id="Fill-129"></path>
                <path d="M352.91818,233.421974 L352.593707,234 L351.95887,233.743413 C335.994826,227.089062 336.578877,214.95051 339.891317,205.933301 L340.241183,205 L341.034024,205.597764 C353.843632,214.930773 357.937627,224.545746 352.91818,233.421974" id="Fill-131"></path>
                <path d="M355.02249,233.218526 L355.054799,233.864088 L355.687529,233.910789 C372.154655,235.094777 376.853009,224.265814 377.892301,214.961476 L378,214 L377.052252,214.167571 C362.141372,216.708614 354.529768,223.301591 355.02249,233.218526" id="Fill-133"></path>
                <path d="M200.480308,419 C196.925891,419.98406 195.536006,420.122483 192.381496,420.467282 L191,425 C197.096481,424.098993 197.034957,424.312919 203,422.838087 C203,422.838087 201.900955,421.901846 201.252156,420.925336 C200.653694,420.014262 200.499883,419.062919 200.480308,419" id="Fill-135"></path>
                <path d="M192,428.027093 C197.103559,433.052029 204.09842,441.093544 207.688937,447 L215,445.56854 C209.69549,439.104057 203.983168,432.928023 197.96351,427 C197.96351,427 192.162534,427.886912 192,428.027093" id="Fill-137"></path>
                <path d="M257.725653,194.014317 L249.467538,217.038981 L269.472684,201.460322 L289.403009,217.038981 L281.142122,194.014317 L300.099762,176.103802 L277.046318,181.399228 L269.431116,159.256219 L261.821457,181.399228 L238.768013,176.103802 L257.725653,194.014317 Z M138.404196,214.297884 C136.098575,214.297884 133.834521,214.273165 131.614806,214.273165 L131.589865,214.273165 C123.675376,214.270419 116.345606,214.600009 110.066112,217.618512 L110.035629,217.626752 L110.035629,217.637738 L108.384006,217.637738 L108.384006,217.624005 L108.37015,217.618512 C100.328187,213.751313 90.5764054,214.297884 80.0597783,214.297884 C80.0486936,214.297884 80.0376089,214.300631 80.0265241,214.300631 L80.0265241,174.694802 L80.0597783,174.694802 L80.1235154,174.694802 C80.8079968,174.694802 81.489707,174.708535 82.1658749,174.727761 C82.2850356,174.730507 82.4041964,174.733254 82.5205859,174.738747 L82.5205859,210.894859 L83.7343626,210.894859 C92.4220111,210.894859 100.768804,211.760035 107.882423,215.827735 L108.023753,215.907386 L108.425574,216.011757 L108.442201,216.014503 L110.043943,216.014503 L110.063341,216.011757 L110.462391,215.907386 L110.603721,215.827735 C117.71734,211.760035 126.061362,210.894859 134.746239,210.894859 L135.962787,210.894859 L135.962787,174.738747 C136.081948,174.733254 136.198337,174.730507 136.314727,174.727761 C136.996437,174.708535 137.675376,174.694802 138.359857,174.694802 L138.382027,174.694802 L138.39034,174.694802 L138.398654,174.694802 L138.404196,174.727761 L138.404196,214.297884 Z M83.709422,170.206873 L83.7343626,170.206873 C83.7565321,170.206873 83.7759303,170.20962 83.7953286,170.20962 C84.4631829,170.20962 85.1227237,170.223353 85.7794933,170.248072 L85.7794933,207.167737 L86.9960412,207.167737 C94.5142518,207.167737 101.755344,209.397968 107.92399,213.622223 L108.076405,213.723847 L108.425574,213.833711 L108.489311,213.852937 L109.991291,213.852937 L109.991291,213.855683 L110.005146,213.85019 L110.420823,213.723847 L110.564925,213.622223 C116.739113,209.397968 123.971892,207.167737 131.492874,207.167737 L132.712193,207.167737 L132.712193,170.248072 C132.836896,170.242579 132.956057,170.239833 133.08076,170.234339 C133.155582,170.234339 133.233175,170.231593 133.310768,170.228846 C133.501979,170.223353 133.695962,170.220606 133.887173,170.215113 C134.117181,170.212367 134.344418,170.20962 134.577197,170.20962 L134.690816,170.20962 L134.710214,170.20962 L134.721298,174.727761 L134.721298,209.716572 L134.693587,209.716572 C128.860253,209.716572 123.301267,210.150533 118.21061,211.493616 C115.309184,212.262661 112.560174,213.325592 110.005146,214.781284 C110.002375,214.781284 109.999604,214.784031 109.994062,214.784031 L109.991291,214.789524 L109.991291,214.814243 L108.525337,214.814243 L108.525337,214.819737 L108.511481,214.814243 L108.48654,214.814243 L108.48654,214.811497 L108.475455,214.806004 C108.458828,214.797764 108.442201,214.789524 108.425574,214.781284 C101.408947,210.784996 92.9014252,209.716572 83.7343626,209.716572 L83.7177356,209.716572 L83.709422,174.727761 L83.709422,170.206873 Z M86.9683294,166.02107 L86.9960412,166.02107 L87.0431512,166.02107 C95.0435471,166.02931 102.461995,168.484761 108.583531,172.667818 L108.583531,172.73923 L108.644497,172.758456 L108.644497,212.66641 L108.600158,212.652677 C108.575218,212.633451 108.550277,212.619718 108.525337,212.603238 C108.489311,212.581266 108.458828,212.559293 108.425574,212.534574 C102.320665,208.406449 94.9437846,205.989449 86.9960412,205.989449 L86.9766429,205.989449 L86.9683294,174.727761 L86.9683294,166.02107 Z M109.852732,172.758456 L109.855503,172.755709 L109.902613,172.73923 L109.902613,172.681551 L109.913698,172.667818 C111.543151,171.555449 113.264054,170.566677 115.065321,169.709741 L116.110055,169.314232 L116.110055,169.896509 L116.112827,169.896509 L116.112827,177.216171 L118.011085,175.34025 L119.87886,177.194199 L119.87886,169.896509 L119.881631,169.896509 L119.881631,167.891498 L120.929137,167.495989 C121.621932,167.298235 122.314727,167.119706 123.024149,166.960404 C123.038005,166.954911 123.057403,166.952164 123.076801,166.949418 C123.26247,166.905472 123.448139,166.86702 123.631037,166.828568 C123.714173,166.812088 123.800079,166.792862 123.883215,166.776382 C124.043943,166.743423 124.204671,166.713211 124.368171,166.682998 C124.481789,166.663772 124.595408,166.6418 124.706255,166.622573 C124.853127,166.595107 124.994458,166.570388 125.138559,166.545669 C125.285432,166.523696 125.429533,166.498977 125.573634,166.477004 C125.690024,166.457778 125.809184,166.438552 125.928345,166.422072 C126.19715,166.38362 126.463183,166.347914 126.729216,166.314955 L126.731987,166.314955 C126.942597,166.287489 127.150435,166.26277 127.361045,166.240797 C127.383215,166.238051 127.410926,166.238051 127.430325,166.235304 C127.627078,166.213331 127.81829,166.194105 128.009501,166.177626 C128.05384,166.174879 128.098179,166.169386 128.136975,166.166639 C128.317102,166.15016 128.5,166.136427 128.680127,166.122694 C128.738321,166.117201 128.793745,166.114454 128.85194,166.111708 C129.023753,166.097975 129.190024,166.089735 129.361837,166.078749 C129.433888,166.076002 129.503167,166.070509 129.577989,166.067762 C129.730404,166.059522 129.891132,166.054029 130.046318,166.048536 C130.14331,166.043043 130.240301,166.040296 130.33175,166.03755 C130.470309,166.034803 130.606097,166.02931 130.744656,166.026563 C130.933096,166.023817 131.121536,166.02107 131.315519,166.02107 L131.451306,166.02107 L131.462391,166.02107 L131.479018,166.02107 L131.479018,205.989449 L131.467933,205.989449 L131.456849,205.989449 C123.503563,205.989449 116.126683,208.406449 110.024545,212.534574 C109.991291,212.559293 109.958036,212.581266 109.924782,212.603238 C109.902613,212.619718 109.87213,212.633451 109.852732,212.652677 L109.852732,172.758456 Z M139.507126,174.727761 L139.507126,173.653844 L138.476247,173.653844 C138.456849,173.653844 138.442993,173.651097 138.426366,173.651097 C138.420823,173.651097 138.404196,173.653844 138.39034,173.653844 C138.39034,173.653844 138.382027,173.651097 138.373713,173.651097 C138.354315,173.651097 138.307205,173.653844 138.307205,173.653844 C137.52019,173.653844 136.724861,173.667577 135.871338,173.69779 L135.826999,173.69779 L135.826999,169.165916 L134.693587,169.165916 L134.640934,169.165916 L134.638163,169.165916 L134.322249,169.165916 C133.78464,169.171409 133.24426,169.182395 132.670625,169.204368 L132.573634,169.209861 L132.573634,164.977366 L131.442993,164.977366 C131.395883,164.977366 131.348773,164.980113 131.307205,164.980113 C131.115994,164.980113 130.930325,164.980113 130.741884,164.985606 C130.586698,164.988352 130.431512,164.993845 130.281869,164.999339 C130.201504,164.999339 130.123911,165.002085 130.046318,165.004832 C129.860649,165.010325 129.683294,165.018565 129.500396,165.029551 C129.453286,165.029551 129.403405,165.032298 129.361837,165.035044 C129.15677,165.046031 128.954473,165.059764 128.752177,165.073497 C128.730008,165.073497 128.702296,165.076243 128.682898,165.07899 C128.461203,165.095469 128.239509,165.109202 128.020586,165.128428 L128.012272,165.128428 C125.326999,165.364635 122.686065,165.872754 120.125495,166.639053 L119.87886,166.710464 L119.87886,166.713211 C118.601346,167.10872 117.346002,167.564654 116.112827,168.089253 L116.112827,168.053547 L115.190024,168.493001 C113.153207,169.421349 111.182898,170.530971 109.304038,171.810882 L109.248614,171.852081 L109.243072,171.854828 L109.23753,171.852081 L109.179335,171.810882 C102.650435,167.35042 94.9992082,164.988352 87.0431512,164.977366 L85.9152811,164.977366 L85.9152811,169.212608 L85.821061,169.207115 C85.0839272,169.179649 84.4216152,169.165916 83.7897862,169.165916 L83.7343626,169.165916 L82.6591449,169.165916 L82.6591449,173.700536 L82.5538401,173.69779 C81.719715,173.667577 80.9022169,173.653844 80.1262866,173.653844 C80.1262866,173.653844 80.0791766,173.651097 80.0597783,173.651097 C80.0431512,173.651097 80.0265241,173.653844 80.0098971,173.653844 L78.9734759,173.653844 L78.9734759,174.727761 L77.1112431,174.727761 L77.1112431,218.65947 L107.330958,218.65947 L107.330958,218.678696 L111.149644,218.678696 L111.149644,218.65947 L141.27791,218.65947 L141.27791,174.727761 L139.507126,174.727761 Z M310.491686,172.228364 C309.798892,183.264163 309.047902,195.167884 308.194378,208.082351 C306.614806,232.082055 299.232383,255.623079 286.243864,278.073707 L196.066904,197.82933 L316.895883,90.3195537 C314.407363,110.235079 312.750198,136.437548 310.491686,172.228364 L310.491686,172.228364 Z M286.645685,280.570357 L287.138955,279.721661 C300.559778,256.804113 308.183294,232.735744 309.79612,208.189468 C310.649644,195.272255 311.406176,183.365787 312.098971,172.327241 C314.437846,135.281234 316.128266,108.515713 318.758116,88.3996872 L319.038005,86.2683333 L193.66152,197.82933 L286.645685,280.570357 Z M168.709818,133.078468 C168.612827,133.347634 168.460412,133.62504 168.238717,133.927165 C167.213381,135.297713 165.525732,134.284222 164.436659,133.641519 C162.502375,132.504431 160.487728,131.493686 158.414885,130.62851 C157.287015,130.16159 156.156374,129.697416 155.022961,129.225003 C154.834521,129.145351 154.646081,129.068447 154.452098,128.986049 C153.171813,128.442224 151.971892,127.887413 150.622328,127.53585 C149.533254,127.261191 148.167063,126.942586 147.335709,126.140582 C147.047506,125.868669 146.11639,125.179275 144.916469,124.316846 C144.040776,123.687877 143.012668,122.96827 141.990103,122.256903 C139.246635,120.345277 136.62787,118.527034 136.62787,118.527034 C136.511481,118.45013 136.400633,118.381465 136.287015,118.318293 C135.824228,118.002435 133.100158,116.173206 132.617973,116.027637 C132.146873,115.887561 131.528899,115.058091 131.401425,114.879562 C129.647268,111.839087 127.721298,108.378384 127.721298,108.378384 C127.721298,108.378384 125.033254,102.184823 121.793745,101.528388 L128.774347,88.5919485 L130.101742,89.0698552 C134.857086,89.1467597 140.224861,91.6406635 143.810768,93.6539141 C144.046318,93.6319414 144.256928,93.6099686 144.420428,93.5989823 C146.576405,93.4232005 150.830166,91.181983 152.578781,90.8743649 C154.330166,90.5667468 157.070863,89.8443936 158.655978,90.3250469 C160.23555,90.8029536 163.003959,90.7342888 164.774743,90.8276729 C166.537213,90.9183103 166.370942,92.2998452 166.370942,92.2998452 C166.370942,92.2998452 166.2019,93.2831244 165.553444,94.230698 C173.609264,90.5749866 184.425178,94.3927468 188.421219,103.843763 C192.356295,94.5355695 202.903405,90.6875968 210.906572,94.0713958 C210.964766,94.0933685 211.017419,94.1180878 211.070071,94.1428071 C210.471496,93.225446 210.310768,92.2998452 210.310768,92.2998452 C210.310768,92.2998452 210.141726,90.9183103 211.909739,90.8276729 C213.67498,90.7342888 216.440618,90.8029536 218.028504,90.3250469 C219.610847,89.8443936 222.346002,90.5667468 224.100158,90.8743649 C225.851544,91.181983 230.110847,93.4232005 232.258511,93.5989823 C232.427553,93.6099686 232.632621,93.6319414 232.868171,93.6539141 C236.456849,91.6406635 241.824624,89.1467597 246.579968,89.0698552 L247.910135,88.5919485 L254.887965,101.528388 C251.651227,102.184823 248.963183,108.378384 248.963183,108.378384 C248.963183,108.378384 247.034442,111.839087 245.283056,114.879562 C245.152811,115.058091 244.532067,115.887561 244.058195,116.027637 C243.578781,116.173206 240.860253,118.002435 240.394695,118.318293 C240.281077,118.381465 240.17023,118.45013 240.056611,118.527034 C240.056611,118.527034 237.429533,120.345277 234.688836,122.256903 C233.6635,122.96827 232.640934,123.687877 231.765241,124.316846 C230.562549,125.179275 229.631433,125.868669 229.348773,126.140582 C228.514648,126.942586 227.151227,127.261191 226.059382,127.53585 C224.709818,127.887413 223.507126,128.442224 222.226841,128.986049 C222.035629,129.068447 221.847189,129.145351 221.653207,129.225003 C220.530879,129.697416 219.397466,130.16159 218.269596,130.62851 C216.193983,131.493686 214.179335,132.504431 212.245051,133.641519 C211.150435,134.284222 209.465558,135.297713 208.448535,133.927165 C208.24901,133.666239 208.115994,133.421792 208.010689,133.182839 C207.985748,133.213051 207.960808,133.237771 207.941409,133.26249 C201.864212,139.755429 194.55384,145.471083 188.410135,149.486598 C182.213777,145.435377 174.825812,139.645565 168.709818,133.078468 L168.709818,133.078468 Z M166.093824,142.603643 C164.907759,143.79017 163.419636,142.57343 162.449723,141.801639 C160.737134,140.428344 158.927553,139.173152 157.04038,138.04705 C155.837688,137.33019 154.632225,136.627063 153.437846,135.901963 C152.268409,135.196089 151.19042,134.492962 149.926762,133.968364 C148.906968,133.545389 147.629454,133.045509 146.936659,132.155614 C146.063737,131.037752 137.517419,123.215463 137.517419,123.215463 C135.954473,122.39698 135.150831,121.364262 134.77118,120.727053 C134.294537,120.309571 133.867775,119.848144 133.540776,119.331785 C133.252573,118.864865 132.867379,118.230402 132.448931,117.508049 C132.742676,117.681084 132.98654,117.818414 132.98654,117.818414 L135.926762,119.537779 C136.057007,119.62567 136.198337,119.710814 136.361837,119.812438 C136.361837,119.812438 138.102138,120.990725 140.186065,122.432685 C141.164291,123.111093 142.220111,123.849926 143.217736,124.544813 C145.132621,125.890642 146.800871,127.096395 147.202692,127.475425 C148.036817,128.277429 149.400238,128.59878 150.492082,128.876186 C151.838876,129.225003 153.044339,129.78256 154.324624,130.323639 C155.158749,130.680695 155.995645,131.026766 156.835313,131.372836 C160.349169,133.97935 165.312352,137.761405 166.071655,138.895746 C166.071655,138.895746 168.097387,140.595886 166.093824,142.603643 L166.093824,142.603643 Z M157.965954,145.8199 C157.965954,145.8199 156.530483,146.443376 155.225257,144.652599 C153.914489,142.864569 144.218131,133.388833 144.218131,133.388833 C144.218131,133.388833 141.940222,131.235506 141.538401,130.397797 L138.731196,126.080157 L146.884006,133.861247 C147.942597,134.874738 150.86342,135.910203 150.86342,135.910203 L156.630245,139.23083 L158.539588,142.169682 C158.539588,142.169682 160.288203,144.630626 157.965954,145.8199 L157.965954,145.8199 Z M115.999208,99.3805545 L123.58947,85.0296212 L127.463579,87.0428717 L119.873317,101.391058 L115.999208,99.3805545 Z M176.552257,89.8526334 L200.229216,89.8526334 L200.229216,85.3289995 L176.552257,85.3289995 L176.552257,89.8526334 Z M169.638163,70.3655766 C169.768409,69.8492176 170.106492,69.2998996 170.730008,68.7176225 C170.730008,68.7176225 169.904196,70.1156369 171.83848,71.3378695 C173.398654,72.3293885 172.534046,73.4060518 172.146081,73.7823347 C172.265241,73.8812119 172.373317,73.9663562 172.486936,74.0460073 C172.547902,74.0926994 172.611639,74.142138 172.667063,74.1805902 C172.772367,74.2465084 172.891528,74.3179197 173.021774,74.3948243 C173.866983,74.872731 175.252573,75.4138092 176.32502,74.8232923 C177.486144,74.1805902 178.051465,72.8292679 177.738321,71.6866864 C177.671813,71.6921796 177.619161,71.6949262 177.549881,71.6949262 C176.458036,71.6949262 175.571259,70.8160174 175.571259,69.7311143 C175.571259,68.6462112 176.458036,67.7673024 177.549881,67.7673024 C178.647268,67.7673024 179.534046,68.6462112 179.534046,69.7311143 C179.534046,70.4369879 179.157165,71.0522241 178.589074,71.3982945 C179.110055,72.3211487 180.653603,74.5596197 183.444181,74.2135493 C184.965558,74.0267812 185.960412,73.2247769 186.877672,71.8157762 C185.81631,71.428507 185.051465,70.6402356 184.890736,69.7036484 C184.87688,69.6432234 184.871338,69.5773052 184.863025,69.5113871 C184.854711,69.4509621 184.838084,69.3960303 184.838084,69.3328587 C184.838084,69.2779269 184.854711,69.2284883 184.863025,69.1763031 C184.871338,69.0581997 184.882423,68.9400963 184.907363,68.8137532 C184.907363,68.794527 184.918448,68.7753009 184.92399,68.7560748 C184.940618,68.6517044 184.962787,68.5473339 185.001584,68.4374703 C185.835709,65.7183461 183.826603,64.9767668 183.826603,64.9767668 C185.04038,65.0728975 185.893903,65.4079815 186.475851,65.8803949 C184.838084,62.3565198 188.074822,59.3050582 188.393508,59.0111731 C188.717736,59.3050582 191.951702,62.3565198 190.319477,65.8803949 C190.898654,65.4079815 191.746635,65.0728975 192.965954,64.9767668 C192.965954,64.9767668 190.954078,65.7183461 191.796516,68.4374703 C191.82977,68.5473339 191.85194,68.6517044 191.868567,68.7560748 C191.871338,68.7753009 191.879652,68.794527 191.885194,68.8137532 C191.910135,68.9400963 191.92399,69.0581997 191.932304,69.1763031 C191.940618,69.2284883 191.951702,69.2779269 191.951702,69.3328587 C191.951702,69.3960303 191.935075,69.4509621 191.929533,69.5113871 C191.92399,69.5773052 191.915677,69.6432234 191.904592,69.7036484 C191.738321,70.6402356 190.979018,71.428507 189.914885,71.8157762 C190.832146,73.2247769 191.826999,74.0267812 193.345606,74.2135493 C196.138955,74.5596197 197.685273,72.3211487 198.200713,71.3982945 C197.632621,71.0522241 197.261283,70.4369879 197.261283,69.7311143 C197.261283,68.6462112 198.145289,67.7673024 199.239905,67.7673024 C200.334521,67.7673024 201.221298,68.6462112 201.221298,69.7311143 C201.221298,70.8160174 200.334521,71.6949262 199.239905,71.6949262 C199.178939,71.6949262 199.120744,71.6921796 199.054236,71.6866864 C198.741093,72.8292679 199.311956,74.1805902 200.470309,74.8232923 C201.534442,75.4138092 202.922803,74.872731 203.770784,74.3948243 C203.9038,74.3179197 204.025732,74.2465084 204.128266,74.1805902 C204.189232,74.142138 204.250198,74.0926994 204.305622,74.0460073 C204.416469,73.9663562 204.532858,73.8812119 204.646477,73.7823347 C204.261283,73.4060518 203.393903,72.3293885 204.95962,71.3378695 C206.888361,70.1156369 206.057007,68.7176225 206.057007,68.7176225 C206.691607,69.2998996 207.024149,69.8492176 207.157165,70.3655766 C208.110451,67.4432047 211.940222,67.2811559 211.940222,67.2811559 C211.940222,67.2811559 205.450119,73.7383892 202.878464,77.6907324 C200.667063,81.0827712 200.259699,83.6096341 200.259699,83.6096341 L176.535629,83.6096341 C176.535629,83.6096341 176.128266,81.0827712 173.914093,77.6907324 C171.342439,73.7383892 164.860649,67.2811559 164.860649,67.2811559 C164.860649,67.2811559 168.69042,67.4432047 169.638163,70.3655766 L169.638163,70.3655766 Z M253.092241,85.0296212 L260.679731,99.3805545 L256.811164,101.391058 L249.218131,87.0428717 L253.092241,85.0296212 Z M243.135392,119.331785 C242.813935,119.848144 242.387173,120.309571 241.913302,120.727053 C241.528108,121.364262 240.727237,122.39698 239.16152,123.215463 C239.16152,123.215463 230.620744,131.037752 229.745051,132.155614 C229.049485,133.045509 227.7692,133.545389 226.75772,133.968364 C225.491291,134.492962 224.41053,135.196089 223.246635,135.901963 C222.052257,136.627063 220.841251,137.33019 219.64133,138.04705 C217.751386,139.173152 215.944576,140.428344 214.231987,141.801639 C213.262074,142.57343 211.768409,143.79017 210.590657,142.603643 C208.584323,140.595886 210.598971,138.895746 210.598971,138.895746 C211.366587,137.761405 216.32977,133.97935 219.849169,131.372836 C220.686065,131.026766 221.522961,130.680695 222.362629,130.323639 C223.640143,129.78256 224.840063,129.225003 226.192399,128.876186 C227.278702,128.59878 228.644893,128.277429 229.481789,127.475425 C229.88361,127.096395 231.551861,125.890642 233.461203,124.544813 C234.458828,123.849926 235.509105,123.111093 236.495645,122.432685 C238.585115,120.990725 240.317102,119.812438 240.317102,119.812438 C240.480602,119.710814 240.624703,119.62567 240.754949,119.537779 L243.689628,117.818414 C243.689628,117.818414 243.939034,117.681084 244.23555,117.508049 C243.81156,118.230402 243.431908,118.864865 243.135392,119.331785 L243.135392,119.331785 Z M235.146081,130.397797 C234.74426,131.235506 232.463579,133.388833 232.463579,133.388833 C232.463579,133.388833 222.769992,142.864569 221.459224,144.652599 C220.145685,146.443376 218.715756,145.8199 218.715756,145.8199 C216.393508,144.630626 218.139351,142.169682 218.139351,142.169682 L220.051465,139.23083 L225.815519,135.910203 C225.815519,135.910203 228.736342,134.874738 229.800475,133.861247 L237.950515,126.080157 L235.146081,130.397797 Z M316.566112,78.6712651 L315.468725,78.1631459 C276.364608,60.0988228 232.313935,50.548929 188.080364,50.548929 C143.896675,50.548929 99.8792557,60.0823432 60.8000792,78.1137073 L59.6943785,78.624573 L188.157957,192.934907 L316.566112,78.6712651 Z M201.091053,230.428608 L199.766429,246.152836 C206.719319,249.066969 212.28939,254.598601 215.218527,261.498035 L231.549089,260.165939 C232.150435,260.116501 232.640934,260.561448 232.640934,261.160205 L232.640934,283.92669 C232.640934,284.525447 232.150435,284.970394 231.549089,284.920956 L215.232383,283.717949 C212.261679,290.75746 206.536421,296.368743 199.400633,299.244423 L202.623515,349.932744 C202.667854,350.5315 202.21061,351.020393 201.606492,351.020393 L175.152811,351.020393 C174.54038,351.020393 174.085907,350.5315 174.130245,349.93549 L177.472288,299.208718 C170.378068,296.319305 164.69715,290.724501 161.734759,283.717949 L145.462391,284.920956 C144.861045,284.970394 144.373317,284.525447 144.373317,283.92669 L144.373317,261.160205 C144.373317,260.561448 144.861045,260.116501 145.462391,260.165939 L161.748614,261.498035 C164.699921,254.557402 170.314331,249.006544 177.322644,246.106144 L176.153207,230.428608 C176.106097,229.829851 176.56057,229.343705 177.161916,229.343705 L200.0962,229.343705 C200.700317,229.343705 201.152019,229.829851 201.091053,230.428608 L201.091053,230.428608 Z M93.3642122,287.074282 L93.7355503,287.645573 C109.464766,311.793593 131.451306,334.39803 159.085511,354.821674 C168.105701,361.490395 177.68844,367.898189 187.573238,373.869276 L187.991686,374.121963 L188.407363,373.869276 C198.297704,367.900936 207.880443,361.493141 216.900633,354.821674 C244.617973,334.334858 266.646081,311.669997 282.375297,287.458805 L282.743864,286.887514 L188.157957,202.7265 L93.3642122,287.074282 Z M67.7834521,208.082351 C66.9687253,195.618325 66.239905,184.09638 65.5637371,173.425877 L65.4806017,172.113007 C63.2165479,136.204088 61.5538401,109.916474 59.0542359,89.9844697 L180.24901,197.82933 L89.8531275,278.265968 C76.7980998,255.760409 69.3741093,232.15072 67.7834521,208.082351 L67.7834521,208.082351 Z M56.9010293,85.9277561 L57.1809184,88.0618566 C59.8329375,108.188869 61.5288994,135.045027 63.8760887,172.211884 L63.9592241,173.527501 C64.6326207,184.198003 65.3642122,195.719949 66.178939,208.183975 C67.8056215,232.807155 75.4707047,256.941442 88.9608076,279.916669 L89.4540776,280.765365 L182.659937,197.82933 L56.9010293,85.9277561 Z M158.101742,101.712409 C159.273951,99.2514647 160.87015,97.3343448 162.721298,95.9198509 C162.679731,95.9280907 162.632621,95.9335839 162.593824,95.9390771 C159.376485,96.1505645 156.727237,96.3098667 156.727237,96.3098667 C156.727237,96.3098667 150.949327,98.1940275 150.539192,99.0976557 C150.292557,99.6524669 142.655186,106.296468 145.08274,112.81138 C145.523357,114.000654 151.054632,119.694335 151.054632,119.694335 L153.23555,121.795476 C153.23555,121.795476 159.986144,125.313858 164.303642,127.887413 C157.755344,119.356504 154.138955,110.018098 158.101742,101.712409 L158.101742,101.712409 Z M225.627078,119.694335 C225.627078,119.694335 231.161124,114.000654 231.601742,112.81138 C234.026524,106.296468 226.386382,99.6524669 226.139747,99.0976557 C225.732383,98.1940275 219.957245,96.3098667 219.957245,96.3098667 C219.957245,96.3098667 217.330166,96.1533111 214.132225,95.9390771 C214.134996,95.9418236 214.137767,95.9473168 214.137767,95.9473168 C215.975059,97.3618107 217.560174,99.2706908 218.721298,101.712409 C222.650831,109.932954 219.145289,119.15875 212.730008,127.612754 C212.699525,127.653953 212.669042,127.692405 212.638559,127.733604 C216.961599,125.176529 223.448931,121.795476 223.448931,121.795476 L225.627078,119.694335 Z M199.178939,295.778226 L199.289786,297.516818 C205.602534,294.814173 210.69042,289.815379 213.483769,283.58886 L211.737926,283.462516 C209.152415,288.889778 204.679731,293.267843 199.178939,295.778226 L199.178939,295.778226 Z M208.099367,283.193351 L206.27593,283.058768 C204.463579,286.07727 201.897466,288.595893 198.832542,290.361951 L198.948931,292.16646 C202.811956,290.125744 206.001584,286.997378 208.099367,283.193351 L208.099367,283.193351 Z M168.870546,283.190604 C170.954473,286.969912 174.113618,290.084545 177.943389,292.125262 L178.059778,290.315259 C175.030879,288.554694 172.486936,286.052551 170.693983,283.056021 L168.870546,283.190604 Z M177.702296,295.737028 C172.231987,293.221151 167.803642,288.859566 165.234759,283.45977 L163.480602,283.58886 C166.265637,289.785167 171.311956,294.764735 177.591449,297.478366 L177.702296,295.737028 Z M199.403405,278.293434 C196.513064,278.293434 194.165875,280.617049 194.165875,283.484489 C194.165875,286.080017 196.094616,288.216864 198.602534,288.601387 C201.01346,287.101748 203.053048,285.080258 204.568884,282.698964 C204.192003,280.205061 202.022169,278.293434 199.403405,278.293434 L199.403405,278.293434 Z M178.389549,288.615119 C180.936263,288.263556 182.898258,286.104736 182.898258,283.484489 C182.898258,280.617049 180.551069,278.293434 177.657957,278.293434 C174.994854,278.293434 172.800079,280.268232 172.47308,282.819814 C173.991686,285.154416 176.009105,287.140201 178.389549,288.615119 L178.389549,288.615119 Z M177.657957,267.002202 C180.551069,267.002202 182.898258,264.681333 182.898258,261.813893 C182.898258,259.17442 180.903009,257.004614 178.331354,256.675023 C175.981394,258.152689 173.972288,260.12474 172.461995,262.445609 C172.783452,265.013671 174.98654,267.002202 177.657957,267.002202 L177.657957,267.002202 Z M211.726841,261.780934 L213.469913,261.640858 C210.726445,255.535188 205.771576,250.618792 199.614014,247.885935 L199.472684,249.610793 C204.837688,252.140403 209.18844,256.458043 211.726841,261.780934 L211.726841,261.780934 Z M168.867775,262.080312 L170.677356,262.228628 C172.456453,259.245831 174.980998,256.746434 177.990499,254.980377 L177.854711,253.175867 C174.060966,255.21933 170.932304,258.322977 168.867775,262.080312 L168.867775,262.080312 Z M163.502771,261.640858 L165.243072,261.783681 C167.795329,256.42783 172.173793,252.093711 177.583135,249.572341 L177.455661,247.841989 C171.253761,250.561114 166.257324,255.499483 163.502771,261.640858 L163.502771,261.640858 Z M208.104909,262.077566 C206.048694,258.339457 202.936659,255.252289 199.167854,253.208826 L199.015439,255.00235 C202.013856,256.765661 204.519002,259.254071 206.289786,262.225882 L208.104909,262.077566 Z M197.604909,232.609401 L196.551861,245.034974 L196.416073,246.696661 L196.274743,248.361095 L195.98654,251.791586 L195.84521,253.477992 L195.784244,254.150907 C195.390736,254.334928 195.008314,254.546416 194.650831,254.785369 C192.328583,256.317966 190.876485,258.918987 190.876485,261.813893 C190.876485,266.474857 194.703484,270.267898 199.403405,270.267898 C202.321457,270.267898 204.942993,268.828684 206.492082,266.527042 C206.727633,266.180971 206.938242,265.815675 207.115598,265.433899 L207.819477,265.376221 L209.520982,265.236145 L212.984956,264.953246 L214.667063,264.815916 L216.340855,264.681333 L229.348773,263.62115 L229.348773,281.487718 L216.349169,280.529158 L212.990499,280.281965 L209.520982,280.026532 L207.813935,279.900189 L207.104513,279.848004 C206.929929,279.463481 206.719319,279.103678 206.483769,278.754861 C204.934679,276.461458 202.310372,275.030485 199.403405,275.030485 C194.703484,275.030485 190.876485,278.820779 190.876485,283.484489 C190.876485,286.332703 192.32304,288.933724 194.628662,290.480054 C194.930721,290.680555 195.246635,290.867323 195.576405,291.032119 L195.631829,291.858842 L195.737134,293.547995 L195.956057,296.994966 L196.061362,298.659399 L196.169438,300.332073 L199.190024,347.757444 L177.574822,347.757444 L180.697941,300.304607 L180.808789,298.63468 L180.922407,296.9675 L181.146873,293.520529 L181.254949,291.82863 L181.30483,291.133743 C181.695566,290.952468 182.066904,290.74098 182.418844,290.50752 C184.743864,288.974923 186.187648,286.376649 186.187648,283.484489 C186.187648,278.820779 182.36342,275.030485 177.657957,275.030485 C174.717736,275.030485 172.062945,276.505404 170.516627,278.853738 C170.314331,279.16685 170.12312,279.493694 169.95962,279.837017 L169.153207,279.897442 L167.448931,280.023786 L163.976643,280.279219 L162.294537,280.405562 L160.615202,280.529158 L147.659937,281.484972 L147.659937,263.62115 L160.631829,264.681333 L162.30285,264.815916 L163.984956,264.953246 L167.44616,265.236145 L169.150435,265.376221 L169.954078,265.442139 C170.117577,265.785463 170.306017,266.115053 170.508314,266.428165 C172.051861,268.787486 174.712193,270.267898 177.657957,270.267898 C182.36342,270.267898 186.187648,266.474857 186.187648,261.813893 C186.187648,258.95744 184.691211,256.317966 182.349565,254.774383 C181.994854,254.535429 181.620744,254.326689 181.230008,254.145414 L181.177356,253.461513 L181.052652,251.769613 L180.794933,248.328136 L180.667458,246.663702 L180.537213,244.999269 L179.617181,232.609401 L197.604909,232.609401 Z M179.057403,247.191048 L179.182106,248.893933 L179.445368,252.404076 L179.575614,254.137174 L179.66152,255.290742 C179.910926,255.367646 180.146477,255.46103 180.376485,255.562654 C182.828979,256.617345 184.544339,259.050824 184.544339,261.813893 C184.544339,265.576722 181.457245,268.636423 177.657957,268.636423 C174.825812,268.636423 172.367775,266.93903 171.317498,264.469846 C171.239905,264.283078 171.170625,264.09631 171.106888,263.901302 L169.823832,263.794185 L168.086302,263.654109 L164.558591,263.365717 L162.84323,263.225641 L161.138955,263.085564 L146.013856,261.849599 L146.013856,283.242789 L161.125099,282.127674 L162.832146,282.001331 L164.550277,281.872241 L168.091845,281.611315 L169.840459,281.482225 L171.10966,281.388841 C171.173397,281.18834 171.25099,280.996079 171.328583,280.806564 C172.384402,278.348366 174.834125,276.661959 177.657957,276.661959 C181.457245,276.661959 184.544339,279.721661 184.544339,283.484489 C184.544339,286.266785 182.87886,288.667305 180.440222,289.721995 C180.207443,289.823619 179.971892,289.917003 179.7308,289.993908 L179.655978,291.155715 L179.539588,292.894307 L179.30958,296.412689 L179.195962,298.115575 L179.085115,299.807474 L175.812352,349.388919 L200.941409,349.388919 L197.787807,299.837687 L197.679731,298.145787 L197.568884,296.448394 L197.347189,292.930013 L197.236342,291.191421 L197.158749,289.925243 C196.961995,289.859325 196.773555,289.779674 196.587886,289.697276 C194.174188,288.620613 192.525337,286.2146 192.525337,283.484489 C192.525337,279.721661 195.612431,276.661959 199.403405,276.661959 C202.193983,276.661959 204.610451,278.301674 205.68844,280.702193 C205.790974,280.927414 205.882423,281.158127 205.957245,281.397081 L207.126683,281.484972 L208.880839,281.614061 L212.419636,281.874987 L214.137767,282.001331 L215.842043,282.127674 L230.994854,283.245536 L230.994854,261.846852 L215.830958,263.085564 L214.129454,263.225641 L212.411322,263.36297 L208.88361,263.651362 L207.140538,263.794185 L205.960016,263.890315 C205.890736,264.126522 205.796516,264.351742 205.696754,264.576963 C204.624307,266.988469 202.199525,268.636423 199.403405,268.636423 C195.612431,268.636423 192.525337,265.576722 192.525337,261.813893 C192.525337,259.034344 194.179731,256.636571 196.62114,255.576387 C196.859462,255.474763 197.095012,255.378633 197.341647,255.301728 L197.435867,254.1564 L197.58274,252.431541 L197.876485,248.932386 L198.020586,247.232246 L198.164687,245.543093 L199.39232,230.97518 L177.846397,230.97518 L178.929929,245.501895 L179.057403,247.191048 Z M198.649644,256.68601 C196.116785,257.048559 194.165875,259.204633 194.165875,261.813893 C194.165875,264.681333 196.513064,267.002202 199.403405,267.002202 C202.038797,267.002202 204.20863,265.074096 204.574426,262.566459 C203.066904,260.196152 201.041172,258.185648 198.649644,256.68601 L198.649644,256.68601 Z M325.403405,81.6787812 C322.177751,102.17933 320.41251,130.090178 317.73555,172.335481 L317.718923,172.629366 C317.023357,183.720097 316.272367,195.629311 315.416073,208.549271 C310.824228,278.400551 261.136975,329.083378 220.264846,359.298616 C211.131037,366.052481 201.401425,372.559153 191.342043,378.63461 L187.991686,380.661594 L184.64133,378.63461 C174.598575,372.570139 164.866192,366.063467 155.715756,359.298616 C114.85194,329.086125 65.1730008,278.408791 60.5645289,208.549271 C59.7525732,196.164897 59.0182106,184.706123 58.3558987,174.093298 L58.2561362,172.483797 C55.5847189,130.213775 53.8167063,102.289193 50.591053,81.7584323 L49.8622328,77.1002155 L54.1409343,75.0402729 C95.0075218,55.3691946 141.32502,44.9706045 188.080364,44.9706045 C234.771971,44.9706045 281.028504,55.3389821 321.853523,74.9578752 L326.132225,77.0123246 L325.403405,81.6787812 Z M325.367379,67.7837819 C283.447743,47.6430367 235.977435,37 188.080364,37 C140.114014,37 92.5882819,47.6732491 50.6298496,67.8661796 L41,72.5051703 L42.6488519,82.9861581 C45.8135392,103.159862 47.5649248,130.952608 50.2252573,173.055087 L50.3250198,174.593178 C50.9928741,185.211495 51.7216944,196.675762 52.5364212,209.071123 C57.3416469,281.965625 108.686065,334.474934 150.91053,365.687184 C160.254949,372.597605 170.19517,379.244353 180.454078,385.446154 L187.991686,390 L195.529295,385.446154 C205.785432,379.252593 215.733967,372.597605 225.081156,365.687184 C267.305622,334.474934 318.644497,281.962878 323.449723,209.071123 C324.292162,196.140177 325.057007,184.225469 325.752573,173.09354 C328.418448,130.936128 330.178147,103.085705 333.351148,82.9037604 L335,72.4145328 L325.367379,67.7837819 Z" id="Fill-181"></path>
            </g>
        </g>
    </g>
</svg>