<?xml version="1.0" encoding="UTF-8"?>
<svg width="259px" height="308px" viewBox="0 0 259 308" version="1.1" xmlns="http://www.w3.org/2000/svg" xmlns:xlink="http://www.w3.org/1999/xlink">
    <title>728C1C81-C879-4E2E-B8D9-E3886FD945F3</title>
    <defs>
        <filter id="filter-1">
            <feColorMatrix in="SourceGraphic" type="matrix" values="0 0 0 0 0.156863 0 0 0 0 0.188235 0 0 0 0 0.250980 0 0 0 1.000000 0"></feColorMatrix>
        </filter>
    </defs>
    <g id="Version-3-" stroke="none" stroke-width="1" fill="none" fill-rule="evenodd">
        <g id="Logo" transform="translate(0.000000, -1916.000000)" filter="url(#filter-1)">
            <g transform="translate(0.000000, 1916.055556)">
                <path d="M43.9648415,34.111627 C40.7266772,35.2543625 37.9903157,34.9381216 37.1014078,34.7867916 L36.6651466,31.5622987 L37.7158603,31.1917342 C39.1004264,32.9165081 41.3411296,32.8253221 43.2561731,32.1501575 C44.9561581,31.5506579 46.3939768,30.1983886 45.72832,28.5104771 C45.177361,27.1058243 43.8276138,26.7954038 40.5771605,27.3599811 C37.5868253,27.8896361 34.4490215,27.569515 33.3143327,24.6806642 C32.1878365,21.817035 34.184807,19.075634 37.7752574,17.8087303 C40.6877619,16.7804624 43.0452111,16.910451 43.9136372,17.0113376 L44.3191758,20.0728598 L43.2930402,20.4337237 C41.9084741,19.0290709 40.0384905,19.1939818 38.5535638,19.7178164 C36.7204473,20.363879 35.5468432,21.681226 36.118284,23.1382623 C36.6098459,24.3915851 37.9227259,24.5991788 40.4051138,24.1898117 C44.4092955,23.5049465 47.4139679,23.7261211 48.6592582,26.8962905 C49.9147893,30.0916815 47.5552919,32.8466635 43.9648415,34.111627" id="Fill-1" fill="#FEFEFE"></path>
                <path d="M61,27.4333136 L56.0978044,28.9444444 L55.259481,27.4731852 C56.251497,27.168168 56.3852295,26.7455298 56.1037924,25.8364591 L52.762475,15.0213079 C52.4730539,14.084327 52.1337325,13.8371236 51.1417166,14.1441343 L51,12.4575688 L55.9041916,10.9444444 L56.7684631,12.4077294 C55.7764471,12.7147402 55.6347305,13.1094683 55.9241517,14.0464491 L59.2654691,24.8596067 C59.5489022,25.770671 59.8962076,26.043791 60.8882236,25.7387738 L61,27.4333136 Z" id="Fill-3" fill="#FEFEFE"></path>
                <path d="M78.4794644,15.5725082 C77.410256,15.8278228 77.2434434,16.2147838 77.4605008,17.1143685 L77.9187329,18.9953184 C78.1357903,19.8949031 78.3649063,20.1282765 78.9698531,19.9826675 L79,21.6501904 C76.7912407,22.3802303 76.5420267,23.6208993 72.5304856,24.5803233 C67.6165488,25.7571637 62.7910428,24.2013409 61.3218862,18.1495891 C59.9713072,12.5885199 62.9779532,8.58127887 68.3320341,7.30071703 C71.7125011,6.49089132 74.4317471,7.28276523 75.2718393,7.51414401 L75.2638002,10.948922 L74.250866,11.1922687 C73.2238632,9.36118492 71.0392214,9.10387576 69.0877152,9.5706226 C65.2711238,10.4841698 63.7858889,13.4641689 64.7325,17.3617045 C65.6750916,21.2333097 68.237574,23.1860667 72.1124493,22.258557 C73.2942059,21.9753175 74.4216981,21.3609669 75.141203,20.7266699 L74.4377765,17.8364299 C74.2207191,16.9368452 73.9212604,16.6635789 72.7977877,16.9328559 L72.3274968,17.044556 L72.3114185,15.2892687 L78.186035,13.8830443 L78.9457357,15.4608082 L78.4794644,15.5725082 Z" id="Fill-5" fill="#FEFEFE"></path>
                <path d="M96.8435973,6.08082195 L99,20.60945 L96.7419355,20.9694622 L86.3958944,10.6511464 C85.8797654,10.1548584 85.2111437,9.22126739 85.2111437,9.22126739 C85.2111437,9.22126739 85.4809384,10.3053719 85.57087,10.8992904 L86.827957,19.3788998 C86.9706745,20.3389324 87.2424242,20.672503 88.2492669,20.5118196 L88.143695,22.2345899 L83.7135875,22.9444444 L83.0840665,21.3396443 C84.0928641,21.1769269 84.3059629,20.7660655 84.1671554,19.806033 L82.4721408,8.38734081 C82.3255132,7.39883273 82.0029326,7.10187351 81,7.26459089 L81.1329423,5.53571872 L84.8826979,4.93366442 L94.5073314,14.5014464 C95.0645161,15.0770591 95.6979472,15.9882764 95.6979472,15.9882764 C95.6979472,15.9882764 95.4242424,14.9021379 95.3264907,14.2248268 L94.1827957,6.50795507 C94.0342131,5.51944699 93.740958,5.21841983 92.7341153,5.38113721 L92.8690127,3.65226505 L97.2717498,2.94444444 L97.8973607,4.55127857 C96.8905181,4.71399595 96.6989247,5.09231386 96.8435973,6.08082195" id="Fill-7" fill="#FEFEFE"></path>
                <path d="M118.806133,3.95430718 L119.421465,12.2661284 C119.6954,16.0195343 116.943782,18.5852539 112.243952,18.9104301 C107.401022,19.2455202 104.303918,17.0842881 104.027939,13.332865 L103.416695,5.02104377 C103.347189,4.04749792 103.060988,3.73025284 102,3.80559855 L102.282112,2.13609629 L107.611584,1.76729888 L108.134923,3.37930046 C107.045315,3.45662895 106.838842,3.80559855 106.91448,4.77716162 L107.527768,13.1187245 C107.68109,15.2026282 109.255196,16.6302311 112.147871,16.4299701 C114.989438,16.2336747 116.420443,14.5978797 116.27121,12.5119933 L115.653833,4.17241317 C115.582283,3.19886732 115.298126,2.88360502 114.241227,2.95696795 L114.494719,1.29143126 L119.50937,0.944444444 L120,2.55842881 C118.941056,2.63179174 118.734583,2.98076133 118.806133,3.95430718" id="Fill-9" fill="#FEFEFE"></path>
                <path d="M142.36342,18.9444444 L137.609026,18.854801 L137.261283,17.1576872 C138.27791,17.1780607 138.52304,16.8093001 138.538242,15.8354461 L138.67696,7.50267874 C138.690261,6.70199962 138.815677,5.55700811 138.815677,5.55700811 C138.815677,5.55700811 138.344418,6.60828146 137.821853,7.45785701 L133.295487,14.6761932 L132.094537,14.6537823 L127.96342,7.47211847 C127.495962,6.63272967 127.062708,5.50811168 127.062708,5.50811168 C127.062708,5.50811168 127.150119,6.71218638 127.136817,7.5128655 L127.0019,15.6174495 C126.986698,16.5913035 127.220428,16.9682135 128.208551,16.9865497 L127.807601,18.669402 L123.347743,18.5838332 L123,16.8887568 C123.990024,16.907093 124.263658,16.5403697 124.27696,15.5665158 L124.468884,3.99639691 C124.485986,2.99402 124.223753,2.6456329 123.235629,2.62729674 L123.63658,0.944444444 L127.349644,1.01575174 L132.932542,10.8031881 L138.887886,1.23374835 L142.654157,1.30505565 L143,3.00013205 C142.009976,2.98179589 141.738242,3.31999623 141.72304,4.32441049 L141.531116,15.892492 C141.515914,16.866346 141.778147,17.243256 142.764371,17.2615922 L142.36342,18.9444444 Z" id="Fill-11" fill="#FEFEFE"></path>
                <path d="M166.223909,8.27747896 C166.311195,6.9179989 166.034156,6.53476269 164.129032,6.26851437 L160.028463,5.69567708 L159.402277,10.7564122 L163.42315,11.3191643 C164.404175,11.4563225 164.774194,11.2788236 164.893738,10.3227501 L166.142315,10.8976045 L165.671727,14.69366 L164.330171,14.87721 C164.44592,13.9211365 164.13093,13.6488371 163.1537,13.5116789 L159.132827,12.9509438 L158.525617,17.8422481 C158.409867,18.7983216 158.601518,19.1976941 159.607211,19.3368694 L159.032258,20.9444444 L154.165085,20.2647044 L154,18.5542607 C154.97723,18.6914189 155.286528,18.3626426 155.406072,17.4065691 L156.810247,6.04664077 C156.933586,5.0623288 156.709677,4.68716072 155.732448,4.55000249 L156.305503,2.94444444 L168,4.57824095 L167.56167,8.12216744 L166.223909,8.27747896 Z" id="Fill-13" fill="#FEFEFE"></path>
                <path d="M174.884854,22.9444444 L170.055423,21.9985527 L170,20.2991539 C170.976589,20.4895346 171.278548,20.1769094 171.446727,19.2350256 L173.434305,8.04865286 C173.608218,7.07871298 173.430483,6.69995547 172.455805,6.5095747 L173.08839,4.94444444 L177.917821,5.88833222 L178,7.59374304 C177.0215,7.40336228 176.723364,7.68993543 176.551362,8.6578713 L174.561873,19.844244 C174.393693,20.7861278 174.569517,21.1929414 175.546106,21.3833222 L174.884854,22.9444444 Z" id="Fill-15" fill="#FEFEFE"></path>
                <path d="M187.519823,9.97364504 L184.499551,21.6743795 C185.076218,21.8174617 186.862152,22.2580042 187.68183,22.4575662 C191.307701,23.3499472 193.48708,21.621665 194.449479,17.901528 C195.409948,14.1795084 194.327973,11.6492128 190.700174,10.7568318 C189.730061,10.5177339 187.519823,9.97364504 187.519823,9.97364504 M187.203524,24.5228447 C186.991372,24.4720128 184.100319,23.7603672 184.100319,23.7603672 L180,22.7512612 L180.021215,21.1472346 C181.022187,21.3919804 181.344272,21.117112 181.567996,20.2435576 L184.246897,9.87762936 C184.478335,8.97960034 184.322114,8.61248157 183.321143,8.36773571 L184.082961,6.94444444 L187.604684,7.81046823 C187.604684,7.81046823 191.074333,8.66519606 191.282628,8.71602789 C196.935514,10.1073139 198.935529,13.5186946 197.602828,18.6771841 C196.270128,23.8356736 192.854481,25.9141307 187.203524,24.5228447" id="Fill-17" fill="#FEFEFE"></path>
                <path d="M211.536723,32.9444444 L200,28.9936344 L200.137476,27.3344503 C201.067797,27.6526232 201.427495,27.4008177 201.708098,26.5146182 L205.062147,15.9895352 C205.355932,15.07796 205.20339,14.6797558 204.274953,14.3596309 L205.116761,12.9444444 L216,16.6727287 L214.952919,19.9540092 L213.621469,19.8446982 C213.945386,18.5700544 213.743879,18.1523304 211.932203,17.5335524 L208.263653,16.2764765 L206.768362,20.9651354 L210.438795,22.2222114 C211.391714,22.5501442 211.787194,22.4525452 212.067797,21.5682977 L213.160075,22.3451862 L212.037665,25.8626564 L210.723164,25.7884811 C211.00565,24.9022816 210.745763,24.5821567 209.79096,24.2542239 L206.120527,22.9971479 L204.451977,28.2343137 L209.352166,29.9130175 C210.809793,30.4127247 211.193974,30.0828399 211.80226,28.9604507 L212.960452,29.7041556 L211.536723,32.9444444 Z" id="Fill-19" fill="#FEFEFE"></path>
                <path d="M219.294941,36.9444444 L215,35.0538142 L215.242196,33.3772554 C216.112307,33.7593828 216.440617,33.5113001 216.758163,32.623004 L220.500538,22.0554815 C220.82526,21.1411767 220.724794,20.7350413 219.856476,20.3529139 L220.706853,18.9444444 L225,20.833074 L224.782921,22.5216368 C223.912809,22.1395095 223.591676,22.3595828 223.268748,23.2758883 L219.526372,33.8414101 C219.210621,34.7297062 219.300323,35.1638509 220.166846,35.5459783 L219.294941,36.9444444 Z" id="Fill-21" fill="#FEFEFE"></path>
                <path d="M12.5346056,149.70443 L12.1289955,149.944444 L11.8412721,149.569546 C4.43439212,139.885658 9.11589191,132.707045 14.3528577,128.392736 L14.9043276,127.944444 L15.1840587,128.589111 C19.6917256,138.790716 18.7726092,146.088345 12.5346056,149.70443" id="Fill-23" fill="#FEFEFE"></path>
                <path d="M94.4512314,273.746646 L94.880587,273.944444 L95.1199974,273.536738 C101.46536,262.98683 96.1389751,256.189032 90.549437,252.344077 L89.9677293,251.944444 L89.7560194,252.624628 C86.321174,263.408665 87.9456026,270.704995 94.4512314,273.746646" id="Fill-25" fill="#FEFEFE"></path>
                <path d="M94.7492146,274.9434 L95,275.336366 L94.6465308,275.643557 C85.3536487,283.484916 78.0038596,279.150326 73.4680011,274.129543 L73,273.608913 L73.6259761,273.297732 C83.5645813,268.322828 90.8630285,268.893327 94.7492146,274.9434" id="Fill-27" fill="#FEFEFE"></path>
                <path d="M105.115238,281.789333 L105.546002,281.944444 L105.757504,281.551994 C111.262364,271.393146 105.598393,265.461544 99.87815,262.273355 L99.2805127,261.944444 L99.1175207,262.587315 C96.4708413,272.768589 98.5470488,279.402863 105.115238,281.789333" id="Fill-29" fill="#FEFEFE"></path>
                <path d="M105.722416,284.270737 L106,284.642218 L105.669262,284.972203 C96.9558837,293.362132 89.3548098,289.586071 84.4980761,284.93466 L84,284.452525 L84.6004474,284.104756 C94.1465772,278.500932 101.444474,278.56021 105.722416,284.270737" id="Fill-31" fill="#FEFEFE"></path>
                <path d="M117.657952,287.81476 L118.088946,287.944444 L118.268527,287.534413 C123.003792,276.856431 117.134332,271.150318 111.374511,268.241956 L110.773388,267.944444 L110.654297,268.604309 C108.705372,279.135443 111.130659,285.772231 117.657952,287.81476" id="Fill-33" fill="#FEFEFE"></path>
                <path d="M117.704248,289.707529 L118,290.056286 L117.692418,290.401145 C109.48826,299.178499 101.660692,295.918895 96.5264384,291.630559 L96,291.188282 L96.5777021,290.806403 C105.783474,284.719732 113.082631,284.341751 117.704248,289.707529" id="Fill-35" fill="#FEFEFE"></path>
                <path d="M84.9331878,265.726702 L85.3517896,265.944444 L85.616904,265.554905 C92.5437665,255.464829 87.5424721,248.461107 82.122576,244.363949 L81.5544736,243.944444 L81.3053059,244.603665 C77.2827423,255.077287 78.5445276,262.376661 84.9331878,265.726702" id="Fill-37" fill="#FEFEFE"></path>
                <path d="M82.7657885,267.468691 L83,267.874327 L82.6248647,268.162069 C72.8872248,275.511478 65.7338506,270.783718 61.4485745,265.520438 L61,264.974927 L61.6470588,264.693179 C71.8868639,260.247166 79.181162,261.210303 82.7657885,267.468691" id="Fill-39" fill="#FEFEFE"></path>
                <path d="M71.8863851,258.684066 L72.2688495,258.944444 L72.5835859,258.589383 C80.5237066,249.401183 76.286718,242.008015 71.3286245,237.41786 L70.8087119,236.944444 L70.4919836,237.573692 C65.400426,247.436509 65.8864745,254.734994 71.8863851,258.684066" id="Fill-41" fill="#FEFEFE"></path>
                <path d="M70.8076746,258.512397 L71,258.932796 L70.5910555,259.179509 C59.9301555,265.380891 53.1764977,259.990702 49.3866753,254.36959 L49,253.789321 L49.682249,253.582082 C60.5354744,250.282047 67.8377657,251.991275 70.8076746,258.512397" id="Fill-43" fill="#FEFEFE"></path>
                <path d="M63.27896,248.666861 L63.6480777,248.944444 L63.9777176,248.611738 C72.4042601,239.947576 68.6716314,232.32091 64.0546993,227.448427 L63.5730698,226.944444 L63.2217172,227.544892 C57.570466,237.059523 57.5961266,244.355451 63.27896,248.666861" id="Fill-45" fill="#FEFEFE"></path>
                <path d="M60.8483856,250.105504 L61,250.533737 L60.6087974,250.743009 C50.4075807,256.189905 44.4927468,250.506609 41.3256902,244.772933 L41,244.178057 L41.6476369,244.017227 C51.8582124,241.432325 58.4936827,243.540551 60.8483856,250.105504" id="Fill-47" fill="#FEFEFE"></path>
                <path d="M52.7554757,238.642859 L53.1042137,238.944444 L53.4510035,238.627089 C62.2317976,230.436963 58.9762602,222.603615 54.6978879,217.472713 L54.2517371,216.944444 L53.8698787,217.525934 C47.7757309,226.719375 47.3977691,234.014599 52.7554757,238.642859" id="Fill-49" fill="#FEFEFE"></path>
                <path d="M50.8702785,238.60955 L51,239.034788 L50.5936665,239.218112 C39.9088134,243.944863 34.2048836,238.074696 31.299504,232.314146 L31,231.716924 L31.6714994,231.594077 C42.1999237,229.653105 48.8367035,232.081683 50.8702785,238.60955" id="Fill-51" fill="#FEFEFE"></path>
                <path d="M44.1056769,226.61896 L44.4252977,226.944444 L44.7829686,226.652699 C53.9187964,219.095098 51.3142674,210.981792 47.5168679,205.510074 L47.1154394,204.944444 L46.7044984,205.498166 C40.1104169,214.268396 39.2181421,221.566005 44.1056769,226.61896" id="Fill-53" fill="#FEFEFE"></path>
                <path d="M43.8957514,227.217213 L44,227.630692 L43.563336,227.775139 C32.2140047,231.528953 26.8029111,225.534406 24.261605,219.841392 L24,219.252771 L24.6963021,219.182353 C35.6738788,218.073723 42.3064516,220.854326 43.8957514,227.217213" id="Fill-55" fill="#FEFEFE"></path>
                <path d="M37.101824,215.61502 L37.4233502,215.944444 L37.7810243,215.652725 C46.9226416,208.091838 44.3123817,199.981248 40.5130456,194.508038 L40.1173211,193.944444 L39.7044738,194.498116 C33.1103332,203.267555 32.219953,210.564506 37.101824,215.61502" id="Fill-57" fill="#FEFEFE"></path>
                <path d="M35.8977183,215.216284 L36,215.627967 L35.563336,215.776029 C24.2179386,219.528131 18.806845,213.533435 16.2655389,207.842085 L16,207.251644 L16.6963021,207.18303 C27.6738788,206.072566 34.3103855,208.853239 35.8977183,215.216284" id="Fill-59" fill="#FEFEFE"></path>
                <path d="M30.7454544,201.600882 L31.0447311,201.944444 L31.4094746,201.666798 C40.6982758,194.485937 38.4742757,186.21047 34.9671266,180.5297 L34.6005127,179.944444 L34.1759138,180.483758 C27.3355703,188.998921 26.1552978,196.293636 30.7454544,201.600882" id="Fill-61" fill="#FEFEFE"></path>
                <path d="M29.9116022,202.250383 L30,202.736077 L29.5439478,202.882623 C17.7830236,206.699089 12.5514817,199.503699 10.2370668,192.789817 L10,192.094772 L10.7112004,192.048714 C21.9698644,191.27621 28.6057258,194.807959 29.9116022,202.250383" id="Fill-63" fill="#FEFEFE"></path>
                <path d="M26.0949713,188.601979 L26.35193,188.944444 L26.725688,188.720453 C36.1792508,182.900387 34.7057816,175.066251 31.8001722,169.516455 L31.4946969,168.944444 L31.0436715,169.405385 C23.8218755,176.673063 22.1184014,183.305792 26.0949713,188.601979" id="Fill-65" fill="#FEFEFE"></path>
                <path d="M23.9581837,188.880713 L24,189.327443 L23.5590285,189.427142 C12.1717001,191.921547 7.81710665,184.919575 6.17296727,178.598243 L6,177.944444 L6.68046463,177.9617 C17.3493136,178.201362 23.3214361,181.980357 23.9581837,188.880713" id="Fill-67" fill="#FEFEFE"></path>
                <path d="M19.9842467,174.574249 L20.2569245,174.944444 L20.7065306,174.740459 C32.0778177,169.484061 30.9642101,161.405867 28.0251185,155.550734 L27.717055,154.944444 L27.161292,155.384524 C18.2649198,162.269027 15.7941678,168.900437 19.9842467,174.574249" id="Fill-69" fill="#FEFEFE"></path>
                <path d="M19.988065,176.106426 L20,176.595294 L19.532545,176.668104 C7.46623936,178.529962 3.41032158,170.626948 2.13327439,163.666304 L2,162.944444 L2.71013372,163.013094 C13.8315836,164.057398 19.8030722,168.590346 19.988065,176.106426" id="Fill-71" fill="#FEFEFE"></path>
                <path d="M17.4707325,161.545806 L17.7017981,161.944444 L18.1440098,161.767488 C29.4144324,157.17828 29.0020998,148.806865 26.6675408,142.5881 L26.4165557,141.944444 L25.8548274,142.356695 C16.8173747,148.793253 13.9250711,155.424269 17.4707325,161.545806" id="Fill-73" fill="#FEFEFE"></path>
                <path d="M15.9845289,161.397413 L15.9601851,161.849306 L15.5219963,161.881996 C4.0654185,162.710788 0.799600968,155.130514 0.0767766737,148.617477 L0,147.944444 L0.659155833,148.061744 C11.0296246,149.840475 16.3253425,154.455558 15.9845289,161.397413" id="Fill-75" fill="#FEFEFE"></path>
                <path d="M118.680186,287.944444 C121.05035,288.600485 121.975291,288.692767 124.078788,288.922632 L125,291.944444 C120.936597,291.343773 120.975758,291.486391 117,290.503169 C117,290.503169 117.731002,289.879008 118.163636,289.228001 C118.564569,288.620619 118.663403,287.986391 118.680186,287.944444" id="Fill-77" fill="#FEFEFE"></path>
                <path d="M128,293.663409 C124.450154,297.180864 119.586845,302.809925 117.089414,306.944444 L112,305.942423 C115.687564,301.417284 119.662898,297.09406 123.852004,292.944444 C123.852004,292.944444 127.891059,293.565283 128,293.663409" id="Fill-79" fill="#FEFEFE"></path>
                <path d="M244.465793,149.70443 L244.871432,149.944444 L245.159177,149.569546 C252.566596,139.885658 247.882757,132.707045 242.643412,128.392736 L242.095898,127.944444 L241.816146,128.589111 C237.308151,138.790716 238.227335,146.088345 244.465793,149.70443" id="Fill-81" fill="#FEFEFE"></path>
                <path d="M163.549157,273.746646 L163.121873,273.944444 L162.87658,273.536738 C156.53656,262.98683 161.861782,256.189032 167.452077,252.344077 L168.03168,251.944444 L168.245322,252.624628 C171.677439,263.408665 170.055343,270.704995 163.549157,273.746646" id="Fill-83" fill="#FEFEFE"></path>
                <path d="M164.25074,274.9434 L164,275.336366 L164.357354,275.643557 C173.648569,283.484916 180.995064,279.150326 185.530109,274.129543 L186,273.608913 L185.370188,273.297732 C175.435341,268.322828 168.138203,268.893327 164.25074,274.9434" id="Fill-85" fill="#FEFEFE"></path>
                <path d="M150.884359,281.789333 L150.451609,281.944444 L150.243967,281.551994 C144.736597,271.393146 150.401154,265.461544 156.121988,262.273355 L156.719687,261.944444 L156.882696,262.587315 C159.529649,272.768589 157.451287,279.402863 150.884359,281.789333" id="Fill-87" fill="#FEFEFE"></path>
                <path d="M152.277609,284.270737 L152,284.642218 L152.328799,284.972203 C161.042957,293.362132 168.644711,289.586071 173.499911,284.93466 L174,284.452525 L173.399499,284.104756 C163.854484,278.500932 156.555933,278.56021 152.277609,284.270737" id="Fill-89" fill="#FEFEFE"></path>
                <path d="M139.339695,287.81476 L138.914399,287.944444 L138.73105,287.534413 C133.996096,276.856431 139.867061,271.150318 145.626504,268.241956 L146.227588,267.944444 L146.34478,268.604309 C148.295468,279.135443 145.87034,285.772231 139.339695,287.81476" id="Fill-91" fill="#FEFEFE"></path>
                <path d="M141.297697,289.707529 L141,290.056286 L141.309526,290.401145 C149.512949,299.178499 157.337844,295.918895 162.473609,291.630559 L163,291.188282 L162.42235,290.806403 C153.215431,284.719732 145.916928,284.341751 141.297697,289.707529" id="Fill-93" fill="#FEFEFE"></path>
                <path d="M174.068158,265.726702 L173.649556,265.944444 L173.382449,265.554905 C166.455592,255.464829 171.458876,248.461107 176.880761,244.363949 L177.448863,243.944444 L177.694043,244.603665 C181.716603,255.077287 180.456813,262.376661 174.068158,265.726702" id="Fill-95" fill="#FEFEFE"></path>
                <path d="M174.234233,267.468691 L174,267.874327 L174.377154,268.162069 C184.113688,275.511478 191.267707,270.783718 195.559325,265.520438 L196,264.974927 L195.352883,264.693179 C185.116124,260.247166 177.821168,261.210303 174.234233,267.468691" id="Fill-97" fill="#FEFEFE"></path>
                <path d="M185.114035,258.684066 L184.727619,258.944444 L184.416894,258.589383 C176.475463,249.401183 180.71408,242.008015 185.671747,237.41786 L186.193607,236.944444 L186.508316,237.573692 C191.599437,247.436509 191.11343,254.734994 185.114035,258.684066" id="Fill-99" fill="#FEFEFE"></path>
                <path d="M186.19435,258.512397 L186,258.932796 L186.408945,259.179509 C197.069844,265.380891 203.825527,259.990702 207.609276,254.36959 L208,253.789321 L207.317751,253.582082 C196.460477,250.282047 189.158185,251.991275 186.19435,258.512397" id="Fill-101" fill="#FEFEFE"></path>
                <path d="M195.722734,248.666861 L195.351617,248.944444 L195.021955,248.611738 C186.596824,239.947576 190.327728,232.32091 194.942994,227.448427 L195.428604,226.944444 L195.776032,227.544892 C201.429635,237.059523 201.403972,244.355451 195.722734,248.666861" id="Fill-103" fill="#FEFEFE"></path>
                <path d="M198.147899,250.105504 L198,250.533737 L198.387532,250.743009 C208.594402,256.189905 214.502855,250.506609 217.674249,244.772933 L218,244.178057 L217.352242,244.017227 C207.141627,241.432325 200.504914,243.540551 198.147899,250.105504" id="Fill-105" fill="#FEFEFE"></path>
                <path d="M206.242569,238.642859 L205.891927,238.944444 L205.549077,238.627089 C196.767443,230.436963 200.024517,222.603615 204.30235,217.472713 L204.746497,216.944444 L205.130255,217.525934 C211.223634,226.719375 211.603496,234.014599 206.242569,238.642859" id="Fill-107" fill="#FEFEFE"></path>
                <path d="M205.125918,238.60955 L205,239.034788 L205.406372,239.218112 C216.090337,243.944863 221.794811,238.074696 224.702375,232.314146 L225,231.716924 L224.330344,231.594077 C213.800916,229.653105 207.163503,232.081683 205.125918,238.60955" id="Fill-109" fill="#FEFEFE"></path>
                <path d="M213.897373,226.61896 L213.57584,226.944444 L213.218158,226.652699 C204.078247,219.095098 206.68666,210.981792 210.487981,205.510074 L210.885616,204.944444 L211.29657,205.498166 C217.890853,214.268396 218.779349,221.566005 213.897373,226.61896" id="Fill-111" fill="#FEFEFE"></path>
                <path d="M215.102282,227.217213 L215,227.630692 L215.434697,227.775139 C226.784028,231.528953 232.195122,225.534406 234.736428,219.841392 L235,219.252771 L234.305665,219.182353 C223.326121,218.073723 216.691581,220.854326 215.102282,227.217213" id="Fill-113" fill="#FEFEFE"></path>
                <path d="M219.89517,215.61502 L219.577456,215.944444 L219.21979,215.652725 C210.078384,208.091838 212.686681,199.981248 216.485929,194.508038 L216.883547,193.944444 L217.296385,194.498116 C223.890373,203.267555 224.780733,210.564506 219.89517,215.61502" id="Fill-115" fill="#FEFEFE"></path>
                <path d="M221.104259,215.216284 L221,215.627967 L221.436707,215.776029 C232.78322,219.528131 238.194846,213.533435 240.738369,207.842085 L241,207.251644 L240.301662,207.18303 C229.32694,206.072566 222.689781,208.853239 221.104259,215.216284" id="Fill-117" fill="#FEFEFE"></path>
                <path d="M226.253747,201.600882 L225.954467,201.944444 L225.591591,201.666798 C216.302711,194.485937 218.52486,186.21047 222.032039,180.5297 L222.400526,179.944444 L222.826999,180.483758 C229.66553,188.998921 230.843942,196.293636 226.253747,201.600882" id="Fill-119" fill="#FEFEFE"></path>
                <path d="M229.084388,202.250383 L229,202.736077 L229.454089,202.882623 C241.218204,206.699089 246.448262,199.503699 248.7609,192.789817 L249,192.094772 L248.286719,192.048714 C237.026924,191.27621 230.392405,194.807959 229.084388,202.250383" id="Fill-121" fill="#FEFEFE"></path>
                <path d="M232.906377,188.601979 L232.649433,188.944444 L232.273899,188.720453 C222.820873,182.900387 224.294258,175.066251 227.199703,169.516455 L227.508755,168.944444 L227.957957,169.405385 C235.177547,176.673063 236.880924,183.305792 232.906377,188.601979" id="Fill-123" fill="#FEFEFE"></path>
                <path d="M235.039924,188.880713 L235,189.327443 L235.437262,189.427142 C246.826996,191.921547 251.18251,184.919575 252.830798,178.598243 L253,177.944444 L252.323194,177.9617 C241.65019,178.201362 235.678707,181.980357 235.039924,188.880713" id="Fill-125" fill="#FEFEFE"></path>
                <path d="M237.012492,174.574249 L236.739815,174.944444 L236.294372,174.740459 C224.923096,169.484061 226.034621,161.405867 228.975791,155.550734 L229.281773,154.944444 L229.837535,155.384524 C238.733899,162.269027 241.208812,168.900437 237.012492,174.574249" id="Fill-127" fill="#FEFEFE"></path>
                <path d="M239.009948,176.106426 L239,176.595294 L239.463579,176.668104 C251.532552,178.529962 255.589367,170.626948 256.868686,163.666304 L257,162.944444 L256.291699,163.013094 C245.165801,164.057398 239.192992,168.590346 239.009948,176.106426" id="Fill-129" fill="#FEFEFE"></path>
                <path d="M241.53048,161.545806 L241.30144,161.944444 L240.85332,161.767488 C229.584583,157.17828 229.996854,148.806865 232.335047,142.5881 L232.582011,141.944444 L233.141664,142.356695 C242.18374,148.793253 245.073619,155.424269 241.53048,161.545806" id="Fill-131" fill="#FEFEFE"></path>
                <path d="M243.015645,161.397413 L243.038121,161.849306 L243.478281,161.881996 C254.933673,162.710788 258.202093,155.130514 258.925079,148.617477 L259,147.944444 L258.340697,148.061744 C247.967911,149.840475 242.672882,154.455558 243.015645,161.397413" id="Fill-133" fill="#FEFEFE"></path>
                <path d="M137.320205,287.944444 C134.950594,288.600485 134.024004,288.692767 131.920997,288.922632 L131,291.944444 C135.064321,291.343773 135.023305,291.486391 139,290.503169 C139,290.503169 138.267304,289.879008 137.83477,289.228001 C137.435796,288.620619 137.333256,287.986391 137.320205,287.944444" id="Fill-135" fill="#FEFEFE"></path>
                <path d="M131,293.663409 C134.550302,297.180864 139.416292,302.809925 141.914043,306.944444 L147,305.942423 C143.309906,301.417284 139.336117,297.09406 135.148529,292.944444 C135.148529,292.944444 131.113067,293.565283 131,293.663409" id="Fill-137" fill="#FEFEFE"></path>
                <path d="M176.169579,134.141187 L170.523725,149.860576 L184.200713,139.224721 L197.826547,149.860576 L192.178798,134.141187 L205.139634,121.913329 L189.378605,125.52862 L184.172294,110.411155 L178.969772,125.52862 L163.208743,121.913329 L176.169579,134.141187 Z M94.5926649,147.989176 C93.0163726,147.989176 91.468499,147.972299 89.9509388,147.972299 L89.9338876,147.972299 C84.5229612,147.970424 79.5117917,148.195442 75.2186687,150.256233 L75.1978283,150.261858 L75.1978283,150.269359 L74.0686574,150.269359 L74.0686574,150.259983 L74.0591845,150.256233 C68.5611073,147.616021 61.8940731,147.989176 54.7041341,147.989176 C54.6965558,147.989176 54.6889775,147.991051 54.6813992,147.991051 L54.6813992,120.951377 L54.7041341,120.951377 L54.7477095,120.951377 C55.2156713,120.951377 55.6817385,120.960753 56.1440165,120.973879 C56.2254835,120.975754 56.3069506,120.977629 56.386523,120.981379 L56.386523,145.665864 L57.21635,145.665864 C63.1558647,145.665864 68.8623459,146.256536 73.725738,149.033635 L73.8223617,149.088014 L74.0970761,149.15927 L74.1084436,149.161145 L75.203512,149.161145 L75.2167741,149.15927 L75.4895939,149.088014 L75.5862176,149.033635 C80.4496098,146.256536 86.1541964,145.665864 92.0918165,145.665864 L92.9235381,145.665864 L92.9235381,120.981379 C93.0050051,120.977629 93.0845775,120.975754 93.16415,120.973879 C93.6302172,120.960753 94.0943898,120.951377 94.5623515,120.951377 L94.5775082,120.951377 L94.5831919,120.951377 L94.5888757,120.951377 L94.5926649,120.973879 L94.5926649,147.989176 Z M57.1992987,117.887381 L57.21635,117.887381 C57.2315066,117.887381 57.2447687,117.889256 57.2580308,117.889256 C57.714625,117.889256 58.1655356,117.898632 58.6145515,117.915508 L58.6145515,143.121284 L59.446273,143.121284 C64.5862742,143.121284 69.5368171,144.643907 73.7541568,147.527889 L73.8583588,147.597269 L74.0970761,147.672275 L74.1406515,147.685401 L75.167515,147.685401 L75.167515,147.687276 L75.1769879,147.683526 L75.4611752,147.597269 L75.5596935,147.527889 C79.7808223,144.643907 84.7256815,143.121284 89.8675772,143.121284 L90.7011933,143.121284 L90.7011933,117.915508 C90.7864495,117.911758 90.8679165,117.909883 90.9531727,117.906132 C91.0043264,117.906132 91.0573747,117.904257 91.110423,117.902382 C91.2411492,117.898632 91.3737699,117.896756 91.5044961,117.893006 C91.6617464,117.891131 91.8171021,117.889256 91.976247,117.889256 L92.0539249,117.889256 L92.067187,117.889256 L92.0747653,120.973879 L92.0747653,144.861424 L92.0558195,144.861424 C88.0677242,144.861424 84.2671926,145.157698 80.7868454,146.074647 C78.803218,146.599689 76.9237926,147.325372 75.1769879,148.319202 C75.1750933,148.319202 75.1731987,148.321077 75.1694096,148.321077 L75.167515,148.324828 L75.167515,148.341704 L74.1652811,148.341704 L74.1652811,148.345454 L74.1558082,148.341704 L74.1387569,148.341704 L74.1387569,148.339829 L74.1311786,148.336079 C74.1198111,148.330453 74.1084436,148.324828 74.0970761,148.319202 C69.2999943,145.590858 63.4836274,144.861424 57.21635,144.861424 L57.2049825,144.861424 L57.1992987,120.973879 L57.1992987,117.887381 Z M59.4273272,115.029651 L59.446273,115.029651 L59.4784809,115.029651 C64.9481394,115.035276 70.0199355,116.711661 74.2050673,119.567516 L74.2050673,119.61627 L74.2467481,119.629396 L74.2467481,146.875336 L74.2164348,146.86596 C74.1993836,146.852834 74.1823323,146.843459 74.1652811,146.832208 C74.1406515,146.817207 74.1198111,146.802205 74.0970761,146.785329 C69.9233118,143.966977 64.8799344,142.316845 59.446273,142.316845 L59.433011,142.316845 L59.4273272,120.973879 L59.4273272,115.029651 Z M75.0727859,119.629396 L75.0746805,119.627521 L75.1068884,119.61627 L75.1068884,119.576892 L75.1144667,119.567516 C76.2284809,118.80808 77.4050164,118.133025 78.6364947,117.547978 L79.3507522,117.277957 L79.3507522,117.675489 L79.3526468,117.675489 L79.3526468,122.672765 L80.6504355,121.392037 L81.9273838,122.657764 L81.9273838,117.675489 L81.9292784,117.675489 L81.9292784,116.306629 L82.6454304,116.036607 C83.1190759,115.901596 83.5927214,115.779711 84.0777344,115.670953 C84.0872073,115.667202 84.1004694,115.665327 84.1137315,115.663452 C84.2406685,115.63345 84.3676055,115.607197 84.4926479,115.580945 C84.5494854,115.569694 84.6082174,115.556568 84.6650549,115.545317 C84.7749406,115.522816 84.8848264,115.502189 84.9966067,115.481562 C85.0742846,115.468436 85.1519624,115.453435 85.2277457,115.440309 C85.3281586,115.421557 85.4247823,115.404681 85.5233005,115.387805 C85.6237134,115.372804 85.7222316,115.355927 85.8207499,115.340926 C85.9003224,115.3278 85.9817894,115.314674 86.0632564,115.303423 C86.2470309,115.277171 86.4289108,115.252794 86.6107906,115.230292 L86.6126852,115.230292 C86.7566735,115.211541 86.8987671,115.194664 87.0427553,115.179663 C87.057912,115.177788 87.0768578,115.177788 87.0901199,115.175913 C87.2246352,115.160912 87.3553614,115.147785 87.4860875,115.136535 C87.5164009,115.134659 87.5467142,115.130909 87.5732383,115.129034 C87.6963862,115.117783 87.8214286,115.108407 87.9445764,115.099032 C87.9843626,115.095281 88.0222543,115.093406 88.0620405,115.091531 C88.1795046,115.082155 88.2931795,115.07653 88.4106436,115.069029 C88.4599027,115.067154 88.5072673,115.063404 88.558421,115.061529 C88.662623,115.055903 88.7725088,115.052153 88.8786054,115.048402 C88.9449157,115.044652 89.0112261,115.042777 89.0737473,115.040902 C89.1684764,115.039027 89.2613109,115.035276 89.35604,115.033401 C89.4848716,115.031526 89.6137032,115.029651 89.7463239,115.029651 L89.8391585,115.029651 L89.8467368,115.029651 L89.8581043,115.029651 L89.8581043,142.316845 L89.850526,142.316845 L89.8429476,142.316845 C84.4054971,142.316845 79.3621197,143.966977 75.19025,146.785329 C75.167515,146.802205 75.14478,146.817207 75.122045,146.832208 C75.1068884,146.843459 75.086048,146.852834 75.0727859,146.86596 L75.0727859,119.629396 Z M95.3467085,120.973879 L95.3467085,120.240695 L94.641924,120.240695 C94.6286619,120.240695 94.619189,120.23882 94.6078215,120.23882 C94.6040323,120.23882 94.5926649,120.240695 94.5831919,120.240695 C94.5831919,120.240695 94.5775082,120.23882 94.5718245,120.23882 C94.5585624,120.23882 94.5263545,120.240695 94.5263545,120.240695 C93.9882932,120.240695 93.4445481,120.250071 92.8610169,120.270697 L92.8307035,120.270697 L92.8307035,117.176699 L92.0558195,117.176699 L92.0198224,117.176699 L92.0179278,117.176699 L91.8019455,117.176699 C91.4343966,117.180449 91.0649531,117.187949 90.6727746,117.202951 L90.6064642,117.206701 L90.6064642,114.317094 L89.8334747,114.317094 C89.8012668,114.317094 89.7690589,114.318969 89.7406402,114.318969 C89.609914,114.318969 89.482977,114.318969 89.3541455,114.322719 C89.2480489,114.324594 89.1419523,114.328345 89.0396448,114.332095 C88.984702,114.332095 88.9316537,114.33397 88.8786054,114.335845 C88.7516684,114.339596 88.6304151,114.345221 88.5053727,114.352722 C88.4731648,114.352722 88.4390623,114.354597 88.4106436,114.356472 C88.2704445,114.363972 88.13214,114.373348 87.9938355,114.382724 C87.9786789,114.382724 87.9597331,114.384599 87.946471,114.386474 C87.7949044,114.397725 87.6433379,114.407101 87.4936659,114.420227 L87.4879821,114.420227 C85.6521321,114.58149 83.8465954,114.928393 82.0960016,115.45156 L81.9273838,115.500314 L81.9273838,115.502189 C81.0539815,115.772211 80.1957358,116.083486 79.3526468,116.441639 L79.3526468,116.417263 L78.7217509,116.717287 C77.3292331,117.351088 75.9821853,118.108649 74.6976586,118.982469 L74.659767,119.010596 L74.6559778,119.012471 L74.6521887,119.010596 L74.6124024,118.982469 C70.1487671,115.937224 64.917826,114.324594 59.4784809,114.317094 L58.707386,114.317094 L58.707386,117.208576 L58.6429703,117.204826 C58.1390114,117.186074 57.6862063,117.176699 57.2542416,117.176699 L57.21635,117.176699 L56.4812521,117.176699 L56.4812521,120.272572 L56.409258,120.270697 C55.8389888,120.250071 55.2800871,120.240695 54.7496041,120.240695 C54.7496041,120.240695 54.7173962,120.23882 54.7041341,120.23882 C54.6927667,120.23882 54.6813992,120.240695 54.6700317,120.240695 L53.961458,120.240695 L53.961458,120.973879 L52.6882988,120.973879 L52.6882988,150.966915 L73.3487162,150.966915 L73.3487162,150.980041 L75.9594503,150.980041 L75.9594503,150.966915 L96.5573465,150.966915 L96.5573465,120.973879 L95.3467085,120.973879 Z M212.244316,119.267492 C211.770671,126.801847 211.257239,134.928751 210.673708,143.74571 C209.593796,160.130777 204.546629,176.202694 195.666723,191.530176 L134.015128,136.745772 L216.622695,63.346746 C214.921361,76.9434641 213.788401,94.8324022 212.244316,119.267492 L212.244316,119.267492 Z M195.941438,193.234688 L196.278673,192.655267 C205.454134,177.009009 210.666129,160.577063 211.768776,143.81884 C212.352307,135.000006 212.869528,126.871228 213.343174,119.334997 C214.942201,94.0429638 216.097896,75.7696197 217.895855,62.0360156 L218.087207,60.5808986 L132.370631,136.745772 L195.941438,193.234688 Z M115.311814,92.5390929 C115.245504,92.7228576 115.141302,92.9122479 114.989735,93.1185145 C114.28874,94.0542147 113.134939,93.3622841 112.390369,92.9234988 C111.06795,92.1471864 109.690589,91.4571309 108.273442,90.8664584 C107.502347,90.5476828 106.729358,90.2307823 105.954473,89.9082564 C105.825642,89.853877 105.69681,89.8013728 105.56419,89.7451183 C104.688893,89.3738384 103.868539,88.995058 102.945877,88.7550387 C102.201306,88.5675236 101.267277,88.3500061 100.698903,87.8024621 C100.501866,87.6168222 99.8652867,87.1461593 99.0449327,86.557362 C98.4462448,86.1279525 97.7433548,85.636663 97.044254,85.1509989 C95.1686178,83.845894 93.3782378,82.6045442 93.3782378,82.6045442 C93.2986653,82.55204 93.222882,82.5051612 93.1452042,82.4620327 C92.828809,82.2463904 90.9664348,80.99754 90.6367775,80.898157 C90.3146986,80.8025243 89.8922068,80.2362288 89.805056,80.114344 C88.6057855,78.0385521 87.289051,75.6758622 87.289051,75.6758622 C87.289051,75.6758622 85.4513064,71.4473972 83.23654,70.9992362 L88.0089922,62.1672762 L88.916497,62.4935524 C92.1675998,62.5460566 95.8374053,64.2486935 98.2889945,65.623179 C98.4500339,65.6081778 98.5940222,65.5931766 98.7058025,65.585676 C100.179787,65.4656663 103.087971,63.9355433 104.283452,63.7255264 C105.480828,63.5155095 107.35457,63.0223449 108.438271,63.3504963 C109.518182,63.6767725 111.41087,63.6298937 112.621508,63.6936489 C113.826462,63.7555288 113.712787,64.6987297 113.712787,64.6987297 C113.712787,64.6987297 113.597218,65.3700336 113.153885,66.0169606 C118.661435,63.521135 126.055989,66.1275945 128.787976,72.5799883 C131.478283,66.2251024 138.689062,63.5980162 144.160615,65.9082019 C144.200402,65.9232031 144.236399,65.9400795 144.272396,65.9569558 C143.863166,65.3306555 143.75328,64.6987297 143.75328,64.6987297 C143.75328,64.6987297 143.637711,63.7555288 144.846454,63.6936489 C146.053303,63.6298937 147.944096,63.6767725 149.029691,63.3504963 C150.111498,63.0223449 151.98145,63.5155095 153.180721,63.7255264 C154.378096,63.9355433 157.290069,65.4656663 158.75837,65.585676 C158.87394,65.5931766 159.014139,65.6081778 159.175178,65.623179 C161.628662,64.2486935 165.298467,62.5460566 168.54957,62.4935524 L169.45897,62.1672762 L174.229527,70.9992362 C172.016655,71.4473972 170.178911,75.6758622 170.178911,75.6758622 C170.178911,75.6758622 168.860282,78.0385521 167.662906,80.114344 C167.57386,80.2362288 167.149474,80.8025243 166.825501,80.898157 C166.497738,80.99754 164.639153,82.2463904 164.320863,82.4620327 C164.243185,82.5051612 164.167402,82.55204 164.089724,82.6045442 C164.089724,82.6045442 162.29366,83.845894 160.419919,85.1509989 C159.718923,85.636663 159.019822,86.1279525 158.421134,86.557362 C157.598886,87.1461593 156.962306,87.6168222 156.769059,87.8024621 C156.19879,88.3500061 155.266655,88.5675236 154.52019,88.7550387 C153.597529,88.995058 152.77528,89.3738384 151.899983,89.7451183 C151.769257,89.8013728 151.640425,89.853877 151.507805,89.9082564 C150.740499,90.2307823 149.965615,90.5476828 149.19452,90.8664584 C147.775478,91.4571309 146.398117,92.1471864 145.075698,92.9234988 C144.327339,93.3622841 143.175433,94.0542147 142.480121,93.1185145 C142.343711,92.9403751 142.252771,92.7734867 142.180777,92.6103486 C142.163726,92.6309753 142.146675,92.6478516 142.133413,92.664728 C137.978594,97.0975843 132.980687,100.999773 128.780398,103.741243 C124.544113,100.975396 119.493157,97.0225783 115.311814,92.5390929 L115.311814,92.5390929 Z M113.523329,99.0421157 C112.712448,99.8521808 111.695057,99.021489 111.031953,98.4945717 C109.861102,97.5569963 108.62394,96.7000524 107.333729,95.9312406 C106.511481,95.4418262 105.687337,94.9617876 104.870773,94.4667478 C104.071259,93.9848341 103.334266,93.5047955 102.470337,93.1466417 C101.773131,92.8578685 100.899729,92.5165911 100.426083,91.9090422 C99.8292897,91.1458559 93.9863986,85.8054265 93.9863986,85.8054265 C92.9178543,85.2466316 92.3684255,84.5415749 92.1088678,84.1065399 C91.7829997,83.821517 91.491234,83.5064917 91.2676733,83.1539634 C91.0706368,82.8351877 90.8072899,82.4020279 90.521208,81.9088633 C90.7220337,82.0269978 90.8887569,82.1207553 90.8887569,82.1207553 L92.8989085,83.2945997 C92.9879539,83.3546045 93.0845775,83.4127342 93.1963579,83.4821147 C93.1963579,83.4821147 94.3861554,84.2865544 95.8108811,85.2710086 C96.4796686,85.7341708 97.2015044,86.2385863 97.8835539,86.7129995 C99.1927101,87.6318234 100.333249,88.4550145 100.607963,88.7137853 C101.178232,89.2613294 102.110366,89.480722 102.856832,89.6701122 C103.777599,89.9082564 104.601742,90.288912 105.477039,90.6583167 C106.047308,90.9020863 106.619472,91.1383553 107.19353,91.3746243 C109.59586,93.1541423 112.989057,95.7362249 113.508172,96.5106622 C113.508172,96.5106622 114.893112,97.6713805 113.523329,99.0421157 L113.523329,99.0421157 Z M107.96652,101.237917 C107.96652,101.237917 106.985126,101.663576 106.092778,100.440978 C105.196641,99.220255 98.567498,92.7509849 98.567498,92.7509849 C98.567498,92.7509849 97.0101516,91.2808667 96.7354372,90.7089457 L94.8162255,87.7612088 L100.390086,93.0735108 C101.113816,93.7654415 103.110706,94.4723733 103.110706,94.4723733 L107.053331,96.7394306 L108.358698,98.7458419 C108.358698,98.7458419 109.554179,100.425977 107.96652,101.237917 L107.96652,101.237917 Z M79.2749689,69.5328683 L84.4642292,59.7352056 L87.1128549,61.1096911 L81.9235946,70.9054787 L79.2749689,69.5328683 Z M120.673482,63.0279704 L136.860791,63.0279704 L136.860791,59.9395971 L120.673482,59.9395971 L120.673482,63.0279704 Z M115.946499,49.7237758 C116.035545,49.3712474 116.266684,48.9962173 116.692965,48.5986853 C116.692965,48.5986853 116.128379,49.5531371 117.450797,50.3875791 C118.517447,51.0645086 117.926338,51.7995677 117.661096,52.0564633 C117.742563,52.1239687 117.816452,52.1820984 117.89413,52.2364778 C117.93581,52.2683553 117.979386,52.3021081 118.017277,52.3283602 C118.089272,52.3733638 118.170739,52.4221177 118.259784,52.4746219 C118.837631,52.8008982 119.784923,53.1703029 120.518126,52.7671454 C121.311956,52.3283602 121.69845,51.405786 121.484363,50.6257233 C121.438893,50.6294736 121.402896,50.6313487 121.355531,50.6313487 C120.609066,50.6313487 120.002799,50.0313005 120.002799,49.2906159 C120.002799,48.5499314 120.609066,47.9498832 121.355531,47.9498832 C122.105786,47.9498832 122.712052,48.5499314 122.712052,49.2906159 C122.712052,49.7725297 122.454389,50.1925635 122.065999,50.4288325 C122.422181,51.0588831 123.477463,52.587131 125.385307,52.350862 C126.425433,52.2233517 127.105588,51.6758077 127.732694,50.7138554 C127.007069,50.4494591 126.484165,49.9112908 126.374279,49.2718644 C126.364806,49.2306111 126.361017,49.1856075 126.355333,49.1406039 C126.349649,49.0993506 126.338282,49.0618476 126.338282,49.0187191 C126.338282,48.9812161 126.349649,48.9474634 126.355333,48.9118355 C126.361017,48.831204 126.368595,48.7505725 126.385646,48.6643156 C126.385646,48.6511895 126.393225,48.6380635 126.397014,48.6249374 C126.408381,48.5536817 126.423538,48.482426 126.450062,48.4074199 C127.020331,46.5510207 125.646759,46.04473 125.646759,46.04473 C126.476586,46.1103603 127.060118,46.3391287 127.45798,46.6616546 C126.338282,44.2558362 128.551154,42.1725437 128.769031,41.9719026 C128.990697,42.1725437 131.201674,44.2558362 130.085765,46.6616546 C130.481733,46.3391287 131.061475,46.1103603 131.895091,46.04473 C131.895091,46.04473 130.519624,46.5510207 131.095577,48.4074199 C131.118312,48.482426 131.133469,48.5536817 131.144837,48.6249374 C131.146731,48.6380635 131.152415,48.6511895 131.156204,48.6643156 C131.173255,48.7505725 131.182728,48.831204 131.188412,48.9118355 C131.194096,48.9474634 131.201674,48.9812161 131.201674,49.0187191 C131.201674,49.0618476 131.190307,49.0993506 131.186517,49.1406039 C131.182728,49.1856075 131.177044,49.2306111 131.169466,49.2718644 C131.055791,49.9112908 130.536676,50.4494591 129.809156,50.7138554 C130.436263,51.6758077 131.116418,52.2233517 132.154649,52.350862 C134.064388,52.587131 135.121564,51.0588831 135.473957,50.4288325 C135.085567,50.1925635 134.831693,49.7725297 134.831693,49.2906159 C134.831693,48.5499314 135.436065,47.9498832 136.184425,47.9498832 C136.932785,47.9498832 137.539051,48.5499314 137.539051,49.2906159 C137.539051,50.0313005 136.932785,50.6313487 136.184425,50.6313487 C136.142744,50.6313487 136.102958,50.6294736 136.057488,50.6257233 C135.8434,51.405786 136.233684,52.3283602 137.025619,52.7671454 C137.753139,53.1703029 138.702324,52.8008982 139.282067,52.4746219 C139.373006,52.4221177 139.456368,52.3733638 139.526468,52.3283602 C139.568148,52.3021081 139.609829,52.2683553 139.647721,52.2364778 C139.723504,52.1820984 139.803077,52.1239687 139.880754,52.0564633 C139.617408,51.7995677 139.024403,51.0645086 140.094842,50.3875791 C141.413471,49.5531371 140.845097,48.5986853 140.845097,48.5986853 C141.278956,48.9962173 141.506306,49.3712474 141.597246,49.7237758 C142.248982,47.7286154 144.867294,47.6179815 144.867294,47.6179815 C144.867294,47.6179815 140.430183,52.0264609 138.672011,54.7248028 C137.160135,57.040614 136.881631,58.7657527 136.881631,58.7657527 L120.662114,58.7657527 C120.662114,58.7657527 120.38361,57.040614 118.869839,54.7248028 C117.111667,52.0264609 112.68024,47.6179815 112.68024,47.6179815 C112.68024,47.6179815 115.298552,47.7286154 115.946499,49.7237758 L115.946499,49.7237758 Z M173.001838,59.7352056 L178.189204,69.5328683 L175.544367,70.9054787 L170.353212,61.1096911 L173.001838,59.7352056 Z M166.194605,83.1539634 C165.974833,83.5064917 165.683068,83.821517 165.359094,84.1065399 C165.095747,84.5415749 164.548213,85.2466316 163.477774,85.8054265 C163.477774,85.8054265 157.638672,91.1458559 157.039984,91.9090422 C156.564444,92.5165911 155.689147,92.8578685 154.997625,93.1466417 C154.131801,93.5047955 153.392914,93.9848341 152.597189,94.4667478 C151.780624,94.9617876 150.952692,95.4418262 150.132338,95.9312406 C148.840233,96.7000524 147.604966,97.5569963 146.434114,98.4945717 C145.77101,99.021489 144.74983,99.8521808 143.944633,99.0421157 C142.572956,97.6713805 143.950317,96.5106622 143.950317,96.5106622 C144.475116,95.7362249 147.868312,93.1541423 150.274432,91.3746243 C150.846595,91.1383553 151.418759,90.9020863 151.992818,90.6583167 C152.86622,90.288912 153.686574,89.9082564 154.61113,89.6701122 C155.353806,89.480722 156.287835,89.2613294 156.859999,88.7137853 C157.134713,88.4550145 158.275252,87.6318234 159.580619,86.7129995 C160.262668,86.2385863 160.980715,85.7341708 161.655186,85.2710086 C163.083701,84.2865544 164.267815,83.4821147 164.267815,83.4821147 C164.379595,83.4127342 164.478113,83.3546045 164.567159,83.2945997 L166.573521,82.1207553 C166.573521,82.1207553 166.744033,82.0269978 166.946754,81.9088633 C166.656883,82.4020279 166.397325,82.8351877 166.194605,83.1539634 L166.194605,83.1539634 Z M160.732525,90.7089457 C160.45781,91.2808667 158.898569,92.7509849 158.898569,92.7509849 C158.898569,92.7509849 152.271321,99.220255 151.375184,100.440978 C150.477152,101.663576 149.499548,101.237917 149.499548,101.237917 C147.911888,100.425977 149.105474,98.7458419 149.105474,98.7458419 L150.412736,96.7394306 L154.353467,94.4723733 C154.353467,94.4723733 156.350356,93.7654415 157.077876,93.0735108 L162.649842,87.7612088 L160.732525,90.7089457 Z M216.39724,55.3942316 L215.646986,55.0473288 C188.912538,42.7144623 158.796262,36.1945631 128.554943,36.1945631 C98.3477265,36.1945631 68.254185,42.7032114 41.5367888,55.013576 L40.7808506,55.3623541 L128.607991,133.404253 L216.39724,55.3942316 Z M137.450006,159.001936 L136.544395,169.737174 C141.297902,171.726709 145.106012,175.503263 147.108585,180.213641 L158.273357,179.304193 C158.684481,179.270441 159.019822,179.574215 159.019822,179.982998 L159.019822,195.526122 C159.019822,195.934905 158.684481,196.23868 158.273357,196.204927 L147.118058,195.383611 C145.087066,200.189622 141.172859,204.020555 136.294311,205.983838 L138.49771,240.589745 C138.528023,240.998528 138.215417,241.332305 137.802398,241.332305 L119.716718,241.332305 C119.298015,241.332305 118.987303,240.998528 119.017617,240.59162 L121.302483,205.959461 C116.452353,203.986803 112.568459,200.167121 110.543151,195.383611 L99.4181654,196.204927 C99.0070411,196.23868 98.6735946,195.934905 98.6735946,195.526122 L98.6735946,179.982998 C98.6735946,179.574215 99.0070411,179.270441 99.4181654,179.304193 L110.552624,180.213641 C112.570354,175.475135 116.408777,171.685456 121.200175,169.705297 L120.400662,159.001936 C120.368454,158.593153 120.679165,158.261252 121.09029,158.261252 L136.769851,158.261252 C137.18287,158.261252 137.491686,158.593153 137.450006,159.001936 L137.450006,159.001936 Z M63.8000226,197.675045 L64.0538966,198.065077 C74.8075444,214.551402 89.8391585,229.983893 108.731931,243.927514 C114.898795,248.48038 121.45026,252.855106 128.208234,256.931684 L128.494316,257.104198 L128.778504,256.931684 C135.540267,252.856982 142.091732,248.482255 148.258596,243.927514 C167.208206,229.940764 182.268239,214.46702 193.021887,197.937566 L193.273866,197.547535 L128.607991,140.089166 L63.8000226,197.675045 Z M46.3111356,143.74571 C45.7541285,135.236275 45.2558534,127.370018 44.7935754,120.085057 L44.7367379,119.188735 C43.1888644,94.6730144 42.0521151,76.7259466 40.3432021,63.1179776 L123.200854,136.745772 L61.3995872,191.661437 C52.4742111,176.296451 47.3986257,160.177656 46.3111356,143.74571 L46.3111356,143.74571 Z M38.8711119,60.3483799 L39.0624647,61.8053721 C40.8755797,75.5464768 42.0350639,93.8817008 43.6397749,119.256241 L43.6966124,120.154438 C44.1569958,127.439399 44.6571655,135.305656 45.2141726,143.81509 C46.3262923,160.625817 51.5667063,177.102766 60.7895317,192.788402 L61.1267673,193.367824 L124.84914,136.745772 L38.8711119,60.3483799 Z M108.059354,71.1248713 C108.860762,69.4447362 109.952042,68.135881 111.217622,67.1701784 C111.189204,67.1758038 111.156996,67.1795541 111.130472,67.1833044 C108.930862,67.327691 107.119641,67.4364498 107.119641,67.4364498 C107.119641,67.4364498 103.169438,68.7228032 102.88904,69.3397278 C102.720422,69.7185082 97.4989537,74.2544979 99.1586076,78.7023555 C99.4598462,79.5142958 103.241432,83.4014833 103.241432,83.4014833 L104.732468,84.8359736 C104.732468,84.8359736 109.34767,87.2380417 112.299429,88.995058 C107.822531,83.1708397 105.350102,76.7953272 108.059354,71.1248713 L108.059354,71.1248713 Z M154.224635,83.4014833 C154.224635,83.4014833 158.008116,79.5142958 158.309354,78.7023555 C159.967113,74.2544979 154.743751,69.7185082 154.575133,69.3397278 C154.296629,68.7228032 150.34832,67.4364498 150.34832,67.4364498 C150.34832,67.4364498 148.552257,67.3295662 146.365909,67.1833044 C146.367803,67.1851796 146.369698,67.1889299 146.369698,67.1889299 C147.625806,68.1546325 148.709507,69.4578623 149.503337,71.1248713 C152.189854,76.7371975 149.793208,83.0358289 145.40725,88.8075429 C145.38641,88.8356701 145.36557,88.8619222 145.344729,88.8900495 C148.300277,87.1442842 152.735494,84.8359736 152.735494,84.8359736 L154.224635,83.4014833 Z M136.142744,203.617398 L136.218527,204.804368 C140.534385,202.95922 144.012838,199.546446 145.922577,195.295479 L144.72899,195.209222 C142.961345,198.91452 139.903489,201.90351 136.142744,203.617398 L136.142744,203.617398 Z M142.241404,195.025457 L140.994769,194.933575 C139.755712,196.994365 138.001329,198.713879 135.905921,199.919601 L135.985494,201.151575 C138.626541,199.758338 140.807205,197.622541 142.241404,195.025457 L142.241404,195.025457 Z M115.4217,195.023582 C116.846426,197.603789 119.006249,199.73021 121.624562,201.123447 L121.704134,199.887723 C119.633356,198.685751 117.89413,196.977489 116.668335,194.9317 L115.4217,195.023582 Z M121.459733,203.589271 C117.719828,201.871633 114.692286,198.893893 112.936008,195.207347 L111.736738,195.295479 C113.640793,199.525819 117.090827,202.925467 121.38395,204.778116 L121.459733,203.589271 Z M136.296205,191.680188 C134.320156,191.680188 132.715445,193.266566 132.715445,195.224223 C132.715445,196.996241 134.034074,198.455108 135.748671,198.717629 C137.396957,197.693797 138.79137,196.313686 139.827706,194.68793 C139.570043,192.985293 138.086585,191.680188 136.296205,191.680188 L136.296205,191.680188 Z M121.929589,198.727005 C123.67071,198.486985 125.012074,197.013117 125.012074,195.224223 C125.012074,193.266566 123.407363,191.680188 121.42942,191.680188 C119.608726,191.680188 118.108217,193.028422 117.884657,194.770437 C118.922888,196.364315 120.302143,197.720049 121.929589,198.727005 L121.929589,198.727005 Z M121.42942,183.971444 C123.407363,183.971444 125.012074,182.386941 125.012074,180.429284 C125.012074,178.627264 123.647975,177.145895 121.889803,176.920877 C120.283198,177.929708 118.909626,179.276066 117.877078,180.860568 C118.09685,182.613834 119.603043,183.971444 121.42942,183.971444 L121.42942,183.971444 Z M144.721412,180.406782 L145.913104,180.311149 C144.037467,176.142689 140.649955,172.786169 136.440193,170.920394 L136.34357,172.097989 C140.011481,173.825003 142.985974,176.77274 144.721412,180.406782 L144.721412,180.406782 Z M115.419805,180.611173 L116.656968,180.712431 C117.873289,178.676018 119.599253,176.969631 121.65677,175.763909 L121.563935,174.531935 C118.970252,175.927047 116.831269,178.045967 115.419805,180.611173 L115.419805,180.611173 Z M111.751895,180.311149 L112.941692,180.408657 C114.686602,176.752113 117.680042,173.793125 121.378266,172.071737 L121.291115,170.890392 C117.051041,172.746791 113.635109,176.118312 111.751895,180.311149 L111.751895,180.311149 Z M142.245193,180.609298 C140.839413,178.057218 138.711797,175.949549 136.135166,174.554436 L136.030964,175.77891 C138.080901,176.982757 139.793604,178.681643 141.004242,180.710556 L142.245193,180.609298 Z M135.066621,160.490806 L134.34668,168.973988 L134.253846,170.108454 L134.157222,171.244795 L133.960185,173.586859 L133.863562,174.738201 L133.821881,175.197613 C133.55285,175.323248 133.291398,175.467635 133.046997,175.630773 C131.459337,176.677107 130.466576,178.452875 130.466576,180.429284 C130.466576,183.611415 133.082994,186.200998 136.296205,186.200998 C138.2912,186.200998 140.083475,185.218419 141.142546,183.647042 C141.303586,183.410773 141.447574,183.161378 141.568827,182.900732 L142.050051,182.861354 L143.213324,182.765722 L145.581552,182.572581 L146.731563,182.478824 L147.875891,182.386941 L156.769059,181.663133 L156.769059,193.860989 L147.881574,193.206561 L145.585341,193.037797 L143.213324,192.863408 L142.046262,192.777151 L141.561249,192.741524 C141.44189,192.479002 141.297902,192.233358 141.136862,191.995214 C140.077791,190.429463 138.283622,189.452509 136.296205,189.452509 C133.082994,189.452509 130.466576,192.040217 130.466576,195.224223 C130.466576,197.168754 131.455548,198.944522 133.03184,200.000232 C133.23835,200.137118 133.454332,200.264628 133.679787,200.377137 L133.717679,200.941558 L133.789673,202.094776 L133.939345,204.44809 L134.011339,205.584431 L134.085228,206.726398 L136.150322,239.104626 L121.372582,239.104626 L123.507776,206.707646 L123.58356,205.567555 L123.661237,204.429338 L123.814699,202.076024 L123.888587,200.920931 L123.92269,200.446518 C124.189826,200.322758 124.4437,200.178371 124.684312,200.018984 C126.273866,198.97265 127.260943,197.198757 127.260943,195.224223 C127.260943,192.040217 124.64642,189.452509 121.42942,189.452509 C119.419268,189.452509 117.604259,190.459465 116.547082,192.062719 C116.408777,192.276486 116.278051,192.499629 116.166271,192.734023 L115.614947,192.775276 L114.449779,192.861533 L112.075868,193.035922 L110.925857,193.122179 L109.77774,193.206561 L100.920569,193.859113 L100.920569,181.663133 L109.789108,182.386941 L110.931541,182.478824 L112.081552,182.572581 L114.447885,182.765722 L115.613053,182.861354 L116.162482,182.906358 C116.274262,183.140752 116.403094,183.36577 116.541398,183.579537 C117.59668,185.190291 119.415479,186.200998 121.42942,186.200998 C124.64642,186.200998 127.260943,183.611415 127.260943,180.429284 C127.260943,178.479127 126.237869,176.677107 124.636947,175.623272 C124.394441,175.460134 124.138672,175.317623 123.871536,175.193863 L123.835539,174.72695 L123.750283,173.571857 L123.574087,171.222294 L123.486936,170.085952 L123.397891,168.949611 L122.768889,160.490806 L135.066621,160.490806 Z M122.386184,170.445981 L122.47144,171.608575 L122.651425,174.005017 L122.740471,175.188237 L122.799203,175.975801 C122.969715,176.028305 123.130754,176.09206 123.288005,176.161441 C124.96471,176.881499 126.137456,178.542882 126.137456,180.429284 C126.137456,182.99824 124.026892,185.087158 121.42942,185.087158 C119.493157,185.087158 117.812663,183.928315 117.094616,182.242555 C117.041568,182.115044 116.994203,181.987534 116.950628,181.854398 L116.073436,181.781267 L114.885533,181.685635 L112.47373,181.488744 L111.300984,181.393111 L110.135816,181.297479 L99.7951872,180.453661 L99.7951872,195.05921 L110.126343,194.297899 L111.293406,194.211642 L112.468047,194.12351 L114.889322,193.94537 L116.084804,193.857238 L116.952522,193.793483 C116.996098,193.656597 117.049146,193.525337 117.102194,193.395951 C117.82403,191.717691 119.498841,190.566349 121.42942,190.566349 C124.026892,190.566349 126.137456,192.655267 126.137456,195.224223 C126.137456,197.123751 124.998812,198.762633 123.33158,199.482691 C123.172435,199.552071 123.011396,199.615826 122.846567,199.66833 L122.795413,200.461519 L122.715841,201.64849 L122.558591,204.050558 L122.480913,205.213151 L122.40513,206.368244 L120.167628,240.218465 L137.347698,240.218465 L135.191664,206.388871 L135.117775,205.233778 L135.041992,204.074935 L134.890425,201.672867 L134.814642,200.485896 L134.761594,199.621452 C134.627078,199.576448 134.498247,199.522069 134.37131,199.465814 C132.721129,198.730755 131.593853,197.088123 131.593853,195.224223 C131.593853,192.655267 133.704417,190.566349 136.296205,190.566349 C138.204049,190.566349 139.856125,191.685814 140.593117,193.324695 C140.663217,193.478458 140.725738,193.63597 140.776892,193.799109 L141.576405,193.859113 L142.775676,193.947245 L145.195057,194.125385 L146.369698,194.211642 L147.534866,194.297899 L157.894441,195.061085 L157.894441,180.451786 L147.527288,181.297479 L146.364014,181.393111 L145.189373,181.486869 L142.77757,181.68376 L141.585878,181.781267 L140.778786,181.846898 C140.731422,182.008161 140.667006,182.161923 140.598801,182.315685 C139.865598,183.962068 138.207838,185.087158 136.296205,185.087158 C133.704417,185.087158 131.593853,182.99824 131.593853,180.429284 C131.593853,178.531631 132.724918,176.894625 134.394045,176.170816 C134.556979,176.101436 134.718018,176.035806 134.886636,175.983301 L134.951052,175.201363 L135.051465,174.023769 L135.25229,171.634827 L135.350809,170.474108 L135.449327,169.320891 L136.288627,159.375091 L121.558251,159.375091 L122.299033,169.292763 L122.386184,170.445981 Z M135.780879,176.928377 C134.049231,177.175897 132.715445,178.647891 132.715445,180.429284 C132.715445,182.386941 134.320156,183.971444 136.296205,183.971444 C138.097953,183.971444 139.58141,182.655088 139.831495,180.943075 C138.800843,179.32482 137.415903,177.95221 135.780879,176.928377 L135.780879,176.928377 Z M222.439062,57.4475217 C220.233769,71.4436469 219.02692,90.4989289 217.196754,119.340623 L217.185386,119.541264 C216.709846,127.113122 216.196414,135.243776 215.610989,144.064485 C212.471666,191.753319 178.50181,226.355476 150.558619,246.984009 C144.314076,251.595005 137.662199,256.037237 130.784866,260.185071 L128.494316,261.568932 L126.203767,260.185071 C119.337801,256.044738 112.684029,251.602506 106.428119,246.984009 C78.4906119,226.357351 44.5264393,191.758945 41.3757493,144.064485 C40.8206368,135.60943 40.3185726,127.786302 39.8657674,120.540719 L39.7975625,119.441881 C37.9711854,90.5833106 36.762442,71.518653 34.5571485,57.5019011 L34.0588734,54.3216454 L36.9841081,52.9152823 C64.9235098,39.4854527 96.5895543,32.3861319 128.554943,32.3861319 C160.476756,32.3861319 192.10112,39.464826 220.012103,52.8590278 L222.937337,54.2616406 L222.439062,57.4475217 Z M222.414433,47.9611341 C193.75509,34.2106536 161.300899,26.9444444 128.554943,26.9444444 C95.761622,26.9444444 63.2695396,34.2312803 34.5836727,48.0173886 L28,51.1845182 L29.1272763,58.3400935 C31.290889,72.1130757 32.4882649,91.0877262 34.3070637,119.831912 L34.3752686,120.881996 C34.8318629,128.131329 35.330138,135.958209 35.8871451,144.420764 C39.1723504,194.187265 74.2751668,230.036397 103.142914,251.34561 C109.531444,256.063489 116.32731,260.601354 123.341053,264.835444 L128.494316,267.944444 L133.647579,264.835444 C140.659428,260.60698 147.460977,256.063489 153.851403,251.34561 C182.719149,230.036397 217.818177,194.18539 221.103382,144.420764 C221.679335,135.592554 222.20224,127.45815 222.67778,119.858164 C224.500368,91.0764753 225.703427,72.0624467 227.872724,58.2838389 L229,51.1226382 L222.414433,47.9611341 Z" id="Fill-181" fill="#FEFEFE"></path>
            </g>
        </g>
    </g>
</svg>