<?xml version="1.0" encoding="UTF-8"?>
<svg width="191px" height="65px" viewBox="0 0 191 65" version="1.1" xmlns="http://www.w3.org/2000/svg" xmlns:xlink="http://www.w3.org/1999/xlink">
    <title>9CE7EEFC-92E2-47A1-BF69-70F2278808F5</title>
    <defs>
        <linearGradient x1="60.7723619%" y1="63.6637221%" x2="68.6491434%" y2="72.6652783%" id="linearGradient-1">
            <stop stop-color="#FBB53D" offset="0%"></stop>
            <stop stop-color="#EFA625" offset="100%"></stop>
        </linearGradient>
        <linearGradient x1="36.5498134%" y1="114.324074%" x2="54.2427367%" y2="34.8487654%" id="linearGradient-2">
            <stop stop-color="#B2CA38" offset="0.07254464%"></stop>
            <stop stop-color="#2B7534" offset="100%"></stop>
        </linearGradient>
        <linearGradient x1="57.1332539%" y1="9.09666667%" x2="47.3664538%" y2="85.3383333%" id="linearGradient-3">
            <stop stop-color="#B2CA38" offset="0.07254464%"></stop>
            <stop stop-color="#2B7534" offset="100%"></stop>
        </linearGradient>
        <linearGradient x1="-43.4611619%" y1="49.7428571%" x2="89.4457837%" y2="49.7428571%" id="linearGradient-4">
            <stop stop-color="#B2CA38" offset="0.07254464%"></stop>
            <stop stop-color="#2B7534" offset="100%"></stop>
        </linearGradient>
        <linearGradient x1="117.121144%" y1="55.130808%" x2="24.8950025%" y2="48.6325876%" id="linearGradient-5">
            <stop stop-color="#B2CA38" offset="0.07254464%"></stop>
            <stop stop-color="#2B7534" offset="100%"></stop>
        </linearGradient>
    </defs>
    <g id="Version-3-" stroke="none" stroke-width="1" fill="none" fill-rule="evenodd">
        <g id="ATC_Website_Homepage-v4" transform="translate(-1121.000000, -5051.000000)" fill-rule="nonzero">
            <g id="Group-10" transform="translate(0.000000, 3477.000000)">
                <g id="Footer" transform="translate(0.000000, 1233.000000)">
                    <g id="Footer" transform="translate(0.000000, 79.000000)">
                        <g id="erea-logo" transform="translate(1121.000000, 262.000000)">
                            <g id="Group" transform="translate(69.295853, 34.835376)" fill="#FFFFFF">
                                <polygon id="Path" points="1.95458148 0.115515232 0.097729074 10.223098 4.20235018 10.223098 4.39780833 8.80803639 1.85685241 8.80803639 2.44322685 5.57360993 4.69099555 5.57360993 4.98418277 4.25962416 2.63868499 4.25962416 3.22505944 1.42950099 5.57055721 1.42950099 5.86374444 0.115515232"></polygon>
                                <path d="M7.42740963,0.216591059 C7.91605499,0.115515232 8.5024294,0.0144394039 9.08880387,0.0144394039 C10.1638237,0.0144394039 10.9456563,0.418742715 11.4343016,1.02519768 C11.922947,1.73272847 12.1184052,2.5413351 12.1184052,3.55209337 C12.1184052,5.97791324 11.1411144,8.3026573 10.0660946,9.21233975 C9.28426203,9.91987052 8.40470035,10.223098 7.23195147,10.223098 C6.64557702,10.223098 6.05920258,10.1220222 5.66828629,10.0209463 L7.42740963,0.216591059 Z M7.23195147,8.90911226 C7.32968051,8.90911226 7.52513867,8.90911226 7.72059683,8.90911226 C8.40470035,8.90911226 9.08880387,8.50480891 9.57744924,7.59512646 C10.1638237,6.68544403 10.55474,5.06823079 10.55474,3.45101755 C10.55474,2.23810762 10.1638237,1.22734933 9.08880387,1.22734933 C8.89334572,1.22734933 8.69788756,1.22734933 8.60015851,1.22734933 L7.23195147,8.90911226 Z" id="Shape"></path>
                                <path d="M18.470795,10.223098 L19.0571694,5.4725341 C19.1548985,4.66392748 19.3503566,3.6531692 19.5458148,2.44025927 L19.4480857,2.44025927 C19.0571694,3.6531692 18.6662531,4.66392748 18.3730659,5.4725341 L16.4184844,10.1220222 L15.4411937,10.1220222 L15.1480065,5.4725341 C15.1480065,4.66392748 15.0502774,3.75424503 15.0502774,2.5413351 L15.0502774,2.5413351 C14.8548193,3.75424503 14.6593611,4.66392748 14.4639029,5.57360993 L13.3888831,10.3241738 L12.1184052,10.3241738 L14.561632,0.216591059 L16.1252972,0.216591059 L16.4184844,5.4725341 C16.4184844,6.1800649 16.5162135,7.08974737 16.4184844,7.89835394 L16.4184844,7.89835394 C16.6139425,7.08974737 17.0048589,6.28114072 17.2980461,5.4725341 L19.4480857,0.216591059 L21.0117509,0.216591059 L19.7412729,10.3241738 L18.470795,10.3241738 L18.470795,10.223098 Z" id="Path"></path>
                                <path d="M24.4322685,0.115515232 L23.1617905,6.78651986 C23.0640614,7.19082317 23.0640614,7.59512646 23.0640614,7.89835394 C23.0640614,8.60588478 23.3572486,8.90911226 23.9436231,8.90911226 C24.6277266,8.90911226 25.116372,8.4037331 25.4095592,6.78651986 L26.6800371,0.115515232 L28.1459733,0.115515232 L26.9732244,6.68544403 C26.4845791,9.11126387 25.6050174,10.3241738 23.845894,10.3241738 C22.477687,10.3241738 21.6958544,9.51556723 21.6958544,8.10050562 C21.6958544,7.69620233 21.7935835,7.19082317 21.8913126,6.5843682 L23.0640614,0.115515232 L24.4322685,0.115515232 L24.4322685,0.115515232 Z" id="Path"></path>
                                <path d="M28.0482442,10.223098 L29.9050966,0.115515232 L31.2733036,0.115515232 L32.1528653,4.76500331 C32.3483235,5.97791324 32.5437816,6.88759569 32.6415107,7.79727814 L32.6415107,7.79727814 C32.7392397,6.68544403 32.9346979,5.27038245 33.2278852,3.75424503 L33.9119887,0.115515232 L35.1824666,0.115515232 L33.3256142,10.223098 L32.0551363,10.223098 L31.1755746,5.77576158 C30.8823874,4.56285165 30.7846583,3.75424503 30.6869292,2.5413351 L30.6869292,2.5413351 C30.5892001,3.55209337 30.393742,5.06823079 30.1005548,6.5843682 L29.4164512,10.223098 L28.0482442,10.223098 L28.0482442,10.223098 Z" id="Path"></path>
                                <path d="M37.039319,0.216591059 C37.5279644,0.115515232 38.1143389,0.0144394039 38.7007133,0.0144394039 C39.7757331,0.0144394039 40.5575657,0.418742715 41.046211,1.02519768 C41.5348564,1.73272847 41.7303146,2.5413351 41.7303146,3.55209337 C41.7303146,5.97791324 40.7530238,8.3026573 39.678004,9.21233975 C38.8961714,9.91987052 38.0166097,10.223098 36.8438609,10.223098 C36.2574864,10.223098 35.671112,10.1220222 35.2801957,10.0209463 L37.039319,0.216591059 Z M36.8438609,8.90911226 C36.94159,8.90911226 37.1370481,8.90911226 37.3325062,8.90911226 C38.0166097,8.90911226 38.7007133,8.50480891 39.1893586,7.59512646 C39.7757331,6.68544403 40.1666494,5.06823079 40.1666494,3.45101755 C40.1666494,2.23810762 39.7757331,1.22734933 38.7007133,1.22734933 C38.5052551,1.22734933 38.3097969,1.22734933 38.2120679,1.22734933 L36.8438609,8.90911226 Z" id="Shape"></path>
                                <path d="M46.0303938,0.216591059 C46.6167683,0.115515232 47.2031427,0.0144394039 47.7895171,0.0144394039 C48.5713497,0.0144394039 49.3531823,0.216591059 49.7440986,0.7219702 C50.1350149,1.12627351 50.3304731,1.73272847 50.3304731,2.33918344 C50.3304731,3.75424503 49.4509114,5.06823079 48.3758916,5.37145827 L48.3758916,5.37145827 C48.962266,5.57360993 49.1577242,6.28114072 49.2554532,7.49405065 C49.2554532,8.70696058 49.3531823,9.81879471 49.3531823,10.1220222 L47.8872462,10.1220222 C47.7895171,9.81879471 47.7895171,8.80803639 47.7895171,7.69620233 C47.7895171,6.38221655 47.4963299,5.97791324 46.7144973,5.97791324 L46.323581,5.97791324 L45.5417484,10.223098 L44.0758123,10.223098 L46.0303938,0.216591059 Z M46.6167683,4.76500331 L47.1054136,4.76500331 C48.1804335,4.76500331 48.864537,3.75424503 48.864537,2.44025927 C48.864537,1.8338043 48.5713497,1.22734933 47.7895171,1.22734933 C47.594059,1.22734933 47.3986008,1.22734933 47.2031427,1.32842517 L46.6167683,4.76500331 Z" id="Shape"></path>
                                <polygon id="Path" points="53.9464488 0.115515232 52.0895964 10.223098 50.6236603 10.223098 52.4805127 0.115515232"></polygon>
                                <path d="M58.3442571,10.0209463 C58.0510699,10.1220222 57.5624245,10.223098 57.0737792,10.223098 C54.8260104,10.223098 54.3373651,8.10050562 54.3373651,6.78651986 C54.3373651,4.56285165 55.0214686,2.5413351 56.1942175,1.22734933 C57.0737792,0.317666887 58.0510699,0.0144394039 58.9306316,0.0144394039 C59.4192769,0.0144394039 59.8101933,0.115515232 60.0056513,0.216591059 L59.6147351,1.53057682 C59.4192769,1.42950099 59.1260897,1.42950099 58.8329025,1.42950099 C58.2465281,1.42950099 57.6601536,1.73272847 57.1715082,2.33918344 C56.3896756,3.24886589 55.9010303,4.86607913 55.9010303,6.48329238 C55.9010303,7.89835394 56.2919466,8.90911226 57.3669664,8.90911226 C57.7578827,8.90911226 58.148799,8.80803639 58.3442571,8.70696058 L58.3442571,10.0209463 Z" id="Path"></path>
                                <polygon id="Path" points="64.1102725 5.57360993 61.7647747 5.57360993 61.1784003 8.80803639 63.8170853 8.80803639 63.5238981 10.223098 59.517006 10.223098 61.3738584 0.115515232 65.1852923 0.115515232 64.9898342 1.42950099 62.5466073 1.42950099 62.0579619 4.25962416 64.3057306 4.25962416"></polygon>
                                <polygon id="Path" points="71.7331405 5.57360993 69.4853719 5.57360993 68.8989971 8.80803639 71.537682 8.80803639 71.244495 10.223098 67.2376025 10.223098 69.0944556 0.115515232 72.9058888 0.115515232 72.6127017 1.42950099 70.2672038 1.42950099 69.7785589 4.25962416 72.0263276 4.25962416"></polygon>
                                <path d="M74.4695541,0.216591059 C74.9581996,0.115515232 75.5445745,0.0144394039 76.1309486,0.0144394039 C77.2059683,0.0144394039 77.9878009,0.418742715 78.4764465,1.02519768 C78.9650914,1.73272847 79.1605499,2.5413351 79.1605499,3.55209337 C79.1605499,5.97791324 78.1832594,8.3026573 77.1082391,9.21233975 C76.3264064,9.91987052 75.4468452,10.223098 74.2740963,10.223098 C73.6877214,10.223098 73.1013473,10.1220222 72.710431,10.0209463 L74.4695541,0.216591059 Z M74.3718255,8.90911226 C74.4695541,8.90911226 74.6650126,8.90911226 74.8604704,8.90911226 C75.5445745,8.90911226 76.2286778,8.50480891 76.7173227,7.59512646 C77.3036976,6.5843682 77.6946139,5.06823079 77.6946139,3.45101755 C77.6946139,2.23810762 77.3036976,1.22734933 76.2286778,1.22734933 C76.0332194,1.22734933 75.8377615,1.22734933 75.7400323,1.22734933 L74.3718255,8.90911226 Z" id="Shape"></path>
                                <path d="M82.7765253,0.115515232 L81.5060478,6.78651986 C81.4083185,7.19082317 81.4083185,7.59512646 81.4083185,7.89835394 C81.4083185,8.60588478 81.7992349,8.90911226 82.2878804,8.90911226 C82.9719838,8.90911226 83.4606294,8.4037331 83.7538164,6.78651986 L85.024294,0.115515232 L86.4902307,0.115515232 L85.3174817,6.68544403 C84.8288362,9.11126387 83.9492743,10.3241738 82.1901512,10.3241738 C80.8219444,10.3241738 80.0401118,9.51556723 80.0401118,8.10050562 C80.0401118,7.69620233 80.1378403,7.19082317 80.2355696,6.5843682 L81.4083185,0.115515232 L82.7765253,0.115515232 L82.7765253,0.115515232 Z" id="Path"></path>
                                <path d="M90.7903095,10.0209463 C90.4971224,10.1220222 90.0084769,10.223098 89.519832,10.223098 C87.2720633,10.223098 86.7834177,8.10050562 86.7834177,6.78651986 C86.7834177,4.56285165 87.4675211,2.5413351 88.6402701,1.22734933 C89.519832,0.317666887 90.4971224,0.0144394039 91.3766843,0.0144394039 C91.8653292,0.0144394039 92.2562455,0.115515232 92.451704,0.216591059 L92.0607877,1.53057682 C91.8653292,1.42950099 91.5721421,1.42950099 91.2789551,1.42950099 C90.6925809,1.42950099 90.1062061,1.73272847 89.6175605,2.33918344 C88.8357279,3.24886589 88.347083,4.86607913 88.347083,6.48329238 C88.347083,7.89835394 88.7379993,8.90911226 89.813019,8.90911226 C90.2039353,8.90911226 90.5948517,8.80803639 90.7903095,8.70696058 L90.7903095,10.0209463 Z" id="Path"></path>
                                <path d="M93.91764,7.49405065 L92.9403496,10.1220222 L91.4744129,10.1220222 L95.4813053,0.0144394039 L97.1426991,0.0144394039 L97.3381576,10.1220222 L95.8722216,10.1220222 L95.8722216,7.49405065 L93.91764,7.49405065 Z M95.8722216,6.38221655 L95.8722216,3.95639668 C95.8722216,3.34994172 95.8722216,2.33918344 95.8722216,1.53057682 L95.8722216,1.53057682 C95.6767631,2.33918344 95.2858468,3.34994172 95.090389,3.95639668 L94.2108271,6.38221655 L95.8722216,6.38221655 Z" id="Shape"></path>
                                <polygon id="Path" points="100.367759 1.53057682 98.7063644 1.53057682 98.9018229 0.115515232 103.886006 0.115515232 103.592818 1.53057682 101.833695 1.53057682 100.27003 10.223098 98.8040937 10.223098"></polygon>
                                <polygon id="Path" points="106.524691 0.115515232 104.667838 10.223098 103.201902 10.223098 104.961025 0.115515232"></polygon>
                                <path d="M109.065646,10.3241738 C107.111065,10.3241738 106.817878,8.20158142 106.817878,7.08974737 C106.817878,5.06823079 107.501981,2.23810762 108.870189,0.924121851 C109.456563,0.317666887 110.140666,0.0144394039 110.82477,0.0144394039 C112.779351,0.0144394039 113.072538,2.03595596 113.072538,3.24886589 C113.072538,5.27038245 112.388435,8.10050562 111.117957,9.41449136 C110.531583,10.0209463 109.847479,10.3241738 109.065646,10.3241738 L109.065646,10.3241738 Z M109.261104,9.01018807 C109.554292,9.01018807 109.74975,8.90911226 110.042937,8.60588478 C111.020228,7.49405065 111.508874,4.25962416 111.508874,3.14779006 C111.508874,2.23810762 111.411144,1.32842517 110.629312,1.32842517 C110.336125,1.32842517 110.140666,1.42950099 109.847479,1.73272847 C108.870189,2.74348675 108.381543,5.67468575 108.381543,7.19082317 C108.381543,7.79727814 108.381543,9.01018807 109.261104,9.01018807 L109.261104,9.01018807 Z" id="Shape"></path>
                                <path d="M113.365726,10.223098 L115.222578,0.115515232 L116.590785,0.115515232 L117.470347,4.76500331 C117.665805,5.97791324 117.861263,6.88759569 117.958993,7.79727814 L117.958993,7.79727814 C118.056721,6.68544403 118.25218,5.27038245 118.545367,3.75424503 L119.22947,0.115515232 L120.499948,0.115515232 L118.643096,10.223098 L117.274888,10.223098 L116.395327,5.77576158 C116.10214,4.56285165 116.004411,3.75424503 115.906682,2.5413351 L115.906682,2.5413351 C115.808952,3.55209337 115.613495,5.06823079 115.320307,6.5843682 L114.636204,10.223098 L113.365726,10.223098 L113.365726,10.223098 Z" id="Path"></path>
                                <path d="M38.7007133,21.2403632 L38.0166097,23.2618798 L36.5506737,23.2618798 L39.8734621,14.6704344 L41.6325855,14.6704344 L41.7303146,23.2618798 L40.2643785,23.2618798 L40.2643785,21.2403632 L38.7007133,21.2403632 Z M40.3621075,20.1285291 L40.3621075,18.2080884 C40.3621075,17.7027093 40.4598366,16.7930268 40.4598366,16.1865719 L40.4598366,16.1865719 C40.2643785,16.7930268 39.9711913,17.8037851 39.8734621,18.2080884 L39.1893586,20.1285291 L40.3621075,20.1285291 Z" id="Shape"></path>
                                <path d="M45.7372066,14.6704344 L44.6621868,20.2296049 C44.5644577,20.6339082 44.5644577,20.9371357 44.5644577,21.1392874 C44.5644577,21.6446666 44.7599158,21.8468182 45.1508322,21.8468182 C45.6394775,21.8468182 45.9326647,21.4425149 46.2258519,20.2296049 L47.3008718,14.5693586 L48.864537,14.5693586 L47.8872462,19.9263775 C47.4963299,21.947894 46.7144973,23.160804 45.0531031,23.160804 C43.684896,23.160804 43.0985216,22.4532731 43.0985216,21.1392874 C43.0985216,20.7349841 43.1962506,20.3306807 43.2939798,19.8253017 L44.2712705,14.5693586 L45.7372066,14.5693586 L45.7372066,14.6704344 Z" id="Path"></path>
                                <path d="M48.962266,21.6446666 C49.2554532,21.8468182 49.6463695,21.947894 50.1350149,21.947894 C50.8191184,21.947894 51.3077638,21.5435907 51.3077638,20.8360599 C51.3077638,20.2296049 51.0145766,19.9263775 50.4282021,19.4209983 C49.7440986,18.8145433 49.4509114,18.1070126 49.4509114,17.2984059 C49.4509114,15.6811927 50.5259312,14.5693586 52.1873255,14.5693586 C52.7736999,14.5693586 53.2623453,14.6704344 53.4578034,14.8725861 L53.0668872,16.1865719 C52.871429,16.085496 52.5782418,15.9844202 52.1873255,15.9844202 C51.503222,15.9844202 51.1123056,16.3887235 51.1123056,17.0962543 C51.1123056,17.5005576 51.3077638,17.8037851 51.9918673,18.41024 C52.6759708,19.016695 52.969158,19.8253017 52.969158,20.4317566 C52.969158,22.1500456 51.7964092,23.2618798 50.232744,23.2618798 C49.3531823,23.2618798 48.864537,23.0597281 48.6690788,22.9586523 L48.962266,21.6446666 Z" id="Path"></path>
                                <polygon id="Path" points="54.5328232 14.6704344 54.239636 16.1865719 55.7055721 16.1865719 54.4350942 23.2618798 55.9010303 23.2618798 57.1715082 16.1865719 58.6374444 16.1865719 58.9306316 14.6704344"></polygon>
                                <path d="M60.0056513,14.7715102 C60.4942968,14.6704344 61.0806712,14.5693586 61.6670457,14.5693586 C62.3511492,14.5693586 63.0352526,14.7715102 63.5238981,15.1758135 C63.9148143,15.479041 64.1102725,15.9844202 64.1102725,16.5908751 C64.1102725,17.8037851 63.3284399,18.8145433 62.4488782,19.1177708 L62.4488782,19.1177708 C62.8397945,19.3199225 63.1329818,19.8253017 63.1329818,20.7349841 C63.1329818,21.6446666 63.2307108,22.7565006 63.2307108,23.0597281 L61.5693166,23.0597281 C61.5693166,22.8575765 61.4715875,21.947894 61.4715875,21.0382116 C61.4715875,20.0274533 61.2761293,19.62315 60.787484,19.62315 L60.4942968,19.62315 L59.9079223,23.0597281 L58.4419862,23.0597281 L60.0056513,14.7715102 Z M60.787484,18.6123917 L61.1784003,18.6123917 C61.9602329,18.6123917 62.4488782,17.7027093 62.4488782,16.8941026 C62.4488782,16.4897993 62.2534201,15.9844202 61.6670457,15.9844202 C61.4715875,15.9844202 61.3738584,15.9844202 61.2761293,15.9844202 L60.787484,18.6123917 Z" id="Shape"></path>
                                <path d="M65.8693958,21.2403632 L65.1852923,23.2618798 L63.7193562,23.2618798 L67.0421447,14.6704344 L68.8012678,14.6704344 L68.8989971,23.160804 L67.433061,23.160804 L67.433061,21.1392874 L65.8693958,21.1392874 L65.8693958,21.2403632 Z M67.433061,20.1285291 L67.433061,18.2080884 C67.433061,17.7027093 67.5307903,16.7930268 67.5307903,16.1865719 L67.5307903,16.1865719 C67.3353318,16.7930268 67.0421447,17.8037851 66.8466866,18.2080884 L66.162583,20.1285291 L67.433061,20.1285291 Z" id="Shape"></path>
                                <polygon id="Path" points="71.537682 14.6704344 69.9740168 23.2618798 73.5899929 23.2618798 73.7854507 21.8468182 71.7331405 21.8468182 73.1013473 14.6704344"></polygon>
                                <polygon id="Path" points="76.1309486 14.6704344 74.5672833 23.2618798 76.0332194 23.2618798 77.6946139 14.6704344"></polygon>
                                <path d="M79.3560077,21.2403632 L78.6719043,23.2618798 L77.2059683,23.2618798 L80.5287567,14.7715102 L82.2878804,14.7715102 L82.385609,23.2618798 L80.919673,23.2618798 L80.919673,21.2403632 L79.3560077,21.2403632 Z M81.0174022,20.1285291 L81.0174022,18.2080884 C81.0174022,17.7027093 81.1151315,16.7930268 81.1151315,16.1865719 L81.1151315,16.1865719 C80.919673,16.7930268 80.6264859,17.8037851 80.4310281,18.2080884 L79.746924,20.1285291 L81.0174022,20.1285291 Z" id="Shape"></path>
                            </g>
                            <g id="SVGID_1_-link" fill="url(#linearGradient-1)">
                                <path d="M18.4851709,28.9067631 C18.8743324,25.1801073 20.7228494,21.5541718 23.5442703,18.6332794 C26.4629814,15.7123869 30.0627252,13.7986987 33.662469,13.3958171 C34.2462113,13.2950966 34.7326631,13.2950966 35.3164054,13.2950966 C42.1267315,13.2950966 46.699379,18.5325589 45.921056,25.5829889 C45.5318945,29.3096449 43.6833775,32.9355803 40.8619566,35.8564727 C37.9432455,38.7773652 34.3435017,40.6910533 30.7437579,41.093935 C30.1600156,41.1946555 29.6735638,41.1946555 29.0898215,41.1946555 C22.2794954,41.1946555 17.7068479,35.9571931 18.4851709,28.9067631 L18.4851709,28.9067631 Z M39.8890529,0.100720429 C33.0787268,0.201440858 25.6846585,2.82017201 19.6526553,8.25907519 C7.58864909,19.237602 4.47535716,38.5759243 16.3447827,45.8277952 C19.0689131,47.439322 22.2794954,48.3458059 25.6846585,48.3458059 C27.0467237,48.4465263 28.5060793,48.4465263 29.9654349,48.2450855 C41.4456989,46.8349994 51.8557688,36.2593544 53.0232533,24.6765051 C54.2880281,13.0936557 45.921056,4.83458059 34.3435017,6.2446666 C22.8632376,7.6547526 12.4531677,18.2303976 11.2856833,29.813247 C10.701941,35.5543114 12.4531677,40.4896125 15.7610404,43.8133866 C15.2745886,43.4105049 14.7881367,43.0076232 14.3016848,42.504021 C9.24258543,37.0651179 9.3398758,27.7988384 13.5233618,19.8419245 C17.5122671,12.2878923 24.7117547,6.04322574 32.4949846,3.72665587 C41.0565374,1.10792472 49.5207998,3.42449458 54.4826089,9.06483863 C63.919775,19.8419245 59.0552564,39.683849 45.1427331,50.5616554 C37.4567936,56.5041607 28.1169178,59.5257735 19.8472361,58.6192896 C12.5504581,57.9142466 5.740132,54.6911929 1.16748448,49.6551714 C0.778322984,49.2522898 0.389161492,48.7486876 0,48.2450855 C3.21058231,53.8854295 10.2154892,57.3099241 16.6366538,58.7200101 C24.517174,60.4322574 33.5651787,58.8207305 41.73757,53.8854295 C57.0121586,44.6191501 66.3520344,24.7772255 59.4444179,11.0792472 C59.1525468,10.3742042 58.7633853,9.76988164 58.3742238,9.16555905 C54.5798992,3.32377415 47.7695731,0.201440858 40.2782144,0.201440858 L39.8890529,0.201440858 L39.8890529,0.100720429 Z" id="SVGID_1_"></path>
                            </g>
                            <g id="Group" transform="translate(8.034302, 5.122849)">
                                <g id="Path" transform="translate(0.000000, 0.140729)">
                                    <path d="M23.0423775,15.1706165 L23.0423775,15.1706165 C24.3921402,15.1706165 25.2598448,15.5646585 25.7419029,15.9587005 C26.3203726,15.5646585 27.2844888,15.1706165 28.7306631,15.1706165 L28.7306631,15.1706165 C29.2127212,15.1706165 29.791191,15.269127 30.3696607,15.3676375 L34.4189488,2.06872043 C34.7081836,0.88659447 33.9368907,0 32.8763628,0 L25.9347261,1.18212596 C24.8741983,1.18212596 23.7172588,2.06872043 23.428024,3.25084639 L20.6320869,15.466148 C21.6926148,15.269127 22.3674961,15.1706165 23.0423775,15.1706165 L23.0423775,15.1706165 Z" fill="url(#linearGradient-2)"></path>
                                    <path d="M24.1993169,28.8635755 C23.7172588,29.0605965 23.3316123,29.0605965 23.1387891,29.0605965 C22.9459658,29.0605965 22.5603194,29.0605965 22.0782613,28.8635755 C21.7890264,28.7650651 21.5962031,28.4695336 21.4033799,28.2725125 C21.2105567,28.2725125 21.114145,28.2725125 20.9213218,28.2725125 L20.8249102,28.2725125 C20.5356753,28.2725125 20.2464405,28.2725125 19.9572056,28.371023 C18.8966778,32.0159114 17.4505034,35.1682473 15.9079175,37.2369677 L10.6052783,55.7569411 C10.3160435,56.8405566 10.9909248,57.8256615 12.1478643,57.8256615 L19.3787359,55.5599201 C20.4392637,55.5599201 21.5962031,54.6733257 21.885438,53.4911997 L25.5490796,37.2369677 C24.9706099,35.0697368 24.8741983,31.9174009 25.5490796,28.2725125 C25.3562564,28.2725125 25.2598448,28.2725125 25.0670215,28.2725125 C24.7777866,28.568044 24.4885518,28.7650651 24.1993169,28.8635755 Z" fill="url(#linearGradient-3)"></path>
                                    <path d="M45.8919317,16.7467844 L34.8045953,17.9289104 C34.4189488,18.1259314 33.840479,18.3229524 33.1655977,18.5199734 L33.2620093,19.1110363 L34.2261255,25.1201767 L34.3225371,25.8097502 C34.3225371,25.9082606 34.4189488,26.0067711 34.4189488,26.1052816 L34.4189488,27.2874076 C34.4189488,27.3859181 34.4189488,27.5829391 34.3225371,27.6814495 C34.3225371,27.6814495 34.3225371,27.7799601 34.3225371,27.7799601 L42.2282901,27.7799601 C43.2888179,27.7799601 44.4457574,26.8933656 44.7349922,25.7112396 L47.338106,18.9140154 C47.7237525,17.7318894 47.0488711,16.7467844 45.8919317,16.7467844 Z" fill="url(#linearGradient-4)"></path>
                                    <path d="M12.3406875,27.3859181 C12.3406875,27.1888971 12.3406875,27.0903866 12.4370991,26.8933656 L12.9191572,25.7112396 C12.9191572,25.6127291 13.0155689,25.5142187 13.0155689,25.5142187 L13.4012153,24.8246452 L17.064857,18.8155048 L17.1612686,18.6184839 C16.3899756,18.4214629 15.7150943,18.1259314 15.3294478,17.8303999 L5.68828565,17.8303999 C4.5313462,17.8303999 3.47081836,18.7169944 3.1815835,19.8991204 L0.578469727,26.6963446 C0.289234864,27.8784706 0.964116212,28.7650651 2.12105567,28.7650651 L12.0514527,27.7799601 L12.1478643,27.5829391 C12.0514527,27.4844286 12.1478643,27.3859181 12.3406875,27.3859181 Z" fill="url(#linearGradient-5)"></path>
                                </g>
                                <g id="Shape" fill="#FFFFFF">
                                    <path d="M42.3247017,27.9206893 L34.3225371,27.9206893 L34.3225371,27.8221788 C34.3225371,27.8221788 34.3225371,27.7236684 34.3225371,27.7236684 L34.3225371,27.7236684 L34.3225371,27.7236684 C34.4189488,27.6251578 34.4189488,27.5266473 34.4189488,27.4281369 L34.4189488,26.2460109 C34.4189488,26.1475004 34.4189488,26.0489899 34.4189488,26.0489899 L34.3225371,25.3594164 L33.2620093,18.6607026 L33.3584209,18.6607026 C34.0333023,18.4636817 34.5153604,18.2666607 34.9974185,18.0696396 L34.9974185,18.0696396 L46.0847549,16.8875137 C46.6632247,16.8875137 47.1452828,17.0845347 47.4345176,17.4785767 C47.7237525,17.8726187 47.8201641,18.4636817 47.7237525,19.0547446 L44.9278155,25.7534584 C44.6385806,26.9355843 43.4816412,27.9206893 42.3247017,27.9206893 Z M34.4189488,27.7236684 L42.3247017,27.7236684 C43.3852295,27.7236684 44.4457574,26.8370739 44.7349922,25.7534584 L47.338106,18.9562341 C47.4345176,18.4636817 47.338106,17.9711292 47.0488711,17.5770872 C46.7596363,17.1830452 46.3739898,16.9860242 45.8919317,16.9860242 L34.9010069,18.1681502 C34.5153604,18.3651711 34.0333023,18.5621922 33.3584209,18.7592131 L33.4548326,19.2517656 L34.5153604,25.8519689 C34.5153604,25.9504794 34.611772,26.0489899 34.611772,26.1475004 L34.611772,27.3296264 C34.5153604,27.5266473 34.5153604,27.6251578 34.4189488,27.7236684 Z"></path>
                                    <path d="M2.02464405,29.1028153 C1.44617432,29.1028153 0.964116212,28.9057943 0.674881348,28.5117523 C0.385646485,28.1177103 0.289234864,27.5266473 0.385646485,26.9355843 L2.98876026,20.1383601 C3.27799512,18.9562341 4.43493458,17.9711292 5.59187403,17.9711292 L15.3294478,17.9711292 L15.3294478,17.9711292 C15.7150943,18.2666607 16.3899756,18.5621922 17.1612686,18.7592131 L17.2576802,18.7592131 L17.064857,19.0547446 L13.1119805,25.7534584 C13.0155689,25.8519689 13.0155689,25.8519689 13.0155689,25.9504794 L12.5335108,27.1326054 C12.4370991,27.2311158 12.4370991,27.4281369 12.4370991,27.5266473 L12.4370991,27.6251578 L12.3406875,27.6251578 C12.2442759,27.7236684 12.1478643,27.8221788 12.1478643,27.9206893 L12.0514527,28.1177103 L11.955041,28.1177103 L2.02464405,29.1028153 C2.02464405,29.1028153 2.02464405,29.1028153 2.02464405,29.1028153 Z M5.59187403,18.1681502 C4.5313462,18.1681502 3.47081836,19.0547446 3.1815835,20.1383601 L0.578469727,26.9355843 C0.482058106,27.4281369 0.578469727,27.9206893 0.867704591,28.3147313 C1.15693945,28.7087733 1.54258594,28.9057943 2.02464405,28.9057943 L11.8586294,27.9206893 L11.8586294,27.8221788 C11.955041,27.7236684 11.955041,27.5266473 12.1478643,27.5266473 C12.1478643,27.3296264 12.1478643,27.2311158 12.2442759,27.1326054 L12.726334,25.9504794 C12.726334,25.8519689 12.8227456,25.7534584 12.8227456,25.7534584 L13.2083921,25.063885 L16.8720337,19.0547446 C16.1007407,18.8577237 15.522271,18.5621922 15.1366245,18.2666607 L5.59187403,18.2666607 L5.59187403,18.1681502 Z"></path>
                                    <path d="M25.7419029,16.1979403 L25.7419029,16.1979403 C25.2598448,15.8038982 24.4885518,15.4098562 23.1387891,15.4098562 C23.1387891,15.4098562 23.1387891,15.4098562 23.0423775,15.4098562 L22.9459658,15.4098562 C22.2710845,15.4098562 21.5962031,15.5083668 20.8249102,15.7053877 L20.6320869,15.7053877 L20.6320869,15.5083668 L23.428024,3.29306517 C23.7172588,2.11093921 24.8741983,1.22434474 26.0311377,1.22434474 L32.9727745,0.0422187843 C32.9727745,0.0422187843 32.9727745,0.0422187843 32.9727745,0.0422187843 C33.5512442,0.0422187843 34.0333023,0.239239778 34.3225371,0.633281764 C34.611772,1.02732375 34.7081836,1.61838673 34.611772,2.20944971 L30.4660723,15.6068773 L30.3696607,15.6068773 C29.791191,15.5083668 29.2127212,15.4098562 28.7306631,15.4098562 C27.3809004,15.4098562 26.4167842,15.8038982 25.7419029,16.1979403 L25.7419029,16.1979403 Z M23.1387891,15.2128353 C24.4885518,15.2128353 25.3562564,15.6068773 25.7419029,16.0009192 C26.3203726,15.6068773 27.2844888,15.2128353 28.7306631,15.2128353 L28.7306631,15.2128353 C29.2127212,15.2128353 29.791191,15.3113458 30.3696607,15.4098562 L34.4189488,2.20944971 C34.5153604,1.71689723 34.4189488,1.22434474 34.1297139,0.83030276 C33.840479,0.436260771 33.4548326,0.239239778 32.9727745,0.239239778 L26.0311377,1.42136574 C24.9706099,1.42136574 23.9100821,2.30796021 23.6208472,3.39157567 L20.9213218,15.4098562 C21.6926148,15.3113458 22.2710845,15.2128353 22.9459658,15.2128353 L23.1387891,15.2128353 C23.0423775,15.2128353 23.1387891,15.2128353 23.1387891,15.2128353 Z"></path>
                                    <path d="M12.1478643,58.0649013 L12.1478643,58.0649013 C11.5693945,58.0649013 11.0873364,57.8678803 10.7981016,57.4738383 C10.5088667,57.0797963 10.4124551,56.4887333 10.5088667,55.8976704 L15.8115059,37.2791865 C17.4505034,35.1119556 18.8966778,31.9596197 19.860794,28.4132418 L19.860794,28.3147313 L19.9572056,28.3147313 C20.2464405,28.3147313 20.5356753,28.2162208 20.8249102,28.2162208 L20.9213218,28.2162208 C21.114145,28.2162208 21.3069683,28.2162208 21.4033799,28.2162208 L21.4997915,28.2162208 L21.4997915,28.2162208 C21.5962031,28.5117523 21.7890264,28.7087733 22.0782613,28.8072838 C22.4639077,29.0043048 22.7531426,29.0043048 23.0423775,29.0043048 L23.2352007,29.0043048 C23.5244356,29.0043048 23.8136704,29.0043048 24.1993169,28.8072838 L24.1993169,28.8072838 C24.4885518,28.7087733 24.7777866,28.5117523 24.9706099,28.2162208 L24.9706099,28.2162208 L24.9706099,28.2162208 C25.1634331,28.2162208 25.2598448,28.2162208 25.452668,28.2162208 L25.5490796,28.2162208 L25.5490796,28.3147313 C24.9706099,31.8611092 24.9706099,35.0134451 25.5490796,37.180676 L25.5490796,37.180676 L25.5490796,37.180676 L21.885438,53.434908 C21.5962031,54.617034 20.5356753,55.5036284 19.3787359,55.6021389 L12.1478643,58.0649013 Z M16.0043291,37.377697 L10.70169,55.8976704 C10.6052783,56.3902229 10.70169,56.8827754 10.9909248,57.2768174 C11.2801597,57.6708593 11.6658062,57.7693698 12.1478643,57.7693698 L19.3787359,55.5036284 C20.4392637,55.5036284 21.4997915,54.617034 21.7890264,53.5334184 L25.452668,37.2791865 C24.7777866,35.1119556 24.7777866,31.9596197 25.3562564,28.4132418 C25.2598448,28.4132418 25.1634331,28.4132418 25.0670215,28.4132418 C24.8741983,28.7087733 24.5849634,28.9057943 24.2957285,29.0043048 L24.2957285,29.0043048 C23.9100821,29.2013258 23.5244356,29.2013258 23.2352007,29.2013258 L23.0423775,29.2013258 C22.8495542,29.2013258 22.4639077,29.2013258 22.0782613,29.0043048 C21.7890264,28.9057943 21.5962031,28.7087733 21.4033799,28.4132418 C21.3069683,28.4132418 21.114145,28.4132418 20.9213218,28.4132418 L20.8249102,28.4132418 C20.6320869,28.4132418 20.3428521,28.4132418 20.0536172,28.5117523 C19.089501,32.0581302 17.6433267,35.2104661 16.0043291,37.377697 Z"></path>
                                    <path d="M42.3247017,27.9206893 L34.3225371,27.9206893 L34.3225371,27.8221788 C34.3225371,27.8221788 34.3225371,27.7236684 34.3225371,27.7236684 L34.3225371,27.7236684 L34.3225371,27.7236684 C34.4189488,27.6251578 34.4189488,27.5266473 34.4189488,27.4281369 L34.4189488,26.2460109 C34.4189488,26.1475004 34.4189488,26.0489899 34.4189488,26.0489899 L34.3225371,25.3594164 L33.2620093,18.6607026 L33.3584209,18.6607026 C34.0333023,18.4636817 34.5153604,18.2666607 34.9974185,18.0696396 L34.9974185,18.0696396 L46.0847549,16.8875137 C46.6632247,16.8875137 47.1452828,17.0845347 47.4345176,17.4785767 C47.7237525,17.8726187 47.8201641,18.4636817 47.7237525,19.0547446 L44.9278155,25.7534584 C44.6385806,26.9355843 43.4816412,27.9206893 42.3247017,27.9206893 Z M34.4189488,27.7236684 L42.3247017,27.7236684 C43.3852295,27.7236684 44.4457574,26.8370739 44.7349922,25.7534584 L47.338106,18.9562341 C47.4345176,18.4636817 47.338106,17.9711292 47.0488711,17.5770872 C46.7596363,17.1830452 46.3739898,16.9860242 45.8919317,16.9860242 L34.9010069,18.1681502 C34.5153604,18.3651711 34.0333023,18.5621922 33.3584209,18.7592131 L33.4548326,19.2517656 L34.5153604,25.8519689 C34.5153604,25.9504794 34.611772,26.0489899 34.611772,26.1475004 L34.611772,27.3296264 C34.5153604,27.5266473 34.5153604,27.6251578 34.4189488,27.7236684 Z"></path>
                                    <path d="M25.7419029,16.1979403 L25.7419029,16.1979403 C25.2598448,15.8038982 24.4885518,15.4098562 23.1387891,15.4098562 C23.1387891,15.4098562 23.1387891,15.4098562 23.0423775,15.4098562 L22.9459658,15.4098562 C22.2710845,15.4098562 21.5962031,15.5083668 20.8249102,15.7053877 L20.6320869,15.7053877 L20.6320869,15.5083668 L23.428024,3.29306517 C23.7172588,2.11093921 24.8741983,1.22434474 26.0311377,1.22434474 L32.9727745,0.0422187843 C32.9727745,0.0422187843 32.9727745,0.0422187843 32.9727745,0.0422187843 C33.5512442,0.0422187843 34.0333023,0.239239778 34.3225371,0.633281764 C34.611772,1.02732375 34.7081836,1.61838673 34.611772,2.20944971 L30.4660723,15.6068773 L30.3696607,15.6068773 C29.791191,15.5083668 29.2127212,15.4098562 28.7306631,15.4098562 C27.3809004,15.4098562 26.4167842,15.8038982 25.7419029,16.1979403 L25.7419029,16.1979403 Z M23.1387891,15.2128353 C24.4885518,15.2128353 25.3562564,15.6068773 25.7419029,16.0009192 C26.3203726,15.6068773 27.2844888,15.2128353 28.7306631,15.2128353 L28.7306631,15.2128353 C29.2127212,15.2128353 29.791191,15.3113458 30.3696607,15.4098562 L34.4189488,2.20944971 C34.5153604,1.71689723 34.4189488,1.22434474 34.1297139,0.83030276 C33.840479,0.436260771 33.4548326,0.239239778 32.9727745,0.239239778 L26.0311377,1.42136574 C24.9706099,1.42136574 23.9100821,2.30796021 23.6208472,3.39157567 L20.9213218,15.4098562 C21.6926148,15.3113458 22.2710845,15.2128353 22.9459658,15.2128353 L23.1387891,15.2128353 C23.0423775,15.2128353 23.1387891,15.2128353 23.1387891,15.2128353 Z"></path>
                                    <path d="M12.1478643,58.0649013 L12.1478643,58.0649013 C11.5693945,58.0649013 11.0873364,57.8678803 10.7981016,57.4738383 C10.5088667,57.0797963 10.4124551,56.4887333 10.5088667,55.8976704 L15.8115059,37.2791865 C17.4505034,35.1119556 18.8966778,31.9596197 19.860794,28.4132418 L19.860794,28.3147313 L19.9572056,28.3147313 C20.2464405,28.3147313 20.5356753,28.2162208 20.8249102,28.2162208 L20.9213218,28.2162208 C21.114145,28.2162208 21.3069683,28.2162208 21.4033799,28.2162208 L21.4997915,28.2162208 L21.4997915,28.2162208 C21.5962031,28.5117523 21.7890264,28.7087733 22.0782613,28.8072838 C22.4639077,29.0043048 22.7531426,29.0043048 23.0423775,29.0043048 L23.2352007,29.0043048 C23.5244356,29.0043048 23.8136704,29.0043048 24.1993169,28.8072838 L24.1993169,28.8072838 C24.4885518,28.7087733 24.7777866,28.5117523 24.9706099,28.2162208 L24.9706099,28.2162208 L24.9706099,28.2162208 C25.1634331,28.2162208 25.2598448,28.2162208 25.452668,28.2162208 L25.5490796,28.2162208 L25.5490796,28.3147313 C24.9706099,31.8611092 24.9706099,35.0134451 25.5490796,37.180676 L25.5490796,37.180676 L25.5490796,37.180676 L21.885438,53.434908 C21.5962031,54.617034 20.5356753,55.5036284 19.3787359,55.6021389 L12.1478643,58.0649013 Z M16.0043291,37.377697 L10.70169,55.8976704 C10.6052783,56.3902229 10.70169,56.8827754 10.9909248,57.2768174 C11.2801597,57.6708593 11.6658062,57.7693698 12.1478643,57.7693698 L19.3787359,55.5036284 C20.4392637,55.5036284 21.4997915,54.617034 21.7890264,53.5334184 L25.452668,37.2791865 C24.7777866,35.1119556 24.7777866,31.9596197 25.3562564,28.4132418 C25.2598448,28.4132418 25.1634331,28.4132418 25.0670215,28.4132418 C24.8741983,28.7087733 24.5849634,28.9057943 24.2957285,29.0043048 L24.2957285,29.0043048 C23.9100821,29.2013258 23.5244356,29.2013258 23.2352007,29.2013258 L23.0423775,29.2013258 C22.8495542,29.2013258 22.4639077,29.2013258 22.0782613,29.0043048 C21.7890264,28.9057943 21.5962031,28.7087733 21.4033799,28.4132418 C21.3069683,28.4132418 21.114145,28.4132418 20.9213218,28.4132418 L20.8249102,28.4132418 C20.6320869,28.4132418 20.3428521,28.4132418 20.0536172,28.5117523 C19.089501,32.0581302 17.6433267,35.2104661 16.0043291,37.377697 Z"></path>
                                    <path d="M42.3247017,27.9206893 L34.3225371,27.9206893 L34.3225371,27.8221788 C34.3225371,27.8221788 34.3225371,27.7236684 34.3225371,27.7236684 L34.3225371,27.7236684 L34.3225371,27.7236684 C34.4189488,27.6251578 34.4189488,27.5266473 34.4189488,27.4281369 L34.4189488,26.2460109 C34.4189488,26.1475004 34.4189488,26.0489899 34.4189488,26.0489899 L34.3225371,25.3594164 L33.2620093,18.6607026 L33.3584209,18.6607026 C34.0333023,18.4636817 34.5153604,18.2666607 34.9974185,18.0696396 L34.9974185,18.0696396 L46.0847549,16.8875137 C46.6632247,16.8875137 47.1452828,17.0845347 47.4345176,17.4785767 C47.7237525,17.8726187 47.8201641,18.4636817 47.7237525,19.0547446 L44.9278155,25.7534584 C44.6385806,26.9355843 43.4816412,27.9206893 42.3247017,27.9206893 Z M34.4189488,27.7236684 L42.3247017,27.7236684 C43.3852295,27.7236684 44.4457574,26.8370739 44.7349922,25.7534584 L47.338106,18.9562341 C47.4345176,18.4636817 47.338106,17.9711292 47.0488711,17.5770872 C46.7596363,17.1830452 46.3739898,16.9860242 45.8919317,16.9860242 L34.9010069,18.1681502 C34.5153604,18.3651711 34.0333023,18.5621922 33.3584209,18.7592131 L33.4548326,19.2517656 L34.5153604,25.8519689 C34.5153604,25.9504794 34.611772,26.0489899 34.611772,26.1475004 L34.611772,27.3296264 C34.5153604,27.5266473 34.5153604,27.6251578 34.4189488,27.7236684 Z"></path>
                                    <path d="M25.7419029,16.1979403 L25.7419029,16.1979403 C25.2598448,15.8038982 24.4885518,15.4098562 23.1387891,15.4098562 C23.1387891,15.4098562 23.1387891,15.4098562 23.0423775,15.4098562 L22.9459658,15.4098562 C22.2710845,15.4098562 21.5962031,15.5083668 20.8249102,15.7053877 L20.6320869,15.7053877 L20.6320869,15.5083668 L23.428024,3.29306517 C23.7172588,2.11093921 24.8741983,1.22434474 26.0311377,1.22434474 L32.9727745,0.0422187843 C32.9727745,0.0422187843 32.9727745,0.0422187843 32.9727745,0.0422187843 C33.5512442,0.0422187843 34.0333023,0.239239778 34.3225371,0.633281764 C34.611772,1.02732375 34.7081836,1.61838673 34.611772,2.20944971 L30.4660723,15.6068773 L30.3696607,15.6068773 C29.791191,15.5083668 29.2127212,15.4098562 28.7306631,15.4098562 C27.3809004,15.4098562 26.4167842,15.8038982 25.7419029,16.1979403 L25.7419029,16.1979403 Z M23.1387891,15.2128353 C24.4885518,15.2128353 25.3562564,15.6068773 25.7419029,16.0009192 C26.3203726,15.6068773 27.2844888,15.2128353 28.7306631,15.2128353 L28.7306631,15.2128353 C29.2127212,15.2128353 29.791191,15.3113458 30.3696607,15.4098562 L34.4189488,2.20944971 C34.5153604,1.71689723 34.4189488,1.22434474 34.1297139,0.83030276 C33.840479,0.436260771 33.4548326,0.239239778 32.9727745,0.239239778 L26.0311377,1.42136574 C24.9706099,1.42136574 23.9100821,2.30796021 23.6208472,3.39157567 L20.9213218,15.4098562 C21.6926148,15.3113458 22.2710845,15.2128353 22.9459658,15.2128353 L23.1387891,15.2128353 C23.0423775,15.2128353 23.1387891,15.2128353 23.1387891,15.2128353 Z"></path>
                                    <path d="M12.1478643,58.0649013 L12.1478643,58.0649013 C11.5693945,58.0649013 11.0873364,57.8678803 10.7981016,57.4738383 C10.5088667,57.0797963 10.4124551,56.4887333 10.5088667,55.8976704 L15.8115059,37.2791865 C17.4505034,35.1119556 18.8966778,31.9596197 19.860794,28.4132418 L19.860794,28.3147313 L19.9572056,28.3147313 C20.2464405,28.3147313 20.5356753,28.2162208 20.8249102,28.2162208 L20.9213218,28.2162208 C21.114145,28.2162208 21.3069683,28.2162208 21.4033799,28.2162208 L21.4997915,28.2162208 L21.4997915,28.2162208 C21.5962031,28.5117523 21.7890264,28.7087733 22.0782613,28.8072838 C22.4639077,29.0043048 22.7531426,29.0043048 23.0423775,29.0043048 L23.2352007,29.0043048 C23.5244356,29.0043048 23.8136704,29.0043048 24.1993169,28.8072838 L24.1993169,28.8072838 C24.4885518,28.7087733 24.7777866,28.5117523 24.9706099,28.2162208 L24.9706099,28.2162208 L24.9706099,28.2162208 C25.1634331,28.2162208 25.2598448,28.2162208 25.452668,28.2162208 L25.5490796,28.2162208 L25.5490796,28.3147313 C24.9706099,31.8611092 24.9706099,35.0134451 25.5490796,37.180676 L25.5490796,37.180676 L25.5490796,37.180676 L21.885438,53.434908 C21.5962031,54.617034 20.5356753,55.5036284 19.3787359,55.6021389 L12.1478643,58.0649013 Z M16.0043291,37.377697 L10.70169,55.8976704 C10.6052783,56.3902229 10.70169,56.8827754 10.9909248,57.2768174 C11.2801597,57.6708593 11.6658062,57.7693698 12.1478643,57.7693698 L19.3787359,55.5036284 C20.4392637,55.5036284 21.4997915,54.617034 21.7890264,53.5334184 L25.452668,37.2791865 C24.7777866,35.1119556 24.7777866,31.9596197 25.3562564,28.4132418 C25.2598448,28.4132418 25.1634331,28.4132418 25.0670215,28.4132418 C24.8741983,28.7087733 24.5849634,28.9057943 24.2957285,29.0043048 L24.2957285,29.0043048 C23.9100821,29.2013258 23.5244356,29.2013258 23.2352007,29.2013258 L23.0423775,29.2013258 C22.8495542,29.2013258 22.4639077,29.2013258 22.0782613,29.0043048 C21.7890264,28.9057943 21.5962031,28.7087733 21.4033799,28.4132418 C21.3069683,28.4132418 21.114145,28.4132418 20.9213218,28.4132418 L20.8249102,28.4132418 C20.6320869,28.4132418 20.3428521,28.4132418 20.0536172,28.5117523 C19.089501,32.0581302 17.6433267,35.2104661 16.0043291,37.377697 Z"></path>
                                    <path d="M42.3247017,27.9206893 L34.3225371,27.9206893 L34.3225371,27.8221788 C34.3225371,27.8221788 34.3225371,27.7236684 34.3225371,27.7236684 L34.3225371,27.7236684 L34.3225371,27.7236684 C34.4189488,27.6251578 34.4189488,27.5266473 34.4189488,27.4281369 L34.4189488,26.2460109 C34.4189488,26.1475004 34.4189488,26.0489899 34.4189488,26.0489899 L34.3225371,25.3594164 L33.2620093,18.6607026 L33.3584209,18.6607026 C34.0333023,18.4636817 34.5153604,18.2666607 34.9974185,18.0696396 L34.9974185,18.0696396 L46.0847549,16.8875137 C46.6632247,16.8875137 47.1452828,17.0845347 47.4345176,17.4785767 C47.7237525,17.8726187 47.8201641,18.4636817 47.7237525,19.0547446 L44.9278155,25.7534584 C44.6385806,26.9355843 43.4816412,27.9206893 42.3247017,27.9206893 Z M34.4189488,27.7236684 L42.3247017,27.7236684 C43.3852295,27.7236684 44.4457574,26.8370739 44.7349922,25.7534584 L47.338106,18.9562341 C47.4345176,18.4636817 47.338106,17.9711292 47.0488711,17.5770872 C46.7596363,17.1830452 46.3739898,16.9860242 45.8919317,16.9860242 L34.9010069,18.1681502 C34.5153604,18.3651711 34.0333023,18.5621922 33.3584209,18.7592131 L33.4548326,19.2517656 L34.5153604,25.8519689 C34.5153604,25.9504794 34.611772,26.0489899 34.611772,26.1475004 L34.611772,27.3296264 C34.5153604,27.5266473 34.5153604,27.6251578 34.4189488,27.7236684 Z"></path>
                                </g>
                                <polygon id="Path" fill="#FFFFFF" points="18.0289732 47.8198097 18.2217964 49.6915091 20.1500288 49.6915091 18.318208 50.873635 18.4146196 52.7453345 17.1612686 51.6617191 15.3294478 52.7453345 16.293564 50.873635 15.0402129 49.6915091 16.9684453 49.6915091"></polygon>
                                <polygon id="Path" fill="#FFFFFF" points="28.8270747 3.29306517 29.019898 5.16476461 30.9481304 5.16476461 29.1163096 6.34689057 29.3091328 8.21859002 27.9593701 7.13497452 26.1275493 8.21859002 27.0916656 6.34689057 25.8383145 5.16476461 27.7665469 5.16476461"></polygon>
                                <polygon id="Path" fill="#FFFFFF" points="41.5534087 19.6458076 41.746232 21.5175071 43.6744644 21.5175071 41.9390552 22.699633 42.0354668 24.6698429 40.6857041 23.487717 38.8538833 24.6698429 39.8179996 22.699633 38.5646485 21.5175071 40.4928809 21.5175071"></polygon>
                                <polygon id="Path" fill="#FFFFFF" points="34.5153604 32.7477037 34.7081836 34.3238716 36.3471812 34.3238716 34.8045953 35.4074871 34.9010069 36.983655 33.7440674 35.9985501 32.2014815 36.983655 33.0691861 35.4074871 31.9122466 34.3238716 33.5512442 34.3238716"></polygon>
                                <polygon id="Path" fill="#FFFFFF" points="7.90575294 20.7294231 8.09857618 22.6011225 10.0268086 22.699633 8.1949878 23.881759 8.29139942 25.7534584 6.94163673 24.6698429 5.10981592 25.7534584 6.17034376 23.881759 4.82058106 22.699633 6.84522511 22.6011225"></polygon>
                                <polygon id="Path" fill="#FFFFFF" points="26.223961 12.6515624 24.9706099 20.5324021 27.1880772 12.7500728 25.2598448 20.5324021 28.1521934 13.0456043 25.452668 20.6309126 29.019898 13.5381568 25.6454912 20.7294231 29.8876026 14.1292198 25.8383145 20.9264441 30.5624839 14.9173038 26.0311377 21.2219756 31.2373653 15.9024088 26.223961 21.4189966 31.7194234 16.9860242 26.3203726 21.714528 32.0086582 18.1681502 26.3203726 22.0100595 32.2014815 19.4487866 26.4167842 22.4041015 32.2978931 20.7294231 26.4167842 22.699633 32.2014815 22.1085701 26.3203726 23.093675 32.0086582 23.5862275 26.3203726 23.487717 31.7194234 24.9653744 26.223961 23.7832485 31.2373653 26.3445214 26.0311377 24.1772905 30.6588955 27.6251578 25.8383145 24.472822 29.8876026 28.9057943 25.6454912 24.7683535 29.1163096 29.9894098 25.452668 25.063885 28.1521934 30.9745148 25.2598448 25.2609059 27.1880772 31.8611092 24.9706099 25.4579269 26.223961 32.5506827 24.681375 25.6549479 25.1634331 33.1417456 24.3921402 25.7534584 24.1029053 33.5357876 24.1993169 25.8519689 23.0423775 33.6342982 23.9100821 25.8519689 21.9818496 33.6342982 23.6208472 25.8519689 21.0177334 33.5357876 23.428024 25.7534584 20.0536172 33.1417456 23.1387891 25.6549479 19.1859126 32.5506827 22.9459658 25.4579269 18.5110313 31.8611092 22.7531426 25.2609059 17.8361499 30.9745148 22.5603194 25.063885 17.2576802 29.9894098 22.4639077 24.7683535 16.8720337 28.8072838 22.3674961 24.472822 16.5827988 27.5266473 22.3674961 24.1772905 16.3899756 26.2460109 22.3674961 23.7832485 16.3899756 24.8668639 22.3674961 23.3892065 16.5827988 23.487717 22.3674961 23.093675 16.8720337 22.1085701 22.4639077 22.699633 17.2576802 20.7294231 22.5603194 22.4041015 17.8361499 19.3502761 22.7531426 22.0100595 18.4146196 18.0696396 22.9459658 21.714528 19.1859126 16.8875137 23.1387891 21.4189966 20.0536172 15.8038982 23.3316123 21.1234651 21.0177334 14.9173038 23.6208472 20.9264441 21.9818496 14.1292198 23.9100821 20.7294231 23.0423775 13.4396463 24.1029053 20.6309126 24.1029053 13.0456043 24.3921402 20.5324021 25.1634331 12.7500728 24.681375 20.5324021"></polygon>
                                <path d="M34.5153604,25.6549479 L34.4189488,25.2609059 L33.4548326,19.2517656 L33.0691861,16.6904927 C32.9727745,16.2964507 32.6835396,15.9024088 32.2978931,15.8038982 C30.9481304,15.3113458 29.791191,15.1143247 28.8270747,15.1143247 C28.8270747,15.1143247 28.8270747,15.1143247 28.7306631,15.1143247 C27.3809004,15.1143247 26.3203726,15.5083668 25.7419029,15.9024088 C25.1634331,15.5083668 24.2957285,15.1143247 23.0423775,15.1143247 L23.0423775,15.1143247 C23.0423775,15.1143247 23.0423775,15.1143247 23.0423775,15.1143247 C22.0782613,15.1143247 20.8249102,15.3113458 19.2823242,15.8038982 C18.9930894,15.9024088 18.7038545,16.0994297 18.5110313,16.3949612 L16.9684453,18.9562341 L13.3048037,24.9653744 L12.9191572,25.5564374 L12.8227456,25.6549479 L11.955041,27.5266473 L11.955041,27.5266473 L9.64116212,32.6491932 L12.726334,30.9745148 C15.4258594,29.4968573 18.8002661,28.6102628 20.6320869,28.5117523 L20.7284986,28.5117523 L20.9213218,28.5117523 C21.0177334,28.5117523 21.114145,28.5117523 21.2105567,28.5117523 C21.4033799,28.8072838 21.5962031,29.0043048 21.885438,29.1028153 C22.3674961,29.2998363 22.7531426,29.2998363 23.0423775,29.2998363 C23.3316123,29.2998363 23.7172588,29.2998363 24.1993169,29.1028153 C24.4885518,29.0043048 24.7777866,28.8072838 25.0670215,28.5117523 C25.1634331,28.5117523 25.3562564,28.5117523 25.452668,28.5117523 L25.5490796,28.5117523 L25.7419029,28.5117523 C27.5737237,28.5117523 30.5624839,29.3983468 32.4907163,30.8760042 L32.9727745,31.2700462 L34.4189488,32.3536617 L34.4189488,28.9057943 L34.5153604,25.6549479 L34.5153604,25.6549479 Z" id="Path" fill="#FFFFFF"></path>
                                <path d="M23.3316123,25.1623954 L23.1387891,25.8519689 C22.7531426,25.6549479 22.0782613,25.3594164 21.2105567,25.1623954 C21.2105567,25.1623954 21.114145,25.1623954 21.114145,25.1623954 C21.114145,25.1623954 21.114145,25.1623954 21.114145,25.1623954 C20.4392637,24.9653744 19.5715591,24.8668639 18.6074429,24.8668639 L18.6074429,24.8668639 L18.5110313,24.8668639 L18.318208,24.8668639 C18.318208,24.8668639 18.2217964,24.8668639 18.2217964,24.8668639 C18.2217964,24.8668639 18.1253848,24.8668639 18.1253848,24.8668639 C18.1253848,24.8668639 18.0289732,24.8668639 18.0289732,24.8668639 C18.0289732,24.8668639 17.9325615,24.8668639 17.9325615,24.8668639 C17.9325615,24.8668639 17.8361499,24.8668639 17.8361499,24.8668639 C17.7397383,24.8668639 17.7397383,24.8668639 17.6433267,24.8668639 C17.6433267,24.8668639 17.5469151,24.8668639 17.5469151,24.8668639 C17.4505034,24.8668639 17.4505034,24.8668639 17.3540918,24.8668639 C17.3540918,24.8668639 17.2576802,24.8668639 17.2576802,24.8668639 C17.1612686,24.8668639 17.064857,24.8668639 16.9684453,24.8668639 C16.9684453,24.8668639 16.8720337,24.8668639 16.8720337,24.8668639 C16.7756221,24.8668639 16.7756221,24.8668639 16.6792105,24.8668639 C16.6792105,24.8668639 16.5827988,24.8668639 16.5827988,24.8668639 C16.4863872,24.8668639 16.4863872,24.8668639 16.3899756,24.8668639 C16.3899756,24.8668639 16.293564,24.8668639 16.293564,24.8668639 C16.1971524,24.8668639 16.1971524,24.8668639 16.1007407,24.8668639 C16.1007407,24.8668639 16.0043291,24.8668639 16.0043291,24.8668639 C15.9079175,24.8668639 15.9079175,24.8668639 15.8115059,24.9653744 C15.8115059,24.9653744 15.7150943,24.9653744 15.7150943,24.9653744 C15.6186826,24.9653744 15.522271,24.9653744 15.522271,25.063885 C15.522271,25.063885 15.4258594,25.063885 15.4258594,25.063885 C15.3294478,25.063885 15.2330361,25.1623954 15.1366245,25.1623954 C15.1366245,25.1623954 15.0402129,25.1623954 15.0402129,25.1623954 C14.9438013,25.1623954 14.9438013,25.2609059 14.8473897,25.2609059 C14.8473897,25.2609059 14.750978,25.2609059 14.750978,25.3594164 C14.750978,25.3594164 14.6545664,25.3594164 14.6545664,25.4579269 L14.750978,25.3594164 L18.4146196,19.3502761 L19.9572056,16.8875137 C21.3069683,16.4934717 22.3674961,16.2964507 23.1387891,16.2964507 C24.1029053,16.2964507 24.681375,16.4934717 24.9706099,16.6904927 C25.1634331,16.7890032 25.2598448,16.8875137 25.2598448,16.9860242 C25.2598448,16.9860242 25.2598448,16.9860242 25.2598448,16.9860242 L23.3316123,25.1623954 Z" id="Path" fill="#FFFFFF"></path>
                                <path d="M24.1993169,25.8519689 L24.3921402,25.1623954 L26.1275493,17.3800662 C26.3203726,17.1830452 27.0916656,16.6904927 28.6342515,16.5919822 C29.4055445,16.5919822 30.3696607,16.6904927 31.6230118,17.1830452 L32.0086582,19.6458076 L32.9727745,25.6549479 L32.9727745,25.7534584 C32.9727745,25.7534584 32.8763628,25.7534584 32.8763628,25.6549479 C32.8763628,25.6549479 32.7799512,25.6549479 32.7799512,25.6549479 C32.6835396,25.6549479 32.6835396,25.5564374 32.587128,25.5564374 C32.587128,25.5564374 32.587128,25.5564374 32.4907163,25.5564374 C32.2978931,25.4579269 32.1050699,25.3594164 32.0086582,25.3594164 C32.0086582,25.3594164 32.0086582,25.3594164 31.9122466,25.3594164 C31.815835,25.3594164 31.815835,25.3594164 31.7194234,25.2609059 C31.7194234,25.2609059 31.6230118,25.2609059 31.6230118,25.2609059 C31.5266001,25.2609059 31.5266001,25.2609059 31.4301885,25.2609059 C31.4301885,25.2609059 31.3337769,25.2609059 31.3337769,25.2609059 C31.2373653,25.2609059 31.2373653,25.2609059 31.1409536,25.2609059 C31.1409536,25.2609059 31.044542,25.2609059 31.044542,25.2609059 C30.9481304,25.2609059 30.8517188,25.2609059 30.8517188,25.2609059 C30.8517188,25.2609059 30.8517188,25.2609059 30.8517188,25.2609059 C30.7553072,25.2609059 30.6588955,25.2609059 30.5624839,25.2609059 C30.5624839,25.2609059 30.5624839,25.2609059 30.4660723,25.2609059 C30.3696607,25.2609059 30.3696607,25.2609059 30.2732491,25.2609059 C30.2732491,25.2609059 30.1768374,25.2609059 30.1768374,25.2609059 C30.0804258,25.2609059 30.0804258,25.2609059 29.9840142,25.2609059 C29.9840142,25.2609059 29.8876026,25.2609059 29.8876026,25.2609059 C29.791191,25.2609059 29.791191,25.2609059 29.6947793,25.2609059 C29.6947793,25.2609059 29.5983677,25.2609059 29.5983677,25.2609059 C29.5019561,25.2609059 29.5019561,25.2609059 29.4055445,25.2609059 L29.3091328,25.2609059 L29.019898,25.2609059 C27.0916656,24.8668639 25.0670215,25.5564374 24.1993169,25.8519689" id="Path" fill="#FFFFFF"></path>
                                <path d="M22.5603194,26.9355843 C21.6926148,26.5415424 20.7284986,26.3445214 19.5715591,26.3445214 C20.7284986,26.4430319 21.7890264,26.6400529 22.5603194,26.9355843" id="Path" fill="#317F3E"></path>
                                <path d="M33.6476558,28.1177103 C31.9122466,27.1326054 29.5983677,26.4430319 27.477312,26.4430319 C26.4167842,26.4430319 25.2598448,26.6400529 24.2957285,27.0340949 L24.2957285,26.8370739 C25.5490796,26.3445214 26.9952539,26.1475004 28.4414283,26.1475004 C30.1768374,26.1475004 31.9122466,26.5415424 33.3584209,27.2311158 C33.4548326,27.3296264 33.5512442,27.3296264 33.6476558,27.4281369 L33.6476558,26.2460109 L33.6476558,26.2460109 L33.5512442,25.4579269 L32.587128,19.4487866 L32.2014815,16.8875137 C32.2014815,16.7890032 32.1050699,16.6904927 32.1050699,16.6904927 C30.7553072,16.1979403 29.6947793,16.0994297 28.8270747,16.0994297 C26.8024307,16.0994297 25.8383145,16.9860242 25.7419029,17.1830452 C25.6454912,16.9860242 25.0670215,16.0994297 23.1387891,16.0994297 C22.2710845,16.0994297 21.114145,16.2964507 19.5715591,16.6904927 C19.4751475,16.6904927 19.3787359,16.7890032 19.3787359,16.8875137 L17.8361499,19.4487866 L14.1725083,25.4579269 L13.6904502,26.2460109 L13.6904502,26.2460109 L13.2083921,27.4281369 C13.3048037,27.3296264 13.497627,27.3296264 13.5940386,27.2311158 C15.4258594,26.5415424 17.3540918,26.1475004 19.089501,26.1475004 C20.5356753,26.1475004 21.7890264,26.3445214 22.8495542,26.8370739 L22.7531426,27.0340949 C21.885438,26.6400529 20.9213218,26.4430319 19.7643823,26.4430319 C17.6433267,26.4430319 15.0402129,27.1326054 12.8227456,28.1177103 L11.7622178,30.4819622 L12.4370991,30.0879203 C15.4258594,28.4132418 18.9930894,27.5266473 21.0177334,27.5266473 C21.4997915,27.5266473 21.885438,27.6251578 22.1746729,27.6251578 C22.1746729,27.9206893 22.3674961,28.1177103 22.5603194,28.2162208 C22.8495542,28.3147313 23.0423775,28.3147313 23.3316123,28.3147313 C23.6208472,28.3147313 23.8136704,28.3147313 24.1029053,28.2162208 C24.3921402,28.1177103 24.5849634,27.9206893 24.681375,27.6251578 C24.9706099,27.5266473 25.3562564,27.5266473 25.8383145,27.5266473 C27.8629585,27.5266473 31.044542,28.4132418 33.2620093,30.0879203 L33.7440674,30.4819622 L33.6476558,28.1177103 Z M23.3316123,25.1623954 L23.1387891,25.8519689 C22.7531426,25.6549479 22.0782613,25.3594164 21.2105567,25.1623954 C21.2105567,25.1623954 21.114145,25.1623954 21.114145,25.1623954 C21.114145,25.1623954 21.114145,25.1623954 21.114145,25.1623954 C20.4392637,24.9653744 19.5715591,24.8668639 18.6074429,24.8668639 L18.6074429,24.8668639 L18.5110313,24.8668639 L18.318208,24.8668639 C18.318208,24.8668639 18.2217964,24.8668639 18.2217964,24.8668639 C18.2217964,24.8668639 18.1253848,24.8668639 18.1253848,24.8668639 C18.1253848,24.8668639 18.0289732,24.8668639 18.0289732,24.8668639 C18.0289732,24.8668639 17.9325615,24.8668639 17.9325615,24.8668639 C17.9325615,24.8668639 17.8361499,24.8668639 17.8361499,24.8668639 C17.7397383,24.8668639 17.7397383,24.8668639 17.6433267,24.8668639 C17.6433267,24.8668639 17.5469151,24.8668639 17.5469151,24.8668639 C17.4505034,24.8668639 17.4505034,24.8668639 17.3540918,24.8668639 C17.3540918,24.8668639 17.2576802,24.8668639 17.2576802,24.8668639 C17.1612686,24.8668639 17.064857,24.8668639 16.9684453,24.8668639 C16.9684453,24.8668639 16.8720337,24.8668639 16.8720337,24.8668639 C16.7756221,24.8668639 16.7756221,24.8668639 16.6792105,24.8668639 C16.6792105,24.8668639 16.5827988,24.8668639 16.5827988,24.8668639 C16.4863872,24.8668639 16.4863872,24.8668639 16.3899756,24.8668639 C16.3899756,24.8668639 16.293564,24.8668639 16.293564,24.8668639 C16.1971524,24.8668639 16.1971524,24.8668639 16.1007407,24.8668639 C16.1007407,24.8668639 16.0043291,24.8668639 16.0043291,24.8668639 C15.9079175,24.8668639 15.9079175,24.8668639 15.8115059,24.9653744 C15.8115059,24.9653744 15.7150943,24.9653744 15.7150943,24.9653744 C15.6186826,24.9653744 15.522271,24.9653744 15.522271,25.063885 C15.522271,25.063885 15.4258594,25.063885 15.4258594,25.063885 C15.3294478,25.063885 15.2330361,25.1623954 15.1366245,25.1623954 C15.1366245,25.1623954 15.0402129,25.1623954 15.0402129,25.2609059 C14.9438013,25.2609059 14.9438013,25.2609059 14.8473897,25.3594164 C14.8473897,25.3594164 14.750978,25.3594164 14.750978,25.4579269 C14.750978,25.4579269 14.6545664,25.4579269 14.6545664,25.4579269 L14.750978,25.3594164 L18.4146196,19.3502761 L19.9572056,16.8875137 C21.3069683,16.4934717 22.3674961,16.2964507 23.1387891,16.2964507 C24.1029053,16.2964507 24.681375,16.4934717 24.9706099,16.6904927 C25.1634331,16.7890032 25.2598448,16.8875137 25.2598448,16.9860242 C25.2598448,16.9860242 25.2598448,16.9860242 25.2598448,16.9860242 L23.3316123,25.1623954 Z M24.1993169,25.8519689 L24.3921402,25.1623954 L26.1275493,17.3800662 C26.3203726,17.1830452 27.0916656,16.6904927 28.6342515,16.5919822 C29.4055445,16.5919822 30.3696607,16.6904927 31.6230118,17.1830452 L32.0086582,19.6458076 L32.9727745,25.6549479 L32.9727745,25.7534584 C32.9727745,25.7534584 32.8763628,25.7534584 32.8763628,25.6549479 C32.8763628,25.6549479 32.7799512,25.6549479 32.7799512,25.6549479 C32.6835396,25.6549479 32.6835396,25.5564374 32.587128,25.5564374 C32.587128,25.5564374 32.587128,25.5564374 32.4907163,25.5564374 C32.2978931,25.4579269 32.1050699,25.3594164 32.0086582,25.3594164 C32.0086582,25.3594164 32.0086582,25.3594164 31.9122466,25.3594164 C31.815835,25.3594164 31.815835,25.3594164 31.7194234,25.2609059 C31.7194234,25.2609059 31.6230118,25.2609059 31.6230118,25.2609059 C31.5266001,25.2609059 31.5266001,25.2609059 31.4301885,25.1623954 C31.4301885,25.1623954 31.3337769,25.1623954 31.3337769,25.1623954 C31.2373653,25.1623954 31.2373653,25.1623954 31.1409536,25.1623954 C31.1409536,25.1623954 31.044542,25.1623954 31.044542,25.1623954 C30.9481304,25.1623954 30.8517188,25.1623954 30.8517188,25.1623954 C30.8517188,25.1623954 30.8517188,25.1623954 30.8517188,25.1623954 C30.7553072,25.1623954 30.6588955,25.1623954 30.5624839,25.1623954 C30.5624839,25.1623954 30.5624839,25.1623954 30.4660723,25.1623954 C30.3696607,25.1623954 30.3696607,25.1623954 30.2732491,25.1623954 C30.2732491,25.1623954 30.1768374,25.1623954 30.1768374,25.1623954 C30.0804258,25.1623954 30.0804258,25.1623954 29.9840142,25.1623954 C29.9840142,25.1623954 29.8876026,25.1623954 29.8876026,25.1623954 C29.791191,25.1623954 29.791191,25.1623954 29.6947793,25.1623954 C29.6947793,25.1623954 29.5983677,25.1623954 29.5983677,25.1623954 C29.5019561,25.1623954 29.5019561,25.1623954 29.4055445,25.1623954 L29.3091328,25.1623954 L29.019898,25.1623954 C27.0916656,24.8668639 25.0670215,25.5564374 24.1993169,25.8519689 L24.1993169,25.8519689 Z" id="Shape" fill="#2B7534"></path>
                                <path d="M30.6588955,23.093675 C30.7553072,22.9951645 30.8517188,22.4041015 30.9481304,22.305591 C30.9481304,22.2070805 30.9481304,22.2070805 30.9481304,22.2070805 C30.9481304,22.2070805 30.8517188,22.2070805 30.8517188,22.305591 C30.7553072,22.4041015 30.7553072,22.502612 30.6588955,22.6011225 C30.5624839,22.699633 30.3696607,22.699633 30.0804258,22.699633 L29.6947793,22.699633 C30.3696607,22.2070805 30.8517188,21.714528 31.044542,21.0249545 C31.3337769,19.9413391 30.7553072,19.1532552 29.5019561,19.1532552 C28.6342515,19.1532552 27.1880772,19.7443181 26.8988423,21.1234651 C26.8024307,21.714528 26.8988423,22.4041015 27.477312,22.699633 L26.9952539,22.699633 C26.8024307,22.699633 26.6096075,22.699633 26.5131958,22.502612 C26.5131958,22.502612 26.5131958,22.4041015 26.5131958,22.2070805 C26.5131958,22.1085701 26.5131958,22.1085701 26.5131958,22.1085701 C26.5131958,22.1085701 26.4167842,22.1085701 26.4167842,22.2070805 C26.4167842,22.305591 26.3203726,22.896654 26.3203726,22.9951645 C26.3203726,23.093675 26.4167842,23.093675 26.6096075,23.093675 C26.9952539,23.093675 27.5737237,23.093675 27.8629585,23.093675 C27.9593701,23.093675 27.9593701,23.093675 28.0557818,23.093675 C28.0557818,23.093675 28.0557818,23.093675 28.1521934,22.9951645 L28.248605,22.699633 C27.7665469,22.4041015 27.5737237,21.5175071 27.7665469,20.8279336 C27.9593701,20.1383601 28.4414283,19.2517656 29.5019561,19.2517656 C30.4660723,19.2517656 30.6588955,20.0398496 30.4660723,20.9264441 C30.2732491,21.911549 29.791191,22.4041015 29.2127212,22.699633 L28.9234864,23.1921855 C28.9234864,23.1921855 28.9234864,23.290696 28.9234864,23.290696 C29.019898,23.290696 29.019898,23.290696 29.1163096,23.290696 C29.3091328,23.290696 29.8876026,23.290696 30.2732491,23.290696 C30.5624839,23.290696 30.5624839,23.290696 30.6588955,23.093675" id="Path" fill="#2B7534"></path>
                                <path d="M21.9818496,23.1921855 C21.885438,23.1921855 21.885438,23.1921855 21.7890264,23.1921855 C21.6926148,23.1921855 21.5962031,23.093675 21.4997915,22.6011225 C21.3069683,21.8130386 21.0177334,19.6458076 20.9213218,19.3502761 C20.9213218,19.2517656 20.9213218,19.1532552 20.8249102,19.1532552 C20.7284986,19.1532552 20.7284986,19.2517656 20.6320869,19.3502761 L18.6074429,22.699633 C18.4146196,22.9951645 18.318208,23.1921855 18.0289732,23.1921855 C18.0289732,23.1921855 17.9325615,23.1921855 17.8361499,23.1921855 C17.8361499,23.1921855 17.7397383,23.1921855 17.7397383,23.1921855 C17.7397383,23.1921855 17.7397383,23.290696 17.8361499,23.290696 C18.1253848,23.290696 18.4146196,23.290696 18.4146196,23.290696 C18.6074429,23.290696 18.8002661,23.290696 18.9930894,23.290696 C19.089501,23.290696 19.089501,23.290696 19.089501,23.1921855 C19.089501,23.1921855 19.089501,23.1921855 18.9930894,23.1921855 L18.8966778,23.1921855 C18.7038545,23.1921855 18.7038545,23.093675 18.7038545,22.9951645 C18.7038545,22.896654 18.8002661,22.7981435 18.8966778,22.699633 L19.3787359,21.911549 C19.3787359,21.911549 19.3787359,21.911549 19.4751475,21.911549 L20.6320869,21.911549 C20.6320869,21.911549 20.6320869,21.911549 20.6320869,21.911549 L20.8249102,22.9951645 C20.8249102,23.093675 20.8249102,23.093675 20.7284986,23.093675 C20.6320869,23.093675 20.6320869,23.093675 20.6320869,23.093675 C20.6320869,23.093675 20.6320869,23.093675 20.7284986,23.093675 C21.114145,23.093675 21.4997915,23.093675 21.6926148,23.093675 C21.9818496,23.290696 21.9818496,23.290696 21.9818496,23.1921855 C22.0782613,23.1921855 21.9818496,23.1921855 21.9818496,23.1921855 M20.5356753,21.6160175 L19.5715591,21.6160175 C19.5715591,21.6160175 19.5715591,21.6160175 19.5715591,21.6160175 L20.3428521,20.3353811 C20.3428521,20.3353811 20.3428521,20.3353811 20.3428521,20.3353811 C20.3428521,20.3353811 20.3428521,20.3353811 20.3428521,20.3353811 L20.5356753,21.6160175 C20.6320869,21.6160175 20.6320869,21.6160175 20.5356753,21.6160175" id="Shape" fill="#2B7534"></path>
                            </g>
                        </g>
                    </g>
                </g>
            </g>
        </g>
    </g>
</svg>